<svg width="522" height="758" viewBox="0 0 522 758" fill="none" xmlns="http://www.w3.org/2000/svg">
<g clip-path="url(#clip0_1_897)">
<path fill-rule="evenodd" clip-rule="evenodd" d="M143.203 400.964C143.203 398.652 145.513 400.964 145.513 400.964C145.513 400.964 143.203 403.276 143.203 400.964ZM145.513 396.34C145.513 394.028 147.823 396.34 145.513 396.34V396.34ZM152.442 394.028C152.442 389.404 152.442 391.716 154.752 391.716C154.752 396.34 154.752 394.028 152.442 394.028ZM138.584 394.028C138.584 400.964 131.655 407.9 133.965 414.836C138.584 414.836 138.584 414.836 140.894 410.212L143.203 403.276C143.203 407.9 140.894 410.212 143.203 414.836C150.133 414.836 150.133 407.9 150.133 400.964L152.442 394.028C152.442 398.652 152.442 403.276 152.442 407.9C159.372 407.9 159.372 398.652 163.991 389.404C166.301 382.468 168.611 373.22 168.611 361.66C168.611 357.036 173.23 345.476 175.54 338.54C189.398 299.236 194.018 285.364 200.947 241.435C203.257 232.187 205.566 220.627 205.566 213.691H207.876C207.876 220.627 210.186 229.875 212.496 239.123C214.805 269.18 217.115 287.676 207.876 317.732C198.637 338.54 194.018 368.596 196.327 391.716C196.327 403.276 198.637 410.212 200.947 419.46C203.257 440.268 205.566 463.389 205.566 486.509C205.566 500.381 207.876 516.565 205.566 530.437C200.947 576.677 224.044 669.158 219.425 689.966C217.115 694.59 217.115 696.902 214.805 701.526C212.496 703.838 210.186 706.15 210.186 710.774C212.496 720.022 226.354 717.71 233.283 717.71C247.142 717.71 247.142 713.086 244.832 701.526C242.522 692.278 240.212 685.342 240.212 676.094C237.903 655.286 240.212 643.725 242.522 622.917C244.832 604.421 244.832 585.925 244.832 565.117C244.832 532.749 242.522 516.565 249.451 484.197C254.071 465.701 258.69 424.084 258.69 405.588L261 412.524C265.619 440.268 272.549 454.14 279.478 479.573C284.097 498.069 286.407 516.565 293.336 535.061C295.646 541.997 300.265 544.309 300.265 551.245C304.885 562.805 302.575 581.301 307.195 592.861C311.814 620.605 321.053 643.725 321.053 673.782C321.053 680.718 316.434 706.15 318.743 713.086C321.053 715.398 323.363 715.398 325.673 715.398C334.911 717.71 344.15 715.398 351.08 715.398C353.389 713.086 355.699 713.086 355.699 713.086C364.938 710.774 355.699 706.15 351.08 701.526C339.531 694.59 341.841 673.782 344.15 659.91C346.46 629.853 351.08 595.173 344.15 565.117C341.841 555.869 334.911 541.997 332.602 539.685C332.602 525.813 332.602 518.877 327.982 509.629C323.363 493.445 330.292 447.204 330.292 428.708C330.292 398.652 327.982 375.532 323.363 347.788C318.743 322.356 316.434 317.732 311.814 289.988C309.504 276.116 316.434 262.244 321.053 248.371C323.363 243.747 323.363 239.123 325.673 236.811C327.982 243.747 330.292 250.683 332.602 257.619C332.602 264.556 332.602 271.492 334.911 280.74C339.531 301.548 344.15 322.356 351.08 343.164C358.009 359.348 360.319 368.596 353.389 384.78C351.08 394.028 353.389 398.652 353.389 407.9C344.15 410.212 353.389 426.396 360.319 426.396C369.557 426.396 374.177 417.148 378.796 412.524C383.416 407.9 381.106 391.716 378.796 384.78C374.177 361.66 378.796 329.292 371.867 292.3C364.938 264.556 353.389 239.123 353.389 211.379C351.08 195.195 362.628 151.267 325.673 139.707C304.885 132.771 279.478 128.147 284.097 100.403C284.097 91.1546 286.407 98.0907 291.026 88.8426L295.646 77.2826C297.956 72.6586 295.646 68.0345 291.026 65.7225C295.646 58.7865 291.026 42.6024 288.717 37.9784C286.407 31.0423 277.168 26.4183 267.929 24.1063C244.832 19.4823 228.664 31.0423 228.664 51.8505C228.664 56.4745 228.664 61.0985 226.354 68.0345C221.734 77.2826 230.973 88.8426 233.283 93.4667C237.903 105.027 247.142 116.587 235.593 130.459C219.425 151.267 182.469 142.019 175.54 174.387C173.23 192.883 175.54 220.627 173.23 239.123C168.611 271.492 157.062 308.484 150.133 345.476V350.1C150.133 354.724 147.823 354.724 145.513 357.036C140.894 359.348 136.274 363.972 133.965 368.596C131.655 373.22 122.416 384.78 131.655 382.468C133.965 382.468 133.965 382.468 136.274 380.156C136.274 384.78 131.655 389.404 131.655 391.716L124.726 405.588C122.416 412.524 129.345 412.524 131.655 405.588L136.274 396.34C138.584 394.028 138.584 394.028 138.584 394.028Z" fill="#254E92"/>
<path fill-rule="evenodd" clip-rule="evenodd" d="M11.5487 387.092C11.5487 317.732 20.7876 257.62 43.885 197.507C46.1947 192.883 48.5044 188.259 50.8142 183.635C64.6726 153.579 83.1504 118.899 103.938 95.7788C106.248 93.4668 106.248 91.1548 108.558 91.1548C133.965 63.4106 159.372 40.2905 196.327 26.4185C258.69 0.986328 318.743 12.5464 374.177 54.1626C381.106 58.7866 385.726 63.4106 394.965 70.3467C399.584 74.9707 406.513 81.9067 413.443 88.8428C415.752 91.1548 415.752 91.1548 415.752 93.4668C441.159 123.523 452.708 146.643 471.186 183.635C494.283 234.5 508.142 315.42 508.142 370.908C508.142 444.893 498.903 511.941 471.186 574.365C457.327 604.421 438.85 639.102 418.062 662.222C399.584 683.03 385.726 699.214 362.628 713.086C360.319 715.398 355.699 717.71 351.08 720.022C286.407 759.326 207.876 750.078 147.823 706.15C129.345 692.278 120.106 680.718 103.938 664.534L92.3894 648.35C90.0797 643.726 87.7699 641.414 83.1504 636.79C36.9558 565.117 11.5487 472.637 11.5487 387.092ZM522 361.66V396.34C519.69 440.269 512.761 486.509 501.212 528.125C491.973 558.181 475.805 595.173 459.637 622.917C457.327 627.542 455.018 629.854 452.708 634.478C441.159 655.286 418.062 683.03 401.894 699.214C392.655 706.15 388.035 710.774 378.796 715.398C369.558 724.646 355.699 733.894 344.15 738.518C321.053 750.078 293.336 757.014 265.619 757.014H251.761C230.973 757.014 210.186 752.39 189.398 743.142C175.54 738.518 177.85 740.83 163.991 731.582C157.062 726.958 147.823 722.334 140.894 715.398L120.106 699.214C108.558 689.966 92.3894 669.158 83.1504 657.598L60.0531 622.917L41.5752 583.613C23.0973 541.997 13.8584 511.941 6.9292 465.701C0 424.084 0 410.212 0 373.22V363.972C0 338.54 2.30973 315.42 6.9292 292.3C13.8584 246.06 23.0973 216.003 41.5752 174.387C53.1239 144.331 76.2212 107.339 97.0089 84.2188C122.416 54.1626 154.752 28.7305 191.708 14.8584C217.115 3.29834 235.593 0.986328 267.929 0.986328C307.195 0.986328 351.08 19.4824 378.796 42.6025L401.894 61.0986C424.991 81.9067 455.018 121.211 466.566 148.955C478.115 167.451 482.735 181.323 491.973 202.131C510.451 252.996 519.69 306.172 522 361.66Z" fill="#254E92"/>
</g>
<defs>
<clipPath id="clip0_1_897">
<rect width="522" height="758" fill="white"/>
</clipPath>
</defs>
</svg>
