<svg width="522" height="653" viewBox="0 0 522 653" fill="none" xmlns="http://www.w3.org/2000/svg">
<g clip-path="url(#clip0_1_912)">
<path fill-rule="evenodd" clip-rule="evenodd" d="M211.079 625.578L207.909 625.733C207.771 629.297 208.742 629.297 208.2 634.099C207.864 637.12 207.569 640.219 208.763 643.007C212.652 652.148 234.587 643.782 224.496 631.079C221.059 626.818 215.54 627.205 209.148 627.98L210.742 625.888C210.847 625.777 210.959 625.674 211.079 625.578ZM232.41 621.086C231.707 620.776 229.684 620.621 228.712 619.769C230.471 617.29 228.503 617.6 236.449 617.832L262.239 617.058C284.128 615.818 347.908 615.431 368.438 618.065C369.433 621.086 373.484 628.677 373.479 629.839C373.465 632.937 372.704 634.331 373.038 638.359C373.306 641.69 372.728 641.226 372.823 642.078C373.008 643.782 372.978 642.388 373.049 642.543L372.387 641.845C371.873 641.389 371.253 641.069 370.584 640.916C370.036 640.712 369.462 640.581 368.88 640.529C368.04 640.374 366.353 640.373 365.418 640.296L344.723 639.367C349.391 637.585 363.94 638.902 370.436 638.282C368.056 635.649 356.466 636.346 352.003 636.269C337.598 635.881 311.506 635.726 297.055 636.733L333.481 637.895C322.805 639.444 308.435 637.198 302.295 639.676C302.14 639.754 301.998 639.831 301.838 639.909C299.454 640.761 293.692 640.684 290.742 640.761C282.335 640.994 250.984 639.599 246.126 642.155C248.521 645.021 255.724 644.479 259.912 643.55L251.104 642.93C260.777 642.775 276.316 641.149 285.217 642.466L280.506 644.015C284.526 644.48 287.105 643.859 290.898 643.55C291.849 643.405 292.82 643.458 293.75 643.705L299.74 645.254L272.349 645.022C273.075 644.915 273.787 644.733 274.474 644.479C274.656 644.402 275.313 644.014 275.451 643.937C275.557 643.953 275.665 643.931 275.756 643.874C275.847 643.817 275.914 643.73 275.946 643.627C276.084 643.483 276.257 643.377 276.447 643.317C272.237 643.705 242.182 646.338 237.539 643.86L245.329 643.007C235.046 641.38 232.433 644.401 229.548 644.169C232.501 637.662 229.733 632.783 226.479 627.825C226.009 627.27 225.633 626.642 225.365 625.966C226.759 624.804 226.083 626.121 226.637 623.487L232.146 623.177L232.41 621.086ZM355.621 607.685C355.525 605.206 356.446 605.671 352.991 605.361L349.439 605.748C349.711 608.305 348.78 607.53 352.537 607.917C354.157 608.072 354.26 608.305 355.621 607.685ZM325.803 603.27L324.633 606.833C328.493 607.066 333.673 608.227 337.305 607.065L337.804 604.199L333.187 603.812L332.533 606.678L330.928 603.657L325.803 603.27ZM338.527 607.375C342.056 607.297 342.581 608.227 342.9 605.129C341.437 604.277 340.731 604.432 338.735 604.509L338.527 607.375ZM323.22 606.368L324.516 603.27C322.406 602.857 320.248 602.753 318.109 602.96C315.314 603.27 315.814 603.579 314.902 605.981L323.22 606.368ZM314.902 603.037L313.107 605.981L304.82 606.446L306.036 603.037H314.904H314.902ZM294.533 601.953C290.525 601.72 278.115 601.411 275.912 600.869C272.479 599.939 262.932 597.537 259.73 597.305L260.216 605.671C275.319 605.052 288.678 606.136 303.425 606.291L304.631 602.805C290.169 601.566 298.87 603.58 292.846 604.199C293.652 602.108 293.19 604.276 294.533 601.953ZM365.377 603.347C365.7 600.017 365.532 598.235 364.382 595.291L360.024 594.749L360.403 602.495L365.377 603.347ZM349.5 592.27L349.887 601.488L355.945 602.186L356.086 593.974L349.503 592.27H349.5ZM348.697 591.805C346.761 591.186 346.606 590.566 344.621 590.799L344.407 601.256L348.797 601.411L348.697 591.805ZM338.551 586.46L334.191 588.552L333.886 600.249L338.098 600.714C338.169 599.552 338.749 589.481 340.024 588.939L339.194 600.791L343.402 600.946L343.426 590.101L338.551 586.46ZM323.498 564.539C319.858 565.623 317.855 566.785 315.891 569.031C322.501 570.968 329.889 567.172 334.523 564.771C331.602 562.99 326.908 563.454 323.498 564.539ZM301.467 566.63C302.383 565.745 303.122 564.693 303.646 563.532C296.913 562.68 284.064 561.751 278.361 564.074L301.467 566.63ZM304.355 543.857C303.206 543.004 306.177 543.005 301.634 542.617L275.534 542.85L275.088 546.646C278.54 546.568 284.577 547.497 289.437 547.73C294.422 547.962 299.47 548.195 304.479 548.04C303.914 545.638 301.951 545.794 299.021 545.639C296.38 545.561 294.068 545.484 291.378 545.329C288.558 545.174 277.838 544.089 276.399 544.244C282.208 543.392 291.711 544.322 297.886 544.864C306.251 545.639 303.719 545.096 304.357 543.857H304.355ZM327.416 448.425C329.527 444.474 328.752 441.22 327.206 437.115C326.424 435.101 324.707 429.911 323.256 428.439L320.668 430.221C321.765 433.32 323.279 436.185 324.471 439.284C325.74 442.537 326.259 445.016 327.414 448.425H327.416ZM286.978 340.133C284.616 338.971 283.372 337.809 280.92 336.57C274.292 333.317 272.371 334.092 264.138 334.556C266.649 332.852 268.335 333.472 272.258 333.007C268.054 329.831 265.315 330.915 261.936 332.465C261.33 332.711 260.766 333.051 260.265 333.472C259.831 333.718 259.462 334.062 259.186 334.478C262.842 337.887 272.644 335.873 278.656 336.338C276.084 337.732 270.889 337.267 267.446 337.422C270.789 340.908 287.699 345.633 292.229 348.499C287.747 348.19 265.401 338.817 261.633 336.725C256.406 333.782 257.927 335.331 250.908 336.88L254.249 338.894C247.795 337.732 248.23 337.19 241.259 339.281C237.243 340.443 232.275 340.521 228.765 342.147L237.117 345.943C247 350.745 282.363 362.752 290.431 362.907C292.995 362.907 291.961 362.907 294.625 363.759C297.528 364.688 298.091 364.146 298.103 364.146L298.974 363.837C286.479 354.464 255.216 344.007 253.12 342.69C260.246 343.387 267.721 348.344 272.752 348.887C274.604 349.119 272.984 348.189 277.432 350.281C278.899 350.978 280.24 351.598 281.873 352.217C285.145 353.612 288.409 354.309 291.404 355.548L283.213 353.999C289.754 357.097 304.552 366.393 310.002 367.865C308.027 362.675 297.16 349.894 293.136 344.239C290.909 341.063 290.646 341.992 286.978 340.133ZM290.676 329.366C291.072 324.099 291.706 320.148 288.193 317.36C287.088 321.852 285.625 328.049 290.676 329.366ZM290.553 340.598C288.809 339.901 278.174 335.408 278.488 333.627C278.636 332.775 278.473 333.627 278.76 333.239C280.062 331.303 279.71 334.324 279.224 332.697C276.049 332.619 270.125 331.225 267.869 329.909C273.574 325.493 276.865 332.155 285.98 334.246C281.875 331.767 274.307 328.359 273.187 326.81C279.02 325.416 274.943 327.662 280.583 328.901C279.382 327.507 278.227 327.739 277.754 325.57C277.766 325.57 279.669 322.472 282.688 326.577C287.225 332.774 287.01 330.451 290.553 340.598ZM301.171 322.937C306.952 313.719 307.086 312.635 305.028 300.473L304.121 297.452C301.52 300.55 300.827 317.592 301.171 322.937ZM275.935 322.782C275.483 320.071 272.284 317.127 270.326 314.649L268.19 312.092C268.87 316.12 271.397 323.014 275.935 322.782ZM290.715 314.881C290.924 314.493 290.952 314.88 291.358 313.409L291.836 308.219C291.893 306.05 291.893 303.649 291.853 301.402L288.127 301.867C287.999 306.747 287.828 311.86 290.715 314.881ZM287.421 302.177H283.578L284.09 311.782C284.08 308.219 284.454 310.311 286.975 308.994L287.421 302.177ZM256.932 306.98C255.451 304.268 253.165 302.332 249.085 303.572C248.775 306.05 253.232 306.437 256.932 306.98ZM291.797 330.76L292.096 323.014C293.522 321.852 293.191 322.859 295.083 321.697C295.149 317.127 291.865 319.529 292.063 312.867C292.175 309.071 293.07 305.973 292.713 301.248L298.723 299.699L296.078 330.838C294.142 331.535 293.391 331.148 291.8 330.76H291.797ZM269.85 289.629C269.172 286.685 269.522 282.889 268.371 280.875L267.324 283.354C267.26 283.509 267.039 283.741 266.991 283.896C266.462 285.058 273.59 304.888 276.833 307.677L277.658 302.177C274.824 301.247 273.999 301.325 272.924 298.769C274.432 295.438 273.827 298.924 275.092 296.445C275.887 294.973 275.491 294.509 275.271 292.959L269.85 289.629ZM170.222 279.326C169.689 277.079 168.659 275.918 167.504 274.136C166.016 275.066 165.865 275.143 165.009 277.002C167.035 278.938 166.95 278.629 170.222 279.326ZM248.231 282.579C247.541 278.629 243.287 274.136 240.156 272.432C241.205 276.46 244.892 280.1 248.231 282.579ZM273.654 281.34C281.526 283.664 288.481 271.58 293.28 269.643C292.626 272.741 290.888 273.826 286.794 276.925C281.944 280.643 279.591 282.347 273.107 285.058L271.955 278.938C280.802 276.382 283.541 269.876 287.832 268.327C284.691 275.453 274.843 277.08 273.659 281.34H273.654ZM223.748 255.468C222.789 253.609 223.39 254.693 222.026 253.144L217.224 246.792L214.155 248.187C215.904 251.053 220.15 253.531 223.747 255.468H223.748ZM238.403 260.115C237.674 256.785 235.781 253.609 234.21 251.13C233.274 249.736 232.47 248.729 231.533 247.489L228.643 244.159C229.328 250.123 234.806 258.024 238.401 260.115H238.403ZM263.896 246.405C259.996 244.081 262.252 244.313 261.598 240.363C259.269 241.215 260.375 239.898 260.088 242.531C260.123 243.723 260.219 244.913 260.375 246.095C260.63 248.264 261.038 250.413 261.597 252.524C262.802 256.862 264.52 260.116 265.837 263.911L267.934 261.975C266.357 261.82 266.583 261.975 265.698 260.426L271.095 253.609C273.307 250.743 275.2 249.271 272.84 245.63L271.678 247.179C271.6 247.257 270.974 248.806 270.903 248.961C270.137 250.898 268.984 254.539 267.65 255.933C267.205 256.321 266.719 256.658 266.2 256.94C265.154 257.25 265.454 257.094 264.902 256.862C263.842 253.376 265.878 255.778 264.578 252.137C263.29 248.574 263.681 250.278 263.896 246.405ZM148.421 243.693C151.47 244.081 150.31 244.468 151.777 242.144C152.502 240.982 153.099 240.285 153.35 238.969C150.618 239.821 148.96 240.982 148.421 243.693ZM165.396 233.391C161.089 234.476 161.037 237.342 157.321 244.081C160.502 243.926 160.888 241.603 162.057 239.666C163.391 237.7 164.511 235.596 165.396 233.391ZM169.919 246.25C171.294 246.947 170.477 246.792 171.44 248.496C173.299 245.165 170.265 249.581 175.488 245.398C177.812 243.616 177.781 244.933 181.044 243.384C182.868 242.538 184.566 241.443 186.089 240.13C187.819 238.504 188.689 237.342 191.013 236.257C188.999 238.116 189.263 237.265 188.28 239.666C190.959 239.046 192.608 238.117 195.116 237.574C202.086 236.025 198.707 234.476 210.415 226.73C214.042 224.328 229.08 216.195 233.494 216.117C234.065 223.786 234.936 223.398 221.362 231.3C218.323 233.081 215.244 234.785 212.504 236.49C190.682 250.045 204.295 241.679 183.176 249.89C179.893 251.124 176.74 252.681 173.765 254.538C170.064 256.862 168.739 258.489 166.128 261.587L149.97 273.516C138.655 280.565 125.769 283.587 113.146 293.502C109.086 296.678 101.219 304.269 97.2864 306.128C95.7911 304.686 94.4699 303.074 93.3497 301.325L105.884 288.854C129.86 267.939 153.703 268.869 168.212 251.517C169.635 249.813 169.332 249.194 169.922 246.25H169.919ZM143.127 230.603C146.564 229.054 146.055 226.11 146.957 222.082C147.791 218.555 148.186 214.939 148.134 211.315C144.993 216.117 143.967 223.864 143.127 230.603ZM138.897 232.849C141.075 231.687 141.398 231.455 141.869 228.511L143.968 208.526C142.179 209.843 142.652 209.456 141.612 214.026L138.897 232.849ZM194.551 234.785C198.175 233.856 201.729 226.729 212.047 221.385C218.353 218.054 226.985 214.104 233.941 212.012L234.373 206.358C228.88 207.674 223.195 210.463 217.529 212.167C214.657 213.019 211.779 213.794 208.955 214.491C200.349 216.428 204.04 215.111 201.978 218.209L196.057 218.131C197.245 229.363 200.357 229.905 194.551 234.785ZM149.517 209.069L148.645 221.385C149.917 218.983 153.588 213.019 153.976 210.076L149.517 209.069ZM154.826 212.399L146.973 229.054C151.981 227.349 156.573 225.877 157.538 222.392C158.645 218.441 160.495 212.554 161.008 208.836C159.313 211.005 155.869 221.152 152.742 224.483C153.311 219.913 154.631 217.357 154.826 212.399ZM127.727 211.315C127.982 215.42 127.435 223.786 128.347 226.807C128.493 227.447 128.764 228.053 129.144 228.588C130.192 230.138 129.719 229.286 130.481 229.983C132.979 223.864 128.627 213.949 133.161 206.358L127.092 203.569C126.932 207.984 126.865 209.223 130.202 211.315C129.058 211.702 129.395 210.695 127.729 211.315H127.727ZM125.801 202.407C120.574 199.386 119.238 197.217 116.676 195.59C113.567 199.928 114.818 202.329 115.893 208.061C116.81 212.864 116.894 216.427 119.348 220.068C120.408 213.174 116.952 205.737 121.138 202.252C122.439 206.047 122.36 207.984 125.975 208.604L125.801 202.407ZM164.345 210.695C164.47 210.928 164.624 211.16 164.696 211.315L165.271 212.555L170.757 191.64C166.012 194.506 169.484 203.646 165.285 208.371L166.547 200.006L162.836 208.681C163.345 204.808 164.858 202.562 165.662 198.999L163.803 201.323C162.907 202.717 163.065 202.174 162.775 203.801C162.41 205.852 162.15 207.92 161.996 209.998C162.883 209.843 160.552 211.702 162.244 209.688C162.511 209.438 162.74 209.151 162.925 208.836C162.964 208.732 163.025 208.637 163.102 208.557C163.179 208.477 163.271 208.414 163.374 208.371C162.49 212.632 158.779 221.307 158.743 223.864L162.189 222.469L164.341 210.695H164.345ZM183.335 200.935C179.432 226.033 183.746 219.061 172.057 225.413C164.072 229.751 153.976 235.561 145.31 237.729C145.118 231.378 148.408 233.546 160.489 226.73C161.043 227.737 160.379 227.969 161.845 228.666C162.584 225.8 162.814 225.722 164.858 223.553L166.463 226.575L169.871 218.441C170.091 219.448 170.026 221.617 170.848 222.779C174.732 216.195 174.763 201.245 178.477 197.294C178.471 205.118 175.704 214.413 176.391 221.927C179.233 219.138 184.377 193.886 185.065 188.464L185.97 191.253C186.25 188.077 188.081 183.739 188.127 182.964C188.446 185.908 184.599 204.653 183.623 207.597L183.869 197.682C183.636 198.756 183.459 199.842 183.337 200.935H183.335ZM135.399 183.816C132.477 181.647 127.479 178.084 122.513 181.028C122.767 182.887 123.132 182.887 123.617 184.281C123.879 184.954 124.054 185.656 124.14 186.372C124.228 186.837 124.251 187.147 124.31 187.534L131.628 190.71L135.399 183.816ZM114.55 183.273L118.772 181.647L119.522 178.161L115.679 178.084L114.55 183.273ZM193.199 197.45C193.746 193.499 196.761 175.915 195.706 173.824L186.058 218.441C191.456 215.42 192.416 203.104 193.199 197.45ZM186.595 174.908C181.674 172.429 180.564 183.739 181.613 185.675C183.996 183.196 185.661 179.555 186.595 174.908ZM200.066 169.408C196.873 172.584 195.69 190.71 194.61 196.907L190.08 223.321C190.225 224.948 190.139 224.173 190.491 224.715C192.421 221.772 191.42 221.152 192.128 218.054C192.945 214.336 193.664 216.66 194.584 212.167C195.889 205.815 201.697 171.965 200.066 169.408ZM204.059 165.845C202.922 182.886 198.716 198.921 197.829 209.843C199.496 207.907 199.864 205.505 200.578 202.794C203.676 191.02 209.735 153.451 211.414 150.74C212.307 151.592 212.937 149.5 211.657 157.092C211.24 159.57 210.9 161.894 210.523 164.295C208.934 174.21 203.199 200.47 203.259 205.892L204.698 201.864C209.067 183.506 211.477 164.219 215.435 145.55C216.326 141.367 215.59 139.973 219.053 138.733C219.864 157.324 212.027 186.14 208.083 205.892L207.599 209.301C207.58 209.533 207.568 209.766 207.552 209.921C207.537 210.075 207.521 210.308 207.509 210.463C207.497 210.618 207.496 210.85 207.469 211.082C204.24 212.244 198.959 213.174 195.62 214.336C195.954 207.519 200.549 184.281 201.959 171.732L203.101 167.007C203.304 166.536 203.636 166.133 204.059 165.845ZM211.437 141.135C208.87 142.684 206.91 144.853 206.813 149.578C210.25 147.874 211.124 145.705 211.437 141.135ZM188.273 145.86C186.313 148.881 179.607 158.563 178.61 161.739C180.325 159.725 182.983 158.409 185.246 155.62C188.853 151.128 200.359 137.339 201.267 132.382C196.999 132.15 197.627 131.452 193.667 137.881C191.82 140.902 190.186 142.916 188.273 145.86ZM345.596 130.833C345.099 128.741 345.499 129.128 341.863 126.882L340.179 125.952L340.753 130.6L345.596 130.833ZM242.53 124.481C242.53 131.53 242.046 155.078 243.975 159.106C245.897 150.663 245.928 146.867 245.497 137.726C245.093 129.128 245.716 123.629 245.919 115.728C243.415 118.749 242.528 118.981 242.53 124.481ZM219.229 98.221L218.919 94.0385C216.378 98.6862 212 107.826 209.072 111.312L212.728 112.164C213.846 109.918 214.605 107.284 215.569 104.883C218.544 97.5243 217.377 100.545 217.983 100.545C218.328 100.545 217.948 102.714 218.311 100.777C218.32 100.7 218.388 100.855 218.491 100.855L219.23 98.221H219.229ZM248.553 95.742C250.397 94.89 250.139 95.2003 251.122 93.1088L247.006 94.1157C246.267 98.2986 244.432 106.819 244.939 110.77C248.828 106.045 249.491 105.348 250.609 96.3623L248.553 95.742ZM250.708 103.179L251.87 94.5801C254.032 93.5731 254.288 92.7216 256.025 92.102C255.947 94.2149 255.434 96.2886 254.519 98.1945C253.604 100.1 252.305 101.797 250.705 103.179H250.708ZM220.495 131.684C220.086 131.181 219.731 130.636 219.438 130.058L218.784 128.741C218.738 128.664 218.668 128.431 218.579 128.276C215.832 129.903 204.853 128.818 200.679 128.663C196.336 128.586 187.075 129.438 185.239 125.1C185.793 124.79 185.212 124.945 186.746 124.558C187.283 124.417 187.829 124.314 188.38 124.248C191.428 123.861 196.59 123.938 197.434 120.453C198.718 115.108 191.126 113.946 186.675 114.411C187.562 117.199 190.302 116.579 193.287 119.368C189.999 121.847 184.583 119.756 179.668 121.925C179.542 124.946 179.779 123.551 181.068 125.952C176.384 125.642 176.174 126.03 176.915 121.15C177.295 118.671 177.915 115.65 178.998 113.636C181.859 108.369 183.931 110.538 192.922 111.855C206.291 113.714 209.18 117.276 222.365 115.495C224.334 115.262 222.198 114.721 224.118 116.115L224.689 116.579C231.963 108.059 232.434 88.1514 234.313 84.3558C235.916 89.933 234.903 94.2707 232.596 98.9184C233.861 99.848 233.525 99.2278 234.789 99.6151C234.287 106.199 230.762 110.537 228.383 116.424C226.948 119.988 224.07 127.966 221.557 130.678C220.65 131.685 221.49 130.987 220.495 131.684ZM246.689 86.2144L247.851 86.6017C242.547 99.6927 246.915 110.615 239.846 117.354C240.233 113.094 243.543 90.6297 246.69 86.2144H246.689ZM253.707 86.0594L248.834 85.905L247.653 91.6367L251.998 90.0875C252.741 86.6792 252.472 87.4537 253.707 86.0594ZM335.705 104.96C336.867 101.474 337.657 95.5098 338.317 91.6367C339.538 84.5103 340.672 83.4258 337.612 80.0175C335.636 85.7497 334.154 98.5307 333.294 105.037L335.705 104.96ZM337.492 102.326L341.007 83.2711L343.931 83.9685L339.99 106.82C336.569 105.968 336.821 106.122 337.492 102.326ZM253.707 86.0594C254.515 84.9749 254.205 84.7425 256.331 84.5101C257.951 84.3425 259.585 84.3689 261.198 84.5881C258.78 86.2922 256.72 88.0735 253.331 88.9256L253.707 86.0594ZM374.371 92.7987C377.744 90.3199 378.178 88.7711 377.586 84.7431C376.929 80.2504 380.249 80.6372 380.099 75.3698L376.673 74.5952L374.371 92.7987ZM373.421 73.6655C377.044 71.8839 374.887 79.6302 374.46 83.116C373.948 87.2214 373.314 91.4823 372.947 95.5877L368.85 95.5098C368.757 92.6437 370.063 87.7641 370.653 84.3558C371.074 81.9545 371.415 74.5951 373.421 73.6655ZM368.113 69.5602C367.798 75.2924 366.22 82.1867 365.07 87.6865C364.154 92.1018 361.77 100.623 361.74 104.496C363.837 102.637 364.424 103.721 366.721 104.573C366.461 100.467 364.001 101.242 366.31 97.3692C370.737 89.9329 369.012 84.2004 371.508 73.4333C370.49 72.039 369.191 70.8771 368.114 69.5602H368.113ZM343.066 72.1942C341.517 74.3631 341.356 76.4548 341.72 79.3208L344.343 80.2498C345.884 78.2358 346.064 74.8278 346.374 72.0391L343.066 72.1942ZM331.575 104.883C328.113 97.2144 333.519 83.2708 333.581 74.4401C332.401 76.4541 332.307 78.8561 331.405 84.7431C330.873 88.2289 330.517 92.2567 329.36 95.4327C327.432 91.8694 327.129 89.4677 327.461 84.8974C325.493 83.9679 328.914 83.3488 325.387 86.2924C324.94 82.9615 324.851 75.2148 328.382 73.2782L328.55 75.4478C328.209 77.6167 327.337 78.7783 326.801 84.0457L330.132 73.2782C332.458 73.4009 334.79 73.3233 337.102 73.046C337.326 76.2219 332.684 102.714 331.569 104.883H331.575ZM326.132 73.4333L322.936 73.7434C322.681 76.3771 322.564 78.3907 324.098 80.2498L326.131 73.4333H326.132ZM345.049 109.376C346.493 100.623 351.959 79.7851 351.667 71.8841C344.91 71.3418 348.143 72.2715 346.776 77.0741C345.872 80.2501 346.428 80.1729 346.028 82.8066C345.319 87.3768 342.702 92.1793 341.199 107.826L345.049 109.376ZM361.047 101.63C360.34 106.587 360.382 109.22 356.236 110.615L363.476 71.4968C364.163 68.1659 363.953 68.7856 367.679 68.011C365.975 79.7851 362.455 91.792 361.047 101.63ZM348.811 111.002C345.497 109.918 346.015 110.925 347.612 102.791L352.727 71.6518L357.468 70.8772C356.278 77.3065 351.023 108.291 348.811 111.002ZM350.477 111.389L358.754 70.4899L362.828 69.4052L355.02 111.467L350.477 111.389ZM296.426 76.2224L300.573 77.5386L302.533 69.2508C300.542 70.4902 300.801 70.7223 299.323 72.4265L296.426 76.2224ZM373.716 65.0676C373.435 69.1731 371.98 69.5607 376.349 70.4128L377.376 63.3633L373.714 65.0676H373.716ZM378.072 66.3067C377.199 70.5671 376.707 70.7998 380.092 72.0391L381.955 60.6522C379.387 61.969 378.765 62.8984 378.072 66.3067ZM480.987 653H475.935C465.894 649.282 396.467 652.768 390.331 647.19C382.438 646.648 376.545 645.796 367.933 646.416C361.559 646.881 351.592 645.641 344.341 645.641C337.356 645.719 300.514 645.486 297.029 646.571L305.272 646.726C297.793 649.902 281.319 645.408 268.633 646.88C258.35 647.965 239.481 645.874 231.423 647.501C229.952 647.81 230.553 647.655 229.891 648.042C239.448 648.042 250.604 646.57 259.279 648.817C244.243 649.436 231.714 648.895 216.614 650.599C212.048 651.064 211.53 649.205 208.207 648.12C200.343 645.486 184.357 650.909 177.889 646.958L194.317 646.416C194.796 645.796 193.554 646.339 192.963 644.789L199.228 644.402C195.552 643.085 193.591 638.592 193.54 633.867C193.488 628.832 194.967 626.663 198.898 624.339L200.321 623.332C197.688 622.093 197.462 619.15 196.233 618.452C195.985 618.298 162.952 612.797 144.736 601.101C140.537 598.39 133.462 595.601 134.444 589.249C144.315 583.44 159.538 600.946 188.048 602.96C199.316 603.735 209.208 605.904 220.492 605.904L254.71 605.438C255.64 599.784 254.392 590.411 256.771 585.298L257.985 583.595C258.039 583.496 258.115 583.409 258.206 583.342C258.297 583.275 258.402 583.23 258.512 583.208C259.096 590.876 257.21 592.813 263.28 594.284C264.887 594.594 266.385 594.981 267.884 595.368C275.214 597.227 276.62 596.453 280.069 597.228C285.07 598.312 290.716 598.08 295.822 598.312L297.734 593.665L297.507 598.854C300.484 598.932 304.651 599.706 306.946 598.777L309.797 587.003C309.846 591.96 308.412 594.982 308.107 599.319H316.835C318.13 596.221 318.437 590.876 320.345 588.165C320.19 593.045 318.882 595.369 318.347 599.319L325.189 599.396C326.578 596.53 325.973 592.658 326.732 589.637C327.498 586.538 326.643 588.397 328.068 586.693L327.07 599.784H331.431C331.531 599.783 331.629 599.763 331.72 599.723C331.812 599.683 331.894 599.624 331.962 599.552C332.118 599.456 332.297 599.403 332.48 599.396C333.291 596.453 332.621 594.052 332.198 591.108H331.767C327.855 591.263 330.781 587.157 324.282 584.524L322.804 590.799C321.773 589.404 321.83 591.573 322.132 588.087C322.386 585.221 324.313 584.912 321.658 582.82C317.99 584.292 321.779 584.989 316.995 586.848L317.544 581.658C317.646 581.813 319.107 581.271 318.329 584.292C319.593 582.51 318.732 584.214 319.355 582.123C317.37 581.426 318 581.426 316.251 580.574C313.35 583.13 314.754 585.531 310.166 586.848L311.707 578.405C309.428 580.264 310.036 581.27 307.072 582.2L308.071 575.461C304.102 576.623 306.98 577.32 303.483 578.327C302.063 574.919 303.919 575.771 299.007 575.074C297.341 578.56 295.451 580.496 291.216 582.046C278.101 586.771 272.583 571.976 264.707 567.715C261.919 572.131 261.354 582.432 256.527 581.193C256.012 576.778 260.942 564.384 265.179 562.68C267.908 563.92 266.186 563.609 268.301 565.081C269.463 558.42 273.561 537.195 273.07 531.541C268.46 530.611 261.586 530.921 261.819 525.963C267.105 525.266 278.327 529.759 286.216 529.526C290.484 529.449 308.034 528.132 310.619 526.738C311.052 525.731 313.936 508.612 314.478 505.668C315.666 498.831 317.197 492.057 319.065 485.373C322.971 471.895 328.19 459.192 320.812 445.713C315.623 452.453 310.771 463.374 303.178 467.557C307.379 461.205 321.141 448.58 320.062 441.066C322.928 444.474 320.774 441.066 322.501 441.066C321.784 446.333 323.488 452.22 325.682 456.48C327.679 447.959 323.253 436.418 319.442 430.608C317.697 431.461 315.581 432.157 314.591 433.784C314.565 433.862 314.498 434.017 314.479 434.094L314.335 434.559C310.591 433.319 313.473 434.094 308.227 428.672C307.253 427.665 302.003 423.327 301.69 422.165C301.623 421.974 301.495 421.811 301.325 421.7C307.549 423.714 309.07 429.833 313.696 432.467C316.794 430.685 320.362 429.136 323.903 427.2C326.709 430.918 327.31 436.341 329.545 440.291C331.846 432.235 328.248 427.51 326.086 420.926C322.059 421.7 320.912 422.862 316.192 422.475C319.174 420.306 321.449 422.165 325.067 419.764L322.38 413.412C322.869 413.676 323.267 414.081 323.525 414.574C327.447 419.531 327.235 422.784 330.854 428.439C332.347 415.271 331.771 416.123 326.873 404.891L323.638 399.004C321.638 394.124 320.314 391.8 315.561 388.934C320.228 390.328 321.897 392.575 325.083 394.666H324.434L322.678 394.511C324.177 397.222 325.699 399.933 327.278 403.264C328.701 406.285 329.786 409.616 331.482 412.172C332.942 404.968 332.427 406.363 331.037 400.088L332.788 402.877C333.485 399.236 333.611 397.532 332.699 393.814L325.75 389.941L326.581 392.574C326.452 392.461 326.338 392.331 326.243 392.187C321.27 386.455 312.863 379.949 305.564 377.78C286.812 372.125 269.151 366.16 250.996 358.879L225.832 348.189C235.804 350.048 284.379 372.512 302.301 375.378L298.808 372.59C303.538 373.674 307.017 377.47 313.058 378.786C313.738 380.103 308.456 377.547 315.513 381.808C320.589 384.829 326.077 390.251 331.906 391.723C329.942 386.145 326.169 384.596 321.528 381.575L309.464 372.977C309.435 372.892 309.388 372.814 309.328 372.747C309.267 372.68 309.194 372.627 309.112 372.59C314.958 374.991 319.868 379.639 324.778 382.04L314.99 374.062C311.323 370.189 309.014 367.864 302.468 367.555L307.437 371.66C302.057 369.259 300.612 367.245 293.482 365.618C287.937 364.379 282.484 363.604 277.237 362.055C262.624 357.733 248.337 352.375 234.486 346.02C224.992 341.76 230.529 342.535 219.86 344.084C209.351 345.556 195.446 341.76 186.146 339.204C190.125 346.021 207.419 359.266 214.732 365.154C223.749 372.357 232.754 384.983 241.272 392.807C247.674 398.771 251.891 407.215 255.619 414.883C259.833 423.636 268.011 426.193 273.447 433.474C278.117 439.748 275.493 456.635 273.361 464.614C269.416 479.409 264.975 493.662 262.75 508.845C261.578 516.901 263.68 522.245 262.143 525.034C251.166 524.879 269.727 467.247 271.068 457.874C275.676 425.573 266.258 436.727 254.71 420.306C252.954 417.749 251.499 414.264 249.952 411.01C244.23 398.926 233.639 389.399 224.408 380.336L218.29 375.301C216.922 375.301 207.509 364.844 205.535 362.83L192.736 350.745C186.953 344.703 170.094 337.113 158.581 335.718C164.95 339.436 181.816 344.161 190.038 348.421L188.346 348.964C185.522 349.583 189.385 348.499 187.351 348.964C199.207 355.161 192.589 351.985 196.112 356.942C192.081 353.766 191.61 352.217 185.734 349.428C175.218 344.548 159.156 337.964 148.356 334.323C148.005 332.929 151.196 333.859 147.582 332.852L132.049 329.676C132.926 343.231 132.58 356.167 133.239 369.568C133.96 384.286 137.564 388.082 142.074 400.166C146.138 411.01 148.263 419.608 151.169 431.305C152.01 434.636 155.716 444.396 155.809 446.255C155.989 449.973 151.749 456.713 148.744 459.269C147.196 451.058 153.247 449.973 151.638 444.861C146.807 429.369 143.966 415.348 138.918 401.327C135.152 390.87 130.751 385.061 129.909 372.822C129.29 363.759 130.292 343.076 128.775 336.26C125.648 333.781 120.2 333.084 116.006 331.148C113.395 329.908 112.352 329.134 111.371 326.81L109.072 320.768C112.309 319.451 113.448 319.993 116.765 320.845C120.74 321.775 118.701 321 122.507 318.986C122.452 319.121 122.386 319.251 122.307 319.373L121.628 320.535C121.32 320.921 121.05 321.336 120.824 321.775C130.171 324.176 130.117 325.415 144.167 328.514C152.763 330.373 160.053 332.387 169.345 333.394C178.814 334.479 186.277 334.943 195.027 337.577C203.207 340.056 210.505 342.612 219.86 340.133L231.935 337.809C230.868 329.366 229.865 317.824 229.734 309.691L234.322 331.612L232.02 327.12L232.651 337.5L238.02 336.647C237.621 333.084 236.634 328.514 235.894 324.796C235.163 321.155 234.329 318.057 234.423 314.881C234.426 314.718 234.469 314.559 234.548 314.416C235.343 319.606 237.117 323.324 237.885 331.148C238.264 335.021 237.787 334.866 239.009 336.26C242.726 335.795 241.238 336.492 241.686 334.478C242.267 331.845 238.71 319.064 237.707 316.043C237.01 313.951 235.98 311.938 235.442 309.769C240.805 323.402 240.675 317.979 242.567 335.563L246.145 334.944C246.594 325.338 241.722 316.275 238.38 309.614C244.385 316.508 245.497 323.169 247.791 334.169L251.062 333.316C249.387 325.183 244.37 315.346 240.638 309.071C243.624 311.937 245.383 316.43 247.134 319.916C248.528 322.782 251.142 330.45 252.393 331.767C253.852 329.134 248.748 321.543 247.907 318.522C252.291 323.557 252.67 329.985 254.969 331.999C256.072 330.295 255.943 329.211 255.308 327.197C253.372 320.923 252.536 319.218 248.889 313.796C246.126 309.613 247.072 309.071 242.365 306.902C241.408 306.438 238.323 304.733 237.645 304.656C234.758 304.578 237.98 304.656 235.476 305.353C235.118 305.531 234.729 305.636 234.33 305.663C233.931 305.689 233.531 305.637 233.153 305.508C232.77 301.79 231.643 301.403 228.302 299.699C224.241 297.685 227.72 299.93 225.908 297.142C224.759 295.36 225.049 295.438 222.626 295.593C223.133 297.994 223.865 296.213 224.041 298.149C222.436 298.203 220.834 297.966 219.313 297.452C220.209 296.903 220.996 296.194 221.636 295.36C222.602 293.811 222.206 293.734 221.133 292.804C220.049 293.811 218.698 295.826 218.108 296.213C215.742 297.84 215.418 295.748 214.108 297.452L217.442 293.114C219.86 291.178 219.822 292.494 220.347 288.389C217.67 286.917 220.579 289.628 215.842 286.685L207.196 281.572C209.113 279.094 211.487 282.889 212.993 282.811L215.385 281.495C213.307 280.178 209.943 278.551 209 277.002C205.084 278.319 206.737 280.721 205.991 279.171C205.903 279.285 205.841 279.418 205.811 279.559C202.837 275.221 202.925 278.629 198.749 277.002C199.244 269.101 200.065 274.059 195.86 268.559C195.86 268.559 191.361 260.426 189.21 267.165C187.805 262.827 188.328 264.221 184.785 261.82L182.887 260.426C181.822 259.728 186.186 258.722 180.231 259.806C180.732 257.172 180.768 257.559 178.364 256.63L178.457 258.721C178.44 258.799 178.386 259.031 178.364 259.109C178.008 260.503 179.021 259.341 177.722 259.96C175.075 258.643 177.752 260.038 177.127 258.876L176.224 257.249C176.205 257.122 176.159 257 176.087 256.893C176.015 256.786 175.921 256.696 175.81 256.63C173.323 261.587 176.156 257.636 171.98 259.186C174.661 265.847 174.03 261.587 174.202 267.474C174.263 269.488 174.099 267.939 174.552 269.798C174.552 269.798 172.379 268.559 171.469 271.27C174.179 273.362 172.315 272.044 175.041 272.741C175.888 272.896 175.219 272.587 176.292 273.284C181.868 276.77 173.117 272.432 177.895 274.369C178.886 272.355 179.475 272.355 178.031 269.876C177.403 268.792 177.245 268.559 176.637 267.474L174.919 264.763L178.6 264.918C179.48 272.277 183.878 270.263 187.001 268.481C187.149 268.404 187.373 268.249 187.498 268.172L188.574 267.552C187.273 272.82 189.588 266.39 188.778 269.489L187.599 271.735C186.656 271.812 182.781 271.192 184.738 273.284C186.569 275.22 186.308 273.361 189.784 273.826C190.431 278.396 190.08 278.861 194.226 280.41C192.31 279.791 192.187 279.326 191.047 279.636C190.84 279.713 190.628 279.868 190.458 279.946L189.219 280.875C191.969 282.734 191.294 284.516 195.583 283.354C196.633 283.735 197.585 284.343 198.372 285.135C198.491 285.223 198.589 285.337 198.66 285.467C198.73 285.598 198.771 285.741 198.779 285.889C198.788 286.037 198.763 286.185 198.708 286.323C198.652 286.46 198.567 286.584 198.458 286.685C198.344 286.873 198.275 287.085 198.255 287.305L204.589 288.854C205.802 291.875 204.683 289.86 207.43 292.107C208.621 293.036 207.38 291.41 208.61 293.269C206.18 294.586 207.559 294.508 204.54 295.515C206.425 297.917 204.713 296.522 207.595 297.529L215.268 298.769C210.888 299.544 205.456 295.515 202.122 299.078C205.544 300.375 209.153 301.108 212.809 301.248C222.181 301.79 217.524 302.874 221.776 303.881C223.472 302.332 222.301 302.796 223.36 300.628L226.272 301.325C224.637 302.1 224.52 303.649 223.677 305.121L217.31 304.811L204.299 303.106C204.877 310.853 205.629 326.887 203.515 333.936C203.013 325.88 205.126 308.839 203.757 302.874L198.588 302.177C198.714 313.486 199.68 321.155 197.204 331.922L198.313 301.867L194.25 301.325C194.827 310.666 194.761 320.035 194.052 329.366C191.388 322.472 196.07 307.445 193.063 301.093L187.837 300.628C187.719 307.599 189.206 325.183 187.414 330.528C184.67 322.24 190.666 302.022 185.391 300.318C183.842 302.642 184.499 326.345 183.145 331.767C182.516 320.923 184.125 310.698 184.111 300.163L180.418 299.311C179.862 307.367 180.092 316.042 177.962 323.866L176.103 328.437C175.819 328.856 175.493 329.246 175.129 329.598C177.012 319.993 178.502 315.268 179.218 304.579C179.438 301.325 180.298 299.388 177.724 298.072C177.632 298.217 177.559 298.373 177.506 298.537L176.837 300.395C176.665 301.092 176.605 301.712 176.45 302.564C174.865 310.543 169.762 321.697 165.658 328.126C166.6 318.444 175.284 311.163 176.161 297.065L169.892 295.205C169.921 300.473 168.635 304.811 166.77 309.458L169.499 294.973L163.743 293.114C163.71 300.938 162.586 306.128 159.572 312.48C156.866 318.134 154.671 323.943 148.521 324.641C159.686 317.824 166.113 293.811 162.138 290.713C159.666 289.938 157.103 290.867 155.217 291.72C153.436 298.768 153.031 303.416 149.805 309.691C146.771 315.655 144.384 321 139.09 323.246C140.011 321.852 139.149 323.014 140.197 321.929C147.348 314.803 154.087 300.628 154.188 290.713L148.784 290.093C148.435 301.402 140.257 318.289 131.717 320.458C136.642 315.733 138.79 314.648 142.528 307.599C144.906 303.106 147.897 295.205 148.428 289.783L145.169 289.938C141.98 296.367 136.67 319.993 124.165 320.303C125.663 318.909 129.143 316.973 130.766 315.578C136.538 310.853 140.692 301.48 142.402 294.276C139.885 295.98 135.064 309.536 127.62 314.416C129.495 311.008 131.647 308.839 133.97 305.43C136.003 302.5 137.809 299.419 139.37 296.213C135.524 298.769 130.896 302.177 128.346 306.205C124.237 303.649 122.274 306.747 119.471 308.839C115.567 311.628 116.082 314.726 112.573 315.191C111.147 307.6 122.623 301.868 127.358 298.149C137.936 289.861 135.471 290.868 142.339 281.805C139.499 283.509 136.15 284.438 133.277 286.297C132.111 287.072 132.758 286.53 132.099 287.227C133.443 287.847 133.057 287.15 134.655 286.918C129.907 292.805 125.521 300.551 117.558 303.184C121.906 296.678 128.718 295.438 131.442 287.227C124.722 289.318 116.542 294.353 113.193 298.072C111.567 299.853 99.0747 310.388 97.2918 310.388C93.4132 309.304 93.0593 305.663 90.0675 303.417C88.4465 302.255 86.8278 301.945 87.8308 298.924C88.8012 296.058 88.9654 297.994 92.0385 296.6C93.905 295.748 104.067 286.22 106.229 284.051C119.675 270.65 134.396 269.643 140.412 264.995C138.102 263.833 136.36 265.693 134.317 266.778C133.255 267.397 134.135 267.32 132.577 267.397C132.331 259.109 135.624 257.172 139.771 253.144C139.012 251.44 138.624 251.749 137.989 248.728C137.874 248.842 137.778 248.973 137.703 249.116L136.804 250.045C135.483 251.362 137.439 250.2 135.771 250.975C135.75 247.954 136.75 245.011 135.357 242.842C134.457 245.32 135.104 249.038 133.428 251.052C133.178 246.172 134.606 240.44 131.768 237.419C130.362 240.053 132.223 240.905 129.853 243.229C128.899 242.222 129.285 243.152 128.661 241.215C127.933 238.891 128.233 235.792 127.492 233.623C125.905 233.081 127.424 234.631 125.383 235.87C124.991 233.779 123.98 227.349 121.191 227.814C118.401 228.279 122.328 228.898 119.57 228.588C118.176 226.574 118.475 225.025 117.378 223.089C114.755 218.441 110.557 215.188 108.451 209.688C105.655 202.407 111.537 197.604 114.989 191.949C117.093 188.541 116.964 190.71 117.963 191.872L122.455 195.667C126.958 198.921 131.34 201.942 136.644 203.879C140.861 205.35 141.523 206.202 143.895 203.724C143.986 203.842 144.06 203.973 144.116 204.111C145.171 205.815 144.658 205.66 145.957 206.203L148.47 203.026C146.069 201.399 142.344 200.625 139.825 199.463C133.878 196.752 129.883 193.421 123.367 191.562C117.682 189.935 119.761 188.386 117.083 186.063C113.412 188.464 112.755 188.696 111.439 188.619L110.457 188.386C109.339 183.971 111.962 177.697 113.949 174.443L125.552 174.908C127.643 175.992 123.074 175.218 126.659 175.993C131.547 170.88 134.657 167.781 141.475 164.838C144.454 163.521 148.073 161.972 151.409 162.127C155.376 162.359 157.551 160.965 162.167 160.5C161.032 162.592 162.815 160.732 160.342 162.669C153.532 168.014 136.319 169.796 132.794 177.697C144.225 177.542 152.001 181.57 161.77 184.281C163.242 183.301 164.502 182.036 165.479 180.562C166.59 179.129 167.808 177.783 169.123 176.535C171.34 174.134 174.184 170.802 177.952 169.641C176.403 175.45 167.931 183.274 164.322 186.45C161.125 185.985 163.013 185.52 157.958 185.597C150.93 185.675 145.197 182.344 138.208 181.415C137.69 187.534 136.247 188.231 134.68 193.111C137.933 194.041 141.625 196.442 145.119 197.914C146.189 198.379 149.363 199.851 150.602 200.006C155.827 200.935 152.101 200.161 154.969 201.555C153.789 203.414 152.535 203.336 151.725 205.737L156.022 206.822L171.927 183.196C178.232 174.133 180.944 168.866 189.805 161.662C192.19 161.972 190.06 161.895 190.967 162.437C193.078 163.676 188.953 161.972 191.559 162.746C192.939 163.211 200.268 156.24 201.513 151.824C198.88 153.064 200.096 153.606 196.952 154.613C200.807 146.092 209.653 139.431 213.453 132.072L203.404 132.846C199.679 140.128 194.073 145.472 190.442 152.057C192.465 150.817 195.089 147.099 198.176 144.311C200.664 142.064 202.843 138.733 205.627 137.107C202.111 142.297 196.616 147.642 192.052 152.212C189.348 154.923 184.307 161.197 181.074 162.282C179.133 162.979 178.956 163.831 176.66 164.063C178.874 156.859 182.826 153.916 185.283 148.339C182.705 150.663 180.577 152.212 177.808 155.233C175.834 157.324 173.201 159.648 170.854 161.817C171.462 158.486 174.442 156.24 176.895 154.303C181.709 150.508 194.743 137.572 194.729 131.84C189.175 131.297 184.03 129.748 178.852 129.05C174.924 128.508 177.72 129.36 173.793 129.825C173.103 123.861 172.578 106.896 182.008 108.136C197.476 110.227 182.918 99.848 202.328 86.5246C207.733 82.8064 218.3 76.7646 226.419 78.5462C224.548 81.3348 208.963 86.5247 204.787 89.0035C197.267 93.4963 194.708 97.3692 192.984 108.214L206.46 110.538C209.956 105.89 215.289 91.6367 221.114 90.4748L219.238 98.221L221.526 95.3547C221.548 99.1503 218.24 103.798 217.076 108.136L218.712 106.045C219.019 105.495 219.292 104.925 219.528 104.341C220.568 102.017 220.07 102.327 221.815 101.087C221.196 105.115 216.817 109.376 216.955 112.629C222.14 113.094 220.59 112.087 224.18 114.411C225.434 104.263 230.24 92.024 233.13 83.116C230.622 81.9541 229.599 82.419 228.871 79.7853C230.739 76.7643 236.073 76.5318 240.348 75.3698C245.282 74.053 247.734 72.5811 252.257 74.8275C250.469 76.6091 239.727 79.3977 236.26 80.2498C237.047 84.4327 239.243 80.4824 238.183 92.1791L240.626 83.8134C240.902 96.4397 234.065 114.566 234.704 126.185C238.262 122.777 239.313 114.101 240.135 108.369C241.142 101.397 242.619 95.8976 244.228 89.3908C242.876 88.5387 242.172 90.2423 245.685 84.8974L246.702 86.2144L247.322 85.4398C249.069 83.5807 252.588 83.7357 255.594 83.5033C258.001 83.3484 260.519 83.7361 262.647 83.5812C265.644 83.4263 270.659 79.5529 276.094 76.6868C278.967 75.1376 281.161 72.969 283.414 71.1874C283.388 79.3983 276.702 79.7075 271.308 83.3482C268.682 85.1298 270.576 85.8276 267.647 87.8416C262.478 91.3273 263.61 92.5661 260.099 95.742C261.26 98.3757 260.123 95.7422 261.089 96.6717C263.087 98.5308 261.661 96.207 261.795 97.4464C258.929 99.6153 259.417 97.7566 257.338 100.623C256.177 102.249 255.856 103.411 254.607 104.96L251.335 108.678C250.105 110.227 249.047 110.925 248.728 113.017C247.972 118.129 248.617 134.938 249.22 140.515C250.519 137.882 248.923 138.888 251.144 137.726C253.115 145.782 249.12 149.888 247.263 157.634C246.009 162.824 243.585 172.816 243.252 178.238C242.722 186.914 237.908 192.646 238.3 209.378C238.409 214.103 237.598 215.343 238.398 220.223C241.657 221.307 238.312 219.061 240.222 220.223C240.759 237.187 240.021 225.568 243.354 236.955C244.147 239.666 244.758 242.455 245.425 245.088C246.053 247.567 246.535 250.82 248.595 251.517C250.222 248.806 242.393 234.631 243.666 227.272C244.692 226.652 244.131 227.195 244.724 227.272C247.844 227.272 242.4 229.054 245.455 227.272C244.586 217.667 246.069 208.913 248.006 199.928C249.943 190.942 250.866 183.351 252.343 174.133C253.035 169.873 254.654 165.613 255.102 161.507C255.708 156.007 253.244 154.226 255.088 148.184C256.346 144.156 258.054 141.29 259.165 137.03C260.199 133.002 261.12 128.586 262.22 124.868L265.204 137.881C268.505 134.551 265.204 133.311 264.206 128.044C263.372 123.551 263.061 119.136 266.806 117.664L267.27 124.636C269.065 121.615 267.431 118.206 269.919 114.488C271.214 118.516 266.867 125.565 269.02 129.903C270.806 125.952 270.263 116.734 271.565 113.558C271.936 112.706 274.952 109.298 275.774 108.291C277.328 106.277 278.228 103.953 280.47 105.735C279.671 102.636 279.554 104.031 281.012 101.397C282.866 101.94 285.316 104.728 285.958 106.897L283.139 100.08C285.835 98.9184 289.18 97.8335 292.106 96.5167C296.719 94.5801 296.381 93.651 301.131 96.2073C305.881 98.7635 304.535 98.6084 306.708 103.411C308.063 106.432 309.573 108.678 310.959 111.389C310.015 107.284 306.622 103.256 305.912 98.376C321.82 104.418 317.12 115.65 325.823 126.572C324.835 121.847 321.719 114.411 319.705 110.15C317.107 104.651 315.538 100.312 310.602 97.059C313.102 95.9746 313.615 98.0665 316.931 99.0735C315.729 95.975 312.418 94.5803 312.454 92.024C312.48 91.9493 312.494 91.871 312.495 91.7918C310.04 90.7848 309.544 91.1721 307.644 89.0807C305.76 86.9117 302.199 83.5809 299.187 82.8837C296.753 82.2641 295.753 82.1867 294.277 80.715L298.924 81.1794L292.644 78.6234C292.228 79.2431 292.708 79.398 292.644 79.7853C289.236 80.1726 283.499 80.3277 281.002 79.1657C282.017 76.9194 282.423 77.074 285.622 76.9191C285.674 76.7409 285.717 76.5597 285.749 76.3767C286.377 74.4401 285.144 74.2857 288.812 73.3561C298.789 70.8774 289.955 67.3916 300.186 66.3846C299.335 65.7649 299.713 65.9972 298.262 65.4549C297.32 65.0676 297.903 65.3776 297.699 65.2227L302.054 64.1379L299.788 66.0745C306.979 65.0675 305.392 64.8354 310.765 68.7085C313.272 70.4901 316.218 73.2788 319.767 74.2858C321.482 66.0749 322.357 74.5176 322.793 62.4336C320.857 65.3772 322.164 70.335 317.542 70.8772C315.76 68.4759 316.44 66.3073 316.556 63.0539C315.417 63.9835 316.633 62.899 315.464 64.2158C312.406 67.7791 312.991 66.4618 310.042 64.9125C308.451 63.983 309.219 64.6025 307.757 63.9829C304.849 62.666 302.33 60.4977 299.028 59.5682C298.459 60.7301 299.073 58.8707 299.089 60.4199C299.094 60.8847 299.352 60.5745 299.028 61.2717C293.026 62.5111 289.981 66.1521 287.82 69.7153C279.058 70.4899 276.947 63.6733 270.803 66.2295C268.58 67.1591 267.187 68.8634 264.211 69.8704C261.79 70.7225 258.136 70.9544 256.267 72.1163C258.175 74.6725 261.13 73.8982 262.163 76.6868C255.951 80.2501 251.936 73.5111 251.729 70.2577C255.053 67.1592 261.012 67.3141 265.3 65.2227C271.281 62.2792 271.774 60.5745 278.472 63.9829C279.193 64.2927 285.016 65.997 285.83 66.0745C291.066 66.6167 291.441 56.3145 303.696 57.7088C303.596 51.8217 304.177 46.6315 307.633 43.0683C311.886 38.7304 310.994 37.1043 313.223 30.1328C315.552 22.9289 319.734 10.2248 327.905 8.36568C326.774 10.6121 324.987 11.6189 323.242 14.0202C313.293 27.421 314.253 37.2587 312.079 41.1317C310.225 44.4626 309.62 41.3641 308.087 46.554C306.615 51.589 302.329 56.3148 307.963 60.3428C309.454 58.4062 307.783 59.4128 308.954 57.1664L310.894 54.6875C312.268 51.7439 311.585 51.6671 313.599 49.1109C313.134 51.3572 312.268 52.6738 312.759 55.3849L314.947 49.8076L314.036 58.5606C314.352 57.631 314.376 57.1667 315.154 56.7019C317.312 55.54 314.283 56.624 315.904 56.624C317.359 56.7015 315.639 57.1669 316.492 56.857C316.912 53.2938 317.532 47.7936 321.396 47.4837L321.104 53.3712C322.335 52.3642 321.537 53.2933 322.641 51.7441L324.556 48.0261L327.753 47.6388L328.387 49.7304C328.426 50.3316 328.52 50.9278 328.667 51.5119L330.627 44.9276H334.576C334.808 49.1106 333.414 50.0398 334.744 55.0748C335.162 54.3776 335.015 54.8424 335.221 53.5256C335.782 50.0398 333.582 45.702 337.957 44.6175L338.886 47.5616C338.983 48.3362 338.983 49.575 339.006 50.4271C339.068 52.7509 339.102 55.0752 339.053 57.4765C339.005 59.8004 338.917 62.1238 338.756 64.3702C338.617 66.3842 338.159 68.2437 339.871 69.0958C341.867 66.2297 340.188 59.955 340.069 56.7791C339.929 52.9835 339.798 48.8783 340.864 45.47L341.734 52.5966C341.84 52.4286 341.921 52.2458 341.974 52.0542L342.418 50.4271C342.619 48.3356 341.692 46.9416 342.255 44.9276C344.877 50.8147 343.107 59.2583 344.088 65.7651C344.156 66.348 344.296 66.9198 344.505 67.4686L344.979 68.4762C346.198 67.0045 345.479 64.7575 345.023 62.4336C343.474 54.61 345.34 55.7725 343.962 43.6886C348.888 43.1463 345.659 44.9276 349.286 42.6038L354.518 40.8995C356.088 39.1953 355.998 38.9628 358.639 38.0333C359.651 42.0613 363.729 55.4622 365.944 57.941C365.886 51.899 362.846 46.7867 361.006 41.4419C360 38.4983 359.754 38.8083 358.421 36.9493C356.9 37.8013 356.181 38.4986 354.153 39.0409C355.889 34.703 362.084 33.0762 363.857 38.1112L363.531 34.6254L368.555 33.1533L371.808 36.6391C371.072 34.3153 370.759 34.7805 371.18 32.0693C377.64 36.0973 379.2 45.6249 382.017 52.4416C382.897 54.6105 382.226 53.0608 382.737 53.9129C382.465 47.4836 379.995 43.2232 377.81 38.0333C374.118 29.2027 374.43 30.2876 379.456 24.9427C379.565 25.0367 379.688 25.1148 379.819 25.175L382.648 26.7242L383.287 23.5486C384.979 24.6198 386.389 26.0806 387.401 27.809C386.968 21.8444 382.961 22.2317 378.888 19.2882C386.763 18.5136 387.84 23.006 390.022 29.048C394.377 41.0546 402.587 45.2378 389.197 55.6951C381.804 61.5047 383.493 57.4761 382.226 68.6305L387.234 69.7925C387.095 65.1527 387.928 60.5352 389.68 56.2367C391.55 58.7155 392.513 71.8841 388.462 77.3064C382.937 84.7427 379.478 82.4961 378.154 91.4817L383.065 91.0172C383.011 87.454 383.04 85.5173 384.62 83.116C386.047 85.2849 387.414 90.6302 386.046 93.2639C384.514 95.5877 380.797 94.9674 378.181 94.9674C375.087 99.5377 376.864 99.3054 369.514 99.3829C371.254 105.425 370.512 109.221 363.574 107.982C361.508 113.017 355.955 116.657 348.303 114.875C342.499 113.481 339.054 109.453 333.025 108.756C332.571 118.671 344.579 123.861 349.973 128.818C349.72 132.691 347.022 134.706 344.862 137.804C334.837 152.057 336.397 146.015 328.628 148.262C323.02 149.888 324.063 154.536 323.529 156.395C322.088 161.43 319.632 153.993 317.808 164.295C317.094 168.323 317.016 172.197 316.324 176.148C314.984 183.816 311.739 188.773 310.303 196.984C307.902 197.914 307.716 197.295 306.06 199.773C303.704 203.337 302.127 205.118 301.738 209.378C301.364 213.561 301.364 211.315 300.073 214.181C297.904 219.061 295.271 230.835 294.869 236.8C296.864 239.666 297.633 238.814 298.498 242.454C299.788 247.954 297.868 258.101 302.875 263.601C306.631 267.707 309.071 263.059 309.294 282.811C309.356 288.311 310.084 284.593 311.581 288.544C311.605 292.417 306.56 292.572 307.56 297.762C308.31 301.713 309.646 304.578 310.235 309.148C311.23 316.894 308.909 315.113 307.007 319.528C305.436 323.092 307.902 329.134 305.113 331.922L305.556 324.021C305.164 324.394 304.85 324.842 304.634 325.338L299.406 333.859C297.449 333.781 297.217 335.176 295.825 336.957C295.784 336.859 295.761 336.754 295.756 336.647C295.723 336.545 295.695 336.442 295.673 336.338C295.058 335.021 294.32 335.021 292.202 334.789C294.719 341.063 317.56 371.892 319.711 373.829C325.976 379.251 332.552 381.885 335.634 390.406C338.667 398.849 333.853 439.284 331.2 448.966C328.849 457.642 327.57 467.015 325.295 475.613C323.014 484.289 320.712 492.887 318.861 501.795C312.51 532.083 318.247 529.139 306.476 531.618C307.383 538.279 310.931 557.026 306.678 561.518C304.355 560.356 305.791 560.743 304.122 558.729C298.944 558.497 293.345 558.265 288.163 558.265C284.608 558.187 281.063 558.657 277.652 559.659L273.664 560.046C271.771 563.532 272.502 565.313 269.752 568.025C271.688 569.264 272.61 570.736 274.267 571.821C276.56 573.292 278.708 572.595 281.801 572.672C287.484 572.905 291.907 573.912 297.846 573.37C295.108 570.891 289.84 570.504 286.213 570.116C281.915 569.651 277.578 569.419 273.279 568.954C273.689 568.571 274.193 568.303 274.74 568.18C275.233 567.956 275.754 567.8 276.289 567.715C277.253 567.559 278.228 567.481 279.204 567.482C281.581 567.327 283.873 567.328 286.252 567.405C290.564 567.56 294.734 568.024 299.047 567.87C294.295 566.32 275.426 566.166 272.661 564.074C281.903 561.286 287.023 562.912 296.452 562.06C293.431 561.673 290.738 561.285 287.519 561.053L280.491 560.511C278.051 559.814 279.485 560.433 278.057 559.349C285.069 559.581 300.739 560.588 306.538 562.602C306.192 564.539 304.421 567.87 303.833 570.039C307.849 572.285 307.91 572.13 310.533 570.193C309.929 566.63 308.023 567.715 308.416 563.068L310.62 565.313C313.191 564.616 310.255 565.159 312.979 563.764L313.032 566.63C313.911 564.539 314.155 560.589 315.593 558.497L317.324 557.103C317.423 556.793 317.706 556.871 318.176 556.871L315.784 566.708C320.453 564.074 330.814 559.349 336.767 564.307C334.499 569.419 334.444 567.018 329.973 569.109C332.296 568.8 335.299 567.793 337.231 568.722C333.471 571.123 326.627 570.968 322.439 573.215L323.189 573.834C323.291 573.912 323.454 574.067 323.569 574.144C323.803 574.362 324.068 574.544 324.354 574.687C328.556 577.398 338.857 582.201 340.577 583.982L341.119 584.757C344.475 588.475 361.126 590.644 366.042 591.728C372.488 593.045 370.913 600.481 372.203 605.748C372.991 606.136 371.912 605.903 373.778 606.213C375.182 606.445 373.486 606.213 374.961 606.291C375.784 606.368 377.26 606.291 378.167 606.291C411.457 606.136 402.464 610.241 438.974 598.932C444.677 597.15 452.46 593.277 457.974 593.044C460.666 595.523 461.898 598.699 459.282 601.953C458.898 602.422 458.48 602.862 458.032 603.27C453.499 607.607 444.58 607.995 437.932 610.009C432.262 611.713 426.902 613.34 421.066 614.812C415.212 616.361 408.373 616.516 403.237 617.755C402.385 618.297 398.961 624.494 397.337 625.966C397.453 626.043 397.64 626.198 397.733 626.276C397.826 626.353 398.018 626.508 398.133 626.586L402.575 629.219C403.91 630.558 404.939 632.17 405.592 633.945C408.108 641.304 404.014 642.698 403.991 646.339C408.027 645.951 408.216 646.106 409.523 644.015C410.505 642.466 408.439 641.381 411.647 641.768C411.515 642.93 411.26 644.17 410.983 645.951L477.791 646.493C477.206 646.57 475.87 646.571 475.224 646.571H469.465C465.79 646.571 462.24 646.803 458.705 646.88C471.567 647.965 513.671 647.655 521.998 651.606C513.774 651.838 504.897 649.437 497.47 649.669C490.684 649.979 499.086 650.134 493.687 650.986C487.584 651.993 480.794 650.909 474.562 651.374C477.762 651.683 479.04 651.141 480.986 653H480.987ZM125.094 632.163L123.855 641.149L129.711 640.916L129.923 632.55L125.096 632.163H125.094ZM141.675 632.86L137.248 632.937L136.738 641.071H142.121L141.675 632.86ZM147.522 632.55L143.247 632.86L143.17 641.149L147.515 640.838L147.521 632.55H147.522ZM151.454 631.543L148.538 632.085L148.446 640.993L152.396 641.071L151.456 631.543H151.454ZM135.654 641.071C135.935 633.712 138.308 633.093 131.247 632.783L130.669 641.071H135.654ZM119.313 630.613L117.212 641.071L122.898 640.993L123.75 631.621L119.316 630.613H119.313ZM136.611 620.543L137.103 629.219L141.876 629.142L141.017 621.938L136.611 620.543ZM151.077 625.346C147.888 624.654 144.77 623.669 141.763 622.403L142.843 629.297L146.793 628.987L146.922 625.578C147.159 626.353 147.343 627.051 147.577 627.593C148.524 629.839 147.567 627.747 148.356 629.064L151.397 628.755L151.078 625.346H151.077ZM135.99 629.142C136.043 627.36 136.421 622.248 135.849 620.853C135.193 619.304 135.467 619.847 133.361 618.84C132.249 618.298 131.419 617.91 130.491 617.523L131.092 629.374L135.99 629.142ZM113.932 599.164C110.982 607.298 93.9925 604.742 87.5094 600.869C75.4778 593.587 71.7928 584.679 70.4661 583.44C65.9377 584.059 62.8491 593.045 59.673 599.396C57.1706 604.432 53.3795 612.72 53.1418 619.149C56.4604 620.543 64.0565 621.628 68.4169 623.1C80.515 627.128 98.5294 637.972 108.767 639.289C111.383 635.881 112.17 626.818 112.231 622.015C114.1 631.543 111.203 632.705 110.092 639.599C111.964 640.563 114.091 640.915 116.174 640.606C117.119 636.811 117.83 634.254 117.747 629.994C115.763 628.599 115.048 629.219 113.698 626.895C115.712 627.205 116.043 627.515 117.781 626.818L117.842 620.466C118.901 622.867 118.911 624.339 118.872 627.515L123.879 627.902L124.576 622.945C125.108 628.832 123.661 628.6 130.003 628.987L129.77 619.769C128.454 619.149 130.478 618.995 128.826 620.234C128.728 620.311 128.698 622.247 128.014 620.931C127.845 621.068 127.692 621.224 127.558 621.396L128.609 615.974C125.779 616.748 127.501 616.903 124.427 618.142C124.945 614.966 126.392 614.27 125.362 611.868C123.104 613.263 122.723 614.734 120.227 616.129C121.577 612.101 123.51 612.72 123.999 608.924C121.091 610.861 120.856 612.642 117.503 612.952C117.869 611.473 118.52 610.079 119.417 608.847C119.667 608.451 119.963 608.087 120.299 607.762C121.461 606.523 121.295 607.685 121.937 606.059C117.682 606.988 118.826 606.213 115.786 607.685C115.776 607.685 112.428 608.382 116.456 605.981C114.12 606.678 114.257 605.981 113.844 605.748C115.356 602.418 115.068 603.192 118.491 602.031L114.986 595.911C113.754 597.15 115.015 596.22 112.991 597.305C111.907 597.925 112.63 597.77 111.157 598.002C108.274 598.545 100.972 595.911 97.1323 595.601C102.071 598.89 108.08 600.164 113.928 599.164H113.932ZM108.87 596.608C99.4333 591.961 84.9381 589.094 75.5669 583.904C76.3809 586.657 78.0946 589.057 80.4337 590.721C81.9695 591.728 106.931 596.531 108.868 596.608H108.87ZM108.217 591.031C106.204 590.798 99.0886 587.08 96.0348 585.996C91.3438 584.214 87.2941 583.285 82.6363 581.968C88.4628 580.109 99.2962 586.615 104.884 587.622C98.4807 584.989 90.866 580.186 83.874 577.707C81.7605 579.504 80.007 581.686 78.7066 584.136C94.5207 585.221 103.33 594.284 112.984 595.756C110.715 592.502 109.512 593.355 108.22 591.031H108.217ZM108.217 591.031C109.553 591.459 110.793 592.143 111.868 593.044L114.037 594.827C114.155 594.904 114.36 595.059 114.46 595.136C114.56 595.214 114.84 595.678 114.92 595.523C115 595.369 115.234 595.756 115.216 595.911L114.792 588.552C112.482 587.158 109.708 586.538 107.38 585.453C101.943 582.897 90.7761 577.243 85.7567 577.088C88.0445 579.102 96.7977 582.277 100.421 584.136C103.922 585.918 112.106 589.559 113.773 591.65C110.995 591.728 110.119 591.031 108.135 590.256C108.486 589.714 108.058 589.714 108.221 591.031H108.217ZM119.586 567.56C116.051 564.152 103.43 557.723 97.8231 555.709L94.4929 561.751L105.95 568.335C109.007 570.039 114.577 573.06 118.379 573.757C113.263 568.257 102.408 566.166 95.9923 561.208C106.102 561.518 113.722 571.433 120.575 570.968C118.949 569.961 118.073 568.644 115.837 567.405L98.0888 558.729C105.624 559.349 112.517 565.701 119.591 567.56H119.586ZM196.105 356.942C203.514 361.125 212.013 374.758 218.201 381.575C220.052 383.589 219.548 381.342 221.193 382.349C220.371 392.729 219.101 402.954 218.261 413.334C217.127 427.432 220.02 432.08 218.603 444.241C217.902 450.283 220.429 455.551 218.697 460.353C217.148 464.691 214.031 466.86 211.661 469.881C201.74 482.662 191.428 494.669 183.052 508.302C178.589 515.661 174.072 521.393 169.441 527.9C166.857 531.54 164.548 534.174 162.203 537.893C159.778 541.766 158.349 544.941 156.008 548.272C153.96 551.216 144.09 567.405 142.604 568.025C136.74 568.644 136.342 563.919 130.474 562.215L129.101 564.152C123.652 573.679 114.423 585.841 119.55 597.383C121.48 592.038 121.535 587.932 126.985 586.151C127.596 594.439 126.113 596.763 124.689 603.889C129.35 605.593 136.01 607.22 140.945 608.692C139.967 609.389 140.957 609.002 139.43 609.389C136.874 609.932 130.881 608.072 127.687 608.072C129.12 612.565 132.959 615.199 137.087 616.98C145.381 620.544 158.37 621.473 161.483 627.748C163.48 631.853 163.597 637.972 163.776 642.93L171.056 642.388C169.009 642.93 167.634 643.007 165.66 643.394C161.121 644.401 164.368 644.479 161.115 646.184C158.141 645.099 157.601 643.859 152.929 644.944L56.9848 647.655C54.0007 647.577 49.7046 647.733 46.8809 647.19C43.6165 646.648 42.9078 646.183 38.5544 646.028C33.3592 645.874 23.2197 646.648 18.8052 645.951C15.1388 645.332 17.5497 644.711 9.81345 644.711C6.53894 644.711 3.27142 644.557 -0.00927734 644.634C0.154138 644.557 0.370996 644.48 0.501883 644.402C0.684194 644.382 0.86146 644.329 1.02543 644.247C1.21574 644.229 1.40119 644.176 1.57299 644.092C7.46524 642.93 15.89 643.627 21.9418 643.394C44.1787 642.62 66.9299 643.007 89.1296 641.613C86.0317 639.522 81.1222 638.67 77.2359 637.275C73.5184 635.881 69.9798 634.487 66.349 632.86C59.4265 629.827 53.0717 625.636 47.5578 620.466C48.4965 618.142 48.4151 619.924 49.4096 617.291L52.5075 606.988C54.2041 602.838 56.1134 598.78 58.2278 594.827C61.0825 589.172 67.623 572.13 75.4468 582.975C76.4474 579.799 80.2355 575.926 82.1593 573.447C86.6094 567.715 90.5632 560.279 94.7353 554.082C96.3369 551.68 98.4241 549.589 99.5758 546.723C100.406 544.709 99.0972 546.103 100.466 544.012C103.861 543.857 106.755 547.342 110.348 549.279C116.947 552.842 124.567 555.476 131.436 558.807C134.942 560.511 138.611 562.835 141.323 563.996C143.047 562.137 146.004 556.638 147.393 554.392L164.518 527.512C163.027 529.139 162.248 530.146 160.191 531.075C162.349 527.28 163.992 526.66 166.485 523.717C174.144 514.731 176.454 512.795 183.51 501.176C188.872 492.267 204.895 472.205 211.938 463.839C218.528 456.015 213.956 452.142 215.212 442.769C215.89 437.657 215.84 435.643 214.848 430.686C213.91 426.038 214.951 422.32 214.347 419.066C213.921 416.743 211.012 412.947 209.855 410.856C204.65 401.096 202.954 401.638 198.953 396.138C200.634 403.265 213.63 416.355 209.627 424.334C208.44 422.475 208.332 418.292 207.536 415.736L204.296 408.067C202.298 402.722 198.187 400.011 196.978 393.659C199.865 394.124 197.984 393.814 199.289 394.589L200.927 395.983C199.124 392.11 195.364 388.159 194.377 384.364C199.161 386.068 210.859 412.637 214.567 416.2C214.822 412.792 214.916 409.229 215.075 405.743C215.372 399.314 217.95 395.828 214.075 389.399C210.093 382.815 206.13 375.921 201.533 370.033L192.08 359.421C192.048 359.294 192.032 359.164 192.032 359.034C193.456 358.801 194.36 359.964 195.271 360.893C201.271 367.245 208.401 371.505 212.439 380.026C208.849 378.321 207.135 373.751 204.238 371.117C203.256 370.188 204.275 370.885 202.936 370.111C204.289 372.589 205.187 373.364 206.809 375.611L216.613 392.032C218.519 388.082 218.964 384.363 216.337 380.8C214.317 378.012 212.108 375.224 209.888 372.512C208.582 370.886 207.44 370.189 206.115 368.639L196.098 356.942H196.105ZM353.912 27.809C353.57 28.2737 353.489 27.421 352.848 29.5125C352.642 30.4006 352.586 31.3171 352.683 32.2237L355.698 31.682L353.912 27.809ZM338.062 0C335.764 2.4013 333.4 2.24653 332.674 5.96468C338.416 5.19007 337.742 -0.929386 345.65 3.64084C345.747 3.79576 345.814 4.02784 345.863 4.10531C349.426 12.781 360.397 18.5136 363.117 29.7455L359.658 30.4422C358.729 29.5901 353.76 19.2877 352.378 16.8864C351.153 14.7175 349.745 12.6264 348.403 10.6124C346.621 8.05614 346.097 6.35154 342.68 5.49946C343.286 10.2144 344.139 14.8948 345.236 19.5204C347.242 26.4145 349.703 29.2807 346.889 31.2947C345.102 30.2877 345.363 27.9636 345.036 25.5623C344.51 21.6117 343.956 22.6189 343.409 20.295C342.925 18.2036 342.718 9.37299 342.712 6.7393C331.886 8.67583 335.706 26.2596 333.1 31.1397C331.059 20.7598 334.581 16.7314 336.962 8.98522C334.375 9.91476 331.985 16.1891 330.816 19.0552C329.443 22.3861 328.469 29.8225 327.775 31.2168C325.882 28.2733 327.746 22.6965 328.085 19.2882C326.174 21.612 325.785 23.7035 324.771 27.0343C324.384 28.3512 323.982 30.2101 322.957 30.7523C320.371 32.1467 323.077 27.654 320.961 31.2947C322.897 32.9214 325.262 32.0692 328.353 33.8508C325.248 36.4845 323.055 31.3722 319.916 33.6186C318.899 34.3932 317.948 38.1112 317.931 39.2731C317.841 45.7799 338.084 38.6536 342.509 38.6536C346.39 38.6536 339.308 38.0339 344.013 39.0409C345.314 39.2733 343.466 39.7377 345.703 39.118C348.351 38.3434 346.155 39.4277 347.753 37.4137C350.076 34.3927 347.822 38.5755 354.181 36.0967C364.47 32.0687 361.525 34.47 365.145 32.9983C373.55 29.6674 374.551 26.7245 370.102 20.8374L363.613 12.8583C372.312 18.5904 374.528 22.8511 376.392 23.6257L378.304 21.9994C377.195 18.9009 377.082 20.76 375.882 16.1897C374.488 10.9224 367.494 9.37284 362.793 7.74614C359.255 6.4293 356.19 4.87992 352.497 3.33069C348.716 1.704 344.865 1.31684 341.561 0H338.054H338.062ZM233.15 305.508C232.767 301.79 231.639 301.403 228.299 299.699C224.238 297.685 227.717 299.93 225.905 297.142C224.756 295.36 225.046 295.438 222.623 295.593C223.13 297.994 223.862 296.213 224.038 298.149C222.433 298.203 220.831 297.966 219.31 297.452C220.205 296.903 220.993 296.194 221.633 295.36C222.599 293.811 222.203 293.734 221.13 292.804C220.046 293.811 218.695 295.826 218.105 296.213C215.739 297.84 215.415 295.748 214.104 297.452L217.439 293.114C219.857 291.178 219.819 292.494 220.344 288.389C217.667 286.917 220.576 289.628 215.839 286.685L207.193 281.572C209.11 279.094 211.484 282.889 212.99 282.811L215.382 281.495C213.304 280.178 209.94 278.551 208.997 277.002C205.081 278.319 206.734 280.721 205.988 279.171C205.9 279.285 205.838 279.418 205.808 279.559C202.833 275.221 202.922 278.629 198.746 277.002C199.241 269.101 200.062 274.059 195.857 268.559C195.857 268.559 191.358 260.426 189.207 267.165L188.568 267.552C187.267 272.82 189.582 266.39 188.772 269.489L187.592 271.735C186.65 271.812 182.774 271.192 184.732 273.284C186.563 275.22 186.301 273.361 189.778 273.826C190.425 278.396 190.074 278.861 194.22 280.41C192.304 279.791 192.18 279.326 191.04 279.636C190.834 279.713 190.622 279.868 190.452 279.946L189.213 280.875C191.963 282.734 191.288 284.516 195.577 283.354L194.755 281.108C199.155 281.185 206.162 287.304 209.475 288.776L204.584 288.854C205.797 291.875 204.677 289.86 207.425 292.107C208.616 293.036 207.374 291.41 208.605 293.269C206.175 294.586 207.554 294.508 204.534 295.515C206.419 297.917 204.708 296.522 207.59 297.529L215.262 298.769C210.883 299.544 205.45 295.515 202.116 299.078C205.538 300.375 209.148 301.108 212.804 301.248C222.175 301.79 217.518 302.874 221.77 303.881C223.466 302.332 222.295 302.796 223.355 300.628L226.266 301.325C224.632 302.1 224.514 303.649 223.672 305.121L233.151 305.508H233.15ZM148.216 460.973C141.01 464.304 125.699 490.563 122.455 500.091C121.061 504.196 119.45 508.07 117.392 511.013C112.815 517.52 106.955 521.393 103.501 530.301C102.049 534.019 98.854 538.977 99.1699 542.462C106.09 541.688 103.963 533.554 112.146 522.942C117.589 515.97 120.958 513.569 124.942 503.189C133.006 482.275 139.589 479.409 145.747 466.55C146.289 465.388 147.845 461.515 148.216 460.973ZM89.4208 613.34C88.1716 615.121 88.7594 614.734 86.4995 614.114C81.7372 612.797 81.978 612.487 75.6025 611.403C71.0811 610.628 62.6911 608.537 59.2687 611.094C59.8674 614.347 61.7029 613.65 65.3282 613.805C70.8937 614.037 84.5772 615.741 88.1197 619.227L86.1525 624.494C88.359 622.868 88.1661 621.86 89.1048 619.381C91.2145 620.079 96.0101 621.55 97.6837 623.022C97.7418 627.515 96.2734 628.754 94.8848 631.93C98.064 630.304 98.0834 627.36 98.8911 623.255L104.055 625.578C104.008 629.839 103.013 631.698 101.692 635.261C104.839 633.402 104.436 629.839 105.338 625.966C107.551 625.811 108.306 626.121 109.798 624.882C104.936 621.396 105.949 625.501 104.703 618.065C104.505 618.762 104.553 619.227 104.393 619.769C104.021 621.086 104.248 620.776 103.668 621.396C100.106 619.769 98.1871 620.156 97.7542 615.276C96.7125 618.375 98.0346 616.903 96.6459 618.297C95.1783 617.833 93.555 617.29 92.126 616.67C89.7794 615.663 89.8243 616.128 89.4239 613.34H89.4208ZM189.206 267.165C187.801 262.827 188.324 264.221 184.78 261.82L182.883 260.426C181.817 259.728 186.181 258.722 180.226 259.806C180.727 257.172 180.764 257.559 178.359 256.63L178.452 258.721C178.436 258.799 178.382 259.031 178.359 259.109C178.004 260.503 179.017 259.341 177.718 259.96C175.071 258.643 177.747 260.038 177.122 258.876L176.219 257.249C176.201 257.122 176.154 257 176.082 256.893C176.011 256.786 175.916 256.696 175.806 256.63C173.318 261.587 176.151 257.636 171.975 259.186C174.656 265.847 174.026 261.587 174.198 267.474C174.258 269.488 174.094 267.939 174.547 269.798C174.547 269.798 172.374 268.559 171.464 271.27C174.175 273.362 172.31 272.044 175.037 272.741C175.883 272.896 175.214 272.587 176.287 273.284C181.864 276.77 173.112 272.432 177.891 274.369C178.881 272.355 179.47 272.355 178.027 269.876C177.398 268.792 177.241 268.559 176.633 267.474L174.914 264.763L178.595 264.918C179.475 272.277 183.873 270.263 186.996 268.481C187.144 268.404 187.369 268.249 187.493 268.172L188.57 267.552L189.209 267.165H189.206ZM252.575 139.198C251.749 131.297 249.085 127.734 253.35 121.614L259.566 112.551C261.163 109.375 260.418 110.228 262.492 108.833C260.882 131.684 262.126 118.981 258.643 124.945C256.149 129.206 255.193 135.558 252.573 139.198H252.575ZM183.238 133.389C175.155 141.445 178.819 137.107 171.728 147.177C169.059 151.05 163.704 158.873 157.388 158.873C158.247 152.909 162.316 154.923 169.119 144.621C171.311 141.29 177.68 130.29 183.238 133.389ZM250.786 122.931L250.435 111.467C250.526 111.51 250.606 111.574 250.667 111.656C250.727 111.737 250.766 111.832 250.781 111.932L251.523 114.178L252.478 111.777C253.539 113.558 252.899 115.263 253.988 112.706C254.719 110.925 254.015 111.622 253.691 109.143C256.624 107.439 252.057 111.312 255.462 109.143C255.623 107.594 255.59 106.199 256.653 105.037C257.587 104.03 257.908 104.573 257.856 105.348C258.394 103.334 261.523 96.5944 263.712 99.538C264.249 96.4395 263.873 96.6719 266.284 96.4395C264.085 100.855 253.33 120.995 250.786 122.931ZM295.222 434.171C290.643 434.869 281.332 433.165 277.951 434.714C280.409 437.347 284.224 435.798 288.205 436.65C284.889 438.122 283.514 435.178 283.237 439.826C288.487 432.932 303.27 446.953 310.57 448.114C307.075 443.002 289.793 437.502 289.174 435.721C293.153 435.101 294.764 435.953 297.334 434.714C294.741 430.608 282.249 429.214 280.166 430.841C281.992 431.693 285.555 431.383 287.864 431.77C290.524 432.235 293.363 432.7 295.222 434.171ZM296.208 88.5383C296.156 85.5173 293.146 84.6657 290.11 84.7431C280.972 84.8206 273.879 86.2146 272.479 97.9887C277.886 96.9817 275.089 93.4961 277.728 89.2357C279.142 89.0808 278.167 91.7142 281.069 90.0875C282.941 89.0805 281.106 88.6931 284.987 88.3832C288.906 88.1508 292.46 88.9256 296.208 88.5383ZM203.921 463.994C201.772 466.163 199.756 468.409 197.493 470.423C194.599 473.057 185.769 481.036 184.632 483.747C183.196 487.078 186.547 482.895 181.29 488.705C180.53 489.349 179.944 490.175 179.587 491.106C184.275 487.697 189.542 481.733 193.022 478.712C198.449 473.987 200.308 470.268 203.923 463.994H203.921ZM398.458 641.536C399.216 635.959 397.343 633.325 391.896 633.79C393.742 636.656 396.062 635.416 394.889 638.437C394.732 638.923 394.476 639.372 394.139 639.754C389.809 638.515 394.458 638.282 389.724 637.663C389.555 643.163 394.897 644.789 398.454 641.536H398.458ZM398.458 641.536C399.216 635.959 397.343 633.325 391.896 633.79C393.742 636.656 396.062 635.416 394.889 638.437C394.732 638.923 394.476 639.372 394.139 639.754C389.809 638.515 394.458 638.282 389.724 637.663C389.555 643.163 394.897 644.789 398.454 641.536H398.458ZM109.891 311.24C104.765 313.486 103.989 319.761 105.489 325.648C108.318 322.86 109.429 314.803 109.891 311.24ZM222.565 638.67C213.397 643.085 213.651 636.655 216.281 636.965C216.409 636.965 218.723 638.979 219.541 634.486L216.134 633.324C217.53 632.492 219.179 632.19 220.78 632.473C222.329 634.797 222.957 635.339 222.562 638.67H222.565ZM262.523 77.5386C265.968 77.1513 266.404 76.1443 266.985 72.8909C264.253 73.9754 263.039 74.3627 262.52 77.5386H262.523Z" fill="#254E92"/>
</g>
<defs>
<clipPath id="clip0_1_912">
<rect width="522" height="653" fill="white"/>
</clipPath>
</defs>
</svg>
