<svg width="414" height="530" viewBox="0 0 414 530" fill="none" xmlns="http://www.w3.org/2000/svg">
<g clip-path="url(#clip0_1_916)">
<path fill-rule="evenodd" clip-rule="evenodd" d="M270.569 123.3C183.839 95.5996 90.756 129.3 38.356 203.5C-15.406 279.5 -12.575 383.599 46.456 454.599C103.78 523.499 199.913 547 282.999 515.4C362.284 485.2 412.872 406.6 413.454 322.3C412.825 231 357.239 151 270.569 123.3ZM243.645 521C151.038 538.2 47.469 480.7 15.84 386C-15.154 293.2 27.287 189.6 111.825 142.3C201.063 92.2996 314.425 120.7 372.871 203.4C397.038 237.6 409.443 279 409.732 320.8C409.062 417.8 339.306 503.1 243.645 521ZM263.045 147.5C186.905 123.1 105.184 152.8 59.183 217.9C11.983 284.7 14.469 376 66.296 438.3C116.618 498.8 203.274 519.5 276.218 491.7C345.824 465.2 391.858 396.2 392.37 322.2C391.817 242.1 339.133 171.8 263.045 147.5ZM239.408 496.599C158.108 511.799 67.186 461.199 39.417 378.099C12.207 296.699 49.465 205.7 123.682 164.2C202.026 120.3 301.55 145.2 352.858 217.8C374.073 247.8 384.968 284.2 385.218 320.8C384.632 406.1 323.394 480.999 239.408 496.599ZM40.126 310.599C34.814 384.699 79.419 452.1 148.226 479.4C218.826 507.5 300.693 485.3 345.604 424.8C389.217 366.1 388.881 283.2 347.891 223.4C308.775 166.3 236.409 139.8 169.533 155.5C97.319 173.5 45.433 236.499 40.126 310.599ZM360.365 255.599C391.821 325.799 366.101 419 297.177 462.3C229.643 504.7 139.393 490.9 85.6629 432.9C28.9459 371.7 29.645 276.3 83.9539 214C106.405 188.3 136.848 170.5 169.854 162.3C246.894 144.1 327.868 183.099 360.365 255.599ZM398.196 264.099C399.153 257.999 395.274 254 390.779 250.4C382.103 243.4 371.908 241.3 366.569 230.4C362.845 222.8 363.812 211.1 374.625 214C377.448 214.837 379.929 216.554 381.708 218.9C382.901 220.547 383.434 222.579 383.201 224.599C382.717 231.499 370.421 228 374.822 224.2C375.079 223.937 375.242 223.598 375.288 223.233C375.333 222.869 375.258 222.499 375.074 222.181C374.889 221.864 374.606 221.616 374.267 221.474C373.927 221.333 373.551 221.307 373.196 221.4C364.54 224.4 375.475 233.9 381.507 232.7C385.745 231.8 386.901 226 386.64 222.5C386.303 218.1 382.379 214.6 378.89 212.4C371.731 207.8 361.231 210.1 361.72 220C362.061 227.601 365.283 234.787 370.73 240.099C378.871 248.299 396.992 250.1 397.663 264C397.675 264.3 398.147 264.399 398.194 264.099H398.196ZM397.441 259.3C401.511 263.9 400.367 269.4 398.501 274.8C394.901 285.4 387.369 292.499 388.701 304.599C389.637 313.099 396.665 322.4 404.306 314.2C406.257 311.968 407.421 309.158 407.619 306.2C407.743 304.179 407.114 302.184 405.854 300.599C401.744 294.999 393.244 304.6 398.993 305.5C400.635 305.7 400.725 308.3 399.099 308.7C390.219 310.9 394.384 297 400.12 294.7C404.143 293.2 408.209 297.499 409.873 300.599C411.973 304.499 410.514 309.6 408.762 313.3C405.126 321 395.019 324.6 390.143 316C386.375 309.392 385.267 301.596 387.043 294.2C389.52 282.9 403.92 271.699 397.02 259.599C396.875 259.399 397.228 259 397.441 259.3ZM210.507 122.9C205.007 120.1 200.017 122.5 195.185 125.7C185.866 131.8 180.776 140.899 168.737 142.599C160.331 143.799 149.583 139.2 155.587 129.8C157.303 127.392 159.723 125.575 162.514 124.599C164.447 123.978 166.544 124.122 168.375 125C174.805 127.6 167.648 138.2 165.385 132.8C165.216 132.477 164.946 132.22 164.615 132.067C164.285 131.914 163.913 131.874 163.558 131.954C163.203 132.034 162.884 132.228 162.651 132.508C162.418 132.787 162.284 133.136 162.269 133.5C162.359 142.6 174.769 135.199 175.504 129.099C176.022 124.799 170.863 121.9 167.453 121C163.107 120 158.577 122.6 155.395 125.3C148.877 130.7 147.819 141.4 157.385 144C164.703 145.979 172.5 145.122 179.213 141.599C189.581 136.399 196.834 119.7 210.279 123.4C210.556 123.5 210.786 123 210.507 122.9ZM205.717 122.099C211.386 119.699 216.203 122.5 220.817 125.9C229.73 132.6 234.224 142 246.126 144.5C254.441 146.2 265.461 142.399 260.071 132.599C258.54 130.049 256.236 128.053 253.494 126.9C251.599 126.2 249.517 126.2 247.622 126.9C241.035 129.1 247.5 140.1 250.1 134.9C250.287 134.585 250.573 134.34 250.914 134.206C251.255 134.071 251.631 134.055 251.982 134.158C252.334 134.261 252.641 134.479 252.855 134.776C253.069 135.073 253.178 135.433 253.165 135.8C252.489 144.9 240.583 136.7 240.243 130.5C240.001 126.2 245.343 123.7 248.792 123C253.192 122.3 257.546 125.2 260.549 128C266.712 133.9 267.079 144.599 257.367 146.599C249.937 148.181 242.183 146.819 235.736 142.8C225.723 137 219.559 119.799 205.902 122.599C205.63 122.699 205.428 122.199 205.717 122.099ZM148.635 131.7C142.535 130.7 138.559 134.599 134.935 139.099C127.957 147.799 125.916 158 114.987 163.3C107.361 167 95.747 166.1 98.547 155.3C99.372 152.445 101.125 149.947 103.528 148.2C105.149 146.971 107.19 146.432 109.207 146.7C116.126 147.2 112.595 159.5 108.788 155C108.517 154.756 108.174 154.606 107.811 154.573C107.448 154.54 107.084 154.627 106.774 154.818C106.464 155.01 106.224 155.296 106.09 155.635C105.957 155.975 105.937 156.348 106.034 156.7C108.944 165.3 118.444 154.4 117.254 148.4C116.419 144.1 110.618 143 107.121 143.2C102.659 143.6 99.173 147.5 96.96 151C92.43 158.1 94.734 168.7 104.632 168.2C112.232 167.87 119.409 164.608 124.655 159.099C132.913 150.999 134.645 132.9 148.573 132.2C148.859 132.2 148.944 131.7 148.635 131.7ZM143.842 132.4C148.484 128.3 153.919 129.5 159.381 131.4C169.918 135 177.092 142.5 189.181 141.2C197.616 140.2 206.92 133.2 198.781 125.5C196.533 123.577 193.731 122.421 190.781 122.2C188.755 122.077 186.756 122.719 185.181 124C179.581 128.1 189.145 136.6 190.015 130.9C190.085 130.536 190.278 130.205 190.56 129.965C190.843 129.724 191.199 129.587 191.57 129.575C191.941 129.563 192.305 129.679 192.602 129.901C192.899 130.124 193.112 130.44 193.205 130.8C195.376 139.6 181.505 135.5 179.284 129.7C177.722 125.7 182.007 121.6 185.1 120C189.053 117.9 194.1 119.299 197.831 121.099C205.486 124.699 209.161 134.8 200.531 139.7C193.953 143.493 186.166 144.603 178.79 142.8C167.465 140.3 156.306 125.9 144.184 132.8C144.131 132.845 144.062 132.867 143.992 132.862C143.923 132.857 143.858 132.824 143.813 132.771C143.768 132.718 143.745 132.648 143.751 132.579C143.756 132.509 143.789 132.445 143.842 132.4ZM92.499 159.099C86.411 160.099 83.821 165 81.768 170.4C77.809 180.9 79.021 191.199 70.279 199.599C64.171 205.499 52.824 208.199 52.153 197.099C52.0854 194.131 52.9788 191.22 54.7 188.8C55.8668 187.131 57.6382 185.983 59.638 185.599C66.368 183.899 66.8059 196.7 61.8289 193.7C60.403 192.8 58.71 194.799 59.713 196.099C65.154 203.499 70.813 190.1 67.813 184.7C65.713 181 59.835 181.6 56.59 183C52.444 184.7 50.347 189.5 49.323 193.5C47.223 201.7 52.661 211 61.923 207.5C69.0233 204.806 74.8354 199.516 78.183 192.7C83.521 182.4 79.567 164.6 92.607 159.7C92.6663 159.668 92.714 159.617 92.7433 159.556C92.7725 159.496 92.7818 159.428 92.7699 159.361C92.7579 159.295 92.7253 159.233 92.6767 159.186C92.628 159.139 92.5659 159.109 92.499 159.099ZM88.177 161.3C91.332 156 96.856 155.4 102.628 155.5C113.757 155.7 122.913 160.599 133.993 155.599C141.728 152.099 148.405 142.6 138.303 137.8C135.568 136.672 132.549 136.427 129.668 137.099C127.694 137.627 125.989 138.876 124.891 140.599C120.84 146.199 132.561 151.299 131.607 145.599C131.572 145.236 131.658 144.871 131.853 144.561C132.047 144.252 132.339 144.016 132.682 143.89C133.025 143.765 133.4 143.757 133.748 143.867C134.097 143.977 134.399 144.199 134.607 144.5C139.417 152.3 124.934 152.6 121.054 147.8C118.324 144.5 121.141 139.3 123.571 136.7C126.68 133.5 131.925 133.4 136.023 133.9C144.423 135 151.043 143.5 144.34 150.8C139.223 156.387 132.172 159.819 124.618 160.4C113.083 161.6 98.018 151.299 88.624 161.599C88.5792 161.645 88.5199 161.673 88.4565 161.679C88.393 161.686 88.3293 161.67 88.2763 161.635C88.2234 161.599 88.1844 161.546 88.1663 161.485C88.1482 161.424 88.152 161.358 88.177 161.3ZM47.6 202.599C42.111 205.499 41.166 210.9 40.883 216.7C40.328 227.8 44.675 237.3 38.972 248C34.988 255.5 25.023 261.6 20.939 251.2C19.9678 248.388 19.9209 245.34 20.805 242.5C21.4343 240.587 22.7601 238.98 24.519 238C30.403 234.3 34.769 246.3 29.101 245C28.7438 244.944 28.3782 245.008 28.0612 245.181C27.7441 245.355 27.4934 245.629 27.3481 245.96C27.2028 246.291 27.1711 246.661 27.2579 247.011C27.3447 247.362 27.5451 247.675 27.828 247.9C35.277 253.2 36.5369 238.799 32.0229 234.599C28.8589 231.699 23.488 234.1 20.811 236.4C17.392 239.3 16.88 244.5 17.147 248.7C17.685 257.1 25.727 264.3 33.44 258C39.3779 253.3 43.2824 246.498 44.346 239C46.238 227.5 36.991 211.799 47.866 203.099C47.9142 203.056 47.9465 202.997 47.9577 202.933C47.9689 202.869 47.9584 202.803 47.9279 202.746C47.8973 202.688 47.8485 202.643 47.7891 202.617C47.7297 202.59 47.6631 202.584 47.6 202.599ZM44.168 206.099C45.529 199.999 50.602 197.799 56.114 196.099C66.75 192.799 76.9899 194.7 85.9779 186.5C92.2549 180.8 95.651 169.6 84.578 168.2C81.629 167.948 78.677 168.649 76.156 170.2C74.4507 171.281 73.2065 172.955 72.664 174.9C70.555 181.6 83.29 182.8 80.606 177.7C80.4586 177.363 80.4267 176.987 80.5154 176.631C80.604 176.274 80.8081 175.957 81.096 175.728C81.3838 175.5 81.7392 175.373 82.1066 175.368C82.474 175.363 82.8328 175.48 83.127 175.7C90.105 181.6 76.427 186.4 71.265 183C67.636 180.7 68.705 174.9 70.239 171.7C72.199 167.7 77.139 165.899 81.196 165.099C89.517 163.599 98.4339 169.599 94.3139 178.599C91.2195 185.538 85.571 191.018 78.542 193.9C67.929 198.6 50.442 193.5 44.686 206.2C44.575 206.5 44.099 206.399 44.168 206.099ZM18.332 257.9C13.978 262.3 14.772 267.8 16.283 273.3C19.192 284.1 26.245 291.7 24.141 303.7C22.662 312.1 15.06 320.9 7.96198 312.3C6.17608 309.936 5.19474 307.062 5.16196 304.099C5.15615 302.064 5.91612 300.1 7.29096 298.599C11.747 293.299 19.6179 303.4 13.8159 303.9C12.1639 304 11.916 306.599 13.516 307.099C22.235 309.799 18.971 295.699 13.388 293.099C9.46897 291.299 5.12596 295.3 3.28796 298.3C0.929964 302.1 2.05895 307.199 3.58795 311.099C6.71395 318.999 16.572 323.3 21.988 315C26.1583 308.662 27.7627 300.976 26.476 293.5C24.74 282 11.093 269.9 18.741 258.3C18.794 258.245 18.8233 258.172 18.8225 258.096C18.8216 258.021 18.7907 257.948 18.7365 257.895C18.6822 257.842 18.6092 257.813 18.5333 257.814C18.4574 257.815 18.385 257.846 18.332 257.9ZM16.123 262.2C15.56 256.1 19.68 252.3 24.399 249C33.499 242.6 43.818 241.199 49.837 230.599C54.043 223.299 53.826 211.6 42.863 213.7C39.9946 214.401 37.4137 215.973 35.475 218.2C34.1775 219.769 33.5137 221.766 33.614 223.8C33.65 230.7 46.152 228 42.003 223.9C41.7634 223.627 41.622 223.281 41.6013 222.919C41.5805 222.556 41.6816 222.196 41.8885 221.897C42.0953 221.598 42.396 221.378 42.7429 221.269C43.0898 221.161 43.4629 221.172 43.803 221.3C52.266 224.7 40.734 233.5 34.791 231.9C30.617 230.8 29.839 225 30.318 221.5C30.944 217.1 35.083 213.8 38.709 211.8C46.142 207.8 56.484 210.799 55.348 220.599C54.5392 228.145 50.86 235.091 45.072 240C36.418 247.8 18.216 248.3 16.665 262.2C16.6569 262.266 16.6249 262.327 16.575 262.371C16.5251 262.415 16.4606 262.44 16.394 262.44C16.3273 262.44 16.2629 262.415 16.213 262.371C16.163 262.327 16.131 262.266 16.123 262.2ZM7.55496 319.5C4.76296 325 7.21697 330 10.375 334.8C16.467 344.1 25.536 349.2 27.233 361.3C28.41 369.7 23.908 380.5 14.496 374.4C12.0491 372.738 10.2221 370.311 9.30096 367.5C8.65583 365.596 8.77523 363.517 9.63397 361.7C12.227 355.2 22.829 362.399 17.463 364.599C17.1346 364.773 16.8722 365.049 16.7159 365.386C16.5595 365.723 16.5178 366.103 16.5972 366.466C16.6766 366.828 16.8727 367.155 17.1554 367.396C17.4382 367.637 17.7921 367.779 18.163 367.8C27.302 367.7 19.837 355.2 13.727 354.5C9.43796 354 6.55097 359.199 5.71997 362.599C4.65097 366.899 7.31095 371.499 9.94595 374.599C15.352 381.199 26.062 382.199 28.646 372.599C30.6683 365.296 29.8189 357.496 26.272 350.8C21.079 340.4 4.37195 333.2 8.04895 319.7C8.07547 319.634 8.0749 319.561 8.04733 319.496C8.01976 319.431 7.96749 319.379 7.90198 319.352C7.83647 319.326 7.7631 319.327 7.69803 319.354C7.63295 319.382 7.58148 319.434 7.55496 319.5ZM6.78998 324.3C4.35098 318.6 7.11798 313.8 10.583 309.2C17.257 300.3 26.643 295.7 29.108 283.8C30.823 275.5 27.018 264.5 17.24 269.9C14.6854 271.417 12.706 273.738 11.612 276.5C10.8479 278.354 10.8292 280.432 11.56 282.3C13.74 288.9 24.783 282.5 19.577 279.9C19.2648 279.709 19.0238 279.421 18.8911 279.08C18.7583 278.739 18.741 278.363 18.8419 278.011C18.9428 277.66 19.1563 277.35 19.4496 277.132C19.743 276.913 20.1 276.796 20.466 276.8C29.584 277.5 21.33 289.4 15.193 289.7C10.882 290 8.32995 284.6 7.71295 281.2C6.93595 276.8 9.87595 272.4 12.713 269.4C18.523 263.2 29.28 262.899 31.241 272.599C32.7966 280.017 31.4457 287.749 27.4669 294.2C21.618 304.3 4.48096 310.399 7.29096 324.099C7.35195 324.399 6.91398 324.6 6.79398 324.3H6.78998ZM16.325 381.4C15.368 387.5 19.243 391.499 23.741 395.099C32.415 402.099 42.6149 404.099 47.9409 415.099C51.6619 422.699 50.703 434.3 39.89 431.5C37.0413 430.666 34.5516 428.906 32.814 426.5C31.6051 424.899 31.067 422.891 31.314 420.9C31.796 413.9 44.089 417.5 39.688 421.3C39.4279 421.555 39.2614 421.89 39.2155 422.252C39.1695 422.613 39.2468 422.98 39.4348 423.292C39.6228 423.604 39.9105 423.844 40.2515 423.972C40.5924 424.101 40.9668 424.11 41.314 424C49.974 421.1 39.039 411.6 33.003 412.8C28.766 413.6 27.616 419.4 27.873 422.9C28.205 427.4 32.13 430.899 35.622 433.099C42.778 437.599 53.2869 435.3 52.7859 425.4C52.4484 417.829 49.2285 410.674 43.7859 405.4C35.643 397.1 17.518 395.4 16.858 381.5C16.847 381.2 16.372 381.1 16.325 381.4ZM17.075 386.2C13.009 381.6 14.147 376.1 16.018 370.7C19.612 360.1 27.149 352.9 25.812 340.8C24.878 332.4 17.854 323.1 10.212 331.2C8.2937 333.452 7.13315 336.251 6.89496 339.2C6.7405 341.224 7.37309 343.23 8.66095 344.8C12.771 350.4 21.273 340.9 15.522 340C13.875 339.8 13.789 337.2 15.415 336.8C24.295 334.6 20.13 348.5 14.395 350.7C10.371 352.3 6.29497 348 4.63797 344.9C2.53797 341 3.99096 335.9 5.76096 332.2C9.38696 324.5 19.504 320.8 24.367 329.5C28.1295 336.073 29.2384 343.836 27.4669 351.2C24.9979 362.6 10.602 373.7 17.495 385.9C17.638 386.1 17.284 386.4 17.075 386.2ZM43.788 437.599C44.759 443.699 49.674 446.3 55.067 448.3C65.479 452.3 75.811 451.1 84.258 459.8C90.158 465.9 92.8269 477.3 81.6809 478C78.7211 478.005 75.8316 477.098 73.407 475.4C71.7818 474.213 70.6514 472.468 70.232 470.5C68.554 463.7 81.332 463.3 78.322 468.3C78.1618 468.626 78.1137 468.996 78.1851 469.352C78.2565 469.709 78.4433 470.031 78.7167 470.27C78.9901 470.509 79.3348 470.652 79.6974 470.676C80.0599 470.699 80.42 470.602 80.722 470.4C88.056 464.9 74.7219 459.3 69.3499 462.3C65.5779 464.4 66.275 470.3 67.604 473.5C69.304 477.7 74.104 479.8 78.111 480.8C86.319 482.9 95.5979 477.5 92.0659 468.2C89.4126 461.081 84.1343 455.249 77.315 451.9C67.02 446.6 49.243 450.5 44.315 437.5C44.213 437.2 43.735 437.299 43.788 437.599ZM45.977 441.9C40.677 438.8 40.077 433.2 40.177 427.4C40.332 416.3 45.284 407.099 40.277 396.099C36.777 388.299 27.228 381.6 22.477 391.7C21.3305 394.454 21.09 397.501 21.79 400.4C22.2981 402.365 23.5124 404.074 25.201 405.2C30.839 409.2 35.97 397.5 30.232 398.4C29.8685 398.434 29.504 398.346 29.1959 398.15C28.8877 397.954 28.6533 397.662 28.5294 397.319C28.4056 396.976 28.3993 396.6 28.5116 396.253C28.6239 395.905 28.8485 395.606 29.15 395.4C36.921 390.6 37.25 405.1 32.481 409C29.135 411.7 23.94 408.9 21.405 406.5C18.181 403.4 18.005 398.1 18.537 394C19.623 385.6 28.103 379 35.401 385.7C41.0084 390.8 44.4631 397.844 45.063 405.4C46.215 417 35.973 432.1 46.272 441.5C46.486 441.6 46.251 442.1 45.977 441.9ZM87.249 482.5C90.054 488 95.53 489 101.297 489.2C112.416 489.8 121.871 485.4 132.608 491.2C140.108 495.1 146.148 505.1 135.755 509.2C132.959 510.183 129.917 510.217 127.099 509.3C125.16 508.706 123.53 507.378 122.557 505.599C118.88 499.699 130.901 495.4 129.574 501C129.516 501.361 129.58 501.732 129.755 502.053C129.93 502.375 130.206 502.63 130.541 502.778C130.876 502.926 131.25 502.96 131.606 502.874C131.962 502.787 132.279 502.585 132.508 502.3C137.808 494.8 123.374 493.599 119.188 498.099C116.253 501.299 118.73 506.6 120.997 509.3C123.891 512.7 129.114 513.3 133.237 513C141.692 512.4 148.842 504.4 142.613 496.7C137.895 490.758 131.075 486.855 123.562 485.8C112.123 483.9 96.4369 493.1 87.7249 482.3C87.6984 482.236 87.6479 482.187 87.5846 482.161C87.5212 482.135 87.4501 482.135 87.387 482.162C87.3239 482.188 87.2738 482.239 87.248 482.302C87.2221 482.366 87.2225 482.437 87.249 482.5ZM90.669 485.9C84.655 484.6 82.3809 479.5 80.6859 474C77.3959 463.3 79.275 453.099 71.098 444.099C65.376 437.799 54.228 434.4 52.832 445.5C52.5783 448.444 53.2864 451.392 54.85 453.9C55.3666 454.767 56.05 455.522 56.8607 456.123C57.6714 456.724 58.5933 457.158 59.573 457.4C66.181 459.5 67.437 446.8 62.282 449.5C61.9489 449.641 61.5785 449.67 61.2279 449.58C60.8774 449.49 60.5663 449.286 60.3427 449.002C60.1192 448.717 59.9958 448.367 59.9915 448.005C59.9872 447.643 60.1023 447.29 60.319 447C66.225 440 71.011 453.7 67.68 458.8C65.339 462.5 59.526 461.4 56.366 459.9C52.338 457.9 50.55 453 49.785 448.9C48.228 440.6 54.2469 431.6 63.2599 435.8C70.1557 438.913 75.6163 444.523 78.5429 451.5C83.2029 462.2 78.116 479.7 90.815 485.4C91.074 485.5 90.978 486 90.669 485.9ZM142.462 511.8C146.825 516.2 152.324 515.4 157.895 513.9C168.644 510.9 176.295 503.9 188.264 506C196.627 507.5 205.453 515.1 196.83 522.2C194.481 524.007 191.603 524.99 188.639 525C186.615 525.027 184.659 524.275 183.174 522.9C177.856 518.4 187.94 510.5 188.431 516.3C188.487 516.662 188.663 516.996 188.93 517.248C189.198 517.5 189.541 517.655 189.907 517.689C190.272 517.724 190.639 517.636 190.948 517.438C191.258 517.241 191.493 516.945 191.616 516.599C194.351 507.899 180.228 511.2 177.651 516.8C175.834 520.7 179.851 525 182.837 526.9C186.643 529.2 191.77 528.099 195.604 526.599C203.481 523.399 207.804 513.6 199.493 508.2C193.188 503.961 185.479 502.347 178.003 503.7C166.535 505.4 154.475 519.1 142.833 511.4C142.586 511.2 142.236 511.6 142.462 511.8ZM146.775 514C140.635 514.6 136.903 510.5 133.588 505.7C127.173 496.6 125.794 486.3 115.238 480.3C107.862 476.1 96.21 476.3 98.302 487.3C98.9744 490.16 100.561 492.722 102.821 494.599C103.578 495.268 104.46 495.781 105.416 496.107C106.373 496.433 107.384 496.567 108.392 496.5C115.327 496.5 112.592 483.999 108.515 488.099C108.241 488.344 107.892 488.49 107.525 488.514C107.158 488.538 106.794 488.439 106.49 488.232C106.186 488.025 105.96 487.723 105.847 487.373C105.735 487.023 105.743 486.645 105.87 486.3C109.327 477.9 118.107 489.4 116.537 495.3C115.426 499.5 109.575 500.3 106.098 499.8C101.656 499.2 98.429 495 96.447 491.4C92.394 484 95.363 473.6 105.209 474.8C112.738 475.615 119.677 479.261 124.619 485C132.329 493.7 132.893 511.9 146.756 513.5C147.03 513.5 147.087 514 146.775 514ZM204.016 522.599C209.506 525.399 214.496 522.9 219.326 519.8C228.644 513.7 233.743 504.6 245.783 502.9C254.191 501.7 264.931 506.199 258.924 515.599C257.269 518.063 254.829 519.896 252.002 520.8C251.056 521.148 250.049 521.301 249.043 521.25C248.036 521.198 247.05 520.943 246.145 520.5C239.715 517.9 246.872 507.3 249.128 512.7C249.298 513.022 249.57 513.28 249.901 513.432C250.232 513.585 250.604 513.624 250.959 513.545C251.315 513.465 251.635 513.271 251.869 512.992C252.103 512.713 252.239 512.364 252.256 512C252.156 502.8 239.736 510.3 239.007 516.4C238.496 520.7 243.655 523.6 247.063 524.4C251.418 525.5 255.939 522.8 259.113 520.2C265.643 514.8 266.699 504.1 257.127 501.5C249.818 499.42 241.985 500.281 235.302 503.9C224.934 509.1 217.682 525.799 204.246 522.099C203.963 521.999 203.731 522.499 204.016 522.599ZM208.798 523.4C203.133 525.8 198.313 522.999 193.698 519.599C184.788 512.899 180.286 503.5 168.387 501C160.073 499.3 149.055 503.1 154.437 512.9C155.947 515.447 158.263 517.417 161.018 518.5C162.892 519.282 164.994 519.317 166.894 518.599C173.474 516.399 167.007 505.299 164.414 510.599C164.215 510.895 163.927 511.12 163.591 511.241C163.256 511.362 162.891 511.373 162.548 511.273C162.206 511.173 161.905 510.967 161.688 510.684C161.471 510.401 161.349 510.056 161.341 509.7C162.018 500.5 173.928 508.8 174.275 514.9C174.507 519.3 169.175 521.8 165.724 522.4C161.313 523.2 156.959 520.3 153.953 517.4C147.807 511.6 147.433 500.8 157.148 498.9C164.578 497.32 172.332 498.682 178.779 502.7C188.79 508.5 194.953 525.7 208.612 522.9C208.675 522.887 208.741 522.897 208.797 522.928C208.853 522.96 208.896 523.01 208.918 523.071C208.94 523.132 208.94 523.198 208.917 523.259C208.894 523.319 208.851 523.369 208.794 523.4H208.798ZM265.885 513.8C271.969 514.8 275.958 510.9 279.58 506.4C286.557 497.7 288.606 487.5 299.527 482.2C307.16 478.4 318.766 479.4 315.965 490.2C315.117 493.044 313.369 495.535 310.983 497.3C309.343 498.484 307.323 499.019 305.312 498.8C298.396 498.3 301.926 486 305.727 490.4C305.982 490.664 306.318 490.834 306.681 490.885C307.045 490.935 307.415 490.863 307.732 490.678C308.05 490.494 308.296 490.209 308.433 489.869C308.57 489.528 308.588 489.152 308.486 488.8C305.573 480.1 296.068 491.099 297.258 497.099C298.092 501.399 303.9 502.5 307.392 502.2C311.866 501.9 315.338 498 317.55 494.5C322.085 487.3 319.788 476.8 309.88 477.3C302.303 477.637 295.142 480.857 289.86 486.3C281.606 494.5 279.871 512.6 265.954 513.3C265.663 513.3 265.58 513.8 265.885 513.8ZM270.675 513.099C266.038 517.099 260.595 515.999 255.137 514.099C244.603 510.499 237.422 503 225.337 504.3C216.903 505.3 207.6 512.3 215.737 519.9C217.958 521.863 220.772 523.024 223.73 523.2C224.73 523.302 225.741 523.205 226.704 522.913C227.666 522.621 228.561 522.141 229.336 521.5C234.921 517.4 225.362 508.899 224.503 514.599C224.425 514.959 224.229 515.283 223.946 515.518C223.663 515.754 223.31 515.888 222.942 515.899C222.574 515.911 222.213 515.799 221.916 515.582C221.619 515.364 221.403 515.054 221.303 514.7C219.124 505.8 233.003 510 235.23 515.7C236.78 519.8 232.503 523.8 229.406 525.5C225.448 527.6 220.406 526.2 216.666 524.4C209.025 520.7 205.348 510.6 213.982 505.8C220.559 502.005 228.346 500.895 235.722 502.7C247.05 505.1 258.201 519.499 270.331 512.599C270.397 512.572 270.47 512.569 270.538 512.589C270.606 512.609 270.666 512.651 270.706 512.71C270.747 512.768 270.765 512.839 270.76 512.91C270.754 512.981 270.724 513.048 270.675 513.099ZM322.022 486.3C328.102 485.4 330.699 480.4 332.748 475C336.706 464.6 335.503 454.3 344.241 445.8C350.347 439.9 361.687 437.3 362.363 448.4C362.416 451.367 361.524 454.274 359.815 456.7C358.621 458.336 356.866 459.476 354.885 459.9C348.156 461.5 347.714 448.8 352.685 451.8C353.012 451.954 353.38 451.999 353.734 451.927C354.088 451.854 354.409 451.668 354.648 451.397C354.888 451.127 355.033 450.786 355.061 450.426C355.09 450.065 355.001 449.705 354.808 449.4C349.362 442 343.699 455.4 346.699 460.7C348.807 464.5 354.679 463.8 357.921 462.5C362.07 460.8 364.17 456 365.187 452C367.287 443.8 361.858 434.5 352.587 438C345.469 440.661 339.648 445.961 336.333 452.8C330.992 463.1 334.945 480.9 321.916 485.8C321.646 485.9 321.711 486.4 322.022 486.3ZM326.342 484.099C323.188 489.399 317.66 490 311.887 489.9C300.764 489.8 291.599 484.8 280.522 489.8C272.796 493.3 266.115 502.9 276.222 507.7C278.966 508.795 281.983 509.005 284.852 508.3C285.834 508.076 286.762 507.661 287.583 507.078C288.404 506.494 289.102 505.754 289.636 504.9C293.677 499.3 281.96 494.1 282.917 499.9C282.941 500.259 282.849 500.617 282.653 500.919C282.457 501.221 282.168 501.451 281.83 501.575C281.492 501.699 281.122 501.71 280.777 501.606C280.432 501.502 280.131 501.29 279.917 501C275.103 493.2 289.587 492.899 293.481 497.599C296.196 500.999 293.388 506.2 290.952 508.7C287.837 511.9 282.591 512.099 278.491 511.599C270.105 510.499 263.482 502 270.185 494.7C275.291 489.083 282.34 485.616 289.906 485C301.444 483.9 316.506 494.1 325.906 483.8C326.076 483.6 326.494 483.899 326.342 484.099ZM366.921 442.8C372.4 440 373.357 434.5 373.638 428.8C374.185 417.6 369.845 408.2 375.548 397.4C379.533 389.9 389.489 383.9 393.575 394.3C394.55 397.11 394.599 400.159 393.715 403C393.087 404.913 391.761 406.52 390.002 407.5C384.119 411.2 379.75 399.2 385.411 400.5C387.031 400.9 388.059 398.5 386.693 397.5C379.242 392.2 377.974 406.7 382.493 410.9C385.659 413.8 391.038 411.299 393.707 409.099C397.132 406.199 397.632 400.9 397.374 396.8C396.833 388.4 388.801 381.2 381.074 387.4C375.134 392.14 371.233 398.974 370.174 406.5C368.274 418 377.526 433.6 366.662 442.4C366.432 442.5 366.642 443 366.921 442.8ZM370.351 439.4C368.994 445.4 363.915 447.7 358.403 449.4C347.773 452.7 337.526 450.8 328.536 459C322.266 464.7 318.866 475.9 329.942 477.3C332.885 477.503 335.821 476.805 338.358 475.3C340.092 474.202 341.343 472.486 341.858 470.5C343.964 463.9 331.232 462.7 333.918 467.8C334.064 468.137 334.094 468.513 334.004 468.87C333.914 469.226 333.709 469.543 333.421 469.771C333.133 469.999 332.777 470.125 332.409 470.131C332.042 470.136 331.683 470.019 331.388 469.8C324.411 463.9 338.088 459.1 343.264 462.4C346.878 464.8 345.816 470.6 344.281 473.7C342.316 477.8 337.381 479.6 333.32 480.3C325.003 481.9 316.089 475.9 320.207 466.8C323.358 459.903 328.985 454.443 335.973 451.5C346.593 446.9 364.078 452 369.841 439.3C369.938 439 370.417 439.1 370.351 439.4ZM396.19 387.599C400.538 383.199 399.755 377.699 398.239 372.099C395.321 361.399 388.274 353.7 390.378 341.7C391.854 333.4 399.456 324.5 406.551 333.2C408.355 335.554 409.341 338.434 409.359 341.4C409.386 343.409 408.623 345.348 407.233 346.8C402.775 352.2 394.906 342.099 400.701 341.599C401.061 341.537 401.391 341.359 401.64 341.091C401.888 340.823 402.042 340.481 402.077 340.117C402.112 339.753 402.026 339.388 401.833 339.078C401.64 338.768 401.35 338.53 401.008 338.4C392.285 335.7 395.545 349.8 401.126 352.4C405.053 354.2 409.398 350.2 411.237 347.2C413.594 343.4 412.467 338.2 410.944 334.4C407.817 326.5 397.962 322.2 392.544 330.5C388.357 336.83 386.753 344.524 388.062 352C389.795 363.5 403.441 375.6 395.8 387.2C395.759 387.254 395.74 387.322 395.744 387.389C395.749 387.457 395.778 387.521 395.825 387.569C395.873 387.617 395.936 387.647 396.004 387.653C396.072 387.659 396.139 387.639 396.194 387.599H396.19ZM398.395 383.3C398.957 389.4 394.835 393.1 390.12 396.5C381.02 402.9 370.698 404.3 364.67 414.8C360.479 422.2 360.692 433.9 371.658 431.8C374.525 431.1 377.105 429.528 379.04 427.3C380.338 425.731 381.004 423.734 380.906 421.7C380.861 414.7 368.372 417.499 372.514 421.599C373.695 422.699 372.277 424.8 370.72 424.2C362.253 420.7 373.786 412 379.74 413.5C383.902 414.6 384.683 420.5 384.205 424C383.574 428.4 379.435 431.599 375.811 433.599C368.378 437.699 358.045 434.7 359.174 424.9C360.003 417.333 363.675 410.363 369.448 405.4C378.11 397.7 396.31 397.2 397.86 383.3C397.872 383.238 397.905 383.182 397.954 383.141C398.003 383.101 398.064 383.08 398.127 383.08C398.19 383.08 398.251 383.101 398.3 383.141C398.349 383.182 398.382 383.238 398.394 383.3H398.395ZM406.966 326C409.766 320.5 407.306 315.5 404.148 310.7C398.048 301.3 388.984 296.2 387.281 284.2C386.101 275.8 390.606 265 400.021 271C402.451 272.724 404.272 275.175 405.221 278C405.859 279.904 405.739 281.981 404.886 283.8C402.286 290.3 391.686 283.1 397.049 280.8C398.582 280.2 398.049 277.7 396.356 277.7C387.217 277.8 394.683 290.2 400.788 291C405.081 291.5 407.973 286.3 408.805 282.9C409.867 278.5 407.205 274 404.572 270.8C399.164 264.3 388.462 263.3 385.872 272.8C383.853 280.137 384.706 287.969 388.259 294.7C393.446 305.1 410.144 312.3 406.479 325.8C406.394 326 406.822 326.3 406.966 326ZM407.734 321.2C410.167 326.9 407.398 331.7 403.934 336.3C397.262 345.2 387.867 349.699 385.405 361.599C383.692 369.999 387.497 380.999 397.28 375.599C399.814 374.06 401.786 371.746 402.903 369C403.666 367.111 403.687 365.003 402.96 363.099C400.77 356.499 389.739 362.999 394.94 365.599C395.252 365.79 395.493 366.079 395.626 366.421C395.759 366.762 395.776 367.137 395.675 367.489C395.574 367.841 395.36 368.15 395.066 368.369C394.772 368.588 394.415 368.704 394.049 368.7C384.931 368 393.18 356.1 399.329 355.7C403.635 355.5 406.177 360.8 406.804 364.3C407.577 368.7 404.632 373.099 401.804 376.099C395.984 382.199 385.238 382.6 383.271 372.9C381.724 365.45 383.073 357.691 387.043 351.2C392.9 341.2 410.035 335.1 407.229 321.4C407.164 321.1 407.603 320.9 407.734 321.2ZM370.734 207.9C369.763 201.8 364.843 199.2 359.455 197.2C349.041 193.2 338.708 194.4 330.255 185.7C324.355 179.5 321.691 168.2 332.839 167.5C335.807 167.448 338.711 168.36 341.117 170.099C342.778 171.251 343.917 173.012 344.285 175C345.966 181.7 333.177 182.2 336.195 177.2C336.355 176.873 336.403 176.501 336.331 176.144C336.259 175.787 336.071 175.465 335.797 175.225C335.522 174.986 335.176 174.844 334.813 174.821C334.449 174.798 334.088 174.896 333.786 175.099C326.462 180.499 339.798 186.2 345.164 183.2C348.941 181.1 348.247 175.2 346.918 172C345.211 167.8 340.403 165.7 336.411 164.7C328.196 162.6 318.921 168 322.445 177.3C325.102 184.418 330.383 190.25 337.204 193.599C347.498 198.899 365.264 195 370.204 208C370.226 208.061 370.269 208.112 370.325 208.144C370.381 208.176 370.447 208.188 370.511 208.176C370.574 208.163 370.632 208.129 370.672 208.079C370.713 208.028 370.734 207.965 370.732 207.9H370.734ZM368.534 203.599C373.834 206.699 374.429 212.3 374.334 218C374.175 229.2 369.224 238.3 374.226 249.4C377.726 257.2 387.282 263.8 392.033 253.7C393.186 250.983 393.426 247.965 392.717 245.099C392.24 243.12 391.018 241.401 389.306 240.3C383.67 236.3 378.538 248 384.274 247C384.635 246.971 384.996 247.061 385.301 247.258C385.606 247.454 385.838 247.745 385.961 248.086C386.085 248.427 386.093 248.798 385.984 249.144C385.875 249.49 385.656 249.791 385.36 250C377.585 254.9 377.26 240.4 382.028 236.5C385.371 233.7 390.566 236.6 393.105 239C396.322 242.1 396.495 247.4 395.98 251.5C394.888 259.9 386.413 266.5 379.103 259.8C373.477 254.672 370.021 247.59 369.442 240C368.294 228.5 378.542 213.4 368.235 204C368.03 203.8 368.266 203.399 368.536 203.599H368.534ZM327.268 163C324.468 157.5 318.984 156.5 313.22 156.2C302.101 155.7 292.643 160 281.908 154.3C274.408 150.3 268.364 140.4 278.764 136.3C281.558 135.335 284.583 135.264 287.418 136.099C289.365 136.733 290.993 138.095 291.96 139.9C295.643 145.7 283.613 150.1 284.945 144.5C285.013 144.134 284.955 143.756 284.781 143.427C284.607 143.099 284.328 142.838 283.988 142.687C283.647 142.537 283.266 142.505 282.906 142.598C282.546 142.691 282.228 142.904 282.003 143.2C276.715 150.6 291.15 151.9 295.325 147.4C298.266 144.2 295.791 138.8 293.525 136.2C290.625 132.7 285.398 132.2 281.282 132.5C272.823 133 265.682 141.1 271.897 148.8C276.647 154.707 283.455 158.601 290.955 159.7C302.403 161.6 318.068 152.3 326.793 163.2C326.973 163.5 327.417 163.2 327.27 163H327.268ZM323.843 159.5C329.858 160.9 332.135 166 333.828 171.5C337.114 182.1 335.237 192.4 343.421 201.4C349.132 207.7 360.287 211 361.685 200C361.939 197.024 361.231 194.044 359.667 191.5C358.564 189.803 356.887 188.56 354.942 188C348.342 185.9 347.075 198.7 352.231 196C352.565 195.851 352.938 195.818 353.293 195.906C353.647 195.994 353.962 196.197 354.188 196.484C354.414 196.771 354.538 197.125 354.54 197.49C354.542 197.855 354.422 198.21 354.199 198.5C348.292 205.5 343.504 191.799 346.835 186.599C349.177 182.999 354.987 184.099 358.155 185.599C362.176 187.599 363.962 192.499 364.74 196.599C366.288 204.899 360.275 213.8 351.257 209.7C344.335 206.573 338.867 200.922 335.969 193.9C331.317 183.3 336.411 165.8 323.699 160C323.643 159.973 323.598 159.926 323.572 159.869C323.547 159.812 323.543 159.748 323.56 159.688C323.578 159.628 323.616 159.576 323.668 159.542C323.72 159.507 323.783 159.492 323.845 159.5H323.843ZM272.055 133.7C267.694 129.3 262.186 130.099 256.625 131.599C245.875 134.499 238.225 141.6 226.255 139.5C217.888 138 209.061 130.4 217.688 123.3C220.037 121.493 222.915 120.509 225.878 120.5C227.901 120.475 229.856 121.226 231.342 122.599C236.661 127.099 226.57 135 226.09 129.2C226.042 128.83 225.87 128.487 225.602 128.228C225.333 127.969 224.985 127.809 224.613 127.774C224.242 127.739 223.87 127.831 223.558 128.036C223.246 128.24 223.013 128.546 222.897 128.9C220.175 137.6 234.285 134.3 236.869 128.7C238.686 124.8 234.669 120.499 231.686 118.599C227.869 116.199 222.747 117.4 218.915 118.9C211.041 122 206.721 131.9 215.025 137.3C221.351 141.493 229.042 143.103 236.519 141.8C247.985 140.1 260.031 126.399 271.683 134.099C271.933 134.199 272.285 133.9 272.057 133.7H272.055ZM267.737 131.5C273.88 130.9 277.614 135 280.937 139.7C287.344 148.8 288.722 159.2 299.283 165.2C306.649 169.4 318.309 169.2 316.221 158.2C315.547 155.312 313.962 152.717 311.699 150.8C310.134 149.518 308.143 148.875 306.124 149C299.195 149 301.924 161.5 306.004 157.4C306.279 157.155 306.627 157.009 306.994 156.985C307.361 156.961 307.726 157.061 308.03 157.267C308.334 157.474 308.56 157.777 308.673 158.127C308.785 158.477 308.778 158.855 308.651 159.2C305.192 167.6 296.414 156.099 297.983 150.099C299.098 145.999 304.944 145.2 308.425 145.7C312.863 146.3 316.089 150.399 318.085 154.099C322.124 161.499 319.159 171.8 309.313 170.7C301.76 169.887 294.809 166.199 289.902 160.4C282.192 151.8 281.635 133.6 267.761 132C267.487 132 267.426 131.5 267.739 131.5H267.737ZM186.029 109.7C185.918 109.1 184.988 109.4 184.903 109.8C184.591 111.6 183.651 113.6 184.088 115.3C184.152 115.448 184.254 115.577 184.382 115.674C184.511 115.77 184.663 115.832 184.823 115.852C184.983 115.872 185.146 115.851 185.295 115.789C185.444 115.727 185.574 115.627 185.673 115.5C186.962 113.8 186.403 111.7 186.031 109.7H186.029ZM180.018 106.599C179.932 106.399 179.727 106.6 179.768 106.7C180.243 108.4 179.683 110.8 179.355 112.4C179.027 114 177.839 116.499 178.496 118.099C178.841 118.999 179.842 118.699 180.279 118.099C181.397 116.499 181.201 113.6 181.279 111.7C181.364 109.7 181.25 108.099 180.02 106.599H180.018ZM232.132 107.4C222.863 106.9 213.511 107.2 204.222 107.2C196.19 107.2 187.805 106.599 179.903 108.099C179.517 108.199 179.329 108.8 179.803 108.9C188.703 110.7 198.433 109.8 207.516 109.8C215.616 109.8 223.744 110.099 231.832 109.599C233.006 109.499 233.536 107.5 232.134 107.4H232.132ZM231.682 107.8C231.49 107.5 230.927 107.8 231.022 108.2C231.623 110.763 232.6 113.223 233.922 115.5C234.422 116.2 235.554 115.5 235.398 114.7C234.877 112.2 232.921 110 231.684 107.8H231.682ZM200.196 87.9001C176.576 89.7001 154.37 101.4 146.442 124.7C146.219 125.3 147.183 125.4 147.458 124.9C159.084 105.5 172.649 95.2001 195.107 91.4001C220.293 87.2001 253.4 93.3998 260.249 122C260.634 123.6 262.984 122.4 262.774 121C258.466 91.7998 224.478 86.2001 200.194 87.9001H200.196ZM204.863 72.9001C166.541 73.5001 125.65 99.8999 116.078 138.2C115.987 138.5 116.497 138.6 116.637 138.3C132.661 106.3 156.137 83.8996 192.265 77.2996C226.428 70.9996 285.09 88.8001 285.385 130.9C285.399 132.3 287.385 132 287.678 130.9C298.121 91.6001 233.137 72.5001 204.865 72.9001H204.863ZM187.526 83.4001C187.385 81.051 187.096 78.713 186.661 76.4001C186.61 76.1001 186.161 76.1998 186.126 76.4998C185.692 78.8466 185.403 81.2172 185.258 83.5994C185.121 86.0994 184.601 88.8996 185.265 91.2996C185.582 92.4996 187.275 91.8998 187.519 90.9998C188.143 88.4998 187.667 85.9001 187.528 83.4001H187.526ZM234.626 83.9998C234.472 81.7998 234.226 79.6001 233.965 77.4001C233.965 77.3264 233.936 77.255 233.884 77.2029C233.831 77.1507 233.761 77.1218 233.687 77.1218C233.613 77.1218 233.543 77.1507 233.49 77.2029C233.438 77.255 233.409 77.3264 233.409 77.4001C233.155 79.7001 232.909 81.9996 232.75 84.2996C232.616 86.1996 232.13 88.3999 232.885 90.2C233.21 91.1 234.244 90.6998 234.485 89.9998C235.194 88.0998 234.773 85.9998 234.63 83.9998H234.626ZM226.432 91.4998C226.218 91.2536 225.954 91.0555 225.658 90.9177C225.363 90.7799 225.041 90.7056 224.715 90.7C224.49 90.6727 224.261 90.7061 224.053 90.7966C223.845 90.8872 223.665 91.0311 223.531 91.2146C223.397 91.3981 223.315 91.6137 223.293 91.8396C223.27 92.0655 223.309 92.2937 223.404 92.4998C224.187 93.7998 207.014 95.5994 204.751 95.5994C202.321 95.6494 199.89 95.5494 197.472 95.2996C195.931 95.2323 194.405 94.9635 192.934 94.4998C190.994 93.9998 196.274 88.9994 196.671 88.5994C196.76 88.4994 196.638 88.3998 196.535 88.4998C194.585 89.6998 189.677 91.7001 190.617 94.9001C191.317 97.3001 196.426 97.5 198.247 97.7C206.678 98.8999 219.202 99.6001 226.117 93.9001C226.316 93.7796 226.485 93.6161 226.612 93.4216C226.739 93.2272 226.82 93.0064 226.851 92.7761C226.882 92.5459 226.86 92.3115 226.788 92.0906C226.717 91.8697 226.596 91.668 226.436 91.4998H226.432ZM198.569 106.9C196.406 105.7 194.103 104.5 193.229 102C192.178 98.9998 194.994 97.8998 197.221 96.9998C197.63 96.7998 198.032 96.0001 197.385 95.9001C196.511 95.6746 195.598 95.6427 194.711 95.8074C193.823 95.9721 192.983 96.3292 192.248 96.8533C191.513 97.3774 190.902 98.0561 190.457 98.8416C190.012 99.627 189.744 100.5 189.673 101.4C189.273 105.5 193.235 109.3 197.129 109.4C198.2 109.5 200.032 107.7 198.573 106.9H198.569ZM229.346 102.7C227.514 98.8999 222.637 95.5 218.388 95.7C218.101 95.7 217.988 96.2 218.313 96.2C221.613 96.6 224.232 99.2998 225.905 102C226.633 103.138 227.042 104.45 227.089 105.8C227.122 107.4 225.179 107.7 224.051 108.2C222.951 108.7 222.401 110.6 224.041 110.8C228.864 111.2 231.313 106.7 229.35 102.7H229.346ZM254.58 33.2C247.743 13.4 223.298 7.79936 205.044 7.59936C183.656 7.39936 165.337 15.3998 157.274 35.9998C150.339 53.6998 167.514 77.9998 186.853 74.4998C187.161 74.3998 187.36 73.9001 186.941 73.9001C161.074 71.7001 154.115 42.3998 168.015 23.9998C177.321 11.5998 198.23 10.7001 212.082 11.4001C225.728 12.2001 238.916 17.6001 247.568 28.4001C264.038 48.9001 244.861 66 227.275 74.7C225.596 75.5 226.145 78.1996 228.046 77.2996C248.023 67.9996 262.819 56.9 254.584 33.2H254.58ZM205.32 0.499755C201.034 0.599755 194.02 -0.000245094 190.8 3.49975C186.467 8.19975 195.553 9.69936 198.449 9.09936C198.555 9.09936 198.657 9.05719 198.732 8.98218C198.807 8.90716 198.849 8.80604 198.849 8.69995C198.849 8.59386 198.807 8.49176 198.732 8.41675C198.657 8.34173 198.555 8.29956 198.449 8.29956C196.967 8.41917 195.478 8.17883 194.109 7.59936C192.657 5.49936 192.799 4.29975 194.535 3.99975C196.33 3.48308 198.187 3.21412 200.055 3.19995C202.112 2.9667 204.187 2.93262 206.25 3.09936C208.808 3.19936 224.177 5.69995 220.065 9.19995C218.795 10.3 219.865 11.8994 221.343 11.0994C232.219 4.69936 209.166 0.399755 205.324 0.499755H205.32ZM204.161 9.09936C169.847 5.69936 150.301 67.1996 187.34 76.7996C188.264 76.9996 189.321 75.7 188.223 75.2C153.3 61.7999 171.929 12.6 204.008 10.2C204.594 10.2 204.865 9.19936 204.165 9.09936H204.161ZM247.482 36.7C245.618 24.6 233.19 17.2001 224.082 10.9001C223.903 10.8001 223.624 11 223.809 11.2C230.396 16.5 237.247 21.5998 242.235 28.4998C251.058 40.7998 244.396 55.8001 239.085 67.9001C238.69 68.8001 239.905 69.1001 240.338 68.4001C246.05 58.5001 249.234 48.1 247.486 36.7H247.482ZM218.97 10.7996C218.757 10.6996 218.445 11.0999 218.675 11.2C239.815 25.2 244.711 58.2996 224.841 75.2996C224.642 75.4322 224.504 75.6384 224.457 75.8728C224.41 76.1072 224.458 76.3506 224.591 76.5496C224.724 76.7485 224.93 76.8865 225.164 76.9333C225.399 76.9802 225.642 76.9322 225.841 76.7996C248.477 60.8996 241.72 22.9996 218.974 10.7996H218.97ZM213.478 10.7996C213.273 10.6996 212.843 11 213.045 11.2C227.726 27.2 237.445 58.2994 220.614 76.0994C219.88 76.7994 221.029 77.6001 221.723 76.9001C239.587 59.6001 231.004 25.3996 213.482 10.7996H213.478ZM204.411 7.99975C188.52 12.4998 177.481 30.2998 177.78 46.4998C177.809 47.9998 180.065 47.5 180.163 46.2C181.353 30.6 189.68 14.8998 204.537 8.49975C204.597 8.47778 204.646 8.43481 204.676 8.37866C204.706 8.32251 204.714 8.25687 204.699 8.19507C204.684 8.13327 204.647 8.07977 204.594 8.0437C204.542 8.00763 204.478 7.99177 204.415 7.99975H204.411ZM179.622 51.4001C179.553 51.1001 179.237 51.3001 179.241 51.4001C179.239 54.6902 180.247 57.9009 182.129 60.5994C182.502 61.1994 183.509 60.5998 183.3 59.9998C182.275 56.9998 180.628 54.3001 179.626 51.4001H179.622ZM190.703 72.5994C188.214 70.6994 186.534 68.0994 184.203 66.0994C184.161 66.0809 184.114 66.0754 184.069 66.0837C184.023 66.0921 183.982 66.114 183.949 66.1462C183.916 66.1785 183.893 66.2202 183.884 66.2654C183.875 66.3105 183.879 66.3576 183.897 66.4001C185.33 69.3001 186.411 72.6998 189.668 73.9998C190.441 74.2998 191.494 73.1994 190.707 72.5994H190.703ZM208.103 9.40015C184.817 20.3001 182.116 58.5994 200.372 74.5994C200.494 74.6693 200.636 74.6952 200.775 74.6716C200.914 74.648 201.04 74.5768 201.132 74.4705C201.224 74.3641 201.276 74.2292 201.279 74.0886C201.282 73.948 201.237 73.8106 201.15 73.7C190.926 63.6 188.283 52.6994 190.974 38.5994C193.143 27.3994 197.791 15.6001 208.331 9.90015C208.643 9.70015 208.436 9.20015 208.112 9.40015H208.103ZM211.276 10.7996C211.204 10.7388 211.113 10.7051 211.018 10.7039C210.924 10.7026 210.832 10.7338 210.758 10.7927C210.684 10.8516 210.633 10.9347 210.613 11.0271C210.593 11.1195 210.606 11.2155 210.649 11.2996C215.432 18.0841 219.046 25.6214 221.34 33.5994C221.615 34.4994 223.002 33.8998 222.84 32.9998C221.255 24.4998 216.767 17.3996 211.285 10.7996H211.276ZM225.871 44.7C225.771 44.1 224.726 44.4998 224.785 44.9998C225.117 48.3998 224.985 51.7999 225.053 55.2C225.072 56.2 226.533 55.8998 226.547 54.9998C226.647 51.5531 226.424 48.1049 225.88 44.7H225.871ZM208.938 11.9001C203.218 21.0001 201.829 31.1996 201.7 41.7996C201.685 42.9996 203.45 42.5994 203.531 41.5994C204.341 31.3994 204.64 21.3998 209.275 11.9998C209.402 11.7998 209.067 11.7001 208.947 11.9001H208.938ZM207.481 69.4998C204.852 64.1998 202.89 58.8996 203.781 52.7996C203.83 52.4996 203.369 52.4996 203.301 52.7996C201.807 58.8996 203.042 64.9998 206.093 70.4998C206.562 71.2998 207.905 70.2998 207.494 69.4998H207.481ZM210.848 13.7C210.694 13.3 210.028 13.5998 210.148 13.9998C214.148 27.2998 214.381 40.9996 215.148 54.7996C215.213 55.9996 216.99 55.5998 216.977 54.4998C216.794 40.6998 215.657 26.7999 210.857 13.7H210.848ZM216.818 64.7C216.749 63.1 214.44 63.6998 214.377 64.9998C214.25 67.8998 213.866 70.8996 213.923 73.7996C213.937 74.5996 214.981 74.4998 215.323 73.9998C217.1 71.2998 216.964 67.7999 216.827 64.7H216.818ZM148.364 120C143.573 120.2 138.81 120.8 134.052 119.9C133.811 119.8 133.59 120.2 133.862 120.3C138.562 122 143.47 121.8 148.362 121.2C149.124 121.1 149.244 119.9 148.373 120H148.364ZM149.975 116.099C146.02 115.899 142.108 115.9 138.256 114.8C138.056 114.8 137.827 115.1 138.062 115.2C141.728 116.873 145.715 117.727 149.745 117.7C150.632 117.6 151.01 116.099 149.984 116.099H149.975ZM152.728 111C150.05 110.716 147.39 110.282 144.761 109.7C144.526 109.6 144.282 109.999 144.54 110.099C147.04 111.399 149.64 112.7 152.53 112.4C152.705 112.406 152.876 112.347 153.011 112.235C153.145 112.123 153.234 111.966 153.26 111.793C153.285 111.619 153.246 111.443 153.15 111.297C153.053 111.15 152.906 111.044 152.737 111H152.728ZM154.213 108C152.998 107.687 151.83 107.216 150.738 106.599C150.673 106.499 150.546 106.6 150.605 106.7C151.431 107.607 152.418 108.353 153.516 108.9C154.204 109.4 154.941 108.2 154.222 108H154.213ZM159.089 103.8C157.004 102.567 155.182 100.936 153.726 98.9998C153.5 98.6998 153.049 99.1001 153.198 99.4001C154.309 101.8 155.562 104.2 158.191 105C158.838 105.2 159.859 104.2 159.094 103.8H159.089ZM165.018 100.099C163.259 98.6994 161.263 97.5001 159.586 95.9001C159.48 95.8001 159.299 95.8994 159.37 96.0994C160.592 98.0894 162.226 99.7944 164.163 101.099C164.741 101.499 165.606 100.599 165.027 100.099H165.018ZM170.829 96.4001C169.884 95.1001 168.663 93.8994 167.566 92.5994C167.524 92.5558 167.467 92.5294 167.407 92.5251C167.346 92.5209 167.287 92.5396 167.239 92.5769C167.191 92.6142 167.159 92.6677 167.149 92.7273C167.138 92.7869 167.15 92.8488 167.182 92.9001C167.859 94.4442 168.627 95.9469 169.482 97.4001C169.987 98.1001 171.35 97.2001 170.838 96.4001H170.829ZM172.642 89.7996C172.522 89.6996 172.199 89.7998 172.286 89.9998C173.029 91.5998 173.186 93.5001 174.311 94.9001C174.657 95.3001 175.569 94.9001 175.329 94.4001C174.618 92.768 173.719 91.2236 172.651 89.7996H172.642ZM178.335 86.5994C178.201 86.2994 177.693 86.3999 177.735 86.7C177.95 88.3999 177.611 90.2 178.369 91.7C178.657 92.2999 179.724 91.7999 179.669 91.2C179.485 89.6039 179.037 88.0489 178.344 86.5994H178.335ZM219.686 83.4998C219.635 81.5998 219.553 79.6 219.56 77.7C219.566 76.2999 218.286 76.0994 217.319 76.5994C216.406 75.7145 215.228 75.153 213.966 74.9998C212.14 74.8998 209.782 74.7 208.354 76.2C208.319 76.2 208.297 76.1996 208.264 76.2996C208.244 76.133 208.179 75.9753 208.076 75.8425C207.974 75.7098 207.837 75.6071 207.681 75.5457C207.525 75.4842 207.355 75.4658 207.189 75.4929C207.023 75.5201 206.868 75.5918 206.74 75.7C205.265 77 203.83 78.2998 202.368 79.4998C197.49 82.0998 193.029 82.3996 187.995 79.7996C187.737 79.0252 187.698 78.1952 187.883 77.4001C187.908 77.3001 187.731 77.3001 187.683 77.4001C187.355 78.0128 187.216 78.7086 187.283 79.4001C187.119 79.377 186.964 79.3074 186.838 79.2C186.579 79.041 186.275 78.9693 185.972 78.9958C185.669 79.0224 185.383 79.1458 185.155 79.3474C184.928 79.549 184.771 79.8185 184.708 80.116C184.645 80.4135 184.679 80.7232 184.806 80.9998C185.608 82.4781 186.671 83.7998 187.943 84.9001C187.239 86.0001 186.539 87.1 185.843 88.2C185.642 88.3729 185.503 88.6071 185.448 88.8669C185.394 89.1268 185.427 89.3972 185.542 89.6365C185.657 89.8758 185.847 90.0713 186.084 90.1912C186.321 90.311 186.591 90.3487 186.852 90.2996C191.365 89.6996 195.893 89.3994 200.37 88.5994C201.888 88.3994 203.411 88.2999 204.936 88.2H205.036C206.398 88.6338 207.855 88.6681 209.236 88.2996C209.347 88.4149 209.483 88.5027 209.633 88.5564C209.784 88.61 209.945 88.6285 210.104 88.6091C210.263 88.5897 210.415 88.5334 210.548 88.4451C210.681 88.3567 210.792 88.238 210.872 88.0994C211.002 88.2028 211.15 88.28 211.31 88.3259C211.469 88.3718 211.636 88.3855 211.8 88.3669C211.965 88.3484 212.125 88.2978 212.27 88.2175C212.415 88.1373 212.543 88.0298 212.646 87.9001C212.664 88.0001 212.67 88.1 212.691 88.2C212.745 88.3958 212.845 88.5754 212.984 88.7244C213.122 88.8733 213.294 88.9868 213.485 89.0554C213.676 89.124 213.881 89.146 214.082 89.1189C214.284 89.0918 214.476 89.0169 214.642 88.9001C214.769 89.0768 214.93 89.225 215.117 89.3367C215.304 89.4483 215.511 89.5205 215.727 89.5486C215.943 89.5767 216.162 89.5608 216.371 89.5007C216.58 89.4407 216.774 89.3382 216.942 89.2C218.05 89.6 219.842 88.8001 219.78 87.4001C219.823 86.0996 219.794 84.7972 219.694 83.4998H219.686ZM232.731 80.4998C232.693 80.4609 232.647 80.4312 232.595 80.4138C232.544 80.3964 232.49 80.3923 232.436 80.4001C232.354 80.2001 232.255 79.9996 232.163 79.7996C232.163 79.4996 232.194 79.2998 232.194 78.9998C232.209 78.8073 232.179 78.6139 232.105 78.4353C232.032 78.2567 231.918 78.0979 231.772 77.9714C231.626 77.845 231.452 77.7549 231.265 77.7078C231.078 77.6606 230.882 77.6578 230.694 77.7C230.647 77.6 230.607 77.5998 230.564 77.4998C230.352 76.9998 230.102 76.3996 229.803 75.7996C229.282 74.7996 227.912 75.0998 227.151 75.4998C226.551 75.7998 225.873 76.1001 225.271 76.4001C225.014 76.5329 224.794 76.727 224.631 76.9656C224.468 77.2041 224.367 77.479 224.336 77.7664C224.305 78.0537 224.347 78.3445 224.456 78.6121C224.565 78.8796 224.739 79.1157 224.962 79.2996C224.25 82.3996 224.526 85.5996 224.539 88.7996C224.518 89.115 224.619 89.4264 224.822 89.6687C225.026 89.911 225.315 90.0652 225.629 90.0994C225.611 90.3994 225.591 90.6998 225.574 90.9998C225.538 91.7998 226.824 91.6001 226.932 90.9001C226.991 90.6001 227.05 90.1996 227.107 89.7996H227.263C227.372 89.9143 227.519 89.9856 227.676 89.9998C227.676 90.1998 227.654 90.3999 227.654 90.7C227.629 92.7999 230.279 92.3001 231.123 90.9001C231.707 90.8784 232.263 90.6419 232.685 90.2361C233.106 89.8302 233.363 89.2832 233.406 88.7C233.415 88 233.406 87.2001 233.398 86.4001V86.2996C233.624 86.1758 233.821 86.0048 233.975 85.7976C234.129 85.5905 234.236 85.3519 234.289 85.0994C234.434 84.0053 234.508 82.9032 234.511 81.7996C234.531 81.5794 234.494 81.3576 234.403 81.156C234.313 80.9544 234.171 80.78 233.993 80.6492C233.815 80.5183 233.606 80.4361 233.386 80.4099C233.167 80.3837 232.944 80.4145 232.74 80.4998H232.731ZM243.047 85.7C241.273 87.1 239.674 88.5994 237.985 90.0994C237.551 90.4994 238.129 90.9996 238.555 90.7996C240.482 89.4996 242.482 88.3994 243.955 86.5994C244.025 86.5432 244.083 86.4733 244.124 86.3933C244.166 86.3133 244.19 86.2254 244.195 86.1355C244.2 86.0456 244.186 85.956 244.154 85.8718C244.122 85.7877 244.072 85.7109 244.009 85.6472C243.945 85.5835 243.869 85.5339 243.784 85.5017C243.7 85.4695 243.61 85.4557 243.521 85.4607C243.431 85.4657 243.343 85.4898 243.263 85.531C243.183 85.5722 243.112 85.6296 243.056 85.7H243.047ZM248.692 88.9998C246.962 90.3998 246.116 92.6998 244.96 94.4998C244.726 94.7998 245.288 95.0996 245.534 94.7996C246.879 93.0996 248.32 91.3999 249.492 89.7C249.843 89.2 249.131 88.6998 248.701 88.9998H248.692ZM253.376 94.4998C251.803 95.9998 250.629 97.7996 248.959 99.2996C248.324 99.8996 249.168 100.6 249.797 100.2C251.659 98.8999 253.858 97.4001 254.951 95.4001C255.565 94.3001 254.122 93.7998 253.385 94.4998H253.376ZM256.663 98.2C255.446 99.7 254.514 101.399 252.925 102.599C252.505 102.899 252.747 103.6 253.277 103.3C255.336 102.502 257.058 101.018 258.152 99.0994C258.241 98.9051 258.256 98.6855 258.193 98.4812C258.13 98.2769 257.995 98.102 257.812 97.991C257.63 97.8799 257.413 97.8402 257.202 97.8787C256.992 97.9171 256.803 98.0315 256.672 98.2H256.663ZM259.363 103.4C258.608 103.924 257.886 104.491 257.198 105.099C256.249 105.757 255.186 106.232 254.064 106.5C253.95 106.6 253.954 106.8 254.088 106.7C256.213 106.5 258.909 105.999 260.162 104.099C260.528 103.499 259.801 103.2 259.368 103.4H259.363ZM260.4 109.3C259.129 109.83 257.785 110.167 256.414 110.3C255.885 110.4 255.637 111.3 256.272 111.3C257.798 111.234 259.308 110.965 260.763 110.5C260.852 110.486 260.937 110.454 261.013 110.404C261.088 110.355 261.152 110.289 261.201 110.213C261.249 110.136 261.28 110.051 261.292 109.962C261.305 109.872 261.298 109.781 261.272 109.694C261.246 109.608 261.202 109.528 261.143 109.46C261.083 109.392 261.01 109.337 260.928 109.3C260.846 109.262 260.757 109.243 260.667 109.243C260.576 109.243 260.487 109.262 260.405 109.3H260.4ZM264.761 112.099C262.905 112.199 261.225 112.799 259.342 112.599C258.793 112.499 258.237 113.5 258.901 113.7C260.904 114.238 263.031 114.061 264.918 113.2C265.537 113 265.554 111.999 264.766 112.099H264.761ZM225.751 103C225.545 102.7 225.231 102.491 224.874 102.417C224.518 102.342 224.146 102.407 223.837 102.599C223.472 102.57 223.107 102.639 222.778 102.8C219.578 104.8 215.502 103.8 215.152 99.4998C215.151 99.3276 215.11 99.1581 215.034 99.0037C214.958 98.8492 214.848 98.714 214.712 98.6082C214.576 98.5023 214.418 98.4284 214.25 98.3923C214.082 98.3563 213.907 98.3592 213.74 98.4001C213.64 98.3001 213.571 98.0998 213.455 97.9998C213.251 97.7887 212.984 97.6489 212.694 97.6013C212.404 97.5537 212.107 97.6005 211.845 97.7351C211.584 97.8697 211.374 98.0847 211.244 98.3484C211.115 98.6121 211.074 98.9111 211.127 99.2C211.059 99.4397 210.972 99.6739 210.867 99.9001C210.795 99.8001 210.753 99.6994 210.667 99.5994C208.028 95.9994 202.095 95.1994 198.099 96.0994C197.276 96.2568 196.488 96.5621 195.774 96.9998C195.781 96.9668 195.781 96.9331 195.774 96.9001C195.851 96.8001 195.647 96.6996 195.556 96.7996C195.49 96.9445 195.404 97.0796 195.3 97.2C190.661 100.5 196.017 108.2 201.1 109.5C202.838 109.901 204.644 109.901 206.382 109.5C208.134 109.363 209.804 108.7 211.174 107.599C211.29 107.57 211.391 107.5 211.457 107.4C211.602 107.519 211.781 107.589 211.968 107.599C215.699 107.699 220.044 108.9 222.874 106.7C223.059 106.6 223.245 106.5 223.424 106.4C223.61 106.535 223.824 106.626 224.049 106.669C224.275 106.711 224.507 106.705 224.73 106.647C224.952 106.59 225.159 106.484 225.336 106.338C225.513 106.191 225.656 106.007 225.754 105.8C226.055 105.395 226.217 104.904 226.218 104.4C226.218 103.896 226.056 103.405 225.756 103H225.751ZM208.437 103.7C204.508 104.9 201.092 102.6 197.337 99.7996C197.084 99.6466 196.783 99.5928 196.492 99.6482C196.201 99.7036 195.941 99.864 195.762 100.099C196.035 99.6448 196.382 99.24 196.789 98.9001C199.828 96.3001 210.967 100.9 208.442 103.7H208.437ZM182.514 112.7C182.521 111.3 182.634 109.9 182.514 108.5C182.484 108.1 181.951 108.2 181.907 108.5C181.595 110.8 179.791 114.2 181.149 116.3C181.239 116.398 181.353 116.47 181.48 116.51C181.606 116.549 181.741 116.553 181.871 116.522C182 116.492 182.119 116.428 182.214 116.336C182.31 116.244 182.38 116.128 182.416 116C182.581 114.908 182.616 113.8 182.519 112.7H182.514ZM187.908 109.7C187.808 109.1 186.8 109.3 186.729 109.8C186.439 111.8 185.965 113.699 185.742 115.599C185.59 116.999 187.613 116.499 187.923 115.599C188.572 113.599 188.216 111.7 187.913 109.7H187.908ZM223.942 108.8C223.897 108.698 223.818 108.615 223.719 108.564C223.62 108.514 223.507 108.499 223.398 108.522C223.289 108.546 223.192 108.606 223.122 108.693C223.053 108.78 223.016 108.888 223.017 109C223.078 111.2 222.707 113.5 224.27 115.2C224.756 115.7 225.792 115 225.737 114.4C225.446 112.449 224.841 110.558 223.947 108.8H223.942ZM227.142 108.7C227.07 108.623 226.976 108.57 226.872 108.55C226.768 108.529 226.661 108.541 226.565 108.586C226.469 108.63 226.39 108.704 226.339 108.797C226.287 108.889 226.266 108.994 226.279 109.099C226.571 110.311 226.718 111.553 226.717 112.8C226.658 113.205 226.682 113.618 226.788 114.013C226.894 114.409 227.079 114.778 227.333 115.099C227.462 115.22 227.621 115.305 227.793 115.345C227.965 115.386 228.145 115.381 228.315 115.331C228.484 115.28 228.638 115.186 228.76 115.057C228.882 114.929 228.968 114.771 229.01 114.599C229.48 112.699 228.188 110.3 227.144 108.7H227.142ZM229.376 110.7C229.264 110.3 228.64 110.6 228.731 110.9C228.847 111.4 229.055 111.9 229.171 112.3C229.271 112.8 229.979 112.499 229.865 112.099C229.735 111.599 229.511 111.2 229.378 110.7H229.376ZM46.141 360.3C44.932 355.4 40.121 353.8 36.431 357.2C31.915 361.4 33.8909 368.8 36.631 373.4C36.823 373.7 37.299 373.4 37.242 373C36.47 369.2 35.028 364.1 36.82 360.4C37.475 359 38.81 357.499 40.44 357.599C42.398 357.599 43.192 360.1 43.9 361.5C44.507 362.7 46.419 361.5 46.143 360.3H46.141ZM45.831 279.4C42.5667 278.567 39.2338 278.031 35.873 277.8C35.051 277.7 34.549 279 35.5 279.2H35.575C35.4827 279.292 35.3993 279.392 35.326 279.5L34.726 279.8C33.726 280.3 33.387 281.599 34.434 282.099C34.0969 282.366 33.8488 282.729 33.7225 283.139C33.5963 283.55 33.5978 283.99 33.727 284.4C33.3766 284.454 33.048 284.603 32.7778 284.833C32.5077 285.062 32.3066 285.363 32.197 285.7C30.7191 291.31 29.6862 297.027 29.108 302.8C29.0498 303.036 29.0763 303.285 29.1828 303.505C29.2892 303.724 29.469 303.899 29.6909 304C28.5379 313.9 28.907 323.7 29.384 333.8C29.3949 333.973 29.4376 334.142 29.5099 334.3C29.5009 337.6 29.493 341 29.502 344.3H29.494C29.479 345.7 29.477 347.1 29.504 348.3C29.513 350.5 29.5169 352.7 29.5229 354.8C29.5028 354.964 29.5154 355.13 29.5599 355.29C29.6043 355.449 29.6798 355.598 29.782 355.728C29.8843 355.858 30.0112 355.967 30.1555 356.048C30.2998 356.129 30.4586 356.181 30.623 356.2C31.1475 357.978 31.8771 359.69 32.797 361.3C33.662 362.8 35.941 361.7 36.31 360.4C38.199 359.1 40.088 357.8 41.977 356.4H42.6049C44.6149 356.8 46.03 353.9 44.081 352.9C43.1123 352.389 42.0755 352.018 41.002 351.8C41.6672 351.787 42.3027 351.522 42.7792 351.057C43.2557 350.593 43.5373 349.964 43.567 349.3C42.351 332.8 41.457 316.4 43.361 299.9C43.4131 299.642 43.3925 299.374 43.3016 299.127C43.2107 298.88 43.053 298.663 42.846 298.5C43.5502 295.235 44.0432 291.928 44.322 288.599C44.573 287.799 44.802 286.999 45.096 286.099C45.2304 285.833 45.2694 285.529 45.2064 285.238C45.1434 284.947 44.9823 284.686 44.75 284.5C44.907 283.8 45.063 283.2 45.225 282.4C45.3225 282.034 45.2925 281.646 45.14 281.3H45.335C46.406 281.3 47.144 279.7 45.833 279.4H45.831ZM84.406 204.4C83.0859 205.807 81.8741 207.311 80.781 208.9C80.347 209.5 79.916 210 79.481 210.5C79.225 210.415 78.9497 210.408 78.6896 210.479C78.4295 210.55 78.1962 210.697 78.019 210.9C76.375 213.1 75.048 214.899 73.459 217.099C72.894 217.899 70.384 221.6 67.898 224.7C67.7252 224.684 67.5515 224.719 67.398 224.8C66.4115 224.004 65.5555 223.06 64.861 222C65.7439 218.983 66.7786 216.012 67.961 213.099C68.542 211.399 66.077 211.3 65.368 212.4C64.1826 214.309 63.0975 216.278 62.117 218.3C61.7525 218.256 61.3829 218.307 61.0435 218.447C60.7042 218.587 60.4065 218.811 60.179 219.099C57.9958 222.246 56.0568 225.557 54.379 229C49.773 237.2 45.627 245.6 41.836 254.2C41.625 254.7 41.468 255 41.377 255.3C40.641 257 39.866 258.7 39.159 260.4C39.0948 260.542 39.0622 260.695 39.0636 260.85C39.065 261.006 39.1003 261.159 39.167 261.3C36.7572 266.725 35.0588 272.439 34.114 278.3C33.723 280.5 36.592 280.4 37.25 278.7C37.3373 278.427 37.4425 278.16 37.565 277.9C37.764 278.302 38.0663 278.642 38.4408 278.888C38.8153 279.134 39.2485 279.276 39.696 279.3C40.5526 279.391 41.4189 279.296 42.2349 279.019C43.0509 278.743 43.7971 278.293 44.422 277.7C46.35 277.1 48.486 274.6 50.166 269.4C50.247 269.224 50.2804 269.03 50.2628 268.837C50.2453 268.644 50.1774 268.458 50.0659 268.3C51.056 265.6 51.756 263 52.21 261.4C52.7746 259.146 53.021 256.823 52.942 254.5C53.1868 254.562 53.4421 254.572 53.6909 254.528C53.9398 254.484 54.1766 254.389 54.3858 254.247C54.5949 254.105 54.7717 253.921 54.9044 253.706C55.0372 253.491 55.1229 253.25 55.156 253C55.5574 253.035 55.96 252.949 56.312 252.753C56.6641 252.557 56.9493 252.26 57.131 251.9C57.352 251.4 57.598 250.9 57.831 250.4C58.3038 250.232 58.7103 249.916 58.991 249.5C62.207 242.8 65.2909 236.3 69.5009 230.3C69.5129 230.3 69.511 230.2 69.524 230.2C76.333 226.2 82.353 213 86.117 207.8C86.455 207.4 86.793 206.999 87.131 206.599C88.7489 204.499 86.08 202.7 84.408 204.4H84.406ZM44.234 270.8C43.462 270.4 42.634 269.2 41.741 267.4C43.117 264 44.462 260.6 45.841 257.2C46.8563 257.2 47.9333 258.499 49.072 261.099C48.1641 264.638 46.5159 267.945 44.236 270.8H44.234ZM49.926 267.599C50.579 265.777 51.0807 263.904 51.426 262C51.752 260 49.303 259.9 48.56 261.3C48.884 259.9 49.209 258.499 49.514 257.099C49.6071 256.701 49.5821 256.285 49.442 255.9C49.492 255.7 49.553 255.5 49.603 255.2C50.114 252.6 46.492 252.1 45.496 254.2C45.4408 254.373 45.3688 254.541 45.281 254.7C45.2861 254.733 45.2834 254.767 45.2729 254.8C44.8139 255.8 44.4209 256.8 44.0229 257.8C43.3879 257.869 42.7915 258.139 42.3206 258.571C41.8498 259.003 41.529 259.573 41.405 260.2C41.032 264.9 40.654 269.6 40.178 274.2C39.3373 277.74 38.889 281.362 38.841 285C38.803 287.8 43.2519 287.3 43.5919 284.9C43.6119 284.8 43.624 284.6 43.643 284.5C44.3175 284.569 44.9956 284.409 45.5685 284.047C46.1413 283.684 46.5757 283.139 46.802 282.5C47.16 280.9 47.423 279.3 47.634 277.8C48.402 274.4 49.121 270.999 49.928 267.599H49.926ZM123.871 174.5C122.889 172.6 121.909 170.7 120.931 168.8C120.905 168.5 120.877 168.2 120.847 167.9C120.886 167.633 120.868 167.359 120.794 167.099C120.993 166.872 121.097 166.576 121.082 166.274C121.068 165.972 120.936 165.687 120.716 165.479C120.496 165.272 120.203 165.158 119.901 165.162C119.598 165.166 119.309 165.287 119.094 165.5C118.506 165.9 117.116 166.8 115.535 168C115.097 167.906 114.641 167.952 114.231 168.132C113.82 168.311 113.477 168.615 113.248 169C112.969 169.5 112.7 169.9 112.431 170.4C111.938 170.8 111.466 171.3 111.024 171.7C109.81 172.7 108.595 173.6 107.383 174.5C107.27 174.246 107.103 174.021 106.893 173.839C106.683 173.657 106.436 173.523 106.17 173.447C105.903 173.371 105.622 173.353 105.348 173.397C105.074 173.441 104.813 173.544 104.583 173.7C98.7795 177.374 93.3395 181.593 88.3369 186.3C88.0414 186.296 87.7488 186.357 87.4791 186.478C87.2094 186.599 86.9692 186.777 86.775 187C85.2893 188.815 83.6389 190.489 81.8449 192C80.8659 192.9 81.066 193.8 81.723 194.3C78.552 196.6 75.5699 198.999 73.4439 202.599C73.2243 202.971 73.0678 203.377 72.981 203.8C72.9789 203.731 72.9661 203.664 72.943 203.599C72.913 203.399 72.627 203.5 72.614 203.7C71.795 211.9 74.9369 213.6 79.2879 212.4C79.3737 212.514 79.483 212.609 79.6085 212.677C79.734 212.744 79.8727 212.784 80.015 212.794C80.1574 212.803 80.3002 212.782 80.4336 212.731C80.567 212.68 80.6878 212.601 80.7879 212.5C81.5379 211.9 82.097 211.499 82.563 211.099C88.091 208.299 94.379 202.8 97.18 200C97.3307 199.878 97.4438 199.716 97.5062 199.533C97.5686 199.35 97.5779 199.152 97.5327 198.964C97.4876 198.775 97.3901 198.604 97.2514 198.469C97.1127 198.333 96.9385 198.24 96.749 198.2C100.289 194.9 103.721 191.5 107.224 188.2C107.406 188.08 107.563 187.925 107.685 187.744C107.806 187.563 107.891 187.359 107.933 187.145C107.975 186.931 107.974 186.711 107.931 186.497C107.887 186.283 107.801 186.08 107.678 185.9C108.144 185.951 108.616 185.907 109.065 185.769C109.514 185.632 109.929 185.403 110.287 185.099C111.229 184.382 112.103 183.579 112.897 182.7C113.255 182.816 113.633 182.859 114.009 182.826C114.384 182.793 114.749 182.685 115.081 182.508C115.414 182.33 115.707 182.087 115.943 181.794C116.18 181.5 116.354 181.162 116.457 180.8C119.734 180.211 122.843 178.914 125.567 177C127.506 175.8 125.799 173.5 123.873 174.5H123.871ZM161.823 147.3C142.667 151.3 121.629 162.3 108.947 177.4C108.556 177.9 109.186 178.3 109.577 177.9C124.138 163.4 143.612 157.3 162.152 149.7C163.403 149.2 163.457 147 161.825 147.3H161.823ZM157.076 153.9C148.651 157.1 139.17 159.9 130.809 164.3C131.054 163.9 131.287 163.499 131.509 163.099C132.156 162.399 132.776 161.7 133.509 161C133.685 160.9 133.45 160.7 133.273 160.8C132.873 161.1 132.511 161.299 132.136 161.599C132.181 161.359 132.151 161.112 132.048 160.89C131.946 160.669 131.777 160.484 131.565 160.363C131.353 160.242 131.109 160.19 130.866 160.215C130.623 160.239 130.394 160.339 130.21 160.5C129.41 161.2 128.672 161.899 127.969 162.599C127.83 162.395 127.645 162.227 127.43 162.107C127.214 161.987 126.973 161.92 126.726 161.91C126.48 161.9 126.234 161.949 126.009 162.052C125.785 162.154 125.587 162.307 125.433 162.5C125.35 162.6 125.272 162.8 125.188 162.9C124.87 163.4 124.519 163.8 124.195 164.3H124.124C121.647 166.445 119.671 169.108 118.334 172.099C118.174 172.443 118.132 172.83 118.215 173.2C117.49 174.1 116.801 175.1 116.035 176C115.881 176.163 115.763 176.356 115.688 176.567C115.613 176.778 115.582 177.003 115.598 177.226C115.615 177.45 115.677 177.668 115.782 177.866C115.887 178.064 116.032 178.238 116.207 178.377C116.383 178.516 116.586 178.617 116.803 178.674C117.02 178.73 117.246 178.741 117.467 178.706C117.688 178.67 117.9 178.589 118.088 178.468C118.277 178.346 118.438 178.187 118.561 178C119.573 176.751 120.679 175.581 121.869 174.5C121.81 175 121.735 175.5 121.704 175.9C121.619 177.4 123.629 176.9 123.981 175.9C124.581 174.3 125.26 172.7 126 171.2C135.412 164.5 147.615 161.4 157.9 156.8C159.751 156 159.194 153.2 157.078 153.9H157.076ZM185.934 148.4C179.234 149.1 172.75 151 166.149 152.3C165.449 152.5 165.317 153.6 166.141 153.5C172.741 152.3 179.235 150.6 185.923 150C186.994 149.9 187.132 148.2 185.936 148.4H185.934ZM353.959 419.099C352.577 419.799 351.202 420.5 349.82 421.2C349.905 420.51 350.091 419.836 350.371 419.2C351.196 416.9 347.848 416.8 346.884 418.3C340.997 427.3 333.497 435 326.692 443.2C326.601 443.3 326.501 443.4 326.416 443.5C324.058 446.292 321.491 448.899 318.736 451.3C318.443 451.508 318.234 451.812 318.144 452.16C318.055 452.508 318.091 452.876 318.246 453.2C315.576 453.3 312.497 454.8 310.037 456.4C309.663 456.7 309.992 457.1 310.369 456.9C312.987 455.5 318.358 452.8 320.506 456.8C320.551 456.9 320.594 456.999 320.635 457.099C320.933 457.732 321.135 458.407 321.235 459.099C321.495 460.599 323.569 459.7 323.896 458.7C324.645 456.5 324.787 454.8 324.189 453.5C324.718 453.52 325.241 453.381 325.689 453.099H326.318C326.072 453.499 325.807 453.9 325.571 454.3C324.645 455.9 326.957 457 327.98 455.7C331.629 451.2 335.371 446.8 339.072 442.3C343.001 438.148 346.563 433.665 349.72 428.9C349.871 428.704 349.974 428.475 350.02 428.231C350.066 427.988 350.053 427.737 349.983 427.5C352.59 425.9 354.506 423.6 356.712 421.3C358.564 419.3 355.725 417.599 353.961 419.099H353.959ZM323.329 452C322.59 452.7 321.457 453.7 321.621 454.8C321.747 455.7 322.401 455.8 323.184 455.7C323.39 455.7 323.565 455.3 323.308 455.2C322.289 454.8 323.915 453.2 324.279 452.7C324.861 452 323.943 451.4 323.331 452H323.329ZM382.261 353.2C382.251 352.972 382.185 352.75 382.069 352.553C381.952 352.357 381.79 352.192 381.595 352.073C381.4 351.954 381.178 351.886 380.95 351.873C380.723 351.86 380.495 351.904 380.288 352C370.899 354.8 366.748 369.899 368.081 379.599C367.658 381.604 367.546 383.662 367.749 385.7C367.771 385.896 367.846 386.082 367.967 386.238C368.087 386.395 368.247 386.516 368.431 386.588C368.615 386.66 368.815 386.68 369.009 386.647C369.204 386.614 369.385 386.529 369.535 386.4C380.019 379.7 383.394 364.8 382.263 353.2H382.261ZM381.331 355.5C381.181 354.9 380.302 355.099 380.066 355.599C379.889 356.054 379.748 356.523 379.643 357C379.449 357.5 380.243 357.6 380.456 357.2C380.493 357.2 380.499 357.099 380.532 357.099C380.733 357.103 380.93 357.034 381.085 356.906C381.24 356.778 381.345 356.599 381.38 356.4C381.41 356.099 381.394 355.796 381.333 355.5H381.331ZM372.458 265.3C372.258 264.8 371.424 265.2 371.601 265.7C376.061 278.1 377.394 290.9 378.701 304C378.793 304.9 380.201 304.6 380.201 303.8C380.126 290.587 377.497 277.514 372.46 265.3H372.458ZM380.958 318.099C380.954 318.028 380.923 317.963 380.871 317.914C380.819 317.865 380.751 317.838 380.679 317.838C380.608 317.838 380.54 317.865 380.488 317.914C380.436 317.963 380.405 318.028 380.401 318.099C380.82 323.694 380.757 329.316 380.211 334.9C380.156 335.5 381.088 335.3 381.152 334.7C381.754 329.179 381.691 323.605 380.965 318.099H380.958ZM259.992 262.2C249.467 269.1 238.119 274.599 228.708 283.099C228.495 283.293 228.351 283.551 228.296 283.834C228.242 284.117 228.281 284.41 228.407 284.669C228.533 284.928 228.739 285.138 228.995 285.27C229.251 285.402 229.543 285.448 229.827 285.4C234.56 285 238.827 284.3 243.607 284.9C244.152 285 244.607 284.2 244.026 283.9C240.748 282.4 237.456 282.4 234.045 282.4C241.255 277 249.18 272.7 256.86 268C255.767 269.942 254.786 271.945 253.922 274C253.238 275.8 255.871 275.8 256.622 274.7C258.913 271.361 260.881 267.811 262.5 264.099C263.246 262.399 261.541 261.2 259.999 262.2H259.992ZM210.892 188.099C210.764 181.499 210.878 174.7 209.342 168.3C209.287 168 208.906 168.1 208.863 168.3C207.592 174 207.514 179.9 207.37 185.7C207.201 192.5 206.57 199.4 207.655 206C207.895 207.5 210.361 206.9 210.55 205.7C211.462 199.8 211.016 193.999 210.904 188.099H210.892ZM97.485 250C91.71 246.8 85.8989 243.3 79.5479 241.4C79.3049 241.3 79.212 241.7 79.364 241.8C83.669 245.8 88.704 248.8 93.677 251.8C99.413 255.3 105.086 259.3 111.391 261.7C112.807 262.3 113.453 259.8 112.498 259C107.918 255.3 102.622 252.8 97.485 250ZM78.594 314.099C71.994 314.299 65.224 314.2 58.776 315.7C58.527 315.8 58.6409 316.1 58.8419 316.2C64.5419 317.4 70.402 317.5 76.231 317.7C82.951 317.8 89.8639 318.5 96.5169 317.4C98.0169 317.1 97.343 314.7 96.127 314.5C90.319 313.6 84.464 313.999 78.594 314.099ZM94.3059 379.2C88.6509 382.6 82.734 385.9 77.917 390.4C77.8828 390.445 77.8643 390.5 77.8641 390.556C77.8639 390.613 77.8822 390.667 77.9161 390.713C77.95 390.758 77.9977 390.791 78.052 390.806C78.1063 390.822 78.1642 390.82 78.2169 390.8C83.7909 389.1 88.8989 386.2 94.0169 383.4C99.9169 380.2 106.222 377.3 111.442 373C112.619 372.1 110.808 370.3 109.657 370.7C104.179 372.8 99.3269 376.1 94.3059 379.2ZM140.406 427.599C137.206 433.399 133.732 439.199 131.837 445.599C131.758 445.799 132.143 445.9 132.284 445.8C136.237 441.5 139.229 436.4 142.272 431.5C145.779 425.7 149.779 420 152.167 413.7C152.71 412.3 150.24 411.699 149.467 412.599C145.783 417.199 143.24 422.499 140.406 427.599ZM204.541 446.599C204.661 453.199 204.555 459.9 206.094 466.4C206.147 466.6 206.525 466.5 206.574 466.3C207.84 460.6 207.917 454.8 208.066 448.9C208.234 442.2 208.866 435.299 207.774 428.599C207.538 427.099 205.074 427.8 204.881 429C203.984 434.8 204.431 440.699 204.541 446.599ZM269.534 430.8C272.94 436.5 276.234 442.4 280.78 447.2C280.963 447.4 281.232 447.1 281.165 446.9C279.417 441.4 276.552 436.199 273.765 431.099C270.552 425.199 267.634 418.9 263.365 413.7C262.415 412.5 260.614 414.3 261.056 415.5C263.181 420.9 266.504 425.8 269.534 430.8ZM317.961 384.7C323.74 387.9 329.547 391.4 335.896 393.3C335.951 393.294 336.004 393.273 336.048 393.239C336.092 393.205 336.125 393.16 336.145 393.108C336.165 393.056 336.17 393.001 336.16 392.946C336.149 392.892 336.124 392.841 336.087 392.8C331.777 388.9 326.745 385.9 321.768 382.8C316.036 379.3 310.361 375.3 304.053 372.9C302.642 372.4 301.987 374.899 302.944 375.599C307.53 379.299 312.829 381.9 317.961 384.7ZM336.854 320.5C343.454 320.4 350.223 320.5 356.669 319C356.718 318.974 356.758 318.934 356.783 318.885C356.809 318.837 356.819 318.781 356.811 318.726C356.804 318.672 356.78 318.62 356.742 318.58C356.705 318.539 356.656 318.511 356.602 318.5C350.902 317.2 345.046 317.1 339.215 317C332.499 316.8 325.579 316.2 318.923 317.3C317.434 317.5 318.103 320 319.323 320.2C325.125 321.1 330.986 320.6 336.854 320.5ZM321.145 255.5C326.796 252.1 332.713 248.8 337.534 244.2C337.721 244 337.434 243.8 337.234 243.8C331.659 245.6 326.556 248.4 321.434 251.2C315.527 254.4 309.227 257.399 304.006 261.599C302.834 262.599 304.649 264.4 305.794 264C311.27 261.8 316.115 258.5 321.145 255.5ZM145.913 203.8C142.513 198.2 139.218 192.2 134.665 187.4C134.487 187.2 134.219 187.5 134.279 187.7C136.032 193.3 138.892 198.4 141.679 203.5C144.894 209.4 147.809 215.8 152.07 221C153.026 222.2 154.823 220.3 154.383 219.2C152.258 213.7 148.942 208.9 145.913 203.8ZM275.123 203.8C278.532 198.2 281.816 192.2 286.372 187.4C286.547 187.2 286.815 187.5 286.757 187.7C285.005 193.3 282.144 198.4 279.357 203.5C276.148 209.4 273.228 215.8 268.971 221C268.011 222.2 266.218 220.3 266.659 219.2C268.777 213.7 272.094 208.9 275.123 203.8ZM216.966 393.3C211.171 393.3 205.98 391.4 200.609 389.4C199.609 389.1 198.599 388.7 197.579 388.3C193.772 390.4 190.347 391.6 187.519 391.3C184.062 390.9 181.303 389.5 180.491 387.7C180.277 387.305 180.211 386.847 180.302 386.408C180.394 385.969 180.638 385.576 180.991 385.3C182.286 384.1 184.991 383.8 188.627 384.5C191.61 385.113 194.551 385.915 197.433 386.9C202.536 383.835 207.47 380.497 212.214 376.9C213.388 376 214.574 375.2 215.758 374.3C212.596 373.2 209.546 371.8 206.549 370.5C197.556 376.1 183.861 379.599 171.964 375.099C165.492 372.599 164.947 370 165.631 368.2C167.299 364 177.977 361.1 185.01 361.9C192.622 362.9 199.51 365.9 206.178 368.9C206.249 368.9 206.317 369 206.388 369C207.035 368.6 207.657 368.1 208.246 367.7C208.395 367.555 208.595 367.474 208.802 367.474C209.01 367.474 209.21 367.555 209.359 367.7C209.43 367.752 209.488 367.821 209.526 367.9C209.565 367.98 209.584 368.068 209.582 368.156C209.58 368.244 209.556 368.331 209.513 368.408C209.471 368.485 209.41 368.551 209.336 368.599C208.864 368.999 208.374 369.3 207.861 369.7C210.852 371 213.892 372.3 217.04 373.4C227.005 366.2 236.91 359.899 244.628 361.099C246.329 361.383 247.942 362.055 249.342 363.06C250.743 364.066 251.894 365.38 252.707 366.9C254.107 369.2 254.064 371.3 252.595 372.9C248.454 377.7 234.308 377.8 229.68 377.4C225.485 377.049 221.346 376.21 217.345 374.9C215.974 375.8 214.619 376.8 213.282 377.8C208.718 381.27 203.982 384.508 199.091 387.5C199.822 387.8 200.552 388 201.273 388.3C210.138 391.5 217.793 394.3 228.525 389.3C228.7 389.203 228.903 389.17 229.1 389.207C229.296 389.243 229.474 389.347 229.603 389.5C229.655 389.574 229.689 389.659 229.703 389.748C229.717 389.837 229.711 389.929 229.685 390.015C229.659 390.102 229.614 390.181 229.553 390.248C229.492 390.314 229.417 390.367 229.333 390.4C225.477 392.274 221.253 393.264 216.966 393.3ZM185.102 385.4C184.073 385.283 183.035 385.53 182.17 386.099C182.004 386.246 181.893 386.445 181.856 386.664C181.82 386.882 181.86 387.107 181.97 387.3C182.47 388.4 184.451 389.6 187.739 390C189.958 390.3 192.739 389.4 195.87 387.8C193.399 386.883 190.854 386.181 188.263 385.7C187.218 385.523 186.162 385.423 185.102 385.4ZM218.647 373.9C222.26 375.132 226.014 375.905 229.82 376.2C235.12 376.6 247.891 376.1 251.297 372.2C252.433 370.9 252.425 369.4 251.277 367.4C249.491 364.5 247.218 362.8 244.32 362.4C237.477 361.3 227.877 367.3 218.647 373.9ZM182.279 363C175.858 363 168.279 365.699 167.135 368.599C166.229 370.899 169.635 372.8 172.645 373.9C183.694 378.2 196.445 375 205.045 369.8C198.334 366.9 191.967 364.1 184.766 363.2C183.942 363.081 183.111 363.014 182.279 363ZM326.92 450.9C326.114 451.3 325.274 451.8 324.47 452.3C324.385 451.5 323.39 451.7 323.162 452.3C322.856 453.1 322.256 453.8 321.992 454.7C321.66 455.8 323.021 456.3 323.811 455.8C325.502 454.5 328.703 454.199 328.711 451.599C328.715 450.599 327.604 450.5 326.92 450.9ZM123.605 452.2C108.419 440.9 95.022 428 84.846 411.9C84.616 411.6 84.01 412 84.223 412.4C93.7655 428.74 106.687 442.855 122.123 453.8C123.094 454.5 124.641 452.9 123.605 452.2ZM120.996 436.9C111.053 429.6 102.096 421.099 95.4749 410.599C95.1609 410.099 94.319 410.7 94.609 411.2C100.848 421.991 109.458 431.224 119.788 438.2C120.594 438.7 121.851 437.5 120.994 436.9H120.996ZM117.229 421.5C112.989 417.99 109.038 414.144 105.416 410C104.992 409.5 104.042 410.099 104.458 410.599C107.987 414.999 111.482 419.399 116.14 422.599C116.857 423.099 117.985 422 117.229 421.5ZM123.176 412.4C120.976 410.8 119.066 409.4 117.708 406.9C117.439 406.4 116.65 407 116.895 407.5C118.044 410.043 120.091 412.073 122.645 413.2C123.039 413.3 123.594 412.7 123.176 412.4ZM127.662 403.599C126.154 402.668 124.713 401.632 123.35 400.5C122.781 399.9 121.765 401 122.378 401.5C123.688 402.716 125.15 403.757 126.727 404.599C127.355 404.999 128.337 404.099 127.662 403.599ZM350.618 255C340.482 234.7 326.973 215.9 306.944 204.4C306.328 204 305.381 204.9 306.044 205.4C325.763 217.4 337.624 236.6 348.932 256.2C349.513 257.2 351.11 256 350.618 255ZM313.704 218.2C313.336 217.8 312.524 218.3 312.888 218.8C325.925 233.4 337.827 248.799 344.188 267.599C344.448 268.399 345.669 267.799 345.474 267.099C340.313 247.999 326.875 232.5 313.704 218.2ZM331.993 260.7C326.499 250.6 319.564 241.4 312.658 232.3C312.172 231.7 310.987 232.499 311.458 233.099C318.089 242.499 324.558 251.9 330.458 261.7C330.994 262.6 332.485 261.6 331.994 260.7H331.993ZM316.015 251.9C314.188 248.1 311.732 244.6 309.715 240.9C309.23 240 307.8 241 308.227 241.9C310.067 245.7 312.258 249.399 314.287 253.099C314.854 254.099 316.504 253 316.015 251.9ZM303.145 246.7C303.071 246.626 302.974 246.58 302.87 246.57C302.766 246.561 302.661 246.587 302.576 246.647C302.49 246.707 302.428 246.795 302.401 246.896C302.373 246.997 302.383 247.105 302.427 247.2C304.136 249.7 305.227 252.6 306.659 255.3C306.918 255.8 307.841 255.3 307.624 254.8C306.441 251.939 304.938 249.223 303.145 246.7ZM194.074 346.4C193.417 345.172 192.566 344.057 191.555 343.099C190.996 342.499 189.904 343.6 190.544 344.2C191.47 345.061 192.285 346.035 192.968 347.099C193.372 347.799 194.402 347 194.074 346.4ZM213.555 317.3C210.174 316.633 206.666 317.316 203.78 319.2C202.103 320.004 200.675 321.248 199.649 322.8C198.83 323.665 198.252 324.729 197.971 325.886C197.69 327.044 197.717 328.256 198.049 329.4C198.772 334.3 203.349 339 208.049 339.7C214.485 340.7 220.549 336.2 222.757 330.3C225.194 323.8 219.394 318.5 213.555 317.3ZM215.206 329.099C214.935 330.299 214.348 331.404 213.506 332.3C213.178 332.5 212.842 332.7 212.474 332.9C211.302 333.463 210.013 333.737 208.714 333.7C206.154 332.3 203.041 330.099 203.675 327.099C204.225 324.399 207.639 323.1 209.969 322.8C210.821 322.715 211.682 322.783 212.511 323C212.844 323.2 213.162 323.3 213.469 323.5C214.191 324.222 214.727 325.109 215.03 326.085C215.332 327.06 215.393 328.095 215.206 329.099ZM220.165 328.2C220.028 326.833 219.563 325.518 218.81 324.369C218.056 323.22 217.037 322.27 215.837 321.599C215.588 321.299 215.337 321 215.065 320.7C216.148 321.173 217.15 321.814 218.034 322.599C218.836 323.274 219.453 324.143 219.826 325.123C220.199 326.103 220.316 327.162 220.165 328.2ZM261.065 262.5C253.056 273 243.524 281.699 234.913 291.599C227.48 300.199 217.857 308.4 213.706 319.2C213.553 319.6 214.146 319.7 214.357 319.4C222.611 309.9 231.407 300.899 239.857 291.599C247.742 282.799 259.09 275.199 263.821 264.099C263.992 263.737 264.021 263.324 263.902 262.941C263.782 262.558 263.524 262.234 263.177 262.033C262.83 261.832 262.42 261.768 262.029 261.854C261.638 261.941 261.293 262.171 261.063 262.5H261.065ZM259.937 264.5C254.582 266.7 250.398 270.5 245.667 273.7C241.115 276.7 235.967 278.3 231.667 281.7C231.345 281.7 231.026 281.599 230.7 281.599C228.989 281.499 227.87 284.1 229.915 284.4C230.101 284.482 230.304 284.516 230.507 284.5C230.762 284.809 231.099 285.039 231.48 285.163C231.861 285.287 232.269 285.3 232.657 285.2C232.819 285.091 233.005 285.022 233.199 285C236.355 285.5 239.511 286 242.681 286.4C242.246 290.2 241.863 293.9 241.759 297.7C241.698 299.7 244.14 299.4 245.176 298.5C254.442 290.2 255.187 276.8 262.224 267C263.329 265.5 261.413 263.9 259.935 264.5H259.937ZM251.721 275.3C251.579 275.128 251.405 274.988 251.208 274.885C251.012 274.781 250.796 274.719 250.575 274.7C252.205 273.5 253.811 272.3 255.445 271.2C254.606 272.9 253.831 274.7 253.117 276.5C253.069 276.164 252.9 275.858 252.643 275.637C252.386 275.417 252.058 275.297 251.719 275.3H251.721ZM204.751 318.5C190.423 288.245 174.093 258.981 155.87 230.9C155.729 230.7 155.309 230.899 155.412 231.099C168.491 261.699 187.351 290 200.938 320.4C202.083 323 205.9 320.9 204.749 318.5H204.751ZM174.639 245.7C167.053 237.7 159.56 229.6 153.229 220.5C153.003 220.22 152.7 220.012 152.358 219.9C152.329 219.6 152.293 219.3 152.266 219C152.212 218.4 151.443 218.599 151.377 219.099C151.347 219.299 151.342 219.6 151.311 219.8C150.684 219.931 150.128 220.289 149.751 220.806C149.373 221.324 149.2 221.962 149.266 222.599C149.702 225.068 150.294 227.507 151.038 229.9C151.606 238.306 153.794 246.523 157.48 254.099C158.19 255.599 160.165 254.799 160.939 253.599C161.296 253.407 161.604 253.137 161.84 252.807C162.076 252.478 162.234 252.099 162.302 251.7C162.622 249.28 162.77 246.841 162.745 244.4C165.519 246.599 168.699 248.23 172.103 249.2C174.152 249.8 176.308 247.5 174.637 245.7H174.639ZM205.196 343.7C199.296 339.9 194.751 335.099 193.121 328.099C193.058 327.799 192.658 328 192.693 328.3C193.737 335.6 197.793 341.1 204.108 344.9C204.846 345.3 205.994 344.2 205.194 343.7H205.196ZM197.048 344C195.395 342.102 193.914 340.061 192.623 337.9C192.423 337.5 191.747 337.9 191.911 338.2C192.883 340.623 194.368 342.805 196.264 344.599C196.633 344.999 197.387 344.4 197.046 344H197.048ZM232.508 324C230.261 320.9 227.964 317.7 224.867 315.3C224.318 314.9 223.449 315.8 224.012 316.3C226.849 318.8 228.723 322.1 231.212 324.9C231.344 325.034 231.52 325.116 231.707 325.134C231.895 325.151 232.083 325.101 232.237 324.994C232.392 324.886 232.504 324.727 232.553 324.546C232.602 324.364 232.585 324.171 232.506 324H232.508ZM231.908 314.099C231.774 313.962 231.595 313.876 231.404 313.856C231.213 313.836 231.021 313.883 230.861 313.99C230.701 314.097 230.583 314.257 230.529 314.441C230.474 314.626 230.485 314.823 230.561 315C231.474 316.787 232.588 318.465 233.881 320C233.995 320.072 234.127 320.11 234.262 320.109C234.396 320.108 234.528 320.068 234.641 319.994C234.753 319.92 234.842 319.815 234.897 319.692C234.951 319.569 234.969 319.433 234.948 319.3C234.12 317.465 233.101 315.721 231.908 314.099ZM236.856 312.9C236.423 312.1 235.078 313 235.511 313.8C236.121 314.842 236.797 315.844 237.536 316.8C237.634 316.898 237.761 316.961 237.899 316.98C238.036 316.999 238.176 316.972 238.297 316.904C238.418 316.836 238.513 316.73 238.568 316.603C238.623 316.476 238.635 316.335 238.602 316.2C238.088 315.065 237.505 313.963 236.856 312.9Z" fill="#254E92"/>
</g>
<defs>
<clipPath id="clip0_1_916">
<rect width="413.469" height="529.2" fill="white"/>
</clipPath>
</defs>
</svg>
