<svg width="522" height="400" viewBox="0 0 522 400" fill="none" xmlns="http://www.w3.org/2000/svg">
<path fill-rule="evenodd" clip-rule="evenodd" d="M125.518 338.681C125.613 338.451 125.647 338.2 125.616 337.953C125.584 337.706 125.489 337.471 125.338 337.272C125.188 337.073 124.988 336.917 124.759 336.82C124.53 336.722 124.279 336.685 124.031 336.714C99.6211 339.261 74.9851 338.663 50.728 334.934C50.4066 334.893 50.0801 334.948 49.7897 335.092C49.4993 335.235 49.2581 335.462 49.0967 335.743C48.9353 336.024 48.8609 336.346 48.8829 336.669C48.905 336.992 49.0224 337.301 49.2205 337.558C48.722 349.54 49.5556 361.539 51.7058 373.338C51.7311 373.554 51.8108 373.761 51.9377 373.938C52.0645 374.115 52.2342 374.257 52.431 374.35C52.6277 374.444 52.845 374.486 53.0625 374.473C53.2801 374.46 53.4907 374.391 53.6746 374.274C53.9226 374.468 54.2311 374.568 54.5455 374.556C77.3804 376.04 100.297 375.695 123.077 373.525C124.03 372.896 124.796 372.022 125.295 370.996C125.732 360.693 126.17 350.389 126.607 340.086C126.647 339.756 126.555 339.423 126.351 339.16C126.147 338.897 125.848 338.725 125.518 338.681ZM122.226 370.528C99.7157 372.619 77.0752 372.932 54.5156 371.464C52.6148 360.52 51.8719 349.407 52.2993 338.307C75.9166 341.709 99.8617 342.211 123.601 339.805C123.572 339.992 123.525 340.087 123.519 340.18C123.088 350.296 122.657 360.412 122.226 370.528ZM205.544 306.648C200.591 302.433 183.513 306.179 177.464 306.273C164.414 306.647 151.363 306.928 138.313 307.303C138.11 307.308 137.911 307.354 137.726 307.437C137.542 307.52 137.376 307.64 137.238 307.788C137.1 307.937 136.993 308.111 136.923 308.301C136.854 308.492 136.823 308.693 136.832 308.895C138.275 329.314 139.718 349.797 141.161 370.341C141.173 370.644 141.283 370.935 141.473 371.171C141.663 371.407 141.924 371.575 142.218 371.652C142.15 371.879 142.139 372.119 142.185 372.351C142.231 372.583 142.332 372.8 142.481 372.985C142.63 373.169 142.821 373.314 143.038 373.408C143.255 373.502 143.492 373.543 143.728 373.525L208.093 367.812C208.486 367.774 208.85 367.589 209.111 367.293C209.372 366.998 209.511 366.614 209.5 366.219C209.531 366.129 209.546 366.034 209.545 365.939C208.956 352.544 208.369 339.056 207.78 325.568C207.586 321.165 209.491 309.926 205.544 306.648ZM145.79 310.207C151.87 308.333 161.463 309.832 167.812 309.644C174.339 309.457 180.863 309.363 187.39 309.176C190.027 309.082 194.709 308.052 197.177 308.895C202.775 310.862 203.592 316.108 204.461 320.698C207.116 334.56 205.898 350.577 206.411 364.814L144.237 370.341C144.237 370.247 144.261 370.247 144.257 370.154C143.235 355.635 142.213 341.21 141.191 326.692C140.694 319.573 138.107 312.548 145.79 310.207ZM300.078 362.004C300.348 361.889 300.574 361.691 300.724 361.438C300.873 361.185 300.937 360.891 300.907 360.599C300.087 324.069 297.837 287.602 294.157 251.197C294.133 250.964 294.059 250.738 293.94 250.536C293.821 250.334 293.66 250.161 293.467 250.028C293.274 249.894 293.055 249.804 292.824 249.763C292.593 249.723 292.356 249.732 292.13 249.792L285.605 251.197C285.485 250.959 285.298 250.762 285.067 250.629C284.835 250.496 284.571 250.433 284.304 250.448L228.929 251.571C228.727 251.577 228.528 251.623 228.344 251.706C228.159 251.79 227.993 251.909 227.856 252.057C227.718 252.206 227.612 252.38 227.542 252.57C227.472 252.76 227.442 252.961 227.451 253.163C229.613 290.443 231.775 327.691 233.937 364.908C233.946 365.229 234.069 365.537 234.283 365.777C234.497 366.016 234.788 366.173 235.107 366.219C235.205 366.519 235.397 366.781 235.653 366.966C235.909 367.151 236.217 367.25 236.534 367.249C257.631 368.359 278.785 367.639 299.757 365.095C301.552 364.814 301.589 362.285 300.078 362.004ZM237.001 364.253C235.439 337.277 233.876 310.363 232.314 283.512C231.945 277.142 230.302 269.462 231.135 263.186C229.701 259.439 230.689 256.535 234.099 254.568C237.455 254.475 240.811 254.381 244.167 254.381L283.084 253.538C283.17 253.846 283.366 254.11 283.635 254.283C283.903 254.456 284.226 254.524 284.541 254.475C294.462 253.632 292.265 263.373 292.953 271.241C293.828 281.17 294.59 291.099 295.24 301.028C296.546 320.885 297.363 340.836 297.809 360.787C297.809 361.07 297.894 361.347 298.053 361.581C298.213 361.815 298.439 361.995 298.703 362.098C278.233 364.547 257.593 365.269 237.001 364.253ZM390.619 358.539C390.643 358.383 390.658 358.227 390.665 358.07C389.402 301.776 385.98 245.608 380.402 189.564C380.644 189.461 380.858 189.299 381.024 189.094C381.19 188.889 381.302 188.646 381.352 188.387C381.402 188.128 381.387 187.861 381.309 187.608C381.232 187.356 381.093 187.127 380.906 186.941C374.625 181.133 366.267 182.914 358.319 183.476C344.31 184.506 330.381 186.191 316.506 188.346C316.111 188.409 315.752 188.608 315.489 188.908C314.73 187.691 312.389 187.971 312.611 189.657C319.924 246.513 323.314 303.744 321.19 360.974C321.137 362.379 321.575 362.754 324.452 362.004L324.657 366.594L390.155 363.69C391.879 363.597 391.924 359.475 390.619 358.539ZM387.563 357.977L323.474 360.88C323.474 360.88 323.493 360.881 323.494 360.787C325.591 304.194 323.057 247.524 315.917 191.343C316.15 191.425 316.397 191.458 316.643 191.437C325.893 189.939 335.169 188.721 344.472 187.784C352.432 186.941 369.274 183.382 377.177 187.972C377.177 188.065 377.16 188.065 377.164 188.159C382.821 244.64 386.287 301.277 387.56 358.07L387.563 357.977ZM471.076 101.33C471.071 101.094 471.001 100.864 470.873 100.666C470.745 100.467 470.564 100.308 470.352 100.206C470.427 99.974 470.445 99.7276 470.404 99.4876C470.363 99.2476 470.264 99.0215 470.116 98.8281C469.968 98.6346 469.775 98.4797 469.554 98.3771C469.333 98.2745 469.09 98.2272 468.847 98.239C448.241 100.019 427.634 101.704 407.029 103.484C405.047 103.671 405.173 106.762 407.166 106.575C427.438 104.889 447.711 103.109 467.984 101.423V101.517C472.976 186.473 476.332 271.522 478.05 356.665C478.05 356.759 478.067 356.759 478.07 356.759C477 356.01 475.93 355.167 474.858 354.418C473.264 353.294 471.164 355.541 472.76 356.665C454.208 357.508 435.654 358.258 417.098 359.101H417.015C415.603 274.52 411.773 190.001 405.526 105.545C405.378 103.578 402.281 103.671 402.432 105.638C408.686 190.219 412.519 274.863 413.93 359.569C413.933 359.784 413.987 359.995 414.086 360.186C414.185 360.377 414.327 360.542 414.5 360.669C414.674 360.796 414.874 360.881 415.086 360.918C415.298 360.954 415.516 360.941 415.722 360.88C415.756 361.253 415.933 361.597 416.216 361.842C416.499 362.086 416.866 362.212 417.24 362.192C437.256 361.349 457.274 360.475 477.292 359.569C477.71 359.537 478.099 359.342 478.376 359.027C478.653 358.712 478.796 358.301 478.774 357.883C479.008 358.036 479.279 358.123 479.558 358.133C479.837 358.144 480.114 358.079 480.358 357.944C480.603 357.809 480.806 357.609 480.945 357.368C481.085 357.126 481.155 356.851 481.15 356.572C479.426 271.429 476.068 186.348 471.076 101.33ZM414.088 116.785L413.4 136.174C413.329 138.235 416.425 138.047 416.494 136.08C416.723 129.617 416.952 123.154 417.182 116.691C417.254 114.724 414.157 114.818 414.088 116.785ZM420.978 109.197L421.75 126.62C421.88 129.524 424.785 129.429 424.657 126.526L423.884 109.104L420.978 109.197ZM468.292 322.383L469.194 342.709L472.1 342.615L471.198 322.289C471.069 319.386 468.163 319.48 468.292 322.383ZM459.315 317.044L459.959 331.563L465.772 331.282L465.128 316.763C464.998 313.86 459.187 314.141 459.315 317.044ZM329.257 333.624C328.995 339.618 328.734 345.613 328.472 351.701C328.385 353.668 331.482 353.48 331.566 351.514C331.827 345.519 332.091 339.431 332.352 333.436C332.439 331.469 329.343 331.563 329.257 333.624ZM334.221 319.667L335.381 345.8L338.287 345.613L337.127 319.479C336.999 316.576 334.092 316.763 334.221 319.667ZM373.857 223.19C373.869 221.129 370.772 221.317 370.763 223.284C370.72 230.755 371.553 238.205 373.244 245.482C373.691 247.449 376.637 246.513 376.193 244.546C374.581 237.543 373.797 230.375 373.857 223.19ZM363.826 217.102L363.226 233.962C363.156 235.929 366.252 235.741 366.32 233.774L366.919 217.008C366.992 215.041 363.895 215.135 363.826 217.102ZM238.647 265.621L239.42 283.043C239.549 285.947 242.455 285.853 242.326 282.949L241.553 265.528C241.425 262.624 238.518 262.717 238.647 265.621ZM247.108 259.439L247.881 276.861L250.787 276.768L250.014 259.346C249.886 256.442 246.979 256.536 247.108 259.439ZM282.426 333.529L283.199 350.952C283.327 353.856 286.234 353.761 286.105 350.858L285.333 333.436C285.202 330.532 282.297 330.626 282.426 333.529ZM279.133 325.006L279.777 339.524C279.905 342.428 282.812 342.241 282.683 339.337L282.039 324.818C281.91 321.915 279.004 322.102 279.133 325.006ZM195.112 334.56L196.014 354.886C196.142 357.79 201.955 357.508 201.826 354.604L200.924 334.279C200.795 331.376 194.982 331.657 195.112 334.56ZM186.007 326.223L186.651 340.742C186.779 343.646 189.685 343.458 189.557 340.554L188.913 326.036C188.783 323.132 185.878 323.32 186.007 326.223ZM63.6966 347.954C63.3919 352.638 63.0872 357.415 62.7825 362.192C62.654 364.159 65.7506 363.971 65.8763 362.004C66.1809 357.227 66.4866 352.544 66.7922 347.767C66.9216 345.8 63.8241 345.987 63.6966 347.954ZM521.193 384.016C514.428 381.03 508.223 376.912 502.846 371.839C502.616 371.642 502.334 371.515 502.034 371.474C501.734 371.434 501.428 371.48 501.154 371.609C500.88 371.738 500.649 371.943 500.488 372.2C500.328 372.457 500.246 372.754 500.252 373.057C500.362 375.867 500.472 378.677 500.582 381.487C343.533 383.079 186.483 384.64 29.4335 386.17C32.3631 275.746 25.4268 165.281 8.70707 56.0889C8.40801 54.1219 5.30953 54.3085 5.61328 56.2755C22.3281 165.406 29.2657 275.808 26.3434 386.17L11.1371 386.358C9.14206 386.358 9.28177 389.449 11.274 389.449C16.269 389.355 21.265 389.355 26.26 389.261C26.1719 392.352 26.1091 395.443 26.006 398.534C25.9403 400.595 29.0369 400.408 29.0997 398.441C29.2019 395.35 29.2638 392.258 29.351 389.261C186.468 387.669 343.585 386.108 500.703 384.578C500.778 386.545 500.854 388.512 500.931 390.479C500.929 390.668 500.966 390.854 501.038 391.027C501.11 391.201 501.217 391.359 501.352 391.49C501.487 391.622 501.647 391.724 501.823 391.792C501.999 391.86 502.187 391.891 502.375 391.884C502.45 392.213 502.638 392.505 502.906 392.71C503.174 392.916 503.505 393.021 503.842 393.008C510.208 392.864 516.349 390.625 521.311 386.639C522.139 385.983 522.359 384.484 521.193 384.016ZM508.449 388.324C508.487 387.856 508.474 387.388 508.471 386.919C508.573 387.162 508.653 387.413 508.711 387.669C509.209 389.355 511.355 388.793 511.66 387.388C512.26 387.576 512.886 387.671 513.514 387.669C511.714 388.496 509.817 389.093 507.868 389.449C508.202 389.164 508.41 388.761 508.449 388.324ZM510.433 382.611C510.339 382.308 510.149 382.043 509.892 381.857C509.634 381.672 509.323 381.575 509.006 381.581C508.263 380.725 507.412 379.969 506.475 379.333L506.353 378.771C509.128 380.844 512.044 382.721 515.079 384.391H514.704C513.9 384.698 513.008 384.684 512.213 384.353C511.418 384.022 510.781 383.398 510.433 382.611ZM17.9359 51.2181C15.9632 43.9133 13.3454 36.7978 10.1133 29.9555C9.52458 28.7379 7.43392 28.457 7.12829 30.143C5.78803 37.483 3.53199 44.6264 0.412928 51.4056C0.213481 51.6227 0.0793636 51.8915 0.0259432 52.1813C-0.0274771 52.4711 0.00196379 52.77 0.110916 53.0438C0.219869 53.3177 0.40391 53.5549 0.641898 53.729C0.879885 53.9031 1.16218 54.007 1.45638 54.0281H2.13513L16.5315 53.1847C16.7659 53.1786 16.9956 53.1181 17.2027 53.0082C17.4097 52.8982 17.5883 52.7415 17.7245 52.5508C17.8606 52.3601 17.9506 52.141 17.9873 51.9096C18.024 51.6782 18.0064 51.4415 17.9359 51.2181ZM4.7836 48.9697C5.18705 48.8518 5.52973 48.5837 5.7408 48.2206C6.17861 47.2839 6.58455 46.4411 7.00549 45.5981C6.7758 46.7221 6.54611 47.8461 6.31735 48.8764C6.2436 49.2334 6.29468 49.6044 6.46207 49.9283C6.62945 50.2522 6.90303 50.5089 7.23707 50.6555C6.16924 50.6555 5.10235 50.7494 4.03547 50.843C4.29797 50.1874 4.53423 49.5317 4.7836 48.9697ZM8.72112 50.5622C8.92032 50.4135 9.08291 50.2216 9.19645 50.0006C9.51614 49.2513 9.74583 48.5949 10.0046 47.8455C10.0833 48.2202 10.1617 48.595 10.2399 48.9697C10.5136 50.281 11.8824 50.2812 12.668 49.6256C12.8965 49.8063 13.1667 49.9268 13.4538 49.9759C13.741 50.025 14.0359 50.0009 14.3115 49.9064C14.3598 50.0273 14.3956 50.1532 14.4183 50.2814L8.72112 50.5622ZM424.131 2.60463C424.21 2.4173 424.268 2.13648 424.349 1.85548C424.404 1.59108 424.389 1.31721 424.305 1.06059C424.22 0.803977 424.07 0.574026 423.869 0.393765C423.667 0.213505 423.422 0.089104 423.158 0.0333675C422.893 -0.0223689 422.619 -0.00823725 422.362 0.0754444C414.983 3.22609 408.346 7.8849 402.877 13.7513C402.639 14.008 402.496 14.3386 402.471 14.688C402.276 14.8398 402.123 15.0401 402.028 15.2689C401.933 15.4976 401.899 15.7467 401.93 15.9924C401.961 16.2381 402.055 16.472 402.204 16.6702C402.352 16.8685 402.55 17.0242 402.777 17.123C405.237 18.1284 407.631 19.286 409.947 20.5888C409.914 20.6825 409.874 20.6821 409.844 20.6821C393.603 45.4102 377.362 70.1075 361.119 94.7731C353.354 106.575 346.319 119.782 337.453 130.741C331.871 137.672 330.91 134.488 325.929 128.118L311.547 109.853C311.397 109.632 311.194 109.453 310.955 109.332C310.717 109.211 310.452 109.152 310.184 109.162C309.917 109.171 309.657 109.248 309.428 109.386C309.198 109.523 309.008 109.716 308.874 109.947C296.107 130.554 282.816 150.849 269.003 170.831C264.679 177.013 260.635 184.88 255.202 190.219C249.765 195.652 250.277 197.151 243.759 188.627C236.174 178.668 230.022 167.695 225.484 156.031C225.378 155.75 225.193 155.506 224.951 155.327C224.71 155.148 224.422 155.042 224.122 155.023C223.822 155.003 223.522 155.07 223.259 155.216C222.997 155.361 222.781 155.58 222.639 155.844L180.534 217.102C177.297 221.879 174.33 227.873 170.371 231.901C164.835 237.708 165.336 237.709 160.084 231.339C153.682 223.471 146.953 215.978 140.002 208.672C139.831 208.508 139.625 208.386 139.399 208.315C139.174 208.244 138.935 208.227 138.701 208.263C138.467 208.299 138.245 208.388 138.051 208.524C137.858 208.66 137.698 208.839 137.585 209.047L78.9958 296.999C77.8904 298.685 80.6439 300.091 81.7379 298.498L120.798 239.862C124.455 234.336 134.541 213.542 141.075 214.292C143.463 214.573 148.929 222.909 150.321 224.502C155.273 230.215 159.999 236.022 164.633 241.923C164.777 242.153 164.979 242.342 165.218 242.469C165.458 242.597 165.727 242.659 165.998 242.65C166.269 242.64 166.533 242.559 166.763 242.415C166.993 242.272 167.181 242.07 167.308 241.83C186.101 214.479 204.894 187.097 223.688 159.684C229.95 174.576 238.709 188.292 249.587 200.242C249.731 200.39 249.905 200.507 250.097 200.584C250.289 200.66 250.496 200.696 250.703 200.687C250.909 200.678 251.112 200.625 251.297 200.533C251.482 200.44 251.645 200.309 251.776 200.148C265.218 181.79 278.216 163.119 290.77 144.136C294.325 138.703 297.839 133.27 301.313 127.837C302.807 125.496 307.049 115.941 309.064 115.473C315.31 114.255 327.908 135.612 331.954 140.763C332.097 140.993 332.299 141.182 332.538 141.309C332.778 141.437 333.046 141.499 333.318 141.489C333.589 141.48 333.852 141.399 334.082 141.255C334.312 141.111 334.5 140.909 334.627 140.67C360.502 101.33 386.377 61.9898 412.252 22.6497L413.838 24.6163C413.978 24.8078 414.16 24.9651 414.37 25.0764C414.58 25.1878 414.812 25.2504 415.05 25.2594C415.287 25.2684 415.524 25.2237 415.741 25.1286C415.959 25.0334 416.153 24.8909 416.307 24.7105C416.75 25.0852 417.198 25.3659 417.63 25.7405C417.86 25.9382 418.142 26.0653 418.442 26.1064C418.742 26.1475 419.048 26.1007 419.323 25.9719C419.597 25.8432 419.828 25.6382 419.988 25.381C420.148 25.1239 420.231 24.8258 420.225 24.523C420.444 18.7675 421.281 13.052 422.723 7.47549C423.523 6.63249 424.317 5.88315 425.119 5.13382C426.173 4.10348 425.275 2.79197 424.136 2.60463H424.131ZM412.093 13.283C411.893 13.0494 411.714 12.7988 411.558 12.5339L414.682 10.8471C413.823 11.6901 412.961 12.5337 412.099 13.283H412.093ZM409.093 16.1863C408.98 16.2851 408.9 16.4161 408.863 16.5614C408.043 16.1135 407.201 15.7073 406.34 15.3439L408.839 13.9389C408.862 14.0325 408.862 14.0318 408.892 14.1255C409.2 14.5938 409.509 15.0621 409.819 15.5305C409.584 15.7178 409.342 15.999 409.101 16.1863H409.093ZM417.371 21.2447C417.34 21.1466 417.299 21.0526 417.247 20.9639C416.806 20.3082 416.366 19.652 415.927 18.9963C416.144 19.0979 416.383 19.1426 416.622 19.1262C416.86 19.1098 417.091 19.0333 417.292 18.903H417.544C417.469 19.6524 417.43 20.4954 417.379 21.2447H417.371Z" fill="#254E92"/>
</svg>
