<svg width="352" height="358" viewBox="0 0 352 358" fill="none" xmlns="http://www.w3.org/2000/svg">
<g clip-path="url(#clip0_1_919)">
<path fill-rule="evenodd" clip-rule="evenodd" d="M218.2 8.59934C218.8 8.69934 218.72 9.09973 218.62 9.49973C219.78 19.3997 225.08 32.0997 226.21 42.9997C227.18 52.1997 223.74 68.7995 233.7 72.7995C245.89 77.5995 253.66 56.5993 263.97 58.0993C258.52 74.0993 248.78 80.8997 237.1 83.4997C235.53 83.0997 229.76 81.0001 227.62 79.4001C215.6 70.1001 217.59 35.5001 215.02 21.4001C214.69 19.5001 212.09 13.3997 212.2 12.9997C212.91 10.8997 218.88 11.1993 218.2 8.59934ZM351.94 142.7C343.06 176.3 334.85 219.8 316.14 249C313.09 253.7 309.87 260.3 304.25 261.5C308.44 252.3 316.04 244.6 320.44 235.2C333.81 206.5 335.3 170.8 351.94 142.7ZM70.3801 136.4C75.9301 144.9 75.3801 156.3 78.7501 165.8C75.2601 168.7 70.6501 169.2 67.0301 171.8C63.5901 162.1 67.7901 148.9 70.3801 136.4ZM39.7601 212.4C41.3901 224.7 39.7601 243 36.7501 258.8C35.8801 263.5 35.5301 270.8 29.2701 269.3C35.0301 243.9 34.0201 221.7 25.6301 202.9C23.6101 209.7 27.73 215.2 29.05 221.7C31.98 236.2 27.76 251.5 24.92 269.2C16.15 272.6 7.52002 276.5 2.19002 287.3C-0.699984 279.4 -1.15995 270.5 3.60005 259.2C5.98005 253.6 13.21 247.5 13.55 238C13.73 233 9.15006 229.599 7.61006 224.099C5.03006 214.999 7.70004 205.8 11.84 196.4C22.33 201.2 34.9201 205 39.7601 212.4ZM51.59 282.5C46.44 285.8 38.68 289.3 38.29 298.9C44.46 295.6 47.86 286.399 55.42 286.099C58.1 287.699 60.7501 289.3 62.2601 291.5C49.5001 303.2 38.85 333.9 40.59 350.9C33.24 344.7 20.6 343.1 14.2 334.8C11.25 330.9 10.9 321.4 9.65999 317C7.82999 310.5 5.04009 303.5 6.02009 298.9C8.74009 285.8 21.88 279.899 33.58 279.599C29.07 281.899 25.3501 285.8 22.1501 290.8C30.3501 289.9 39.6 275.3 51.59 282.5ZM66.8601 315.099C68.1301 323.799 66.43 333.9 61.67 345.4C58.44 337.6 62.3701 326.499 66.8601 315.099ZM211.67 0.400122C208.5 2.80012 203.47 1.29993 199.83 2.69993C200.77 0.0999272 207.25 -0.599878 211.67 0.400122ZM35.47 194C36.87 181.8 24.6001 180.6 18.0201 169.4C8.40009 153 30.77 127.7 44.95 125.8C51.53 124.8 58.1301 128.5 65.2601 132.4C64.3801 148.2 56.49 167.2 64.44 178.9C71.28 179.7 75.34 174.599 81.57 174.099C93.13 182.199 105.66 180.4 115.2 188.5C122.84 195 125.01 214.3 139.75 215.7C154.73 217.2 160.03 184.599 167.2 168.599C177.97 144.599 195.28 125.8 205.14 104.8C224.43 63.8995 185.29 47.8995 191.94 12.2995C197.5 12.2995 203.63 13.4997 208.72 12.4997C214.03 21.7997 212.65 35.9993 214.26 49.5993C216.31 66.9993 216.05 87.6995 239.75 90.2995C226.63 100.8 207.33 104.6 197.25 122.5C192.04 131.7 189.43 143.3 183.28 154.7C192.62 148.4 194.25 134.3 200.01 124.9C202.42 121 208.01 116.3 211.44 113.7C225.1 103.2 245.37 99.4995 256.83 87.7995C267.81 88.1995 280.81 86.4993 293.94 94.5993C297.27 96.6993 302.07 103.2 306.66 108C317.15 119 318.67 126.899 318.79 143.099C318.84 150.199 319.33 158.5 317.79 164C315.01 174 305.85 183.2 301.06 193.8C290.64 216.7 287.97 244.8 274.1 263.7C270 240 264.06 212.8 249 191.7C240.45 179.7 230.22 168.6 208.49 166C212.21 170.8 223.21 171.6 228.51 175.5C248.51 190.3 260.95 216.8 265.32 241.5C266.58 248.6 269.39 264.599 267.38 270.099C265.52 275.099 256.91 281.8 252.6 284.4C236.66 294.4 216.12 295.6 196.76 300.8C177.02 306 159.67 317.6 138.87 312.7C159.97 293 164.18 248.7 148.53 229.9C169.86 226.2 175.65 188.7 181.46 165.7C167.85 186.1 165.59 228.899 141.29 223.599C121.64 219.299 120.04 195.7 102.6 186.9C96.3601 183.7 88.7201 183.1 80.1101 180.2C83.8901 186.1 96 187.199 101.42 190.099C116.65 198.199 116.69 217.1 132.1 224.7C134.82 233.6 130.54 245.8 131.93 255.3C139.18 247.7 136.78 233.7 137.7 227.4C143.12 228.6 146.43 234.6 148.06 239.2C154.79 258.4 151.06 290.2 137.4 310.7C120.17 299 111.26 278.8 93.2301 266.9C82.8701 260 71.6901 253.9 63.7301 245.2C63.9601 249.2 68.46 251.2 70.68 254.3C51.78 245.6 42.72 223.9 55.19 198.2C57.6 193.3 64.27 188.8 60.84 182.7C53.56 185.9 48.4001 193.7 44.7701 204.7C38.4501 197.4 28.2901 192 14.9001 188C-0.0798998 173.9 15.4401 130.499 35.1101 126.599C24.9401 131.399 4.43002 157.6 14.44 173.2C18.58 179.7 28.31 188.6 35.47 194ZM198.13 138.099C190.639 154.874 184.128 172.07 178.63 189.599C176.06 198.099 175.34 206.999 172.09 213.599C167.75 222.399 159.31 225.5 155.66 232.5C170.77 230.9 175.41 213.8 181.34 194.2C189.54 167.2 202.5 136.599 211.49 119.599C206.42 123.599 201.4 130.899 198.13 138.099ZM80.7 247C80.29 233.4 85.6501 213.9 95.0001 201.7C95.0149 201.555 94.998 201.409 94.9505 201.271C94.9031 201.134 94.8262 201.009 94.7253 200.904C94.6244 200.799 94.5019 200.717 94.3663 200.665C94.2307 200.612 94.0851 200.59 93.94 200.599C82.26 209.099 73.16 235.6 80.7 247ZM312.67 184.099C312.53 187.499 311.32 191.5 309.96 195.5C318.6 191.5 317.9 179.3 321.09 171C324.57 162 331.83 156.4 335.11 144.7C340.4 125.7 334.9 103.3 325.68 89.9997C329.95 107 335.78 130.199 324.15 154.599C321.35 141.299 325.42 127.099 318.91 114.599C316.68 110.399 311.62 106.5 307.25 102.4C302.98 98.4001 299.07 92.9997 294.7 90.4997C283.38 83.9997 270.6 84.3995 259.54 84.2995C265.69 77.8995 268.89 65.1999 274.04 56.6999C296.85 66.7999 323.51 69.9997 334.87 88.9997C340.09 97.6997 341.4 112.4 344.41 123.2C345.35 126.5 347.89 132.699 347.59 134.599C346.91 138.699 340.25 145.9 337.75 151.5C325.65 178.4 320.57 216.9 308.08 240.9C301.99 252.6 293.71 268.6 286.17 276.9C282.2 281.2 276.39 284 271.91 287.8C267.462 291.807 262.7 295.453 257.67 298.7C249.1 304.1 235.84 314.3 227.74 316.4C218.26 318.8 206.83 316.099 196.12 316.599C189.82 316.899 183.49 318.8 177.27 320C171.63 321.2 164.52 324.599 159.48 324.599C155.86 324.499 150.15 322.5 145.82 321.8C130.66 319.3 127.06 313.899 117.26 305.599C100.58 291.399 89.7601 276.099 76.6301 260.099C73.9101 259.099 77.0601 258.9 77.2701 260.4C83.7001 266.3 91.17 268.7 97.19 274.2C110.15 285.9 118.42 303.099 131.22 313.599C145.8 325.499 169.32 316.8 183.4 311.3C196.12 306.3 209.78 303.099 222.5 300.599C250.8 294.999 274.52 280.7 287.75 250.4C297.73 227.6 299.97 205.199 312.67 184.099ZM248.01 317.2C262.91 310.7 275.83 300 287.65 286.9C289.87 284.9 284.63 291.7 282.87 294C273.79 305.5 262.28 317 248.01 317.2ZM42.6501 242.7C44.9601 245 48.4601 251.4 52.1301 254.9C50.5801 260.5 51.06 265.099 48.41 271.099C45.18 269.899 41.94 268.799 38.7 267.599C40.7743 259.437 42.0966 251.103 42.6501 242.7ZM54.72 352.4C73.3 357.4 78.1501 310.7 70.2701 301.7C65.0301 301.3 62.97 307.6 59.96 311.9C59.01 314.5 58.0701 316.999 57.1301 319.599C56.6801 321.099 54.32 327.7 54.83 323.9C58.83 312.1 63.06 300.9 70.2 295.8C76.18 298.5 75 307.5 75.16 314.5C75.4586 329.256 71.9051 343.835 64.8501 356.8C62.2801 356.7 60.55 358.4 57.84 357.9C55.68 356.1 55.2801 353.4 53.6501 351.3C54.2201 350.5 54.82 351.6 54.72 352.4Z" fill="#254E92"/>
</g>
<defs>
<clipPath id="clip0_1_919">
<rect width="351.94" height="358" fill="white"/>
</clipPath>
</defs>
</svg>
