<svg width="298" height="533" viewBox="0 0 298 533" fill="none" xmlns="http://www.w3.org/2000/svg">
<g clip-path="url(#clip0_1_921)">
<path opacity="0.8" fill-rule="evenodd" clip-rule="evenodd" d="M264.402 306.659C272.311 319.347 281.348 338.831 284.277 356.73C291.307 399.721 267.536 428.156 258.139 467.522C255.648 477.811 254.474 488.374 254.647 498.958C254.858 507.115 256.311 522.748 258.953 529.432C259.026 524.73 257.872 517.99 257.743 512.495C256.837 473.582 272.498 447.64 285.272 413.542C300.071 374.006 295.28 349.084 272.227 316.458C269.821 313.036 267.207 309.763 264.402 306.659ZM242.816 186.125C239.714 177.968 238.276 173.607 241.844 164.601C244.44 158.031 248.111 152.423 247.531 144.097C248.97 144.833 249.326 145.173 250.461 147.155C251.138 148.305 251.651 149.545 251.983 150.837C252.821 154.009 252.776 157.804 252.568 161.259C252.142 168.396 251.973 174.967 256.426 178.649C255.815 173.324 254.926 172.021 255.763 165.961C256.342 161.826 257.381 158.314 258.263 154.405C261.283 140.868 259.144 140.075 256.063 131.579C249.588 132.882 248.088 134.638 240.895 131.862C236.917 130.333 232.032 126.878 227.339 127.331C226.228 142.907 214.661 142.794 215.21 158.484C224.854 161.259 227.688 161.769 232.074 169.473C234.709 174.117 239.703 184.142 242.816 186.125ZM110.016 144.38C111.886 138.603 109.459 132.372 116.705 120.874C120.625 114.643 126.254 110.565 129.627 103.711C134.466 93.9686 133.2 88.9842 132.312 77.7691C132.007 73.9175 136.867 58.3975 138.343 54.4326C145.92 33.8149 158.672 13.6508 179.223 5.04128C189.127 0.906428 193.686 1.64266 204.865 1.81259C187.456 -3.1719 171.955 2.60568 158.645 13.2544C142.478 26.1687 131.596 50.298 126.624 72.3317C125.254 78.3924 126.26 79.5817 126.694 85.699C128.793 115.323 109.495 110.622 110.016 144.38ZM152.282 165.677C168.203 164.714 185.504 194.678 194.503 207.082L206.974 222.999C213.594 230.929 225.258 245.032 238.615 247.581C246.468 249.111 249.767 255.285 258.593 255.341C263.149 255.341 266.395 254.265 268.873 251.829C270.131 250.64 271.044 249.134 271.517 247.468L272.423 243.22C272.468 242.97 272.531 242.724 272.613 242.484L273.049 241.521C276.108 250.017 272.858 258.513 265.064 260.269C255.465 262.422 248.938 256.304 241.849 253.925C233.857 251.207 231.439 253.416 220.703 245.429C215.124 241.294 206.892 232.572 202.012 227.077C200.879 225.775 199.818 224.302 198.729 222.942C191.814 214.333 187.274 205.157 181.693 195.471C178.2 189.259 174.223 183.331 169.8 177.742C166.476 173.572 162.305 170.155 157.562 167.716C155.844 166.81 153.875 166.47 152.285 165.677H152.282ZM1.54771 311.36C9.6752 319.63 49.5183 338.265 59.8776 342.683C73.7631 348.631 113.731 363.641 127.839 364.547C125.321 362.961 115.301 359.563 111.686 358.09C94.9921 351.123 81.5071 344.496 65.3971 337.189C56.1818 333.054 10.0163 310.058 1.5443 311.36H1.54771ZM186.393 160.183C190.485 156.331 195.555 150.837 199.091 145.343C212.302 124.725 198.701 115.549 200.077 99.293C200.649 92.496 205.695 82.8669 209.355 80.0348C204.807 100.539 219.137 110.848 214.171 129.37C212.109 137.073 207.124 143.134 202.846 147.325C199.48 150.667 190.977 158.087 186.396 160.183H186.393ZM270.852 236.027L270.19 235.234C267.819 232.005 267.102 230.702 263.369 228.04C253.049 220.676 248.741 223.112 246.105 213.993C245.008 210.141 243.895 205.213 241.756 202.551C239.31 199.549 236.867 197.397 234.224 194.395C231.736 191.582 229.484 188.569 227.489 185.389C224.055 179.894 219.066 170.322 220.055 161.939C224.111 161.883 232.285 173.551 234.629 177.855C238.255 184.539 240.87 192.639 244.896 198.983C253.633 212.633 268.039 220.054 270.852 236.027ZM163.727 293.688C168.082 298.559 185.269 305.017 192.509 307.226C203.807 310.681 214.903 313.116 226.433 316.062C248.969 321.839 274.093 328.976 277.005 351.576C274.808 349.141 272.676 336.396 256.325 329.316C233.413 319.404 198.789 326.03 168.818 299.125C166.958 297.426 165.215 295.274 163.722 293.688H163.727ZM124.127 255.794C124.815 256.984 125.449 257.211 126.507 258.173C132.056 262.988 135.816 268.879 138.858 275.902C142.492 284.285 144.741 292.952 148.769 300.429C153.249 308.755 155.555 316.118 156.781 326.88C158.605 342.91 155.032 351.01 155.014 358.26C164.998 341.494 163.883 315.948 154.757 298.786C150.498 290.799 147.906 281 143.738 273.184L138.099 264.857C135.088 261.572 129.123 256.814 124.124 255.794H124.127ZM226.656 435.746L234.284 431.838C236.789 430.473 239.211 428.96 241.536 427.306C252.127 420.113 262.374 407.878 268.138 396.323C269.305 394.001 270.404 390.092 271.505 388.28C276.548 404.933 274.326 415.298 263.465 423.568C258.928 426.966 253.064 429.459 246.864 431.328C241.811 432.857 232.084 435.406 226.657 435.746H226.656ZM282.17 66.5541C281.442 64.685 280.789 63.4388 279.462 62.5892C280.339 68.7632 279.507 71.4253 276.226 75.0504C263.929 88.6445 275.603 85.6423 271.301 91.08C270.33 92.2694 268.114 93.3456 266.599 94.1953C261.293 97.2539 262.191 98.8964 263.918 104.844C266.292 113 269.309 121.383 273.425 128.067C277.168 134.128 284.32 141.605 291.571 141.888C284.881 137.98 280.669 135.487 276.826 129.03C266.067 110.961 282.964 88.6444 283.14 72.6713C283.198 70.59 282.869 68.516 282.171 66.5541H282.17ZM137.44 121.44C140.054 118.722 142.609 118.155 147.005 111.924C162.363 90.3435 150.607 55.6223 167.175 34.8347C172.214 28.5474 183.795 20.5044 190.861 19.6548C183.17 23.0533 175.302 31.3796 171.38 38.6298C157.915 63.4389 165.693 95.6115 149.192 113.68C147.018 116.059 141.508 120.251 137.44 121.44ZM145.443 120.081C153.148 115.379 158.87 106.43 161.386 97.5374C167.272 76.7498 161.703 51.4872 175.419 33.4751C180.178 27.2445 192.9 18.7486 199.098 18.3521C192.443 20.7311 183.46 30.4165 179.63 37.2702C166.189 61.343 174.265 94.1955 157.206 112.547C155.376 114.53 149.179 119.458 145.443 120.081ZM122.676 261.572C130.052 266.613 137.35 279.188 140.606 288.08C142.688 293.916 144.051 299.984 144.665 306.149C145.07 310.284 145.806 324.105 143.963 326.937C126.275 319.12 138.03 291.253 126.786 268.313C125.422 265.537 123.896 263.781 122.676 261.572ZM195.764 91.8732C195.537 84.9153 194.779 77.9845 193.498 71.1419C191.118 58.2276 188.249 43.7843 200.222 35.6279C204.086 33.0224 212.239 29.6801 217.606 29.5101C211.757 33.9282 199.858 33.8718 201.311 56.0754C201.783 63.3255 202.86 68.6499 202.1 76.1833C201.579 81.3377 198.678 89.3809 195.763 91.8732H195.764ZM116.943 179.271C119.364 171.058 127.998 164.431 135.307 160.919C143.405 157.011 154.164 155.199 163.359 152.31C178.162 147.666 187.159 140.019 193.576 127.558C194.783 125.235 198.379 116.795 198.623 114.756C198.56 121.553 192.892 134.978 188.84 141.152C172.781 165.734 143.455 157.408 121.531 174.57C119.698 176.043 118.715 177.969 116.942 179.271H116.943ZM123.815 533C123.04 530.055 121.322 526.486 120.133 523.201C116.299 512.583 113.811 501.527 112.724 490.292C111.914 481.856 111.823 473.367 112.455 464.916L115.113 440.957C113.867 443.676 112.232 449 111.159 452.172C106.687 465.369 103.651 476.075 106.009 490.688C107.349 498.639 109.752 506.374 113.152 513.685C114.656 516.914 121.813 531.471 123.815 533ZM269.538 215.749C270.818 219.261 272.806 222.263 273.798 224.868C269.504 222.149 262.992 214.049 260.813 208.782C252.811 189.467 271.697 174.287 274.266 151.687C274.904 146.023 273.816 142.737 273.896 138.206C284.496 154.972 259.302 187.995 269.538 215.749ZM178.841 478.454C176.568 471.6 165.504 461.858 159.851 458.176C152.882 453.588 138.095 446.791 131.998 456.42C128.572 461.858 129.811 467.578 137.556 466.049C143.836 464.803 147.67 462.764 154.832 463.67C162.716 464.633 168.731 469.108 173.983 473.696C175.594 475.112 177.352 477.491 178.839 478.454H178.841ZM260.436 33.4751C267.998 36.9302 277.866 43.6141 275.829 54.2627C273.619 65.761 266.746 67.4037 269.039 82.3005C266.753 80.7711 262.715 76.1831 261.546 73.2378C259.693 68.4799 262.767 64.2319 264.194 60.4369C267.241 52.3371 264.29 40.2154 260.436 33.4751ZM188.248 60.6632C188.184 70.9153 188.357 76.4664 190.878 85.9822C196.402 106.77 197.374 111.471 184.853 128.464C182.644 131.466 173.583 141.208 170.794 142.511C172.302 140.188 174.8 137.866 176.625 135.487C191.68 115.776 186.846 104.731 185.495 83.8299C185.277 80.4314 185.042 63.8917 188.248 60.6632ZM60.9994 296.917C61.0616 296.928 61.1201 296.955 61.1695 296.994C61.2189 297.034 61.2578 297.085 61.2827 297.143L63.3739 299.069C64.1977 299.919 64.7337 300.428 65.6017 301.221C67.2147 302.694 68.758 304.11 70.4742 305.469C81.1768 314.136 91.6487 320.14 105.056 325.861C113.875 329.599 122.45 332.658 131.38 336.169C138.834 339.115 151.759 344.042 152.74 351.519C149.048 348.234 150.355 347.668 142.573 343.703C118.777 331.525 71.0192 325.861 60.9971 296.917H60.9994ZM63.8118 290.233C64.3042 289.61 70.3892 285.475 71.4368 284.569L85.7552 270.975C97.9785 259.023 111.964 245.826 130.71 246.505C128.911 247.752 119.736 252.113 113.504 256.418C99.9116 265.877 77.2997 285.645 63.8118 290.233ZM137.065 72.1049C137.054 61.173 145.197 43.2743 149.987 35.1179C154.802 26.9048 166.371 12.7445 175.457 10.3089C172.845 12.6878 168.447 13.5375 162.378 22.2037C151.186 38.12 150.994 66.6673 137.065 72.1049ZM290.039 43.3874C290.239 43.7892 290.407 44.2059 290.541 44.6336C290.771 45.3133 291.037 46.2197 291.274 47.0127C294.317 56.8117 299.503 73.4644 297.594 82.9803C295.825 91.7598 288.302 93.0059 281.39 103.371C279.727 105.864 278.614 108.639 277.017 110.962C277.143 96.1214 286.901 87.8514 289.674 81.1676C294.586 69.3295 290.549 54.8857 289.553 42.5378C289.762 42.7916 289.926 43.0789 290.038 43.3874H290.039ZM42.6073 254.662C42.1238 253.905 41.5602 253.202 40.9262 252.566C40.3336 251.92 39.8045 251.218 39.3461 250.47C37.9217 250.754 37.1121 251.66 35.7149 252.736C17.6826 266.557 -1.25059 279.811 0.0615949 306.659L3.24969 297.426C4.35214 294.709 5.61714 292.061 7.03781 289.496C12.2786 280.037 21.4288 270.918 29.439 264.744C31.1869 263.441 42.1784 255.285 42.6073 254.662ZM242.551 2.77561C234.109 2.83225 222.604 8.8926 221.694 16.0295C220.693 23.8461 230.797 30.5864 236.642 34.4381C239.95 36.6471 248.016 34.438 242.905 28.6605C238.382 23.5061 226.16 15.2935 231.743 8.72301C234.656 5.32449 242.052 3.51162 242.247 3.00185C242.326 2.89956 242.431 2.82143 242.551 2.77561ZM273.97 233.648C275.676 235.743 279.705 246.448 280.704 250.413C282.343 256.691 282.571 263.253 281.371 269.629C280.172 276.004 277.574 282.035 273.765 287.288C270.667 291.592 263.126 299.239 262.904 299.579C267.267 297.483 274.594 290.743 277.596 287.571C288.273 276.469 292.209 263.951 284.88 249.224C283.115 245.712 276.345 235.064 273.97 233.648ZM114.676 186.521C116.359 185.559 117.278 184.369 118.973 182.953C129.484 174.174 144.306 168.34 156.744 176.836C168.005 184.483 173.227 201.135 175.803 214.446L176.37 216.599C176.387 216.724 176.439 216.841 176.519 216.938C176.59 217.042 176.644 217.157 176.677 217.278C175.401 198.416 168.495 179.555 156.954 171.795C149.487 166.81 139.734 166.414 131.15 170.662C127.705 172.447 124.521 174.696 121.688 177.345C120.032 178.875 115.695 183.859 114.679 186.521H114.676ZM106.965 265.027C115.341 268.256 120.903 281.793 122.439 291.026C124.057 300.712 123.264 319.347 116.907 325.804C118.253 319.12 119.322 317.704 119.322 309.604C119.322 300.995 117.516 292.725 115.186 285.192C111.73 273.977 109.241 271.315 106.965 265.027H106.965ZM135.34 243.673C138.596 242.937 146.662 239.142 149.971 237.556C156.823 234.214 163.578 229.513 167.064 223.225C171.408 215.409 170.487 202.382 167.503 197.624C166.192 200.739 166.442 215.919 157.656 226.907C151.206 234.95 139.631 238.406 135.34 243.673ZM212.111 77.2597C213.737 95.555 223.01 103.541 224.222 118.495C224.556 122.63 223.548 131.069 222.117 134.071C221.305 120.987 222.618 119.401 214.975 105.864C212.988 102.352 210.74 97.5937 209.975 92.949C209.569 90.1895 209.553 87.3872 209.926 84.6231C210.091 83.2637 210.335 82.1875 210.591 80.9414C210.941 79.2988 211.005 78.4492 212.111 77.2597ZM123.243 121.78C122.261 114.756 130.683 106.033 133.699 102.125C138.458 95.9512 141.525 90.0606 142.56 79.9784L144.321 82.8105C145.702 85.8125 147.13 89.6638 147.117 93.2322C147.069 106.373 128.746 105.524 123.243 121.78ZM64.8062 232.232C66.2034 233.364 66.8288 235.347 67.9269 236.423C70.2045 235.744 76.4255 229.966 78.7218 228.153C88.0663 220.62 98.1111 208.839 104.975 198.473C103.671 199.153 101.384 201.758 100.181 202.948C94.5666 208.442 81.17 219.657 74.9405 224.358L64.8062 232.232ZM178.461 354.012C176.555 345.968 170.394 334.413 165.758 330.562C163.251 335.773 173.045 352.086 175.117 356.561C179.154 365.17 181.41 374.912 182.102 385.901C183.991 378.424 180.084 360.865 178.461 354.012ZM39.3461 250.47C39.8045 251.218 40.3336 251.92 40.9262 252.566C41.5602 253.202 42.1238 253.905 42.6073 254.662L49.3892 250.301C52.5812 247.865 66.7586 238.179 67.9286 236.423C66.8305 235.347 66.205 233.364 64.8079 232.232L39.3461 250.47ZM249.446 27.3014C247.867 23.733 249.106 15.4629 250.532 12.2344C257.805 -4.02186 278.627 11.1582 281.65 17.8985L273.125 11.4417C270.229 9.57252 265.383 7.08039 261.211 9.00622C258.241 10.3656 256.328 14.1039 255.024 17.6723C253.385 22.2037 252.762 27.1881 249.446 27.3014ZM239.675 21.5238C226.482 14.0471 237.629 5.43778 248.275 3.05882C250.311 2.60568 258.395 2.49207 259.957 3.28505C253.755 3.51162 248.741 4.58815 246.396 9.00622C243.336 14.727 245.932 19.9381 247.268 25.1491C238.966 22.0338 237.516 10.7619 247.698 5.09771L251.246 3.28505C246.503 3.51162 242.214 5.72054 240.259 8.55264C237.012 13.2539 239.064 16.8226 239.675 21.5238ZM212.758 72.7283C214.988 71.5955 218.209 67.177 219.766 64.3449C221.9 60.4932 222.688 57.4346 222.848 52.1669C223.392 34.3247 230.265 37.1001 237.429 37.1568C233.552 35.7974 229.845 33.2489 224.92 35.9111C221.78 37.6104 219.804 41.5183 219.182 46.3329C217.234 61.4563 221.085 57.6049 212.758 72.7283ZM133.332 247.412C136.362 248.884 138.515 251.83 146.017 253.416C151.41 254.601 157.029 254.247 162.231 252.396C170.77 249.224 176.875 241.124 177.072 229.739C176.002 231.382 175.418 233.988 174.456 235.857C161.583 260.609 134.399 247.525 133.332 247.412ZM171.839 162.506C179.989 156.615 183.972 155.086 190.703 146.08C198.227 136.054 200.022 124.612 201.26 122.63C201.404 122.334 201.622 122.08 201.894 121.893C202.498 127.614 202.744 132.259 200.611 137.64C196.388 148.402 180.984 159.504 171.839 162.506ZM247.216 160.806C247.761 161.373 247.427 160.75 247.95 161.939C248.123 162.361 248.26 162.797 248.361 163.242C251.401 175.477 246.641 184.992 252.213 197.736C253.807 201.418 255.658 203.571 257.116 206.46C255.831 204.364 253.621 202.325 250.974 197.68C243.293 184.086 242.596 174.797 247.218 160.806H247.216ZM118.346 421.642C119.188 419.603 119.702 417.281 120.686 415.015C121.594 412.932 122.63 410.908 123.79 408.954C126.011 405.103 128.322 401.477 130.379 397.229C136.848 383.749 134.894 378.934 132.408 367.832C132.026 370.042 132.496 373.723 132.333 376.329C130.973 397.966 117.488 409.351 118.346 421.642ZM254.769 26.282C256.897 24.5261 259.563 21.5237 264.284 23.3929C266.941 24.4691 269.809 27.3012 271.392 29.3403C276.136 35.401 279.267 43.1042 281.204 45.6531C280.089 39.3658 273.838 27.528 270.692 23.0533C260.526 8.66625 255.213 21.8639 254.771 26.282H254.769ZM106.894 192.696C107.627 191.45 107.991 189.24 108.537 187.768C111.262 180.291 117.977 175.193 119.279 166.187C119.758 162.846 119.785 157.691 118.369 155.029C118.143 165.281 115.683 166.3 111.301 172.644C107.85 177.629 106.08 185.106 106.895 192.696H106.894ZM122.619 165.224C121.178 146.136 112.975 143.191 120.126 125.972C120.41 127.161 120.07 133.222 120.448 135.94C121.533 143.644 126.498 159.447 122.618 165.224H122.619ZM95.3366 304.733C99.3757 303.6 104.466 298.163 106.013 293.858C107.036 291.026 107.363 287.854 107.663 284.512C108.028 280.547 108.545 279.018 109.511 275.563C100.121 279.981 104.249 298.106 95.3366 304.733ZM126.441 160.863C127.601 157.068 128.525 155.765 128.882 151.064C129.581 141.831 127.444 131.692 139.585 124.782C136.016 131.182 134.156 130.786 132.887 142.341C132.099 149.478 131.232 157.804 126.441 160.863ZM265.045 11.2149C266.518 12.2911 268.288 12.7442 270.24 14.3302C278.662 21.2405 286.173 42.8212 288.073 52.3937C285.982 36.0808 282.021 11.7813 265.045 11.2149ZM259.791 113.85C263.514 125.009 262.354 120.137 265.634 128.011C266.775 130.513 267.461 133.198 267.662 135.94C267.759 137.678 267.715 139.421 267.53 141.152L266.883 144.323C266.766 144.652 266.594 144.959 266.373 145.23C265.132 129.483 253.123 120.194 259.791 113.85ZM210.046 171.455C209.164 164.035 209.149 155.992 211 148.968C212.186 144.493 216.169 134.468 219.212 132.485C219.896 143.134 217.082 143.927 213.707 151.234C211.86 155.199 209.144 166.527 210.046 171.455ZM229.135 301.051C232.44 301.675 255.811 297.936 254.838 280.66L254.317 281.227C254.156 281.384 254.008 281.555 253.875 281.737L252.195 284.456C246.007 293.745 238.526 296.633 229.136 301.051H229.135ZM144.764 257.098C146.01 261.572 150.31 268.312 152.86 271.484C155.723 274.996 159.852 279.301 167.104 279.018C164.453 277.205 162.666 277.545 159.989 274.769C155.465 270.125 151.664 259.137 144.764 257.098ZM111.375 283.492L111.695 282.813C112.875 291.592 111.651 303.147 113.439 308.755C114.032 310.624 116.189 314.305 116.233 314.985C115.464 313.512 109.03 311.247 108.616 301.788C108.447 297.879 110.727 285.248 111.375 283.492ZM241.6 58.6807C242.733 56.5283 247.715 53.3568 250.776 52.6205C260.279 50.2981 262.775 63.7786 258.038 61.9094C256.203 61.173 256.594 58.6809 254.54 57.4914C250.355 55.1691 245.245 57.7178 241.6 58.6807ZM102.755 159.73C104.79 160.919 109.96 162.902 111.154 163.865C104.368 166.64 96.396 159.05 94.2278 156.501C91.4011 153.159 86.4567 144.946 85.647 139.509C90.5898 148.855 93.1405 154.066 102.758 159.73H102.755ZM208.33 191.166C207.474 188.561 204.137 185.389 203.722 178.705C203.411 173.721 206.267 165.961 203.241 163.355L202.069 164.884C201.792 165.474 201.549 166.079 201.341 166.697C198.84 173.551 200.338 180.121 204.191 186.068C205.608 188.221 207.265 189.58 208.327 191.166H208.33ZM262.425 110.678C258.853 113.567 257.836 111.868 253.946 108.752C253.424 108.356 253.149 108.243 252.686 107.846L251.644 106.713C254.433 104.788 259.633 102.069 263.049 103.485C263.502 105.241 263.251 105.127 262.543 106.77C261.629 108.866 262.446 108.016 262.425 110.678ZM230.757 230.702C233.938 231.835 235.413 231.552 238.827 233.364C245.778 237.103 249.797 242.71 254.083 249.621C254.501 244.183 249.463 237.783 246.944 235.744C243.132 232.628 237.604 229.796 230.757 230.702H230.757ZM174.003 21.6937C175.212 20.1077 176.836 19.0884 179.587 15.4066C181.358 13.0277 183.131 10.3654 184.865 8.49622C188.281 4.75785 196.398 1.52905 202.012 6.28696C193.133 5.32405 190.527 6.00387 185.57 10.9317C181.989 14.5001 179.459 20.1643 174.003 21.6937ZM144.364 418.13C143.34 427.533 152.021 429.572 152.244 418.13C149.205 416.544 147.269 415.921 144.364 418.13ZM213.049 10.8753C209.126 0.67975 217.987 1.07602 226.92 1.5858L224.78 2.32203C212.971 4.9842 220.713 10.4788 213.049 10.8753ZM104.567 300.598C105.797 306.942 106.458 308.302 109.858 312.323C111.72 314.532 116.052 319.12 114.934 323.935C112.768 317.025 112.803 319.007 107.152 313.682C103.883 310.624 102.383 306.093 104.567 300.598ZM185.068 336.963C177.674 334.187 176.991 327.39 170.189 325.917C171.044 332.318 181.552 339.512 192.325 338.662C190.324 337.756 187.321 337.812 185.068 336.963ZM87.2023 196.717C90.9887 195.697 96.5949 192.526 99.5411 190.543C101.421 189.381 102.912 187.685 103.824 185.672C104.654 183.689 105.083 179.781 103.862 178.025C102.656 181.197 103.328 183.916 97.3196 189.184C94.2436 191.846 88.2108 195.584 87.2023 196.717ZM37.7336 301.618C39.1529 300.995 41.6107 301.221 43.3642 300.825C50.3285 299.295 52.1642 296.973 56.788 294.368C58.3353 297.823 53.3053 300.542 50.4821 301.504C46.9127 302.637 41.2832 302.977 37.7336 301.618ZM256.163 65.4213C254.973 64.2885 251.304 63.6652 249.429 63.7785C246.954 63.8917 245.83 65.4779 245.095 67.1206C247.763 66.0444 246.997 65.5914 250.647 65.6481L250.541 68.4232L247.509 69.0466C247.392 69.0665 247.285 69.1265 247.207 69.2164C249.813 69.8395 256.886 70.859 253.479 66.1011L256.163 65.4213Z" fill="#254E92"/>
</g>
<defs>
<clipPath id="clip0_1_921">
<rect width="298" height="533" fill="white"/>
</clipPath>
</defs>
</svg>
