<svg width="413" height="577" viewBox="0 0 413 577" fill="none" xmlns="http://www.w3.org/2000/svg">
<g clip-path="url(#clip0_1_923)">
<path fill-rule="evenodd" clip-rule="evenodd" d="M161.733 92.2507L161.001 79.1213C159.04 79.9505 155.683 82.8526 156.118 85.7548C156.491 88.3116 159.205 90.7304 161.733 92.2507ZM213.165 31.7866C217.101 28.677 228.352 18.7261 230.603 13.5434C228.082 14.58 227.475 15.7547 225.037 17.6896C220.99 21.0064 216.88 22.5961 213.165 31.7866ZM177.279 46.8513L174.731 47.8177C176.685 42.4968 186.589 30.1975 194.089 26.1896C192.004 29.6447 191.637 27.9174 190.236 31.9944C193.834 31.0961 194.517 28.8155 196.734 26.5351C199.214 23.9093 211.894 13.3361 215.706 11.8159C211.756 17.6205 200.119 25.8433 199.939 29.5057C203.648 28.1928 208.772 23.6324 212.384 21.283C211.424 23.5633 209.394 26.6037 207.633 27.7093L210.036 27.6405C210.127 27.6117 210.219 27.5889 210.312 27.5717L206.638 33.0998C203.772 38.2824 202.218 43.8797 195.968 50.7208C196.693 46.0909 205.733 35.5877 204.435 31.9944C202.418 32.4782 199.483 37.2459 197.301 40.3555C193.461 45.7454 193.067 47.9559 189.262 48.1632C190.429 45.6755 190.691 44.9159 192.528 42.8429C194.2 40.9771 195.878 40.2165 195.622 37.1069C192.784 37.5906 192.528 38.9732 191.133 40.7698C188.461 44.2249 181.934 52.7941 178.695 54.107C180.525 50.3755 188.233 41.1151 187.811 37.7291C185.146 38.6274 179.62 43.8789 177.562 46.4356C177.459 46.5675 177.364 46.707 177.279 46.8513ZM177.279 46.8513C177.066 47.2722 176.772 47.6474 176.416 47.9567C174.717 49.8224 173.992 50.6514 171.126 51.1351C172.148 45.7452 173.833 46.4359 175.028 42.9117C171.001 44.6393 168.556 51.8952 167.9 56.6632C171.354 55.0739 171.657 52.1022 176.036 51.8949C174.006 56.663 168.246 55.0045 165.476 66.0608C163.694 73.1783 162.748 80.8491 164.164 88.3812C165.02 86.5155 164.095 86.4458 165.773 85.4093L167.7 109.112C169.157 108.213 171.36 107.039 172.859 105.933C179.607 101.165 174.814 102.063 187.535 102.893C192.349 103.238 191.928 101.165 193.06 104.966C189.883 105.449 190.498 104.274 187.867 104.481C183.971 104.758 191.002 103.238 186.202 104.966C186.011 105.034 185.83 105.127 185.663 105.242C187.784 105.657 189.517 105.449 190.546 107.108C188.44 108.49 180.484 104.413 170.027 109.803C166.933 111.392 168.004 112.014 166.699 114.709L165.552 111.807C164.809 111.984 164.058 112.122 163.301 112.221C161.671 112.152 162.437 112.359 161.602 111.737C165.49 104.55 165.898 115.192 165.255 95.0147C162.375 99.4373 164.461 101.787 164.192 103.307C160.614 104.205 161.084 101.51 160.808 98.5387C160.2 91.8358 154.675 91.1445 154.468 86.5147C154.398 84.9944 154.654 84.9947 154.509 82.9908C154.364 80.9868 154.364 79.8809 154.371 77.877C146.18 76.1494 151.947 65.9925 153.618 58.2531C155.434 49.8227 167.583 29.1602 173.619 23.9776L190.021 12.0238C188.447 14.5114 185.919 15.9623 183.543 17.9662C181.513 19.6938 179.282 21.2833 176.968 23.2872C173.315 26.535 168.308 30.9571 166.609 37.7291L170.131 33.031C171.232 31.3007 172.497 29.6808 173.909 28.1938C179.082 23.0803 187.356 18.9337 192.991 14.1656C196.424 11.2634 198.806 8.63763 202.384 6.35727C213.475 -0.760218 216.846 -0.691116 228.545 0.829123C241.177 2.48757 239.768 6.14956 244.133 10.4339C245.942 12.1614 248.346 12.1618 247.468 14.304C246.129 15.8242 244.181 13.3367 243.2 12.0238C238.525 5.80459 236.19 3.66203 227.143 2.27999C208.234 -0.622284 200.201 10.9867 182.832 23.2177C178.308 26.3964 176.796 26.327 173.598 30.5422C171.961 32.6844 167.396 38.5583 166.809 40.8387C169.295 39.1802 167.638 38.2819 171.098 38.4201C171.008 41.3915 167.32 43.8797 165.38 46.9202C163.487 49.8224 165.179 47.4039 164.848 48.9932C164.385 51.2736 161.954 52.102 160.649 54.0368C159.668 55.488 159.012 57.009 158.038 58.6675C156.457 61.4315 156.139 61.0172 154.806 62.7447C152.271 66.0616 154.177 71.8659 155.524 74.5609C158.611 70.3457 158.383 65.2316 162.921 61.5692C166.719 58.4596 166.996 51.4803 168.909 47.0578L172.072 42.2207C176.022 38.2819 181.285 34.3439 184.151 29.9214C185.729 27.3517 187.643 25.0041 189.842 22.9417C192.687 20.1085 199.704 15.2713 204.228 12.7836C209.919 9.67402 209.85 12.2308 213.013 11.0561C216.39 9.74312 217.226 7.67034 221.825 6.84111C221.756 12.3693 214.594 14.1659 212.143 18.5884C217.64 16.7227 223.869 9.81195 228.932 8.01531L229.899 10.0884C229.947 10.2266 230.044 10.434 230.085 10.5722C230.123 10.6949 230.179 10.8113 230.251 10.9177C232.042 9.57266 234.164 8.73701 236.391 8.49915C236.052 12.0233 231.708 15.4097 229.477 18.2429C231.363 17.4137 232.468 15.8238 235.306 16.653C235.196 19.7626 233.96 20.3849 232.875 22.9417C235.824 21.9052 239.07 19.9703 241.971 19.8321L242.399 23.8399C236.729 23.7708 240.742 20.9376 235.134 24.5309C232.986 25.9129 230.361 27.641 228.103 27.1573C227.426 24.3932 231.315 22.4581 231.998 19.2794C229.926 20.1778 226.08 23.8396 224.643 25.2908C222.032 28.0548 219.967 28.8849 219.09 33.722C222.005 32.409 221.528 31.6489 225.444 30.6124C224.394 32.4782 225.506 31.0262 223.966 32.5464L218.241 36.7614C215.858 38.9035 214.297 41.3224 212.191 43.9482C210.14 46.5741 208.745 48.5783 206.762 51.1351C205.043 53.3464 203.482 57.4234 199.939 57.3543C201.141 54.9357 203.772 52.3093 204.566 49.5452C202.349 51.0655 201.61 53.0008 199.366 54.9357C197.632 56.4559 195.505 57.8374 194.027 59.9105C194.469 56.179 200.947 50.7899 202.467 45.1926C200.146 46.782 198.433 49.1997 196.962 51.2728C195.16 53.7604 194.124 56.663 191.016 57.7686C191.341 53.7607 193.309 53.3461 191.195 50.8584C189.269 51.8949 187.583 54.5905 186.002 56.2489C183.923 58.322 183.067 59.7037 181.05 61.8459C178.46 60.9476 179.524 59.4276 177.148 62.4681C175.85 64.1956 175.974 64.8861 173.467 66.0608C173.999 61.431 182.1 57.354 184.172 51.8949C180.656 52.9315 178.212 56.8017 174.855 58.6675C174.745 54.5214 180.553 48.8553 182.107 44.7783C178.937 45.262 179.627 45.7457 177.279 46.8513ZM117.636 346.96C115.737 347.512 116.994 346.477 115.64 348.135C114.21 349.932 113.858 354.216 113.644 356.496C115.018 355.736 114.59 356.219 115.813 354.906C118.513 352.004 117.76 349.862 117.636 346.96ZM117.636 346.96L119.991 351.659C120.24 353.456 120.378 357.67 120.509 359.743L121.103 357.464C121.262 356.635 121.186 356.082 121.414 355.045C124.266 363.821 121.669 368.52 122.954 374.739C124.943 375.707 126.953 375.292 126.462 378.54C126.006 381.511 124.135 380.198 125.447 384.966C127.208 387.039 132.063 388.422 135.606 388.214C140.613 387.869 142.547 383.929 145.71 385.311C142.333 391.323 127.229 391.116 124.017 386.002C123.382 383.929 123.575 380.543 122.346 379.023C121.476 381.511 121.421 385.864 121.303 388.629C121.034 394.986 120.916 394.363 123.237 398.786C119.321 398.579 119.148 396.368 119.224 389.32C119.376 375.361 122.712 372.942 118.195 354.492C115.35 356.289 112.145 360.297 112.201 364.166C112.256 367.967 112.532 365.893 113.913 368.381C112.525 369.349 112.014 370.247 110.564 371.56L106.213 374.877C110.053 369.072 111.372 371.353 111.738 361.816C109.417 362.715 109.997 362.645 108.478 363.958C110.819 360.642 113.582 358.499 112.643 352.557L105.985 359.743C104.438 361.195 106.206 360.02 104.134 361.125C107.014 355.321 112.629 353.04 114.79 345.301C115.619 342.33 116.973 337.631 117.505 334.729C118.748 328.026 121.213 321.531 123.52 314.966C124.494 312.202 123.541 311.373 124.894 309.093C125.367 308.457 125.792 307.787 126.165 307.088C127.201 304.946 132.568 289.259 132.637 287.601C131.882 288.291 130.972 288.79 129.984 289.053C133.244 285.805 139.184 273.298 137.588 270.396C135.192 266.042 138.037 274.403 137.043 269.497C139.709 266.525 142.043 261.689 145.814 260.03C142.388 264.867 137.208 273.505 137.05 280.484C137.547 280.07 139.688 278.481 140.185 277.997L141.635 276.13C142.872 274.817 141.242 275.508 143.625 274.817C142.388 276.959 140.938 277.513 139.322 279.793C132.105 289.951 135.468 283.456 130.206 299.073C129.377 301.561 128.9 304.394 128.113 306.329C127.015 308.954 120.813 323.12 121.849 325.055C122.574 326.506 121.959 325.193 122.864 325.746C119.943 328.648 119.846 329.823 118.534 334.452C117.691 337.493 115.764 342.399 116.199 345.163C116.745 342.814 120.322 341.431 121.427 337.976C122.374 339.289 121.835 339.565 121.082 341.5C125.012 341.155 127.201 340.257 130.793 340.118L134.667 334.038C138.058 330.859 150.821 307.019 153.169 302.251C155.324 297.829 157.161 292.508 159.205 287.74C163.163 278.48 167.831 268.599 170.994 259.063C173.425 251.738 168.197 258.164 169.634 252.013C170.007 250.424 171.754 246.693 172.438 244.689C173.999 240.266 175.193 232.528 178.619 229.971L178.025 236.19C182.355 225.963 179.185 231.007 180.145 224.581C181.257 217.049 188.019 205.37 190.671 197.354C191.658 194.383 191.534 193.485 194.131 192.311C192.356 203.436 181.948 216.219 181.879 227.345C190.194 231.767 202.84 234.808 196.037 245.933C195.917 246.08 195.819 246.242 195.747 246.417C197.936 247.315 197.736 246.762 198.371 248.904C195.001 251.737 189.89 252.913 193.53 261.136C195.111 264.66 199.359 270.257 199.787 274.057C196.79 272.191 195.954 267.562 193.164 265.213L188.737 306.674C191.064 305.983 197.349 295.272 198.82 292.923C201.465 288.707 199 290.158 199.677 287.118C200.588 282.972 206.5 276.2 209.2 272.814C215.216 265.351 222.053 259.546 227.765 251.668C230.361 248.075 233.421 246.14 233.062 240.957C232.627 234.738 230.064 232.044 229.367 228.036C232.164 229.349 232.654 231.007 233.566 234.324C234.291 236.95 234.491 240.129 234.899 242.824C240.396 237.987 245.397 232.32 250.763 226.999L262.752 215.114C264.486 213.525 265.632 211.865 267.683 210.898C266.71 213.869 265.978 213.316 264.679 215.735C268.105 213.731 278.236 206.269 280.287 202.814C280.094 205.094 277.939 207.305 276.599 208.479C270.197 214.146 260.598 221.402 255.141 227.414C253.152 229.556 243.767 237.365 239.367 242.133L220.036 263.14C217.053 266.388 203.199 281.175 202.708 286.358C206.604 281.383 213.821 270.119 218.268 268.323C217.239 270.879 207.494 281.866 205.077 285.321C202.259 289.329 189.89 307.365 189.089 310.267C188.654 311.856 188.82 313.446 188.758 315.104L187.728 319.941C187.583 311.58 189.414 263.07 190.988 254.018C191.41 251.668 192.073 251.046 192.155 248.835C192.238 246.693 190.871 247.73 194.172 244.62C201.479 237.71 189.075 232.113 183.177 230.662C182.583 236.121 183.087 235.499 181.009 240.682C178.571 246.694 176.996 253.604 174.841 259.685C173.432 263.693 173.75 265.765 170.47 267.838C171.996 272.261 180.477 280.829 176.533 287.118C167.327 301.836 169.8 292.646 171.892 307.779C172.296 310.326 172.953 312.825 173.854 315.242C175.711 320.632 175.428 317.729 178.985 320.079C178.75 323.327 176.078 325.953 175.097 330.86L169.406 356.22C168.971 358.569 167.548 369.694 167.362 370.04C163.757 360.02 178.032 327.957 173.861 319.872C171.457 315.242 170.255 309.506 168.992 304.117C165.69 305.36 167.051 306.536 164.744 309.093C165.946 299.418 180.912 280.346 171.333 274.542L163.701 292.232C157.865 303.702 152.444 315.104 146.021 326.229C142.057 333.07 134.052 338.392 133.217 340.188C138.196 339.762 143.196 339.647 148.19 339.843C156.905 340.188 153.784 339.774 160.994 338.115C160.71 338.606 160.324 339.03 159.861 339.358C155.358 343.297 149.232 341.363 143.528 341.639C133.728 342.192 128.645 340.05 128.216 346.891L127.25 342.953H119.183L117.636 346.96ZM257.144 82.5764C257.835 84.7877 258.125 84.7183 260.017 85.7548L261.633 82.4388C261.067 82.3697 259.527 82.2309 259.092 82.2309L257.144 82.5764ZM282.007 86.7914C282.981 86.3076 283.278 86.5149 284.045 84.7183C285.985 80.3649 282.705 78.0848 279.59 80.1579C279.714 82.0236 277.38 80.8486 281.213 81.6087L282.007 86.7914ZM256.309 73.5932C257.193 66.4757 260.818 66.7521 257.414 59.4273C254.976 61.4313 255.542 64.8178 255.563 70.0004C255.57 70.5532 255.563 71.5196 255.632 72.0033C255.647 72.6 255.889 73.1691 256.309 73.5932ZM271.862 69.2392C269.852 74.8365 268.333 74.8376 265.701 86.9304C269.313 84.9264 269.479 82.8523 271.516 76.1494C272.621 72.487 274.279 67.9959 274.776 63.9189L272.863 66.2687C272.479 67.2413 272.145 68.2323 271.862 69.2392ZM275.84 79.8123L274.493 81.4711L279.293 64.8178C278.545 64.2106 277.709 63.7202 276.814 63.3656C277.539 59.9105 278.381 57.6304 278.098 53.968C275.798 54.3826 276.703 53.8298 275.384 55.35L277.877 46.1603C281.779 50.5137 280.08 71.3825 278.803 74.8376C278.323 76.0474 277.682 77.1854 276.897 78.2225C276.662 78.568 275.943 79.6741 275.84 79.8123ZM255.28 52.1028C255.88 48.164 254.168 47.8182 251.964 46.298C250.873 45.5378 250.507 45.123 249.312 44.2937C247.51 42.9117 248.235 43.1198 246.509 43.0507C248.532 47.1968 250.777 50.4443 255.28 52.1028ZM265.653 61.086C267.456 58.8057 268.961 54.5896 270.474 51.2728C271.302 49.4761 272.193 47.6805 272.932 45.8148C274.562 41.6687 273.678 43.6027 275.902 41.5297L274.134 36.6237C273.547 37.0578 273.074 37.6269 272.753 38.2824C271.385 40.6319 265.777 57.9764 265.653 61.086ZM245.058 25.7051C240.742 26.8107 241.191 27.6399 239.885 28.4692L250.065 31.5099L245.058 25.7051ZM271.143 35.0338C271.62 31.5787 271.261 31.5105 269.569 29.2992C266.868 25.8441 262.697 20.7303 257.724 20.7303C257.144 26.6731 265.501 25.0835 263.229 28.7458C262.269 29.5751 264.03 29.368 261.516 29.368C259.838 29.2989 257.939 27.295 256.44 26.604C254.237 25.5674 250.272 24.945 247.731 24.6686C249.603 30.1276 253.988 30.8186 257.566 34.6883C258.18 35.3793 261.937 39.5263 262.193 40.01C262.835 41.392 264.196 46.0909 261.371 47.6112C258.864 45.8836 260.667 45.6064 259.382 42.9805C257.731 46.021 258.954 49.546 260.114 52.1028C259.099 54.1067 257.579 53.4155 257.98 56.6632C258.208 58.4599 259.099 59.22 260.045 60.4638C262.317 58.1835 267.628 40.3552 267.663 38.6968C267.725 35.7945 265.432 36.14 268.65 32.4776C270.052 32.9613 269.486 32.8922 270.605 34.2052L271.143 35.0338ZM281.392 77.1171C289.045 78.7755 286.538 82.3 284.659 86.7225C294.1 86.6534 294.245 102.409 291.904 109.803C289.88 116.091 292.014 122.725 283.257 125.696C282.291 125.948 281.386 126.395 280.598 127.009C278.81 128.322 279.694 128.459 277.739 129.012C279.051 121.757 286.828 130.049 290.15 112.014C291.876 102.685 293.092 95.6369 287.187 88.7267C279.7 89.2796 280.578 95.6372 276.593 97.2956C275.584 94.9462 278.271 89.3481 278.519 86.1003C271.62 92.3886 274.244 113.327 269.003 118.026C267.594 119.27 268.118 116.989 265.259 122.932C264.237 125.074 263.291 126.456 262.227 128.529C260.957 130.948 260.715 132.537 258.809 133.643C259.624 130.119 264.541 122.24 266.606 118.302C268.402 114.916 267.842 112.844 269.258 109.734C270.771 106.348 270.48 104.482 267.987 101.925C266.309 103.307 262.476 113.258 259.575 118.509L257.883 121.205C259.285 114.709 268.982 100.474 265.991 95.2914C263.74 95.8442 263.83 96.8802 262.745 99.2297C261.868 101.095 261.067 102.824 260.197 104.62C258.339 108.421 256.82 111.046 255.031 114.087L263.954 94.4614C263.222 92.5265 263.443 93.2875 261.737 91.8363C262.027 91.5599 263.505 90.731 262.856 89.6944C262.303 88.7961 261.026 88.6579 259.734 88.3124C258.719 91.2147 257.351 92.4585 256.357 94.8771C256.295 92.3203 257.828 90.4535 258.857 87.8967C257.904 86.1001 258.94 87.6905 257.386 85.8938L255.411 83.9585L253.712 87.4135C253.622 85.4787 254.285 83.4753 254.278 82.4388L253.18 76.4949C252.586 72.3488 250.784 75.5971 252.172 70.1381C253.518 64.9555 254.769 61.5695 250.818 55.9722C249.755 54.452 249.361 54.3823 248.401 54.7278L247.793 55.1435C247.358 50.9974 246.073 51.0663 244.25 48.6477C242.725 46.6743 240.996 44.8671 239.091 43.2572C237.091 41.6914 234.974 40.2825 232.758 39.0423C230.299 37.7293 227.509 37.3841 227.854 33.7908C229.312 34.4127 240.859 41.9448 242.834 44.8471C244.443 47.1966 244.582 48.025 247.199 49.1997C247.904 45.2609 244.361 44.5707 244.354 40.3555C247.358 40.2864 249.692 42.9114 252.282 44.0171C250.604 41.5985 250.342 41.3226 247.614 40.0788C245.127 38.9732 243.78 38.8355 243.076 36.4861C245.756 37.0464 248.283 38.1769 250.487 39.8021L256.889 45.3991C257.275 36.0013 253.201 36.1395 251.626 35.3793C248.67 33.9282 253.049 35.104 248.705 33.031C247.546 32.5754 246.354 32.2048 245.141 31.9243C242.434 31.1641 240.099 30.4051 237.351 30.2669C235.403 32.5473 235.617 33.031 232.903 34.413C232.82 34.2748 232.737 33.7905 232.71 33.8596C232.015 32.1523 231.717 30.3086 231.839 28.4692C238.145 27.9164 244.257 23.425 248.788 20.4536C251.598 22.3885 250.079 23.702 255.266 24.1166L255.093 18.3117C261.806 18.1735 264.03 20.5233 269.389 26.1896C275.467 32.6852 274.873 38.3507 277.256 40.9075C279.493 35.7249 273.92 27.5023 270.84 22.8034C268.996 19.9702 266.862 19.4176 262.614 18.5884L252.13 15.686C253.871 12.9219 257.655 15.4788 260.218 16.1699C263.36 16.9991 267.124 16.8607 269.472 18.7956C270.957 20.0394 278.077 30.4737 278.927 33.1686C280.281 37.522 278.906 40.9771 279.845 44.2249C280.978 48.2328 282.228 48.9244 282.042 54.107C281.759 61.7082 281.234 69.5159 281.392 77.1171ZM306.573 297.138L302.167 297.691C301.116 300.448 300.419 303.326 300.095 306.258C301.732 305.844 300.744 306.259 301.828 304.601C302.519 303.634 302.996 302.804 303.389 302.182C304.28 300.87 305.772 298.174 306.573 297.138ZM299.549 255.123C300.053 249.319 301.449 249.458 303.438 245.865C307.305 238.885 306.442 230.385 307.443 225.34C309.26 216.288 309.446 200.05 306.255 192.034C305.012 188.855 298.714 178.282 296.455 176.969C290.93 180.286 296.11 180.84 302.243 193.347C304.653 198.253 303.721 212.28 303.051 218.361C302.346 224.857 299.314 233.633 297.305 239.783C295.557 245.104 295.647 245.173 292.892 249.32C290.115 253.466 290.751 253.534 285.115 254.778C286.628 252.428 287.028 253.811 287.463 251.876C284.038 250.77 285.032 253.12 282.58 255.539C280.812 257.266 278.623 257.612 276.862 259.063C274.175 261.343 271.841 265.005 268.636 266.733C268.505 266.802 268.264 266.871 268.153 266.941C264.458 268.806 261.019 287.326 261.157 292.854C265.653 291.61 260.37 291.816 268.008 289.951C267.967 285.874 265.107 286.91 268.132 278.135C269.914 273.021 286.51 258.095 292.436 260.79C299.542 264.107 298.292 265.351 298.562 266.042L299.618 268.323C302.671 273.713 288.361 285.39 288.264 296.239C288.32 293.889 295.999 280.415 298.057 276.96C298.99 275.371 300.696 272.33 302.415 271.293C304.867 275.854 298.355 290.158 296.055 294.166C293.341 299.003 290.502 303.772 288.485 309.161C287.429 311.926 287.422 312.34 287.94 314.275L288.513 315.449C288.578 315.296 288.618 315.133 288.63 314.966C289.791 308.609 292.401 300.178 297.146 295.479L300.15 296.792C300.357 298.381 299.294 300.8 298.845 302.251C298.299 304.048 297.961 305.499 297.319 307.434C293.113 319.872 284.666 330.582 285.232 334.867C288.002 334.66 287.643 334.867 289.059 333.002C287.429 332.311 288.914 333.07 287.76 332.794C286.192 332.379 287.532 333.002 286.503 332.311C287.891 329.408 290.233 324.502 292.698 322.636C290.295 335.835 283.388 359.191 277.96 370.109C276.157 370.662 279.086 370.593 277.2 370.04L276.185 369.557C275.363 373.91 275.412 377.78 274.776 381.65C274.134 385.588 272.048 387.315 272.021 391.53L275.653 392.015L274.61 397.058C272.967 394.985 274.327 395.332 271.958 393.742C269.438 394.917 267.497 398.717 266.095 401.205L268.595 403.554C266.848 404.591 266.516 405.213 265.176 406.318C262.559 408.668 263.111 406.94 262.511 410.119C264.458 410.603 265.701 410.741 267.766 409.636C268.458 409.271 269.091 408.805 269.645 408.254L271.068 406.801C271.155 406.65 271.288 406.529 271.447 406.456L271.109 410.327C271.177 410.48 271.221 410.643 271.24 410.81C272.601 404.314 276.185 401.619 277.428 396.091C279.113 388.628 275.349 387.729 279.051 379.161C284.866 365.617 295.191 331.896 298.879 318.214C300.986 310.405 300.281 308.954 304.204 302.942C306.2 299.902 311.042 293.407 312.008 290.435C308.079 292.854 310.199 293.613 307.174 295.41C306.78 286.289 308.859 275.024 313.5 267.907C317.326 261.964 326.353 251.046 327.845 247.799C322.969 250.632 315.379 265.005 310.807 269.634C310.952 264.866 310.606 264.245 307.947 262.172C309.598 257.128 314.467 252.982 315.835 248.697L314.301 250.148C313.721 250.839 313.638 250.977 313.134 251.668L307.05 260.445C303.735 258.51 302.657 256.436 299.549 255.123ZM304.978 533.811C304.384 531.945 305.862 533.051 303.078 531.669C295.495 527.938 295.523 529.665 292.726 532.084C295.792 533.742 302.077 535.262 304.978 533.811ZM294.363 528.421C290.412 532.636 285.371 532.015 277.345 530.218L285.198 522.547C287.366 523.169 292.926 526.762 294.363 528.421ZM353.205 529.665C352.342 532.291 353.612 529.665 350.649 533.12L349.973 534.019C353.115 533.535 355.733 532.429 358.454 531.461C364.138 529.527 362.625 530.494 368.123 530.494C369.062 529.319 369.987 527.938 371.009 526.763C354.745 521.719 361.624 527.592 353.205 529.665ZM277.946 527.8C280.025 525.589 282.719 523.516 284.286 521.235C282.649 519.922 281.268 518.678 279.576 517.503C278.167 516.467 276.199 515.222 275.273 514.186C270.922 517.434 266.482 522.272 261.758 525.381L273.816 513.081C271.503 511.768 269.424 509.972 266.751 508.451C262.953 506.24 261.343 508.313 258.45 510.248L261.406 506.585C259.831 505.203 252.966 501.886 251.592 502.093C248.946 502.508 238.186 514.532 236.474 516.121C233.83 518.396 231.459 520.97 229.408 523.791C231.432 525.864 234.029 527.869 238.628 526.832C241.398 526.279 243.608 523.377 245.327 521.649C246.591 520.337 247.123 519.99 248.442 518.746C251.488 516.051 253.215 513.427 258.339 510.179C256.288 515.085 244.941 521.442 242.158 526.901C258.021 526.763 257.635 528.836 267.283 529.942C273.208 530.564 274.389 531.531 277.946 527.8ZM249.292 501.264L228.269 522.133C225.023 520.198 225.783 517.918 220.7 516.052L232.917 503.338C238.083 498.155 243.021 496.013 249.292 501.264ZM209.725 494.631C210.388 492.212 214.173 488.342 215.775 486.062C215.002 483.713 213.441 481.777 212.184 479.635C210.644 477.009 210.229 475.42 205.726 476.388L206.293 497.464C208.952 496.013 206.196 497.464 208.565 495.46C208.655 495.391 208.862 495.183 208.931 495.114L209.725 494.631ZM209.725 494.631C208.841 497.81 207.149 497.947 205.947 502.093C203.689 509.971 204.898 516.604 212.453 506.654C215.161 503.06 227.419 487.859 230.617 486.339C229.015 490.139 211.065 509.21 210.333 511.836C212.087 512.873 214.532 513.495 216.694 514.186C219.822 515.292 220.168 514.809 222.019 512.943L238.4 496.151C240.403 494.078 244.885 489.033 247.386 488.618C246.55 490.622 246.343 490.415 244.796 492.005L241.916 495.528L251.44 499.882C256.564 494.285 259.555 492.834 263.139 489.103C264.797 487.444 264.624 486.476 266.889 485.163C262.517 493.594 256.205 494.492 253.318 500.642L263.436 504.926L269.576 500.228C268.533 502.232 269.603 500.642 268.201 502.093C267.85 502.437 267.478 502.76 267.089 503.061C265.363 504.581 266.337 503.268 265.024 505.272L275.273 512.182C280.35 508.312 290.751 496.082 298.313 490.83C294.77 497.395 278.437 508.175 276.669 513.288C279.603 515.717 282.672 517.977 285.861 520.06C288.713 518.747 289.314 517.849 291.158 515.845C292.719 514.229 294.436 512.77 296.283 511.491C295.682 515.568 292.415 515.222 287.408 521.165C288.541 522.616 294.252 526.141 296.455 526.624C299.356 524.344 300.896 522.479 303.52 520.267C309.121 515.43 308.721 515.153 313.21 510.731C316.974 506.999 320.234 502.577 322.223 501.333C321.139 506.101 312.948 512.39 310.344 515.154C306.172 519.645 300.136 523.169 297.823 527.938L307.291 531.185C309.57 528.213 315.586 521.857 318.922 519.576C318.1 521.719 315.254 524.552 313.417 526.21C310.972 528.421 309.522 529.596 308.341 532.36C318.314 534.848 314.156 535.815 321.353 530.079C323.121 528.697 321.332 529.873 323.252 528.836C321.525 531.946 320.842 531.324 319.433 534.365C320.296 534.779 319.647 534.641 321.021 534.779C321.576 534.848 322.138 534.848 322.693 534.779C326.332 534.641 328.867 534.018 331.519 531.738C334.475 529.181 336.685 527.039 339.772 524.068L348.253 516.673C351.685 513.978 351.098 513.358 356.948 509.488C354.427 514.118 334.095 529.181 331.899 533.949C348.964 534.225 338.998 531.946 347.431 531.6C347.763 533.19 346.637 532.429 347.431 533.811C349.738 532.36 350.836 530.909 353.205 529.665C354.282 527.661 357.024 525.865 358.958 524.759L356.893 522.064C356.825 521.89 356.701 521.744 356.541 521.649C360.954 523.446 361.934 521.718 364.517 519.714C368.44 516.605 378.123 504.581 382.218 504.166C375.305 511.767 368.302 517.641 362.494 523.1C362.64 523.212 362.801 523.305 362.97 523.377C372.432 527.385 374.345 524.414 382.066 516.052C383.848 514.118 385.23 512.458 388.137 511.491C385.692 517.088 377.273 520.198 374.994 525.588C377.764 525.795 379.78 524.897 381.804 525.864C383.807 526.763 383.876 527.868 386.486 528.766C389.677 526.9 397.026 519.162 396.342 513.288C395.306 504.305 395.147 507.137 400.389 495.252C406.701 480.948 406.246 471.55 408.932 457.591C408.974 457.384 409.015 457.178 409.063 456.97C409.115 456.783 409.177 456.598 409.25 456.417L409.754 455.312C411.011 460.909 407.903 476.111 406.46 482.122C404.367 490.829 400.734 496.98 398.227 504.305C394.857 514.187 400.81 517.158 390.188 527.454C385.174 532.361 385.616 530.148 380.54 527.73C374.366 524.827 372.239 528.421 369.352 530.425C369.518 532.36 370.284 531.6 370.291 533.397C365.602 533.604 366.272 532.636 363.847 532.152C361.299 531.738 353.778 534.985 352.093 536.367C354.662 537.266 359.78 539.201 361.582 540.998C359.096 542.38 351.299 536.575 346.105 536.921C346.092 537.013 346.097 537.107 346.119 537.197C346.112 537.197 346.119 537.405 346.119 537.474C345.988 539.893 343.425 540.238 342.887 543.071C342.044 547.424 341.568 572.301 341.644 577C341.549 576.824 341.475 576.638 341.423 576.446L340.725 572.854C340.069 563.11 341.167 553.367 341.347 543.693C338.978 541.62 340.131 544.038 338.943 541.689C340.539 540.307 343.598 538.234 343.854 536.092C340.953 535.608 330.593 534.294 328.473 536.713C326.961 538.371 328.411 538.165 328.439 538.234C328.487 538.372 331.173 540.583 326.816 539.27L326.249 535.953C323.21 536.713 318.093 535.884 315.42 536.921C314.357 537.266 310.392 541.828 309.363 542.657C309.729 544.592 308.286 541.758 309.909 543.14C311.601 544.591 304.356 547.7 306.601 543.969C307.726 542.172 312.243 538.372 313.763 536.299C307.685 536.16 304.812 538.787 303.735 538.511C300.592 536.299 304.985 537.128 300.634 535.539C292.719 532.636 290.84 537.059 287.512 536.783C287.615 534.641 288.202 535.124 289.1 533.189C268.153 528.352 277.87 537.197 270.066 536.506C270.736 534.572 271.724 534.087 272.898 532.221L258.056 529.873C252.02 535.816 257.683 533.121 254.789 535.056C252.842 536.368 253.753 535.815 251.419 535.884C252.931 532.567 254.32 532.152 255.784 529.734C252.767 528.348 249.426 527.822 246.129 528.214C244.381 528.421 241.985 529.043 241.253 529.112C239.029 529.25 239.63 529.181 238.055 530.148C238.179 530.235 238.314 530.305 238.456 530.356C240.3 531.254 239.768 530.357 239.982 531.6C237.903 532.913 238.532 533.189 235.534 533.12C236.19 530.425 236.508 531.116 237.447 529.112C235.3 528.144 234.319 528.421 232.233 527.938C229.319 527.177 230.265 526.832 228.048 525.45L225.734 528.421C225.857 528.458 225.977 528.505 226.093 528.56L228.269 529.182C226.791 530.149 226.328 530.563 223.925 530.148C224.042 526.348 225.603 526.625 226.825 523.791C225.458 521.304 223.096 518.333 219.664 517.503C217.018 517.918 214.912 522.34 214.125 524.62C213.393 526.693 215.395 525.45 213.04 526.279C210.92 523.584 216.59 519.369 217.688 516.259C213.531 514.186 207.405 512.045 205.105 518.471C204.138 521.166 206.327 521.58 202.398 521.718C202.867 517.296 204.621 517.226 206.134 513.84C204.732 512.251 204.249 512.666 202.964 511.353C201.755 510.04 202.425 510.386 202.19 508.52C201.893 506.102 200.25 507.76 202.37 503.96C203.219 502.439 203.945 501.748 204.394 499.951C205.174 496.773 205.581 479.498 204.345 477.701L202.398 477.148C197.08 476.457 193.516 475.558 189.206 472.379C188.074 473.761 187.867 474.868 187.224 475.973C186.506 474.108 187.646 473.485 187.874 470.997C184.282 470.375 178.336 471.205 177.452 470.997C175.988 470.583 172.438 467.888 172.238 466.368C176.022 465.608 172.742 467.266 177.293 467.473C179.317 465.124 181.299 461.186 183.384 458.353C185.684 455.243 187.369 452.961 189.545 449.99L194.759 443.219C196.783 440.662 200.208 435.065 202.881 433.821C200.864 438.589 196.741 442.183 193.454 445.914C191.831 447.711 192.342 448.194 190.795 450.475C187.618 455.174 181.036 462.222 179.137 468.164L189.206 468.648C191.458 466.091 193.198 461.461 195.913 459.25C194.669 462.982 191.037 466.507 190.567 470.1C193.986 473.14 198.406 475.904 204.331 474.66L204.794 466.299L205.768 474.246L209.49 473.969C209.912 462.015 215.098 449.853 214.905 437.622C214.732 427.257 212.087 430.366 212.647 426.635C220.554 425.46 215.043 453.515 214.415 456.279C211.887 467.543 208.496 474.452 217.011 483.85C220.748 480.671 223.151 475.144 226.805 472.173C225.347 476.319 217.965 485.302 214.615 489.586C213.289 491.244 211.473 493.94 209.725 494.631ZM70.9421 434.581L63.8216 433.13L68.6492 435.549C62.7373 435.48 51.8861 431.886 47.8479 433.268C60.173 440.455 111.724 454.552 130.537 463.258C135.068 465.332 139.46 467.404 143.652 469.339C156.671 475.212 152.154 472.034 157.113 473.693L158.038 474.107C151.304 478.046 125.122 459.734 104.472 455.449C104.376 455.542 104.311 455.663 104.286 455.795C104.243 455.897 104.182 455.991 104.106 456.072C104.058 456.141 103.851 456.556 103.789 456.694C102.456 459.734 100.349 465.469 92.7938 464.501C101.668 461.945 105.785 454.482 91.3918 455.795C93.0493 453.376 92.3172 454.275 95.1074 453.584L91.226 451.788C90.3972 452.686 90.8393 453.792 89.3544 454.966C88.2701 455.865 86.4261 456.072 85.1416 456.763C82.3997 458.283 80.7422 460.425 78.7601 462.291C76.8747 464.018 67.0745 471.62 63.9252 470.1C64.0633 470.031 64.2843 469.685 64.3603 469.823C64.4501 470.03 64.8714 469.477 65.2374 469.339C69.6368 466.92 72.3026 466.022 76.6191 462.083C78.5529 460.355 79.7338 458.835 81.6262 457.177C83.9398 455.173 86.5918 455.381 88.1941 452.893C86.6747 450.682 86.0877 451.373 85.0656 451.166C84.0642 450.958 84.8376 451.373 83.9674 450.82C81.7021 449.3 84.1194 447.641 69.029 443.357C63.6973 441.836 49.7679 437.483 44.709 437.552C39.5292 445.706 35.844 442.873 34.9482 447.711C34.8557 448.194 34.7901 454.068 34.884 454.897C37.4925 456.487 36.5339 454.621 38.5582 456.625C39.6632 457.661 38.7053 457.661 41.0051 459.458C47.5033 464.502 40.1073 462.221 47.5523 474.107C49.0717 476.525 50.4565 477.424 54.0581 478.253C63.4763 480.326 56.6825 485.855 65.3963 488.066C74.0637 490.278 70.8937 487.651 77.1992 492.142C78.3181 492.971 78.8706 493.041 80.3554 493.732C76.108 494.561 76.1771 490.761 61.8188 488.826C71.5291 501.057 66.6049 506.377 71.3772 513.84L78.6219 523.86C80.3347 525.588 82.4412 525.035 84.9827 524.206C91.9029 521.787 91.4954 524.552 94.0231 519.991C94.4928 519.092 94.914 518.263 95.3767 517.364C96.5439 515.084 96.8616 513.84 98.8368 512.182C97.9666 514.877 97.1793 514.946 96.3989 517.019C95.5494 519.299 95.8464 519.853 94.7551 522.272C98.2498 523.032 102.228 523.584 104.238 526.624C99.1062 525.38 98.6918 523.653 91.8891 524.414C86.8405 525.035 84.3612 527.177 78.9466 526.693C74.4782 520.75 68.0967 515.707 66.964 505.756C65.0441 488.964 57.0879 490.623 55.4822 483.367C57.2454 482.538 56.4056 484.542 57.8711 483.367C55.8068 478.806 44.807 479.429 42.3249 468.027C41.5514 464.433 43.6986 464.088 38.427 458.698C36.2017 456.418 36.7004 458.144 34.3777 456.209C32.5068 452.132 32.4799 446.813 35.5387 444.187C38.4884 441.63 41.6515 440.8 43.3429 437.137C40.2592 435.755 36.2756 435.134 32.301 434.996C26.9258 434.719 25.3028 433.683 20.8144 432.577C22.1535 431.54 22.7599 431.609 25.9016 432.024C32.1753 432.922 38.6873 435.548 41.5866 433.682C38.2232 430.089 2.15133 423.94 0 422.42L2.19554 422.004C10.1378 422.349 42.5894 432.232 46.3748 432.439L24.4513 425.667C18.5353 424.285 5.76682 422.626 3.17004 418.48C5.88492 418.895 8.19714 419.932 10.93 420.692C13.5917 421.383 16.6858 421.935 19.5781 422.557C28.2442 424.492 45.5681 430.918 52.8039 430.987C57.9768 431.056 68.4972 429.813 70.9421 434.581ZM407.012 379.092C410.507 373.357 411.156 367.897 410.866 360.158C408.131 362.991 402.419 374.531 407.012 379.092ZM403.407 278.272C402.475 275.715 403.228 276.545 403.248 275.163C403.26 275.048 403.264 274.932 403.262 274.817L401.052 270.119C400.403 268.322 400.154 266.871 399.457 265.074L397.24 261.067C397.209 260.977 397.161 260.894 397.099 260.823C397.036 260.751 396.959 260.692 396.874 260.651C395.872 267.561 398.414 264.314 394.629 270.948C393.165 273.504 391.77 276.269 390.195 279.102C387.343 284.216 384.097 289.743 381.459 294.857L368.751 319.872C367.197 322.705 365.691 324.847 364.331 328.025C365.961 327.058 364.759 328.441 366.424 326.091C366.596 325.884 367.163 324.64 367.314 324.364L389.325 282.764C391.121 279.585 395.872 270.395 398.393 268.529C400.348 276.96 403.428 278.549 399.091 286.703L374.842 332.725C380.243 328.372 395.624 293.13 402.219 284.285C404.194 290.228 403.953 311.235 403.718 318.49C403.49 325.608 394.525 336.181 393.117 343.644C395.575 340.741 398.386 334.314 400.375 330.306C400.741 329.546 401.294 328.302 401.439 328.025C402.806 325.952 401.777 327.128 403.421 326.091C403.538 341.294 404.084 340.671 398.414 353.524C397.461 355.666 396.052 357.879 394.836 360.573C392.094 366.724 382.135 384.413 381.479 388.421C389.76 377.088 397.951 353.939 403.048 347.719C403.752 351.658 404.077 363.889 403.739 368.104C403.165 375.429 383.123 405.973 385.167 409.705L403.718 373.426C409.478 385.312 392.371 401.274 388.165 418.134C389.774 416.822 390.147 415.785 391.024 413.643C391.666 412.123 392.129 411.017 392.84 409.497C394.242 406.525 395.534 404.384 396.915 401.689C399.339 396.99 402.426 389.664 405.313 386.416C411.156 400.651 402.806 439.902 405.299 448.539C406.95 439.694 406.107 409.082 409.001 404.037C410.728 407.354 409.719 409.289 412.213 411.639C413.062 407.907 409.568 400.928 409.367 395.953C409.091 389.112 412.323 367.828 412.316 367.759C411.529 358.638 413.048 356.081 413.007 347.582C412.938 333.831 413.773 290.503 406.356 281.382C406.142 285.804 409.043 296.93 409.858 302.251C410.912 309.581 411.565 316.963 411.812 324.364C412.13 332.172 412.164 341.156 411.695 348.895C410.762 364.443 410.099 355.391 405.368 365.825C404.291 361.126 404.726 355.736 404.574 350.899C404.215 339.705 404.512 343.228 407.019 338.322L406.308 338.253C405.023 338.184 405.486 338.944 404.464 338.322C404.512 327.68 405.541 316.693 405.569 305.844L404.029 281.935C404.188 278.411 405.375 279.792 405.81 275.854C404.961 276.545 403.815 277.305 403.407 278.272ZM385.969 268.529C384.27 272.744 364.089 302.942 361.334 306.881C358.564 303.909 355.173 294.235 354.103 289.26C352.97 284.008 353.688 283.662 356.699 280.691C359.017 278.213 362.201 276.728 365.588 276.545L364.096 280.553C366.493 278.687 365.567 275.094 371.479 274.403C377.177 273.712 371.258 274.127 379.276 270.81C381.721 269.773 382.916 269.013 385.969 268.529ZM379.207 255.469C381.21 257.473 387.895 266.594 382.964 267.838C374.884 269.842 374.338 271.847 369.283 273.229C369.414 272.33 377.494 257.058 379.207 255.469ZM389.795 260.79L390.879 262.794C389.152 264.798 390.644 264.659 387.944 266.456C385.934 265.212 381.735 255.607 380.975 252.567C384.877 254.778 380.858 254.502 389.795 260.79ZM336.837 212.28C343.729 212.418 344.261 214.491 348.343 217.463C351.264 219.674 357.556 224.028 359.275 227.207L372.107 242.409C369.892 241.28 367.834 239.861 365.988 238.193C364.11 236.535 351.575 230.869 337.203 217.394L326.567 208.134C328.784 207.927 331.519 208.756 333.888 209.516C340.041 211.451 337.631 211.314 337.12 212.005C337.106 212.005 336.989 212.142 336.975 212.142C336.941 212.15 336.911 212.168 336.886 212.192C336.862 212.217 336.845 212.246 336.837 212.28ZM389.795 260.79C393.303 261.136 392.06 260.721 394.753 259.2C393.448 262.863 368.482 299.348 365.581 306.881C364.034 307.157 363.744 304.393 361.575 308.677C357.314 317.246 353.364 320.84 352.12 325.055C350.283 331.343 350.263 351.935 348.094 356.22C346.423 352.35 349.924 324.295 352.079 320.494C353.833 317.385 359.883 311.58 358.543 306.743C356.914 300.869 345.048 284.975 358.184 277.512C368.385 271.708 363.578 281.037 377.128 255.331C378.745 252.29 377.653 251.393 375.782 248.974C374.181 246.826 372.148 245.036 369.815 243.721C371.783 249.042 372.805 245.104 374.214 250.425C371.921 249.734 372.031 249.458 370.574 246.901C367.708 241.857 365.263 239.713 360.139 236.811C353.882 233.356 349.828 229.486 344.42 225.409L329.53 213.11C327.149 211.033 324.58 209.182 321.857 207.582C320.441 206.71 318.924 206.014 317.34 205.509C316.435 205.163 315.565 204.886 314.888 204.61L338.239 209.586C339.323 208.619 338.308 210.139 339.088 208.55C339.13 208.48 339.399 207.581 339.489 207.374C343.577 210.138 342.652 208.895 342.845 210.277C343.128 212.35 341.699 210.207 342.88 211.934C343.418 212.695 344.814 212.903 346.057 213.801C347.113 214.561 348.08 215.529 349.317 216.496C359.414 224.305 363.461 228.934 371.189 238.332L378.841 247.315C380.395 248.905 380.222 249.042 382.716 248.213C381.631 251.806 383.42 252.636 387.129 258.164L389.795 260.79ZM245.037 381.579C244.734 383.169 244.443 384.482 244.209 386.002C243.387 391.254 244.271 390.08 244.816 390.702C246.591 390.149 245.742 391.116 246.481 389.043C246.495 389.043 246.847 386.969 246.888 386.762C247.151 385.311 247.404 383.861 247.648 382.409L249.016 375.36C248.946 373.218 249.126 374.393 248.132 373.149C245.956 374.117 247.551 371.905 246.315 374.946L245.037 381.579ZM242.171 388.49C243.145 386.624 252.179 342.745 251.964 339.152C248.725 342.607 239.733 379.921 239.388 386.002L242.171 388.49ZM251.032 357.256C250.813 358.442 250.681 359.643 250.639 360.849C250.383 364.926 249.43 360.988 248.27 366.239C248.062 367.207 247.91 368.244 247.759 369.211C251.605 369.073 251.799 363.13 252.489 359.191C254.534 347.444 259.513 330.583 258.56 319.872C256.025 325.608 255.169 331.55 253.85 337.493C253.076 341.017 254.402 342.537 254.416 342.468L251.032 357.256ZM261.716 303.633C262.006 301.353 263.008 299.763 262.034 298.174C259.472 300.316 257.061 316.762 255.804 321.461C253.788 329.062 251.101 336.733 248.656 344.196C245.977 352.35 237.213 384.689 237.8 391.807C241.84 391.945 236.66 391.392 239.913 391.254C244.312 391.046 239.416 404.728 241.508 410.257C243.318 407.078 240.514 398.924 244.153 396.299C246.433 399.615 242.641 406.664 252.876 409.981C254.831 401.067 244.982 405.903 248.553 393.672C249.644 389.941 249.927 391.392 252.855 390.148C251.833 389.457 250.659 389.596 249.575 388.629C249.679 380.129 252.565 370.11 254.969 362.301C256.039 358.777 254.768 361.195 255.245 357.947C255.639 355.252 257.068 351.037 257.676 347.858L263.712 316.141C264.037 314.067 264.327 313.031 264.728 311.166L264.617 306.329C263.035 310.82 261.765 324.501 259.817 327.334C258.477 313.721 262.386 309.714 265.218 299.279C262.538 300.661 263.16 301.629 261.716 303.633ZM274.32 156.239C275.508 148.983 277.339 143.662 277.304 136.89C277.29 133.228 277.304 132.329 275.937 130.671C274.099 136.545 277.421 143.178 272.621 148.292C270.764 144.284 270.922 140.691 273.167 137.581C271.171 136.337 272.221 140.484 271.275 138.066C271.226 137.928 271.026 138.272 270.874 138.341L269.009 134.611C269.293 141.728 270.95 139.586 267.145 145.39C263.885 150.366 252.973 167.779 251.723 171.718L254.527 167.779C255.217 166.605 255.887 165.429 256.481 164.462L269.313 144.354C274.134 152.024 261.475 168.055 257.255 173.86L239.505 197.009C239.485 197.147 239.45 197.354 239.443 197.423L239.775 198.46C241.301 199.289 239.747 199.29 241.681 197.493C242.533 196.767 243.334 195.981 244.077 195.144C245.521 193.416 246.978 191.619 248.442 189.615C248.269 189.719 248.103 189.834 247.945 189.961L256.488 177.108C256.129 180.149 250.141 186.575 248.394 189.547L253.588 186.091C255.141 184.433 255.369 182.705 256.882 180.77C259.147 177.868 263.505 173.377 264.382 170.198L260.004 174.69C260.68 172.064 263.484 167.64 264.852 165.567C266.772 162.596 268.056 159.417 270.121 157.344C269.576 167.087 264.797 171.856 261.026 178.351C259.872 180.286 259.361 182.221 258.422 183.742C257.006 186.022 250.003 192.103 248.843 195.835C250.266 195.42 252.579 193.002 253.781 191.62C256.129 188.925 265.446 178.489 266.413 176.347C268.823 171.026 269.665 168.608 272.269 163.702C275.57 157.483 278.809 155.34 277.684 151.816C277.522 151.961 277.376 152.124 277.249 152.3L274.32 156.239ZM193.516 390.908C204.38 382.478 193.993 382.962 188.433 385.933C185.767 387.315 186.285 392.222 186.043 395.262C188.916 394.64 191.486 392.497 193.516 390.908ZM187.19 383.929C187.245 367.69 190.387 350.484 189.179 334.107C188.032 335.973 188.24 338.046 188.212 340.395C188.191 342.606 188.108 344.749 188.039 346.891L185.995 384.759C182.183 385.657 178.999 386.763 179.344 391.116C180.94 389.665 182.48 388.076 185.332 387.246C185.691 398.095 182.894 391.323 178.806 393.258L185.277 398.579C190.021 402.38 196.058 401.895 189.338 411.984C187.558 414.523 186.077 417.26 184.925 420.139C187.287 418.48 187.266 417.375 188.972 414.887C190.36 412.883 190.961 411.294 193.178 410.672C202.667 424.907 201.831 421.452 207.439 428.017C209.145 430.021 209.442 432.438 212.073 432.715C211.659 428.223 203.005 422.695 202.163 417.789C201.189 412.123 202.108 415.509 198.62 409.082C195.809 403.831 195.54 404.246 194.78 400.307C191.617 399.201 189.814 398.924 187.798 397.404C188.992 394.847 189.904 395.262 193.979 392.152C198.261 388.836 197.107 390.286 201.866 388.766L203.434 385.311C199.822 383.653 202.08 387.454 198.219 381.304L187.19 383.929ZM328.425 500.02C328.376 495.183 328.998 494.354 331.477 492.073C335.324 492.695 334.993 495.805 340.331 494.215C343.322 493.317 346.098 491.452 348.716 489.931C357.756 484.68 359.013 482.607 364.179 490.485C369.925 499.192 381.176 494.216 382.26 493.041C386.68 488.273 383.275 477.079 383.952 470.86C385.278 472.656 385.72 482.469 385.858 484.68C386.245 490.761 386.348 494.354 380.664 495.46C376.251 496.289 371.217 497.879 366.928 495.667C361.789 493.042 363.433 489.862 358.688 487.167C354.621 486.96 349.475 491.452 346.133 493.387C344.641 494.216 341.678 495.875 339.834 496.427C335.131 497.671 335.276 495.321 331.802 495.528C330.117 500.366 332.596 504.443 324.82 500.711C320.821 498.776 319.723 496.842 317.23 493.732C314.557 490.415 313.991 487.513 313.417 482.952C312.823 478.254 313.493 474.453 311.214 470.583C308.776 470.03 305.862 470.583 303.5 471.274C301.815 474.107 301.953 476.318 301.262 479.635C297.795 496.219 285.557 493.525 284.003 490.691C282.974 486.96 283.92 485.924 285.799 483.92C285.958 488.204 284.369 491.798 290.24 490.554C295.841 489.379 297.498 484.611 299.784 477.493C300.647 474.798 301.145 470.79 302.036 468.51C318.279 467.819 313.3 469.684 315.441 483.436C316.87 492.557 321.518 496.841 328.425 500.02ZM238.905 193.83C233.697 195.627 215.492 199.428 210.989 199.29C208.04 199.151 206.859 196.18 205.084 194.521C203.896 193.485 203.123 193.208 201.493 192.172C198.171 190.099 200.588 191.274 198.509 189.27L196.493 187.888C193.979 185.331 190.229 176.762 184.241 173.031C185.332 176.279 190.208 182.221 192.204 184.916C202.294 198.667 193.834 192.172 195.788 206.476C196.237 209.724 197.757 210.345 198.924 212.625C201.009 216.772 197.522 222.715 197.245 227.898C203.579 233.426 198.544 227.76 203.199 234.877C204.112 236.153 205.177 237.313 206.369 238.332C208.213 240.06 208.8 239.99 209.725 240.888C213.565 244.758 210.761 260.79 211.714 263.346C214.622 262.448 214.981 258.993 214.235 256.436C213.558 254.087 212.591 252.498 213.593 247.592L214.836 252.981C215.043 248.628 214.636 245.933 213.02 242.27C210.167 235.913 210.865 235.776 207.812 235.499C208.482 237.503 208.731 237.226 209.608 239.092C205.043 237.917 205.45 233.633 202.163 229.971C198.806 226.171 198.233 228.035 200.851 218.085C203.033 209.793 199.373 213.456 197.549 206.822C196.334 202.399 197.232 196.595 198.654 192.656C210.934 199.774 204.352 200.74 213.04 202.191C213.8 200.602 211.797 201.017 213.13 199.566C215.796 196.733 214 201.639 224.912 200.118L221.95 199.151C227.523 195.696 236.929 199.704 238.905 193.83ZM108.444 443.91C103.015 441.561 92.2137 435.271 86.1913 434.097L83.1318 434.373C86.2258 436.308 90.487 437.069 93.809 438.382C97.1366 439.802 100.367 441.441 103.478 443.288C109.183 446.397 116.4 449.645 122.843 452.409C125.861 453.722 125.703 453.239 128.659 453.93C132.381 454.759 155.455 465.539 164.855 467.681L162.002 465.538C159.15 464.087 143.638 459.803 139.343 456.14C143.562 456.486 148.176 457.868 151.311 458.145C147.478 452.755 137.789 456.832 135.351 450.889C138.348 445.015 149.543 447.779 154.785 447.917C156.892 447.986 160.435 447.987 162.216 446.951C160.877 445.845 161.553 446.259 157.921 446.535L144.156 445.43C138.838 445.361 130.965 448.539 134.674 454.413C130.668 453.376 124.549 450.199 120.903 448.333C112.988 444.325 108.416 448.746 111.317 441.698C109.535 442.734 110.239 442.666 108.444 443.91ZM200.795 164.048C205.575 161.698 207.764 167.987 219.815 165.43C221.998 165.015 228.428 166.535 233.462 157.69C231.349 158.104 227.62 159.97 225.057 160.799C218.11 163.218 203.095 159.901 197.687 159.763C193.378 159.693 194.821 160.455 193.716 158.796C195.118 157.552 197.232 158.036 199.421 158.451C228.856 164.393 227.937 154.304 241.474 154.857C240.97 157.275 240.693 157.829 237.806 158.52C232.965 159.694 235.997 158.658 234.049 161.906C231.128 166.812 217.267 169.231 211.625 168.125C209.021 167.572 201.852 165.568 200.795 164.048ZM246.902 95.6369L238.318 93.0794C227.751 89.6243 229.892 93.8397 221.715 95.7746C217.702 96.742 217.184 96.3271 213.51 98.262C203.434 103.583 208.082 109.181 213.766 104.551C222.944 97.0192 222.012 100.474 228.932 98.3322C229.063 96.881 224.166 98.9538 229.284 96.3279C230.98 95.6312 232.754 95.1442 234.567 94.8771C240.997 93.7023 243.345 97.9867 243.352 97.9867C243.466 98.1053 243.553 98.2463 243.608 98.401C244.637 97.5718 246.073 97.019 246.902 95.6369ZM241.191 213.455L264.866 189.408L270.971 179.941C268.312 180.632 267.29 182.428 265.632 184.225L243.435 206.406C241.947 207.806 240.584 209.333 239.36 210.968L235.859 215.529C237.586 214.699 237.088 214.284 238.483 213.316C239.727 212.487 238.746 212.764 239.878 212.902L240.866 213.248C240.978 213.311 241.086 213.38 241.191 213.455ZM240.804 215.943C244.879 214.975 255.818 205.094 259.423 201.846C261.461 200.049 263.464 198.874 265.218 197.078C267.538 194.59 268.816 193.14 270.757 191.343C275.198 187.197 283.672 176.071 281.227 171.303C279.866 172.202 281.213 170.544 279.845 172.617C279.569 173.07 279.353 173.558 279.203 174.067C278.813 175.017 278.472 175.985 278.181 176.969C275.419 184.847 273.16 186.575 267.835 191.688C260.038 199.221 260.363 201.155 249.934 207.927L260.466 197.009C261.737 195.281 260.943 196.318 261.654 194.936C259.216 196.387 241.916 213.317 240.804 215.943ZM328.466 427.532C328.729 425.321 328.432 427.256 329.468 425.113C328.526 425.094 327.586 425.211 326.677 425.459C324.205 426.288 325.883 425.736 324.944 426.566C328.466 431.126 331.712 433.337 337.196 436.654C341.657 439.349 346.167 442.252 350.815 444.947C368.24 454.966 365.754 467.196 369.276 470.721C370.464 467.473 365.968 457.591 364.407 455.173C361.043 449.852 359.006 448.47 353.516 444.807C339.143 435.202 341.844 439.487 328.466 427.532ZM227.461 136.407C223.572 135.923 225.9 137.028 223.69 134.886C221.853 133.158 223.531 133.781 220.658 132.606C221.535 137.858 221.604 133.919 223.331 138.48C221.183 139.24 219.574 140.76 216.977 142.142C213.165 144.215 216.901 142.142 214.318 144.768C211.845 147.325 202.922 146.219 201.389 145.805C198.71 145.183 196.472 142.004 195.167 146.219C197.031 148.499 195.94 147.117 199.062 147.601C203.786 148.223 201.631 150.711 210.25 148.637C215.706 147.255 214.946 147.74 217.177 145.667C221.362 141.797 220.119 145.943 224.277 143.663C223.483 140.829 223.041 143.248 221.542 141.521C222.689 140.001 223.165 139.793 224.975 139.102L228.124 142.833C228.58 138.272 226.3 141.244 227.461 136.407ZM172.203 394.433C164.779 392.706 147.782 389.043 141.794 393.534C139.626 395.124 139.467 396.367 137.091 398.095C133.707 400.513 125.778 404.591 123.928 411.155C125.143 412.676 124.238 412.33 126.317 413.16C127.229 410.534 124.908 411.57 128.403 407.286C131.932 403.002 133.804 402.518 137.989 399.685C146.511 393.88 143.196 390.908 164.682 394.64C169.047 395.4 170.159 396.368 172.203 394.433ZM160.697 409.773C156.954 407.493 149.309 407.908 144.191 408.046C131.773 408.322 137.657 409.704 127.567 414.403C125.454 415.37 126.759 414.956 124.832 416.338C122.028 418.342 121.262 416.822 120.039 420.83C117.014 430.642 127.602 429.329 128.078 429.053C126.704 427.395 123.796 426.703 121.821 425.667C121.283 420.139 123.486 419.102 126.959 417.098C142.05 408.46 133.659 409.221 160.697 409.773ZM102.097 483.712C104.479 482.607 102.497 484.611 105.536 480.465L111.254 474.315C112.228 473.278 113.333 472.656 113.907 471.551C118.244 463.604 103.968 461.461 104.044 468.579C106.061 467.68 107.339 466.229 110.426 466.16C114.777 470.514 112.477 472.587 107.228 473.624C104.838 474.107 102.939 477.009 99.783 479.981C97.6351 481.985 97.9873 482.192 96.4748 483.989C93.2841 487.79 89.8033 492.212 86.433 495.114C84.6305 494.147 85.846 493.663 84.1125 493.801L84.3335 496.288C91.0534 497.739 101.095 475.972 108.561 474.867C106.427 478.598 104.231 479.704 102.097 483.712ZM243.946 106.417C242.303 104.343 238.746 104.412 235.728 104.136C228.946 103.514 232.371 103.515 228.932 100.751C228.483 100.613 221.252 102.202 219.995 106.002C226.722 104.275 226.031 101.648 228.828 103.79L226.936 104.412C222.467 105.587 219.988 108.489 223.635 110.977C224.505 109.664 223.821 111.323 223.787 109.803C223.724 107.246 223.372 110.977 223.635 108.973C225.859 108.144 227.516 109.803 231.391 109.526L232.868 106.624C237.323 106.21 241.895 108.835 243.946 106.417ZM247.379 442.32C245.99 439.349 249.63 437.69 246.439 435.41C244.989 434.373 242.966 434.582 240.134 432.439C237.986 430.781 237.206 430.02 234.118 429.191C231.501 428.5 229.049 428.016 226.245 428.431L225.292 430.642C227.944 430.78 227.288 429.813 231.335 430.573C241.025 432.369 238.124 436.17 244.961 436.861C243.546 442.389 243.939 445.223 250.1 445.361C258.47 445.499 257.414 448.816 258.691 452.133L259.223 447.572C257.876 446.19 256.916 444.877 255.411 443.564C253.85 442.943 250.5 444.946 247.379 442.32ZM91.8891 434.719C94.9417 432.646 92.6971 431.541 90.563 429.675C80.0308 420.761 77.213 430.435 73.6217 419.517C70.5829 419.447 70.2722 420.553 66.8259 420.139C57.3642 419.102 60.1136 418.066 54.3599 427.74C57.1294 430.849 57.2392 430.297 62.2815 429.675L59.5362 428.845C57.8725 428.569 58.5348 428.845 56.8427 428.223C56.985 424.699 59.3781 422.765 61.4548 421.106L72.1596 421.866L74.2661 426.081C79.3906 427.325 80.2608 425.666 85.4475 428.223C91.753 431.402 88.6589 431.609 91.8911 434.719H91.8891ZM277.774 444.739C278.374 445.568 277.974 446.052 280.163 446.605C280.757 446.813 297.208 448.47 302.512 450.198C312.485 453.446 317.906 455.45 319.212 442.597C318.127 443.426 318.217 442.805 317.23 445.223C313.631 454.137 311.221 450.405 301.766 448.263C293.877 446.443 285.853 445.265 277.774 444.739ZM247.579 284.63L244.74 283.386C243.603 283.228 242.444 283.396 241.398 283.87C236.764 285.46 231.425 289.398 227.806 292.093C224.035 294.926 215.81 302.942 213.931 306.881C217.923 307.295 216.162 304.462 221.369 300.247C223.98 298.174 225.741 295.825 228.946 293.268C231.204 291.541 235.023 288.846 237.572 287.326C245.031 282.972 242.827 285.39 246.688 285.045L247.579 284.63ZM284.735 104.275C283.257 104.827 283.022 105.241 282.118 105.518C277.421 107.107 279.963 102.823 283.492 100.681L285.011 99.7142C285.549 99.2303 285.935 98.5996 286.121 97.9003C286.308 97.2009 286.287 96.4623 286.061 95.7746C283.209 96.9493 285.861 95.0838 283.513 98.1243C281.337 100.957 279.555 101.579 277.725 104.481C278.83 108.213 278.955 110.77 279.749 115.123C275.729 119.477 274.804 118.855 277.256 121.136L278.658 118.993C278.98 118.472 279.355 117.986 279.776 117.542C281.054 116.16 281.586 115.953 282.739 114.363C281.779 111.945 280.799 111.253 280.736 107.867C284.19 106.831 284.314 107.73 284.735 104.275ZM195.201 111.737C194.587 111.046 196.168 111.322 193.675 110.7C193.079 110.61 192.474 110.587 191.872 110.631C190.51 110.508 189.171 110.206 187.887 109.734C183.447 111.876 174.006 114.778 173.329 119.615C187.535 108.628 177.479 119.546 189.365 115.814C189.172 114.225 188.088 113.258 188.509 112.221C191.23 111.185 192.156 113.119 195.201 111.737ZM276.703 251.53L276.475 249.457C271.682 251.461 255.183 246.97 254.347 254.571C260.135 255.746 260.888 253.604 265.176 252.084C267.041 251.393 269.272 251.738 271.309 251.807C272.083 251.876 273.512 252.084 274.196 252.084L276.703 251.53ZM120.385 410.464C118.347 408.875 115.902 411.847 114.397 413.16C101.468 424.7 101.109 416.89 99.3825 422.695C99.0781 423.799 98.9088 424.936 98.8783 426.081C100.943 426.081 100.605 425.667 101.945 424.561C103.872 422.972 103.015 423.87 104.935 422.903L115.025 414.473C116.849 413.091 118.555 412.261 120.385 410.464ZM176.409 511.491C178.17 509.072 177.314 508.036 178.55 503.752C179.178 501.61 177.604 495.666 179.731 489.033C180.29 487.305 179.793 484.818 179.324 482.676C176.368 484.334 177.894 485.647 177.39 489.378C176.941 492.626 175.415 492.35 174.938 494.906C175.615 493.801 175.801 493.871 177.148 492.972C177.555 497.049 177.694 504.028 175.463 506.585C176.817 508.381 176.471 508.727 176.409 511.491ZM79.9825 421.729C83.8087 421.452 85.3211 418.895 86.4538 415.716C83.9468 416.407 85.1899 415.785 83.9882 417.858L83.4081 417.098C81.792 416.131 80.169 420.485 79.9825 421.729ZM87.911 517.158L86.9855 516.536C86.9648 516.536 86.9303 516.328 86.9165 516.328C86.4261 514.6 87.0822 516.951 86.8474 515.085L86.5988 514.255C85.9012 516.259 85.5007 516.466 84.444 518.401C81.937 522.823 83.6843 521.58 83.9468 522.064C86.1085 521.027 86.7646 519.715 87.911 517.158ZM145.116 509.072C142.444 508.658 141.774 509.35 140.993 512.597C143.991 512.528 143.638 511.836 145.116 509.072ZM78.539 413.16C76.9575 414.473 78.2766 414.266 75.4864 413.782C76.0182 411.087 75.5279 411.846 77.3028 410.533C79.4852 412.123 79.2711 410.119 78.539 413.16Z" fill="#254E92"/>
</g>
<defs>
<clipPath id="clip0_1_923">
<rect width="413" height="577" fill="white"/>
</clipPath>
</defs>
</svg>
