<svg width="522" height="1231" viewBox="0 0 522 1231" fill="none" xmlns="http://www.w3.org/2000/svg">
<path opacity="0.5" fill-rule="evenodd" clip-rule="evenodd" d="M347.438 527.384C348.634 526.525 348.337 527.086 348.69 525.649L345.746 525.715C346.232 526.567 346.342 526.907 347.438 527.384ZM333.382 510.036C331.328 510.871 329.801 515.493 328.7 517.717C326.229 522.715 324.827 522.572 323.387 524.587C333.445 535.143 337.856 512.571 333.382 510.036ZM320.408 513.596C319.624 513.996 319.563 513.537 319.427 515.23C319.328 515.925 319.418 516.634 319.687 517.282C320.652 516.745 322.155 514.902 320.408 513.596ZM343.484 490.964C343.365 494.668 341.926 497.25 345.974 497.447C347.834 497.542 354.202 498.347 355.096 497.161C356.288 495.568 352.686 491.74 351.941 491.131C349.333 489.002 347.421 491.465 343.484 490.964ZM331.94 502.659C331.973 502.566 332.031 502.484 332.107 502.421L332.618 501.425C333.2 499.743 334.236 489.652 330.508 489.128C330.83 493.809 330.889 498.258 331.938 502.659H331.94ZM246.469 472.376C249.127 469.245 248.329 465.828 243.319 465.876C242.675 468.983 243.211 472.626 246.469 472.376ZM244.154 458.295C243.89 459.686 243.45 461.037 242.843 462.315C241.949 464.444 242.51 463.913 240.34 464.492C237.856 465.154 236.055 466.627 235.282 468.815C232.695 476.139 242.454 477.576 243.756 479.019C243.144 483.635 230.749 479.604 231.189 470.33C231.529 463.162 236.769 457.92 244.154 458.295ZM349.218 488.37C347.694 488.639 346.442 489.462 344.967 489.36C342.778 489.217 343.23 488.484 342.728 486.653C342.232 484.846 341.446 481.607 340.877 478.751C339.732 472.984 338.223 467.533 337.063 461.951C335.662 455.688 335.071 449.27 335.303 442.856C335.338 441.818 335.227 438.204 335.392 437.56C335.779 436.057 339.992 434.912 341.126 428.126C344.419 429.443 347.963 433.475 348.715 437.93C349.399 441.985 348.752 450.191 348.801 454.789C348.92 466.007 349.224 477.093 349.218 488.37ZM216.699 466.519L227.064 467.378C227.585 466.251 227.79 465.136 228.299 463.991C228.835 462.786 229.495 462.059 229.78 460.937C229.135 460.001 228.744 459.948 228.04 459.232L219.025 449.112C217.759 447.543 216.932 446.225 215.642 444.722L216.699 466.519ZM331.22 486.175L331.557 485.83C332.935 483.754 331.708 476.61 331.388 473.908C330.835 469.233 331.402 463.878 331.448 459.143C331.48 455.696 330.57 447.811 332.015 445.086C332.618 443.947 333.028 444.245 333.413 442.814C333.645 441.515 333.688 440.189 333.54 438.878C333.434 436.499 333.224 433.928 332.938 431.608C327.083 428.662 325.549 433.648 325.793 439.617C326.015 445.032 328.002 442.325 329.474 444.603C333.299 450.531 328.088 482.18 331.222 486.175H331.22ZM273.252 437.548C273.045 437.117 272.739 436.74 272.358 436.451L269.581 433.827C265.199 429.509 258.588 429.479 252.393 430.618C251.664 432.324 250.446 434.692 251.361 436.904C252.414 439.445 253.54 437.298 253.577 442.486C253.612 447.418 253.361 452.386 253.349 457.318C253.338 461.677 253.359 460.311 254.665 463.627C257.14 469.907 252.896 476.449 251.005 480.808L255.02 480.868C254.96 478.423 254.437 477.188 255.697 476.234C259.044 473.873 279.358 479.908 282.058 477.57C279.383 476.765 272.179 476.324 268.918 475.757C266.63 475.358 258.2 474.075 256.693 473.235C255.912 470.3 256.01 465.124 255.854 461.904C259.502 459.101 263.392 456.214 267.744 453.298L276.77 446.798C277.017 446.607 278.129 445.587 278.132 445.581C278.268 445.466 278.375 445.32 278.444 445.155C278.513 444.99 278.543 444.811 278.53 444.633C278.859 441.413 272.928 446.267 272.349 446.708C269.919 448.581 258.124 458.522 256.85 457.854C255.547 456.441 255.941 442.242 256.402 439.725C257.217 435.27 265.638 437.918 273.253 437.548H273.252ZM324.352 433.469C324.258 436.141 323.668 438.401 324.148 441.281C324.775 445.038 325.691 444.377 328.055 445.748C329.943 450.293 328.591 474.529 328.569 481.13C326.214 480.713 326.409 480.528 323.293 480.594L305.346 480.373C304.893 477.642 305.263 471.851 305.087 468.571C304.823 465.044 304.382 461.533 303.765 458.051C302.111 447.573 299.192 444.645 297.905 439.779C302.916 440.101 308.897 439.427 314.281 439.617C324.502 439.981 322.546 437.274 324.351 433.469H324.352ZM322.642 431.334L299.89 431.787C298.597 431.972 299.592 431.638 298.852 432.097C298.133 432.986 297.864 434.71 297.817 436.057C297.694 439.618 301.75 437.655 309.596 437.703C318.598 437.763 322.154 439.713 322.642 431.334ZM296.572 431.769L292.414 431.722C292.974 432.509 293.431 433.159 294.142 434.119C294.569 434.686 294.622 434.87 295.022 435.395L295.961 436.427L296.569 431.769H296.572ZM276.409 438.15C276.066 436.868 268.691 430.618 267.109 429.789C262.704 427.487 252.552 428.334 251.471 429.02C250.234 429.813 249.153 434.077 249.3 435.998C249.612 440.065 251.673 437.96 251.8 442.122C251.973 447.806 251.269 453.525 251.561 459.196C249.739 458.409 248.647 457.544 246.317 457.079C246.475 447.001 248.534 431.441 250.421 421.798C267.153 423.939 281.52 438.836 286.546 452.225C288.445 457.282 293.637 476.365 287.728 479.484C285.706 480.552 275.919 479.997 272.473 480.021C268.284 480.051 260.214 481.047 256.734 480.635L256.724 477.665C267.01 476.89 285.434 483.909 284.012 476.413C280.392 474.541 261.888 473.98 258.457 471.744C257.512 469.972 257.742 465.16 257.752 462.75C261.208 459.685 265.372 457.341 269.497 454.336C271.659 452.767 279.941 447.257 280.388 445.307C281.233 441.621 277.613 440.953 274.855 442.701C271.499 444.824 259.468 455.051 257.887 455.332C257.615 452.445 257.848 441.591 258.398 439.069C261.692 439.075 264.858 439.027 268.148 439.254C270.798 439.439 274.961 440.005 276.409 438.15ZM324.352 433.469C325.177 432.3 325.061 431.137 326.441 430.1C327.437 429.354 328.954 429.098 330.486 429.157C334.695 429.33 334.73 430.672 335.007 434.709C337.236 434.369 339.043 429.927 339.637 426.82C338.393 426.444 337.598 425.77 336.483 425.311L326.932 421.631C326.903 424.553 327.082 425.525 325.66 427.869C324.535 429.724 324.368 430.493 324.352 433.469ZM226.907 471.583C225.793 471.046 224.616 470.653 223.404 470.414C216.02 468.923 200.832 469.46 197.666 467.444C199.35 464.259 209.043 467.599 212.504 467.951C215.219 468.219 217.894 468.303 220.577 468.517C222.695 468.69 226.997 469.615 228.414 469.495C228.911 468.028 229.175 466.334 229.874 464.844C230.499 463.514 231.636 461.91 231.923 460.574C231.18 459.584 230.32 458.689 229.361 457.908L221.614 449.404C219.29 446.869 213.033 439.355 213.81 435.652C217.484 435.079 220.563 442.42 224.113 446.529C225.768 448.444 227.144 450.388 228.902 452.583C235.706 461.063 231.661 458.749 237.735 456.816C243.432 455.01 243.388 453.411 243.937 443.953C244.34 436.993 242.805 423.671 248.473 422.376C247.973 427.314 246.465 433.26 246.164 437.793C245.811 443.118 245.175 448.366 244.747 453.716C244.577 455.857 244.986 456.345 243.317 456.506C239.27 456.888 237.716 456.626 233.909 460.198C230.399 463.496 229.142 467.36 229.633 473.777L228.337 472.674C227.967 472.191 227.475 471.814 226.912 471.583H226.907ZM229.404 505.748C227.129 506.052 224.408 505.748 222.429 506.547C220.039 507.513 220.118 508.974 220.074 511.891C217.372 511.819 208.92 504.967 207.316 503.536C194.33 491.972 190.214 473.831 196.058 456.59C200.011 444.931 206.622 437.804 214.293 432.216C222.011 426.593 233.108 421.1 245.718 421.315C244.989 422.675 244.238 423.057 243.584 425.078C241.927 430.207 242.587 435.705 242.313 441.061C241.997 447.257 242.547 453.632 238.298 454.843C236.522 455.344 235.318 455.988 233.779 456.369C232.761 454.365 226.469 446.607 225.072 444.848C223.463 442.82 222.35 440.983 220.877 438.932C219.764 437.381 217.77 434.59 216.07 433.958C212.343 432.581 211.053 436.039 212.397 439.129C213.263 441.114 213.369 440.613 213.589 442.975L214.777 466.358C209.891 466.263 194.186 460.848 195.887 468.744C204.327 473.604 228.729 467.098 229.574 478.655C226.904 480.957 222.468 478.363 219.93 480.17C218.171 481.428 218.839 486.551 217.121 488.567C213.651 492.628 204.001 496.636 207.315 499.934C209.698 502.099 214.858 497.083 216.264 496.356C216.354 497.972 216.151 499.504 216.255 501.079C216.267 501.695 216.384 502.304 216.602 502.88C217.646 505.253 222.169 504.836 224.393 504.532L225.609 504.418C225.273 504.286 224.969 504.083 224.719 503.822L224.06 503.19C224.012 503.084 223.927 502.999 223.822 502.951L218.467 502.528C217.562 500.369 218.737 497.298 217.752 495.401C219.107 493.499 222.961 491.263 225.696 489.945C229.324 488.203 232.847 487.97 237.31 487.803C237.195 491.798 236.832 495.781 236.222 499.731C235.924 501.568 235.523 503.172 235.29 505.003C235.055 506.863 234.383 508.283 234.434 510.251L234.632 510.841C234.972 510.543 234.985 510.471 235.376 510.137C235.601 509.916 235.858 509.729 236.138 509.583C236.936 506.142 237.596 502.188 238.151 498.431C238.297 497.429 239.836 487.034 238.665 486.14C233.867 484.631 224.805 488.132 221.581 490.153C220.293 490.959 219.628 491.447 218.387 492.372C217.389 493.117 216.371 493.988 215.348 494.739C213.43 496.141 211.672 498.013 208.687 498.628C209.49 496.523 213.237 493.928 215.326 492.622C222.325 488.257 218.826 482.55 221.732 481.56C222.047 481.444 222.378 481.376 222.713 481.357C224.248 481.184 226.369 481.673 228.055 481.446C229.759 481.22 230.444 480.546 231.347 479.347L232.213 478.178C233.622 480.427 236.299 481.828 239.793 482.502C244.62 483.432 247.338 479.705 244.636 477.296C242.279 475.197 238.875 476.264 237.181 472.841C235.348 469.131 238.48 466.657 241.376 466.09C241.169 468.875 241.173 470.742 242.746 472.686C246.507 477.344 251.237 471.07 249.268 466.877C248.031 464.241 245.903 465.196 244.161 463.83L246.167 458.838C250.967 459.9 254.158 463.287 253.486 469.269C252.949 474.04 248.614 480.134 248.666 481.911C250.402 482.991 253.083 482.693 255.202 482.675C255.897 489.629 250.872 481.745 261.033 495.199C262.558 497.22 263.715 498.991 265.182 500.804C266.649 502.617 269.269 504.323 268.323 506.995C266.199 507.478 265.874 505.838 264.854 504.388L251.395 486.426C248.922 484.238 244.89 485.71 241.584 486.355C239.373 491.579 237.897 509.666 237.61 510.561C237.259 511.652 236.65 512.237 236.435 513.036L235.504 513.573C234.652 514.026 234.813 513.596 234.009 514.962C236.595 516.041 238.291 513.614 239.028 511.652C239.916 509.291 239.825 506.231 240.088 503.649C240.573 498.908 241.866 493.123 242.734 488.191L246.893 487.207L246.977 503.607C245.79 504.561 245.27 504.126 244.225 505.355C242.855 510.543 256.445 511.068 257.383 515.546C252.862 517.443 243.527 518.176 238.493 517.58C231.349 516.727 227.686 515.582 221.71 513.024C222.012 508.801 221.477 507.645 226.339 507.585C228.933 507.549 232.634 507.335 232.617 504.568C231.515 503.888 232.223 504.102 231.021 504.108C230.987 504.144 230.582 504.55 230.567 504.568L229.405 505.748H229.404ZM350.979 488.585C350.789 472.829 350.741 457.163 350.753 441.401C350.764 423.951 330.286 423.11 326.127 418.983C327.774 418.035 336.249 421.53 337.575 422.013C345.289 424.834 350.405 428.561 352.014 437.178C353.349 444.323 352.396 472.358 352.316 480.826C352.251 487.649 353.865 488.15 356.969 491.519C359.165 493.899 361.097 494.513 363.627 496.051C364.959 496.862 365.074 496.874 365.516 497.972C360.796 499.791 361.228 494.632 358.484 495.491L358.403 496.027C358.456 497.047 359.557 498.037 360.25 498.711C361.234 499.665 362.198 499.761 362.073 501.699C358.758 504.341 350.879 501.282 346.907 500.542C344.657 500.119 340.923 499.982 340.367 498.055L340.378 491.638C340.702 489.575 340.318 490.619 341.312 490.165C342.812 493.046 339.933 497.447 343.553 498.836C344.594 499.236 351.734 499.636 353.203 499.57C361.512 499.2 354.743 489.64 350.98 488.585H350.979ZM256.928 482.568C284.658 480.164 292.545 487.243 291.94 470.634C291.274 452.32 283.026 437.828 271.715 429.503C259.672 420.647 246.999 416.431 229.297 422.299C216.587 426.583 205.748 435.135 198.621 446.505C191.482 458.045 189.21 477.326 195.538 490.762C205.942 512.851 234.881 525.351 259.86 516.62C269.931 513.101 277.329 507.162 283.195 498.813C285.162 496.016 286.115 492.593 287.801 489.694C290.528 485.019 293.008 484.947 294.599 483.14C297.468 479.89 295.816 463.555 294.783 458.826C292.976 450.537 290.358 445.551 286.669 439.463C271.125 413.813 234.528 408.601 210.87 425.883C202.274 432.169 191.384 443.744 188.672 458.546C185.513 475.805 190.349 491.692 198.956 501.437C206.684 510.179 216.556 520.574 231.437 523.812C246.513 527.086 264.743 521.725 274.541 514.372C279.431 510.704 284.269 506.035 287.541 499.922C289.08 497.053 290.2 493.278 291.98 490.642C294.65 486.682 296.708 487.649 302.258 487.911C300.642 497.005 295.006 505.378 289.97 510.686L284.154 516.059C269.904 529.012 246.782 535.024 225.659 530.342C212.268 527.372 203.69 520.544 195.186 511.366C182.017 497.149 177.974 476.61 182.911 455.683C187.012 438.299 197.264 428.173 207.842 419.967C214.256 414.988 219.644 413.091 228.352 410.175C237.006 407.283 245.99 407.587 254.776 409.96C278.567 416.383 296.001 432.002 301.232 454.515C301.708 456.566 302.314 459.071 302.466 460.293C303.466 468.35 303.033 479.126 303.489 481.9C309.261 483.301 320.684 481.548 326.901 482.335C327.635 483.557 328.674 484.864 328.545 486.897C319.384 485.055 322.096 486.289 313.557 486.426C298.888 486.659 293.396 482.102 288.64 493.069C286.736 497.465 285.708 500.13 282.968 503.667C270.263 520.049 243.94 528.309 224.121 519.584C213.738 515.016 204.418 505.784 197.876 497.083C192.726 490.231 190.347 482.949 189.794 472.513C189.244 462.148 190.568 453.87 195.199 445.957C220.438 402.816 279.446 410.712 292.081 455.344C293.456 460.198 296.577 479.878 292.416 482.746C288.561 485.406 287.391 485.961 284.908 491.495C283.011 495.729 281.364 498.854 278.797 501.633C273.574 507.287 267.392 512.457 259.496 514.813C258.44 513.799 258.491 513.018 256.925 511.962C253.924 509.947 249.96 509.511 246.105 506.607C246.802 505.319 247.53 505.569 248.707 504.752L248.661 487.082C251.255 487.762 256.487 496.075 258.279 498.687C259.844 500.965 261.25 502.653 262.767 504.669C264.062 506.386 265.731 509.959 268.58 508.778C271.819 507.436 269.846 503.184 268.531 501.776C262.775 495.622 263.42 494.817 259.647 489.712C258.952 488.77 257.814 487.738 257.136 486.808C256.015 485.269 257.044 486.444 256.926 482.568H256.928ZM324.372 414.904C326.055 411.302 320.947 406.728 319.159 406.09L324.372 414.904ZM274.797 401.456C273.93 398.934 273.329 398.969 272.95 395.785C272.648 393.256 272.752 390.614 272.641 388.056C270.957 387.579 264.973 387.638 263.106 387.883C261.775 390.793 261.613 397.812 262.09 401.301L274.8 401.456H274.797ZM304.749 401.462C300.816 402.267 280.354 402.345 277.91 401.629C274.05 400.496 274.395 391.038 274.483 387.889L286.022 388.074C286.847 391.533 286.047 394.705 293.222 397.085C298.015 398.671 300.756 398.767 304.749 401.462ZM209.762 411.374C211.401 407.646 206.273 399.297 204.101 396.095C203.133 394.67 202.109 393.662 201.271 392.362C201.302 396.304 207.091 409.722 209.765 411.374H209.762ZM299.75 390.889C298.916 389.851 297.92 388.986 297.443 387.782C294.131 388.044 291.281 388.008 288.028 388.199C287.903 397.514 298.418 394.449 306.666 400.49L299.753 390.889H299.75ZM300.847 429.945C302.03 428.913 303.217 428.847 304.883 428.68C314.791 427.66 329.809 431.429 317.282 412.358C316.465 411.117 315.896 410.473 315.089 409.137L298.985 387.161L300.59 385.426L315.991 404.617C317.68 407.008 318.936 409.358 320.479 412.036C323.118 416.622 327.696 422.734 323.138 428.585C322.52 429.378 322.601 429.491 321.162 429.634L312.471 429.551C308.61 429.622 304.724 429.903 300.847 429.945ZM342.978 422.43C338.695 420.224 331.468 417.6 325.921 416.813C328.694 407.354 318.476 403.842 316.076 401.617C315.42 400.944 314.835 400.205 314.331 399.411L304.064 386.941C303.551 386.291 303.03 385.408 302.574 384.77C301.768 383.655 301.716 383.75 302.157 382.2C305.375 382.086 309.121 382.522 312.479 382.563C320.113 382.665 321.311 381.09 325.161 385.992C330.132 392.32 336.765 397.317 342.72 406.37C346.826 412.608 346.116 415.835 342.978 422.43ZM302.337 380.315C306.426 380.714 310.534 380.875 314.641 380.798C325.919 380.518 323.596 382.2 327.61 386.082L336.449 395.654C339.279 398.588 344.965 405.327 346.666 410.372C347.938 414.141 347.374 416.962 345.896 420.337C341.381 430.642 356.972 419.854 342.684 401.689C341.79 400.55 340.952 399.422 339.981 398.248C335.78 393.167 326.622 387.126 326.403 380.661C326.105 371.871 321.982 375.801 308.148 375.204C305.438 375.085 298.83 373.928 296.941 374.864C297.374 376.761 298.514 375.455 300.382 376.868C301.408 377.644 301.974 378.633 302.337 380.315ZM272.256 358.781C271.675 357.236 272.424 355.828 272.775 354.558C267.173 357.51 264.339 371.841 264.73 375.097L269.453 375.473C270.277 371.209 271.062 358.339 278.588 357.385C288.668 356.097 286.467 370.404 287.481 375.419L290.144 375.604C289.221 370.195 289.003 363.193 286.13 359.347C280.93 352.381 273.595 358.864 272.254 358.781H272.256ZM279.228 350.288C278.767 349.793 276.685 347.885 275.891 347.581L275.844 351.225C277.036 351.177 278.445 350.926 279.228 350.288ZM250.734 347.742C248.997 346.006 246.894 346.382 244.256 346.549C243.638 350.24 243.059 349.209 240.993 350.956C244.677 351.081 248.611 349.71 250.734 347.742ZM234.544 349.936C232.572 346.656 229.223 344.849 225.572 343.806C223.532 343.221 222.969 343.001 222.736 345.213C224.103 346.209 226.298 346.501 227.845 347.318C229.328 348.146 230.621 349.275 231.64 350.634L234.544 349.936ZM242.92 343.341C246.995 343.979 252.381 342.494 253.732 346.4C250.777 347.545 252.063 343.985 245.133 344.647C242.327 344.909 243.274 344.509 241.41 343.466C240.019 342.691 238.639 342.923 237.235 341.957C237.771 340.854 238.886 340.371 240.728 340.568C243.016 340.806 241.97 341.909 242.92 343.341ZM162.052 379.57C162.052 394.031 161.708 406.633 159.634 420.772C155.948 445.909 147.891 456.286 146.486 487.983C146.367 490.678 145.524 505.611 146.105 507.084C146.701 508.159 147.651 508.994 148.793 509.446C151.697 510.477 158.488 508.372 160.634 512.654C158.798 517.312 150.11 513.03 147.947 516.083C147.254 517.061 144.729 524.742 152.76 526.43C157.17 527.354 163.065 527.921 167.619 528.511C172.314 529.12 178.768 530.104 181.945 527.492C182.243 524.951 180.51 524.194 178.877 523.013C177.178 521.79 175.679 521.278 174.03 520.282C171.605 518.827 166.196 515.582 167.48 511.837C167.986 511.247 169.879 511.539 170.779 511.455C176.932 510.901 173.143 502.331 173.143 490.231C173.143 481.202 174.717 465.523 177.142 456.787C177.619 455.075 177.917 453.668 178.518 452.028C180.497 446.625 180.023 446.285 183.524 438.949C190.524 424.291 188.85 428.209 193.335 410.843C195.144 403.83 194.355 396.286 196.996 389.541C198.073 386.792 198.471 388.581 198.766 385.086C199.814 372.646 202.724 356.115 202.543 345.404C202.327 332.719 195.888 336.119 187.415 336.119C180.486 336.146 173.563 335.722 166.689 334.848C161.3 334.234 162.847 333.435 161.285 334.544C161.695 335.212 162.049 375.001 162.049 379.57H162.052ZM286.492 335.802C287.903 335.015 287.997 332.218 288.417 330.459C289.528 325.813 298.054 322.319 301.713 321.895C302.813 327.221 305.632 330.131 306.257 331.467C305.55 333.357 304.458 333.435 304.397 336.077C304.337 338.605 304.066 336.834 303.689 338.486C303.253 340.388 304.423 338.439 303.271 341.003C301.339 345.303 302.885 348.833 296.627 348.863C281.141 348.94 268.5 330.566 278.267 330.483C281.789 330.447 283.443 337.496 286.494 335.802H286.492ZM285.783 334.079C287.044 328.849 286.959 327.203 290.842 324.579C293.044 322.996 295.501 321.802 298.107 321.049L300.203 319.897C295.543 316.397 291.427 323.511 286.869 324.585C280.737 326.022 275.428 325.277 273.689 331.085C276.086 329.243 278.658 326.326 283.17 331.592C284.059 332.63 284.495 333.674 285.783 334.079ZM234.125 337.401L236.617 339.786C231.385 345.762 242.795 342.267 242.138 348.064C235.788 352.525 230.042 341.993 227.759 337.288C226.115 333.894 225.131 331.133 225.037 326.785C224.952 322.903 224.214 316.993 224.632 313.469C225.521 315.562 225.771 318.311 226.683 320.625C227.582 322.909 228.517 325.408 229.321 327.746C230.275 330.513 230.788 332.338 232.107 334.729C232.629 335.724 233.311 336.627 234.125 337.401ZM302.387 319.337C299.902 317.822 298.304 315.246 292.548 319.068C288.68 321.639 288.703 322.784 282.55 323.488C277.974 324.012 274.588 325.378 272.862 328.235C270.907 331.473 271.338 336.941 273.104 340.227C276.431 346.43 283.831 346.943 287.783 354.433C290.233 359.085 296.066 368.758 295.032 375.771C288.551 376.009 293.066 368.943 288.803 360.295C287.772 358.202 285.671 355.793 283.029 354.862C280.776 354.1 278.325 354.161 276.112 355.035C274.656 355.661 275.252 356.204 274.741 355.524C274.449 355.286 274.741 354.582 275.064 354.01C275.749 352.805 275.324 353.246 276.837 352.811C278.877 352.226 279.395 352.501 280.43 352.167C284.22 350.956 276.158 345.386 274.597 343.8C248.88 317.637 272.273 302.973 289.743 305.811C294.702 306.616 301.025 309.61 303.783 314.143C305.392 316.785 304.926 318.108 302.385 319.337H302.387ZM219.837 334.765C218.702 335.415 219.241 334.807 218.455 335.809C218.913 338.051 220.536 339.16 220.902 341.999C221.067 343.281 221.502 349.072 221.368 349.662C219.668 350.181 213.58 350.724 211.685 350.121C210.296 349.68 207.885 345.821 207.115 344.247C203.862 337.592 207.329 334.717 201.817 328.235C198.505 324.34 194.682 321.502 191.441 317.673C184.821 309.843 181.288 307.505 175.731 301.607C172.441 298.118 169.049 295.131 166.15 290.246C156.942 274.729 162.086 261.18 163.995 244.642C169.54 245.233 175.706 245.805 181.283 246.497C185.748 247.058 185.179 248.519 183.717 252.186C177.282 268.324 180.619 276.351 187.041 290.246C189.09 294.677 191.147 298.989 193.41 303.032C197.123 309.67 204.457 320.13 209.022 326.064C210.638 328.157 211.87 329.338 213.376 331.461C215.118 333.912 215.982 334.574 219.835 334.765H219.837ZM186.466 247.398C190.217 241.416 192.941 223.173 191.73 214.663C188.603 192.693 166.047 202.909 161.263 217.347C159.318 223.221 159.672 228.451 160.233 234.624C160.632 239.001 159.974 241.297 162.426 242.269C166.105 243.724 175.326 244.159 179.636 244.535C184.19 244.923 184.611 244.976 186.467 247.398H186.466ZM202.198 199.814C198.195 200.088 193.059 195.389 190.861 193.48L186.077 189.252C184.853 188.215 182.391 186.115 181.745 184.648C183.751 183.038 185.717 180.676 187.783 178.625C193.542 183.181 192.229 182.68 199.381 186.747C204.502 189.658 205.953 190.177 202.198 199.814ZM224.617 139.802C223.401 139.033 221.279 138.603 219.876 137.977C217.438 136.828 214.739 136.348 212.055 136.585C209.371 136.822 206.798 137.767 204.598 139.325C191.982 148.252 205.773 163.382 197.825 160.484C193.648 158.963 193.224 156.19 190.376 154.919C187.068 153.434 182.965 155.295 183.523 160.007C183.696 161.468 183.971 161.438 184.611 162.142C192.171 170.503 197.11 184.97 215.166 186.509C219.755 186.897 221.423 184.899 222.36 180.986C223.292 177.098 223.168 173.997 224.828 170.467C226.05 167.867 228.955 164.831 228.365 161.629C227.758 158.331 225.943 156.166 225.41 151.663C224.941 147.692 225.33 143.648 224.619 139.802H224.617ZM223.919 137.565C221.16 137.011 212.961 131.244 203.321 138.031C196.902 142.551 196.724 149.189 198.364 158.713C195.246 157.746 194.239 154.842 190.952 153.238C190.182 152.855 189.342 152.632 188.484 152.582C187.625 152.533 186.766 152.658 185.957 152.95C185.148 153.242 184.406 153.695 183.777 154.281C183.147 154.868 182.643 155.576 182.294 156.363C180.253 161.152 183.627 162.696 183.875 166.179C184.134 169.805 183.024 174.17 181.092 176.09C179.96 171.009 175.555 163.304 174.436 154.645C173.231 145.324 176.64 138.144 181.484 133.838C186.615 129.282 195.378 127.505 203.958 128.626C210.815 129.52 222.943 131.363 223.921 137.565H223.919ZM221.663 119.203C221.878 120.259 221.663 119.579 222.09 120.253C222.136 120.324 222.706 120.987 222.733 121.016C223.529 121.827 224.053 121.464 223.666 122.925C222.638 121.499 215.194 116.4 212.999 115.225C204.018 110.413 191.766 111.021 182.641 115.112C168.958 121.255 160.458 135.49 165.163 150.566C166.974 156.369 174.061 171.194 178.446 174.248C177.845 171.266 175.67 166.376 174.586 163.155C166.707 139.724 180.948 122.638 207.043 127.332C216.227 128.984 223.037 129.89 226.003 137.547C227.994 136.874 229.153 135.401 229.601 132.765C229.87 132.522 230.046 132.193 230.098 131.834C230.549 130.51 230.265 129.801 229.899 128.536C230.576 128.99 231.042 129.079 231.244 130.105C231.466 131.226 231.168 131.333 231.241 132.461C231.292 134.028 230.812 135.566 229.878 136.826C228.869 138.209 227.877 138.508 226.429 139.438C226.506 142.897 226.83 149.827 227.458 153.148C228.162 156.876 231.244 161.265 230.012 164.801C228.751 168.421 226.309 169.924 225.261 174.856C223.074 185.161 223.757 190.576 209.853 187.463C200.882 185.453 196.161 179.841 190.678 173.419C189.001 171.457 187.52 168.38 185.704 166.853C185.653 170.729 184.485 174.509 182.34 177.736C181.419 179.132 181.863 179.842 181.815 181.953C183.597 181.183 185.72 177.218 187.781 176.317C188.833 176.836 188.286 176.609 188.995 177.271C193.941 181.875 202.17 185.722 204.384 187.863C206.865 190.26 205.766 192.252 205.725 195.597C207.692 196.766 212.353 203.923 213.875 206.922C221.896 222.744 221.547 241.178 220.631 258.818C219.618 278.295 218.507 295.321 221.505 314.655C222.033 317.583 222.325 320.549 222.38 323.523C222.384 325.915 222.24 330.083 219.858 331.276C218.771 330.841 219.262 331.443 218.512 329.916L216.597 324.233C215.988 321.135 215.593 317.999 215.415 314.846C213.694 292.936 210.069 299.216 203.657 301.47C201.155 302.353 198.392 302.484 195.879 303.42C196.577 305.418 199.82 309.986 201.127 311.936C203.094 314.87 205.001 317.602 207.014 320.5C208.188 322.188 215.536 331.801 216.68 332.469C218.498 333.536 220.431 332.32 222.725 333.638C222.998 335.725 222.258 335.475 220.811 336.53C221.276 338.272 222.148 339.655 222.788 341.867C224.934 341.7 226.735 342.321 228.641 342.81C226.853 337.812 223.642 335.2 223.319 328.223C223.166 324.913 222.085 311.865 223.101 309.742C226.552 309.586 226.895 315.359 227.83 318.413C228.807 321.609 230.209 325.02 231.362 328.253C232.902 332.564 233.231 334.216 236.085 336.882C237.986 338.659 238.304 338.48 241.024 338.856C243.809 339.244 243.417 340.281 244.725 341.814C249.569 341.85 253.94 341.832 255.457 345.607C260.157 345.106 260.76 347.795 262.269 351.105C263.655 354.147 264.891 356.83 266.03 360.08C267.198 358.643 267.861 356.586 269.283 355.029C270.646 353.538 272.717 352.811 274.076 351.582L274.303 345.822C269.543 342.524 263.743 333.787 262.035 327.847C257.241 311.173 275.667 301.512 289.137 303.921C290.346 304.142 290.806 304.338 291.607 304.464C292.638 304.619 293.651 304.877 294.631 305.233C299.248 306.813 306.137 311.244 306.437 316.29C306.579 318.663 305.134 319.826 303.207 321.013C303.638 322.271 304.628 325.193 305.026 326.07C305.727 327.603 307.793 330.03 308.001 330.912C308.716 333.96 306.064 333.262 306.242 336.327C306.324 337.729 305.966 337.788 305.874 339.238C305.745 341.259 305.722 340.46 304.886 341.921C302.779 345.619 304.641 350.014 298.047 350.551C291.453 351.087 289.912 348.857 285.002 347.658C285.153 347.906 285.336 348.135 285.544 348.338C285.66 348.469 285.953 348.779 286.089 348.922C286.538 349.411 286.674 349.561 287.102 350.074C289.169 352.56 290.511 355.924 292.159 358.739C294.763 363.187 295.933 366.605 296.628 372.717C300.851 373.027 305.328 373.367 309.598 373.463C314.03 373.558 324.417 371.465 327.38 375.467C328.654 377.19 327.957 379.188 328.247 381.383C328.859 386.022 337.774 392.88 340.94 396.572C345.111 401.432 350.065 407.64 350.695 414.636C351.053 418.572 349.671 423.677 347.601 425.382C351.778 429.921 353.836 432.962 354.321 441.764C354.734 449.261 354.381 457.371 354.273 464.915C354.206 469.734 353.268 483.814 355.325 487.016C356.369 488.645 359.312 491.614 361.224 492.67C362.818 493.547 367.898 495.914 367.349 498.186C366.496 499.713 365.823 500.005 363.983 500.375C363.877 508.032 350.527 503.005 346.002 502.188C337.467 500.649 338.097 498.926 338.58 491.37C338.781 488.227 339.339 489.181 341.173 488.06C341.036 486.552 340.756 485.061 340.338 483.605C338.998 480.015 335.283 462.81 334.548 458.677C333.875 454.884 333.798 451.276 333.199 447.603C332.878 451.241 333.28 454.437 333.291 458.045C333.309 464.468 332.676 472.215 333.648 478.321C334.397 483.039 334.065 484.041 332.859 488.06C334.681 490.493 335.078 493.332 334.922 497.113C334.798 500.131 334.657 504.454 331.947 505.158C328.534 503.327 329.486 494.513 328.617 490.404C326.153 493.976 329.179 499.212 327.485 503.106C326.405 505.587 324.386 507.615 322.586 509.41C321.454 510.549 321.684 510.674 320.879 511.569C322.226 512.797 323.539 513.191 322.72 516.047C322.099 518.218 321.206 519.56 318.565 519.131C317.432 517.676 317.469 516.453 317.671 514.085L315.696 515.052C315.363 518.069 319.18 522.387 321.856 523.168C324.597 521.623 326.533 518.075 328.183 514.664C329.396 512.153 332.089 505.259 335.568 509.38C339.36 513.877 335.23 529.597 328.343 529.388C326.35 529.329 324.466 527.873 323.385 527.032C320.202 524.569 321.645 526.132 317.55 525.989C313.623 525.852 308.701 524.2 307.752 521.021C305.717 514.211 319.476 506.184 318.676 502.528C317.769 498.377 307.945 501.58 304.042 508.158C300.768 513.674 302.934 522.762 306.485 526.627C310.785 531.302 316.859 532.328 325.098 532.268C331.628 532.221 340.541 531.183 345.612 528.649C344.889 527.17 343.837 527.003 343.606 525.327C345.253 523.27 348.152 523.311 350.33 524.504C351.012 526.752 349.734 527.384 349.092 529.036C351.579 529.99 352.671 530.897 356.112 531.41C359.175 531.863 362.797 531.404 365.387 531.869C367.708 532.149 367.776 531.171 368.792 533.396C361.376 533.235 356.127 534.594 349.54 531.153C346.294 529.46 348.396 529.835 341.817 531.964C338.724 532.894 335.533 533.456 332.31 533.64C317.815 534.785 304.847 533.861 301.427 520.842C296.564 502.337 315.915 495.234 319.846 500.918C322.032 504.072 318.196 507.054 317.376 508.158C315.291 510.966 306.376 518.558 310.437 521.945C312.214 523.424 316.354 524.271 319.388 524.152C318.727 523.174 308.57 515.499 317.15 512.272C319.779 511.283 318.919 510.752 320.622 508.873C332.084 496.26 322.462 499.946 327.376 488.364C322.773 487.565 321.182 487.756 316.455 488.078C312.33 488.364 308.195 487.947 304.052 487.845C302.986 496.529 296.318 507.239 290.103 512.976C289.073 513.924 288.31 515.016 287.26 515.91C279.692 522.357 270.613 528.446 258.116 531.505C245.638 534.559 230.809 534.517 218.905 530.223C198.318 522.792 181.562 501.955 179.357 480.283C178.351 470.194 179.491 460.005 182.7 450.388C183.315 448.489 184.076 446.641 184.975 444.86C188.142 434.984 198.596 424.941 206.422 418.888C213.99 413.038 226.339 407.259 238.643 406.388C236.924 404.45 233.382 401.891 233.686 397.973L235.621 399.816C236.385 400.538 236.833 402.058 237.83 403.12C238.734 403.993 239.776 404.71 240.914 405.243C240.993 405.309 241.093 405.398 241.147 405.44L241.8 406.012C243.259 407.241 244.508 407.766 246.489 407.08C247.541 406.71 246.965 406.889 247.337 406.645C264.785 409.877 277.153 415.226 287.85 426.706C288.625 427.541 289.929 429.271 291.003 429.628C292.874 429.894 294.761 430.025 296.65 430.022C298.824 429.825 298.302 428.65 300.673 427.744C305.404 425.925 312.894 427.374 316.98 426.343C324.798 424.363 315.918 413.515 314.254 411.064C308.063 401.921 312.089 403.192 298.441 403.788C290.463 404.134 282.559 403.722 274.638 403.371C269.013 403.126 256.792 403.836 252.486 402.029L252.822 400.925L254.003 401.056L260.244 401.313C259.778 395.224 260.591 393.101 261.119 387.465L259.065 387.686L259.499 385.831L261.061 385.354C260.313 384.233 260.536 384.692 259.3 384.334L258.865 382.832L260.212 382.933C262.953 382.85 262.399 384.185 263.105 385.921C269.831 386.201 276.906 386.255 283.631 386.386C289.585 386.499 298.719 387.895 300.149 382.671L261.302 382.45C261.19 382.392 261.074 382.34 260.956 382.295C257.9 381.269 257.955 382.85 256.87 380.518L260.024 380.655L300.551 380.673C299.986 374.888 290.707 379.212 286.977 376.958C283.265 374.715 288.173 358.19 279.074 359.138C276.809 359.377 275.364 361.249 274.376 363.026C271.149 368.823 272.036 373.385 271.07 377.065C268.515 377.572 266.918 376.987 264.48 376.844C262.624 376.737 259.719 376.898 257.699 376.928C246.582 377.083 247.323 379.188 245.771 379.57C244.642 379.808 243.917 379.468 242.851 379.242C244.44 375.252 242.97 374.888 243.073 371.543C243.701 371.018 243.642 371.024 244.631 371.608L245.204 377.584C246.415 377.172 246.938 376.564 248.532 376.164C253.351 374.954 257.819 375.258 262.687 375.139C263.889 365.054 266.024 365.126 264.048 359.818C262.618 355.971 260.191 349.799 258.071 347.462C255.057 346.877 251.513 349.579 248.978 350.926C244.862 353.127 243.336 352.549 238.693 352.417C239.944 355.614 244.069 365.561 243.862 369.121L242.308 369.08C240.46 363.742 239.323 355.512 236.011 351.863C231.916 351.803 231.014 352.757 231.433 357.122C231.806 359.918 232.43 362.674 233.295 365.358C234.427 369.199 237.467 378.18 237.445 381.329C236.918 382.814 237.318 382.832 236.082 382.659C234.663 374.453 231.591 367.326 230.117 360.229C229.178 355.703 229.573 355.667 230.344 351.719C228.543 349.698 227.042 348.338 223.335 347.611C223.522 352.334 220.797 351.731 216.617 352.041C211.051 352.453 210.475 352.173 208.192 349.322C202.078 341.689 204.696 335.951 202.65 332.475C199.755 327.561 191.997 321.603 189.287 318.025C184.086 311.167 175.096 304.339 169.808 298.148C160.8 287.599 158.234 278.784 159.396 263.911C159.932 257.077 161.536 250.791 162.196 244.315C157.794 240.969 159.495 243.927 158.53 234.916C157.206 222.559 158.022 213.995 167.224 205.616C177.313 196.432 194.403 197.088 193.945 220.812C193.709 228.454 192.38 236.023 189.999 243.289C189.484 244.923 188.844 246.485 188.211 248C187.258 250.29 187.111 249.425 186.262 250.737C185.208 252.359 183.104 259.534 182.642 262.301C181.073 271.711 182.812 276.297 186.146 283.907C188.845 290.061 192.002 296.061 194.7 301.762C208.38 299.639 211.97 292.358 215.241 302.126C217.267 308.179 216.928 324.305 219.853 328.139C221.805 325.068 219.818 315.586 219.24 311.859C213.519 274.991 226.293 235.417 212.833 208.676C211.41 205.849 207.21 198.854 205.076 197.554C202.909 201.633 203.036 205.235 191.893 196.778C190.642 195.83 190.118 195.168 188.973 194.297L180.137 186.151L170 195.741C166.61 199.164 168.875 196.403 165.389 200.875C156.405 212.403 156.664 226.465 156.733 242.507C156.789 255.395 158.486 268.455 158.167 281.199C158.014 287.354 157.412 293.997 157.37 299.872L156.73 328.956C156.955 330.769 157.624 330.954 159.238 331.515C171.941 335.916 196.167 332.63 200.636 335.194C207.805 339.309 202.82 362.502 202.043 369.253C201.737 371.912 200.037 386.38 200.322 387.883C200.536 389.01 205.998 395.117 208.445 399.703C209.969 402.553 214.918 412.495 209.398 413.908C207.351 412.441 204.232 406.46 202.854 403.49C200.69 398.838 200.09 395.325 198.812 390.149C196.763 393.697 196.623 401.474 195.951 406.227C194.703 415.059 190.999 428.519 187.016 436.302C184.884 440.47 182.495 444.8 180.973 449.815C176.581 464.295 173.405 485.818 175.626 501.747C176.993 511.563 175.772 511.903 170.452 513.31C170.353 513.34 170.255 513.364 170.162 513.394C170.069 513.423 169.963 513.465 169.882 513.495C169.801 513.525 169.676 513.584 169.612 513.608C169.519 513.641 169.43 513.683 169.345 513.734C171.392 518.415 181.687 520.753 183.486 524.921C187.081 533.253 170.162 530.766 165.652 530.122C158.708 529.138 148.318 528.988 146.071 524.092C144.711 521.134 145.183 515.958 147.084 514.139C149.982 511.372 154.762 514.604 157.901 512.654C155.739 510.346 150.739 512.958 146.988 510.519C143.254 508.092 143.971 505.474 144.229 500.357C144.443 496.129 144.484 491.925 144.695 487.672C145.946 462.44 148.87 458.373 155.285 433.362C163.953 399.572 157.984 365.293 159.902 333.513C155.697 332.558 154.864 331.562 154.843 326.768C154.826 322.987 155.128 318.991 155.293 315.198C155.673 306.467 156.539 277.436 156.127 270C155.186 253.057 154.129 241.607 155.559 224.283C156.711 210.31 159.835 202.366 170.476 192.598C171.668 191.506 172.156 190.767 173.403 189.753C179.509 184.768 180.792 184.147 179.848 178.047C175.214 175.721 167.446 161.998 164.66 154.663C160.556 143.869 161.938 132.467 168.061 124.362C170.744 120.656 174.208 117.585 178.209 115.369C186.91 110.329 200.243 108.171 209.888 111.832C212.867 112.959 220.875 117.51 221.661 119.203H221.663ZM245.773 379.57C244.644 379.808 243.918 379.468 242.853 379.242C241.462 380.691 239.915 381.981 238.239 383.088L237.447 381.329C236.92 382.814 237.319 382.832 236.084 382.659C236.746 387.191 235.3 385.808 234.314 390.125C233.842 392.189 233.212 394.002 233.28 396.214C233.283 396.547 233.317 396.878 233.382 397.204C233.547 398.045 233.365 397.508 233.687 397.973L235.622 399.816C234.472 394.175 235.309 393.65 236.862 388.658C237.83 385.545 240.929 382.873 243.349 381.77L244.057 385.354C241.147 387.376 239.766 387.966 238.551 391.735C239.156 391.932 239.579 392.111 240.16 392.32C240.948 390.274 242.261 388.283 243.97 387.442C245.129 386.869 246.251 387.203 247.29 387.859C249.061 388.98 247.554 388.95 248.839 390.34L249.376 387.066C249.873 387.15 250.382 387.142 250.876 387.042L251.595 386.833C251.662 386.837 251.728 386.825 251.789 386.798C251.85 386.771 251.903 386.73 251.945 386.678C252.037 386.582 252.161 386.522 252.293 386.511C249.91 386.595 247.667 386.678 246.33 385.193C244.829 383.53 244.9 381.496 245.773 379.57ZM256.612 387.799L257.296 386.493L255.965 386.219L252.293 386.511C252.161 386.522 252.037 386.582 251.945 386.678C251.903 386.73 251.85 386.771 251.789 386.798C251.728 386.825 251.662 386.837 251.595 386.833L250.876 387.042C250.382 387.142 249.873 387.15 249.376 387.066L248.839 390.34L250.43 399.464C251.057 399.953 251.22 399.548 250.956 400.311C251.585 399.482 251.753 399.649 251.801 398.433C251.896 394.962 250.258 391.36 250.073 388.42L256.609 387.799H256.612ZM254.005 401.056C253.166 400.037 253.409 400.836 252.408 399.351L251.803 398.433C251.756 399.649 251.587 399.482 250.958 400.311C251.222 399.548 251.06 399.953 250.433 399.464C250.671 402.178 248.621 401.701 247.39 403.621C247.44 404.331 246.084 405.106 245.087 405.44L243.938 404.438C243.755 405.416 244.469 405.064 242.954 405.392C242.271 405.468 241.58 405.417 240.916 405.243C240.995 405.309 241.095 405.398 241.149 405.44L241.802 406.012C243.261 407.241 244.51 407.766 246.49 407.08C247.543 406.71 246.967 406.889 247.339 406.645L245.52 406.567C246.342 405.899 247.851 405.201 248.998 404.486C249.609 404.146 250.19 403.758 250.737 403.323C251.929 402.285 251.047 402.488 252.488 402.029L252.824 400.925L254.005 401.056ZM231.241 132.461C231.646 131.942 231.588 132.449 231.733 131.125C232.219 126.712 228.601 123.819 225.33 121.648C223.312 120.306 223.389 119.967 221.662 119.203C221.878 120.259 221.663 119.579 222.09 120.253C222.136 120.324 222.705 120.987 222.733 121.016C223.528 121.827 224.052 121.464 223.665 122.925C224.44 123.718 223.866 123.151 224.783 123.67C228.941 126.014 230.036 127.117 229.601 132.765C229.87 132.522 230.046 132.193 230.098 131.834C230.549 130.51 230.266 129.801 229.9 128.536C230.577 128.99 231.042 129.079 231.244 130.105C231.466 131.226 231.168 131.333 231.241 132.461ZM239.76 395.2L238.279 394.127L238.298 392.91L237.84 394.371C237.586 397.413 238.859 401.641 241.481 402.989C241.165 402.011 240.94 401.766 241.844 401.391C240.742 399.166 239.699 398.892 239.758 395.2H239.76ZM261.303 382.45C261.191 382.392 261.075 382.34 260.957 382.295C257.901 381.269 257.956 382.85 256.872 380.518L260.026 380.655C258.943 380.223 257.766 380.082 256.612 380.243C255.668 380.309 254.483 380.387 253.935 380.852C254.915 381.06 254.803 381.198 255.564 382.086C255.994 382.6 256.458 383.084 256.953 383.535L256.104 383.714C256.653 384.305 258.19 384.209 259.301 384.334L258.867 382.832L260.213 382.933C260.515 382.42 259.585 382.635 261.303 382.45ZM374.081 533.038L374.47 531.165L365.909 531.636C365.825 531.66 365.706 531.726 365.641 531.75C365.553 531.784 365.468 531.823 365.385 531.869C367.706 532.149 367.774 531.171 368.79 533.396L374.081 533.038ZM231.023 504.108C229.443 502.731 225.724 503.035 223.824 502.951C223.93 502.999 224.015 503.084 224.062 503.19L224.721 503.822C224.972 504.083 225.275 504.286 225.611 504.418L224.395 504.532C224.968 505.826 229.148 504.037 229.409 505.748L230.571 504.568C230.586 504.55 230.991 504.144 231.024 504.108H231.023ZM247.39 403.621C244.329 402.732 243.992 402.977 241.847 401.391C240.943 401.766 241.168 402.011 241.484 402.989C241.736 403.42 242.094 403.779 242.524 404.032C242.954 404.286 243.442 404.426 243.94 404.438L245.089 405.44C246.086 405.106 247.442 404.331 247.392 403.621H247.39ZM256.104 383.714L256.953 383.535C256.458 383.084 255.994 382.6 255.564 382.086C254.803 381.198 254.915 381.06 253.935 380.852C252.558 380.876 251.595 380.989 251.244 382.462C252.142 383.541 254.353 383.834 256.104 383.714ZM236.429 513.036C234.728 513.215 235.714 513.245 235.467 512.654L236.135 509.583C235.855 509.729 235.598 509.916 235.373 510.137C234.982 510.471 234.969 510.543 234.629 510.841L234.431 510.251C233.954 510.787 234.297 510.012 233.932 511.193C233.823 511.545 233.666 512.362 233.581 512.726C233.261 514.079 232.944 514.27 234.003 514.962C234.807 513.596 234.646 514.026 235.498 513.573L236.429 513.036ZM259.06 387.686L259.495 385.831C258.965 385.826 257.755 385.736 257.277 385.766C255.979 385.849 256.519 385.724 255.959 386.219L257.289 386.493L256.606 387.799L259.06 387.686ZM240.153 392.32C239.573 392.111 239.15 391.932 238.544 391.735L238.291 392.91L238.272 394.127L239.752 395.2L240.152 392.32H240.153ZM374.075 533.038L374.464 531.165L377 531.457L376.872 532.865L374.075 533.038ZM244.627 371.608C244.62 371.572 244.389 370.165 244.379 370.123C244.051 368.919 244.218 369.575 243.858 369.121L242.303 369.08C242.363 369.577 242.449 370.071 242.563 370.559C242.882 371.716 242.698 371.083 243.069 371.543C243.699 371.018 243.64 371.024 244.629 371.608H244.627Z" fill="#254E92"/>
<path fill-rule="evenodd" clip-rule="evenodd" d="M229.572 1142.5C230.98 1138.88 232.28 1143.45 238.16 1146.44C240.001 1147.37 238.515 1146.58 239.977 1147.57C241.927 1148.89 242.709 1148.51 244.472 1149.35C244.334 1150.64 244.346 1150.48 243.13 1150.95C239.827 1152.23 235.47 1148.38 232.533 1145.88C230.415 1144.08 230.674 1144.36 229.572 1142.5ZM252.151 1139.35C250.147 1139.14 248.173 1139.14 246.187 1138.8C244.556 1138.52 238.376 1136.66 236.758 1135.75C234.224 1134.34 233.761 1135.56 235.831 1137.14C239.333 1139.82 240.344 1139.83 243.786 1141.53C247.343 1143.29 251.922 1142.86 252.151 1139.35ZM251.886 1135.16H249.846C250.165 1133.89 250.729 1132.69 251.507 1131.64L251.988 1130.91C252.031 1130.8 252.09 1130.71 252.163 1130.62C249.756 1130.43 250.249 1131.04 247.968 1131.16C246.512 1131.24 245.261 1131.33 243.822 1131.31C243.84 1132.94 244.743 1132.73 246.199 1133.55C247.174 1134.1 248.348 1134.76 249.166 1135.18C248.336 1136 249.118 1135.6 247.914 1135.91C247.896 1135.92 246.976 1135.93 246.964 1135.93C245.507 1135.74 246.133 1135.65 245.513 1135.31C244.25 1134.61 244.689 1135.12 243.034 1134.05C243.028 1134.05 238.406 1132.03 237.034 1132.79C239.297 1134.58 242.667 1135.17 244.899 1136.28C246.133 1136.9 246.374 1136.52 247.493 1136.89C249.034 1137.41 247.463 1137.38 249.286 1137.72C251.693 1138.16 252.512 1137.15 253.998 1137.75C254.937 1141.34 252.307 1145.81 246.097 1144.85C240.741 1144.03 236.715 1140.35 234.645 1139.89C235.115 1141.2 237.167 1142.95 238.202 1143.84C239.472 1144.92 241.253 1146.47 243.148 1146.88C244.761 1147.71 245.592 1147.83 247.674 1148.28C247.373 1149.33 246.831 1150.3 246.09 1151.1C245.349 1151.9 244.43 1152.52 243.407 1152.9C237.853 1155.24 230.457 1148.2 227.051 1144.47C225.932 1144.58 223.856 1145.7 222.839 1146.13L217.266 1149.06C214.787 1150.14 212.193 1150.51 211.766 1151.74C213.078 1152.67 212.939 1152.16 214.293 1153.46L218.343 1157.58C219.643 1159.22 219.92 1157.64 219.77 1160.4C217.122 1160.24 217.796 1160.25 216.526 1158.55C215.539 1157.24 210.201 1152.09 209.582 1152.15C207.439 1153.24 207.71 1156.14 208.396 1158.07C208.725 1158.92 209.199 1159.71 209.798 1160.4L214.227 1163.81C215.214 1164.29 216.141 1164.54 217.14 1165.02C219.377 1165.9 221.793 1166.24 224.187 1166C225.565 1165.81 223.952 1165.46 227.334 1165.43C228.886 1165.42 229.109 1165.12 230.487 1164.87L236.409 1163.29C237.35 1162.92 238.31 1162.59 239.285 1162.31C240.667 1161.88 241.974 1161.25 243.16 1160.42C243.316 1160.27 243.509 1160.16 243.72 1160.1L261.617 1150.19C262.224 1149.89 262.531 1149.59 262.88 1149.4L266.912 1147.82C268.778 1146.98 269.747 1145.6 269.999 1143.04C270.246 1140.52 269.963 1133.98 269.482 1132.51C269.239 1132 269.088 1131.46 269.036 1130.9C269.036 1130.42 268.929 1129.95 268.724 1129.52C268.47 1129 268.317 1128.45 268.272 1127.88C268.013 1126.55 268.362 1127.75 267.875 1126.61C267.43 1125.57 267.159 1124.88 266.732 1123.98C262.796 1124.19 257.813 1129.52 255.105 1132.27C254.287 1133.09 252.47 1134.29 251.886 1135.16ZM243.058 1128.64C244.081 1127.27 248.077 1126.34 249.852 1125.8L256.7 1122.71C258.247 1121.78 263.795 1117.08 264.902 1115.62C265.336 1115.05 265.522 1114.64 265.907 1114.19L267.117 1112.68C267.676 1113.83 266.792 1115.37 266.16 1116.47C265.851 1116.97 265.513 1117.45 265.149 1117.9C264.932 1118.17 264.788 1118.33 264.595 1118.54C262.285 1121.05 261.617 1122.13 258.493 1124.18C253.065 1127.73 253.017 1127 250.027 1128.01C248.811 1128.43 249.353 1128.33 247.866 1128.4C246.163 1128.48 244.719 1128.92 243.058 1128.64ZM362.666 1053.33C364.164 1052.49 365.964 1052.04 367.63 1051.28L371.801 1049.22C372.066 1049.08 372.306 1048.97 372.565 1048.82L373.251 1048.36C374.647 1047.34 377.758 1045.05 378.516 1043.74C379.377 1042.25 379.172 1041.72 380.966 1042.26C382.049 1044.97 376.079 1049.98 373.817 1051.6C372.184 1052.83 370.353 1053.78 368.401 1054.4C366.806 1054.89 362.576 1056.13 362.666 1053.33ZM361.264 1045.8C362.89 1045.6 364.478 1045.15 365.976 1044.49C368.118 1043.59 374.834 1037.69 375.237 1035.55C375.072 1035.34 374.865 1035.16 374.629 1035.03C371.939 1033.31 370.375 1036.8 369.701 1037.76C367.041 1041.56 367.775 1040.08 365.621 1041.8C364.152 1042.97 362.04 1044.13 361.264 1045.8ZM354.915 1042.72C355.655 1041.77 355.715 1041.35 356.72 1040.32L358.098 1038.95C358.141 1038.91 358.207 1038.85 358.249 1038.81C363.063 1033.91 363.779 1026.68 361.787 1019.49C361.137 1020.27 360.06 1027.69 359.488 1029.42C359.295 1029.93 359.07 1030.43 358.814 1030.91C357.797 1033.74 356.961 1037.44 354.301 1040.43C353.519 1041.31 353.068 1041.24 352.941 1042.62L354.915 1042.72ZM383.102 1076.7C383.866 1076.79 386.189 1075.93 387.176 1075.44C388.634 1074.7 389.954 1073.72 391.075 1072.53L392.947 1070.19C392.991 1070.14 393.029 1070.08 393.061 1070.02C393.573 1069.09 394.68 1065.17 394.331 1063.31L392.267 1056.44C391.926 1055.75 391.675 1055.02 391.521 1054.26L389.24 1047.48C388.801 1046.27 388.783 1046.93 388.325 1045.56L385.822 1038.94C385.569 1038.35 385.1 1037.67 384.787 1037.05C384.149 1035.78 383.601 1034.13 382.945 1032.67C382.271 1031.17 381.555 1030.34 380.851 1028.93C380.51 1028.21 380.112 1027.52 379.66 1026.86L375.141 1022.85C374.051 1022.27 369.743 1018.03 367.648 1017.91C366.144 1019.93 367.167 1022.54 367.438 1023.63L368.274 1029.7C368.497 1030.79 368.635 1030.4 368.798 1031.49C369.153 1033.83 368.834 1033.91 367.54 1035.23C364.706 1038.13 363.568 1036.14 361.186 1039.26C360.987 1039.52 360.885 1039.66 360.662 1039.95C359.771 1041.09 359.145 1041.21 358.821 1042.86C360.824 1042.25 367.053 1037.03 368.581 1035.18C368.822 1034.88 368.936 1034.65 369.189 1034.29C369.364 1033.96 369.606 1033.67 369.899 1033.44C370.862 1032.44 370.308 1033.12 371.03 1031.84C373.552 1031.82 373.781 1031.73 375.417 1033.04C376.17 1033.64 377.481 1034.83 377.788 1035.74C376.771 1037.33 377.235 1035.73 375.959 1038.23L369.797 1044.7C369.04 1045.35 368.217 1045.92 367.342 1046.4L364.826 1047.5C364.772 1047.52 364.694 1047.55 364.64 1047.58L363.099 1048.37C359.543 1049.76 359.759 1048.86 359.747 1050.48C362.642 1051.2 370.916 1046.52 372.788 1045.22C374.665 1043.92 376.346 1042.35 377.776 1040.58C379.967 1037.99 381.706 1040.73 383.066 1042.46C381.754 1045.9 380.244 1048.8 377.945 1050.85L372.499 1055.27C371.951 1055.62 371.091 1056.05 370.573 1056.35C369.586 1056.45 366.517 1057.63 365.223 1058.04C365.253 1058.19 366.643 1060.89 366.854 1061.25C367.197 1061.83 366.993 1061.36 367.42 1062.12L368.533 1064.55C370.212 1068.28 370.007 1068.12 371.205 1071.77C371.716 1073.34 371.361 1074.15 372.21 1075.71C373.702 1078.47 376.615 1079.09 379.395 1078.2C381.652 1077.46 381.525 1078.32 383.102 1076.7ZM307.7 999.093C307.744 999.103 307.785 999.123 307.821 999.151C307.856 999.179 307.885 999.214 307.905 999.255C307.927 999.294 307.958 999.328 307.994 999.355C308.03 999.382 308.071 999.401 308.115 999.411C309.036 999.964 308.844 999.94 309.873 999.826C310.607 997.17 309.313 996.857 309.451 993.793C310.547 994.099 313.567 995.998 314.037 996.341C315.926 997.729 315.938 998.372 317.004 1000.56C317.034 1000.62 317.076 1000.7 317.1 1000.76C317.213 1000.97 317.299 1001.18 317.359 1001.41C317.449 1001.66 317.659 1002.37 317.762 1002.77C317.996 1003.68 318.099 1004.49 318.309 1005.37C318.701 1007.01 318.556 1009.44 320.091 1010L319.549 1003.98C319.254 1002.87 318.532 998.786 318.658 997.597C320.566 997.729 322.528 998.143 323.719 999.712C325.031 1000.1 326.945 1002.31 327.763 1003.35C328.304 1004.11 328.804 1004.91 329.262 1005.73C329.489 1006.07 329.692 1006.43 329.869 1006.8C330.61 1008.23 329.496 1007.49 331.067 1008.08C331.284 1004.13 329.562 1004.12 329.538 1001.77C334.202 1001.77 338.216 1002.96 342.218 1004.67L349.553 1007.57C353.001 1008.9 355.469 1008.67 357.749 1012.03C360.842 1016.58 359.055 1021.99 357.936 1026.53C357.743 1027.3 357.737 1028.11 357.557 1028.79C357.111 1030.48 357.37 1028.34 356.636 1030.58C355.806 1033.12 354.686 1034.53 353.019 1037.03C352.201 1038.26 349.499 1041.35 347.796 1041.62C346.839 1041.11 347.134 1040.95 346.057 1040.36C345.263 1039.92 344.522 1039.4 344.143 1039.19C343.088 1038.83 342.06 1038.4 341.068 1037.89C340.608 1037.61 340.122 1037.36 339.618 1037.16C339.076 1037.02 338.549 1036.82 338.047 1036.56C336.952 1036 336.122 1035.94 335.189 1035.41C334.437 1034.99 333.047 1034.23 332.415 1033.95L322.052 1031.64C315.343 1029.38 307.153 1030.16 300.076 1027.82C298.77 1027.39 297.458 1027.48 296.176 1027.15C295.087 1026.86 293.992 1026.33 292.77 1026.12C291.338 1025.87 290.213 1026.12 289.37 1025.38C291.482 1024.69 297.055 1024.8 298.854 1024C299.112 1023.94 299.35 1023.82 299.54 1023.63L300.244 1022.92C298.871 1022.78 297.482 1022.87 296.14 1023.2C294.913 1023.39 284.039 1023 283.154 1022.02C281.21 1020.89 279.652 1017.36 278.532 1014.9C277.897 1013.53 277.341 1012.12 276.865 1010.69C276.575 1010.04 276.218 1009.42 275.8 1008.84C275.247 1007.87 275.463 1007.69 274.964 1006.74C274.807 1006.45 274.693 1006.33 274.44 1005.8C274.218 1005.34 274.176 1005.19 273.977 1004.78L268.988 995.031C268.489 993.619 268.976 994.124 268.134 992.976C267.628 992.377 267.164 991.745 266.744 991.083C266.118 989.972 266.515 990.044 265.853 989.034C264.264 986.607 262.519 984.317 261.292 981.728L260.696 980.544C259.161 977.846 256.658 974.553 254.907 971.783C254.829 971.657 254.353 970.882 254.347 970.87C254.14 970.592 253.902 970.338 253.637 970.113C253.415 969.872 253.156 969.524 252.963 969.266C252.06 968.04 250.941 967.103 250.67 965.576C250.021 961.977 247.716 963.888 247.445 962.5C247.319 961.851 247.818 962.17 248.655 961.881C249.9 961.448 249.774 961.136 249.858 961.076C252.59 959.117 253.95 959.399 256.309 956.479C257.007 955.614 256.983 955.866 257.266 954.851C255.779 954.893 254.504 956.612 252.073 957.801C251.988 957.837 251.754 957.957 251.675 958L246.59 959.904C245.507 960.301 247.048 960.012 245.597 960.301C244.111 960.601 242.24 960.373 240.97 960.613C236.589 961.443 226.329 958.799 226.365 961.07C226.389 962.602 230.162 962.308 231.606 962.446C233.815 962.65 235.999 962.704 238.214 962.914C239.044 963.99 238.31 963.473 238.695 964.585C240.212 964.753 241.391 964.807 242.757 965.078C243.846 965.288 245.218 965.06 246.873 965.222L245.658 969.758C245.11 971.825 245.784 969.746 245.026 971.044L243.383 976.945C242.998 978.699 242.131 982.34 241.421 983.494L233.556 996.899C232.003 999.159 229.193 1002.12 226.257 1002.35C224.764 1002.46 225.342 1001.87 224.626 1002.88C225.089 1003.68 224.415 1003.33 225.872 1003.58C226.533 1003.64 227.2 1003.63 227.857 1003.53C229.994 1003.12 235.223 998.66 236.348 996.491C237.1 995.031 240.067 990.831 241.379 989.611C241.331 992.85 240.651 993 240.001 995.487C238.539 1001.06 236.595 1006.25 233.478 1011.05C231.662 1013.97 229.673 1016.77 227.52 1019.45L224.096 1023.22C223.212 1024.44 221.467 1025.9 220.937 1027.24C221.677 1027.71 221.996 1027.43 222.676 1026.88L227.129 1022.89C228.471 1021.64 229.578 1019.85 231.017 1018.58C231.065 1018.54 231.131 1018.48 231.185 1018.44L232.425 1017.08C234.567 1013.42 238.22 1008.18 239.616 1004.17L241.325 999.958C241.355 999.898 241.421 999.796 241.445 999.748C241.469 999.7 241.524 999.603 241.572 999.537C241.554 1001.47 241.325 1003.11 241.162 1005.01C241 1006.98 240.513 1007.96 240.272 1009.74C240.067 1011.31 239.772 1012.98 239.592 1014.82L237.395 1025.03C236.896 1026.45 236.89 1028.19 236.523 1029.6C236.174 1030.91 234.326 1034.38 236.938 1035.32C238.057 1035.73 238.617 1035.23 239.345 1036.06C240.182 1036.97 238.665 1039.77 239.652 1044.18C239.851 1045.06 239.989 1045.29 240.152 1046.03C240.825 1049.15 242.107 1051.74 243.335 1054.74L245.573 1059.86C245.688 1060.1 245.826 1060.38 245.965 1060.66L254.564 1081.98C254.985 1083.29 255.677 1084.19 256.128 1085.31L258 1090.54C259.155 1093.89 263.374 1102.4 265.54 1105.61C265.576 1105.66 265.624 1105.73 265.661 1105.78C265.871 1106.1 265.931 1106.2 266.118 1106.49L266.9 1107.98C267.117 1109.56 266.371 1109.42 265.949 1110.48C265.342 1112 264.631 1112.85 263.446 1114.3C260.955 1117.34 258.524 1118.84 255.015 1120.8L244.924 1125.07C243.602 1125.44 242.26 1125.73 240.904 1125.95C238.346 1126.31 238.364 1126.12 238.491 1123.87C238.876 1117 241.301 1124.55 237.973 1114.82L231.913 1100.05C231.035 1098.84 230.601 1096.97 229.795 1095.42L227.382 1090.77C226.425 1089.3 226.16 1087.52 225.167 1086.21C223.663 1084.21 215.19 1068.49 214.661 1067.15L210.442 1059.3C207.806 1054.41 205.827 1049.67 204.804 1044.21C204.629 1043.26 204.304 1042.34 204.202 1041.68C203.991 1040.32 204.424 1039.68 203.859 1038.53C203.131 1037.05 203.492 1034.41 203.486 1032.38C203.48 1030.12 203.07 1028.63 203.221 1026.04C203.292 1023.81 203.232 1021.58 203.04 1019.36L202.824 1006.42C203.263 997.398 204.196 988.025 203.931 978.988C203.865 976.794 204.214 974.415 204.105 972.36C203.932 967.87 203.984 963.374 204.262 958.889C204.406 955.572 204.027 952.459 204.124 949.245C204.144 948.214 204.078 947.182 203.925 946.162C203.78 943.927 204.166 941.211 204.232 938.934C206.862 939.259 208.408 940.587 211.074 941.085C212.302 941.314 212.506 941.289 213.222 942.004C212.801 943.158 211.447 942.659 211.002 943.831C210.219 945.892 213.307 945.351 214.275 944.624C218.067 941.782 214.059 942.107 222.249 943.801C228.501 945.093 228.212 942.984 228.646 947.322C228.769 948.068 229.004 948.791 229.344 949.467C229.822 950.789 230.397 952.075 231.065 953.313L232.154 954.863C232.563 955.5 232.99 956.065 233.364 956.636C233.905 957.471 234.453 958.66 235.265 959.255C236.806 960.391 236.788 958.078 235.825 956.786L232.858 952.333C232.233 951.64 231.742 950.837 231.408 949.966C228.423 941.097 234.206 946.307 239.183 944.781C241.09 944.198 242.691 944.155 244.966 943.362C245.823 943.112 246.642 942.748 247.403 942.281C252.253 938.94 257.133 938.994 263.271 939.577C262.736 940.707 262.706 941.596 263.753 942.527L265.462 943.861C266.274 944.45 268.019 944.763 268.844 945.153C271.377 946.343 276.149 945.838 278.623 944.726C278.37 942.341 277.1 943.447 274.675 943.08L267.971 942.016C267.695 941.884 266.924 941.422 266.822 941.343C265.763 940.538 266.202 941.626 266.022 940.052C268.326 939.373 271.696 939.751 274.976 938.676C276.841 938.063 279.134 937.618 280.957 936.771C282.39 936.104 280.891 936.056 283.19 936.11C283.23 937.568 283.56 939.004 284.159 940.334L286.789 949.846C288.438 954.851 289.719 960.637 291.783 965.6C292.012 966.147 292.289 966.862 292.548 967.457L295.298 972.913C297.338 976.608 298.806 980.376 301.075 983.945L305.865 995.061C306.334 996.22 307.79 997.759 307.7 999.093ZM244.869 804.749C246.253 804.827 248.462 805.32 250.327 805.452C254.57 805.74 252.614 805.8 255.491 805.145C256.544 804.905 257.182 805.157 258.229 805.061C259.354 804.953 263.163 803.421 265.45 803.95C265.396 805.758 265.131 807.513 265.197 809.327C265.342 813.305 269 812.043 263.873 815.985C261.923 817.481 259.751 817.878 257.94 818.49C255.99 819.145 252.289 819.362 250.231 819.212C246.915 818.971 241.596 817.655 242.21 814.296C242.601 812.139 244.081 813.161 244.412 810.241C244.617 808.432 244.472 806.527 244.869 804.749ZM330.676 808.15C331.332 807.843 331.813 807.002 332.282 806.317L335.526 800.254C337.349 796.39 339.456 792.593 341.153 788.573L342.362 786.164C342.85 784.8 342.94 784.824 343.451 783.46C344.107 781.711 345.178 779.921 345.786 778.076C346.418 776.269 347.168 774.504 348.031 772.795L349.806 769.009C350.185 768.192 350.191 768.667 350.107 767.495C348.741 767.411 349.288 767.909 347.682 768.294C344.54 769.045 344.793 769.261 340.852 768.685C340.309 768.6 339.782 768.436 339.287 768.198C338.619 767.904 338.276 767.855 337.686 767.603C335.815 766.798 332.89 763.751 331.921 762.075C331.5 761.354 331.247 760.363 330.309 760.399C330.014 761.72 330.026 762.814 329.581 764.178L321.234 778.863C320.518 779.975 320.355 780.852 319.693 782C319.152 782.937 318.616 783.971 318.087 785.034C317.84 785.521 317.617 785.906 317.329 786.44C317.086 786.997 316.802 787.535 316.48 788.05C315.896 788.868 315.252 789.577 314.512 790.61C313.754 791.68 313.285 792.239 312.556 793.152L308.326 802.886C307.772 804.827 307.393 806.491 306.382 807.855C306.229 808.142 306.019 808.395 305.764 808.597C305.51 808.8 305.216 808.948 304.902 809.033L306.713 801.095C307.154 800.297 307.365 799.392 307.321 798.482C305.973 798.908 304.541 800.29 303.367 801.131L294.696 805.722C294.323 805.878 293.998 805.95 293.625 806.125L290.508 807.747C288.889 808.624 287.324 809.087 285.952 810.27C282.747 812.936 280.13 816.236 278.268 819.963C277.804 820.906 277.708 821.651 276.703 821.807C276.053 820.275 276.727 819.362 277.365 818.202C277.774 817.463 277.846 817.253 278.237 816.616C278.55 816.111 278.773 815.612 279.122 815.054C279.832 813.9 280.193 813.004 280.945 811.971C281.505 811.196 282.955 809.826 283.01 809.411C282.576 809.003 283.166 809.243 282.33 809.051C281.475 808.853 277.696 809.628 276.817 809.826C276.372 809.928 275.879 810.042 275.397 810.168C274.23 810.481 275.199 810.222 274.206 810.667C272.641 811.364 269.903 811.292 269 812.842C267.604 815.246 267.111 816.333 264.776 818.304C263.807 819.121 264.168 818.497 263.705 819.56C265.853 819.614 266.792 818.743 268.368 817.643C268.676 817.437 268.967 817.208 269.241 816.958C269.867 816.405 269.861 816.141 271.064 816.285C271.089 818.815 267.141 820.774 264.981 821.525L258.433 823.73C258.221 823.852 257.985 823.927 257.741 823.952C256.748 824.217 257.049 824.108 256.177 824.391C254.811 824.835 254.221 824.493 253.114 825.04C248.263 827.443 240.025 824.926 236.914 822.414C234.11 820.143 232.702 817.559 233.646 813.972C234.128 812.139 234.693 811.947 236.505 812.097C235.807 814.597 235.385 813.87 235.53 817.403C237.167 818.346 238.142 820.173 239.772 821.11C242.571 822.708 246.813 823.796 250.285 823.189L251.681 822.642C248.269 822.294 246.988 822.552 244.268 821.344C241.126 819.95 238.455 818.022 239.086 814.026C239.67 810.337 246.265 809.333 237.413 808.354C235.644 808.155 235.819 807.789 233.971 807.393C232.064 806.99 229.795 807.284 227.96 806.599C226.323 805.992 227.869 806.353 226.612 805.86C225.51 805.428 224.054 805.464 222.989 805.037C222.165 804.706 222.496 804.773 221.406 804.394C220.863 804.272 220.354 804.032 219.914 803.691L214.991 800.044L207.162 791.343C206.428 790.514 205.905 790.112 205.062 789.216C204.436 788.555 203.678 787.9 202.896 787.161L198.359 783.196C197.642 782.559 196.932 781.747 196.222 781.128L191.992 776.904C191.48 776.382 191.372 776.376 190.867 775.913C190.5 775.568 190.17 775.188 189.88 774.777C189.332 774.116 188.61 773.275 187.948 772.512C186.865 771.256 183.561 766.816 183.399 764.695C183.26 762.82 183.898 762.802 185.493 763.031C186.305 765.446 188.435 767.873 190.084 769.832C191.258 771.22 194.333 775.324 196.078 775.673C195.061 772.771 193.051 770.145 191.751 767.297L184.933 752.053C183.892 749.932 182.388 747.744 182.075 745.377C181.957 744.506 181.741 743.652 181.431 742.829C181.07 741.616 181.154 741.399 179.818 741.021C172.332 738.912 165.171 745.004 164.359 751.332C163.703 756.451 165.803 759.852 166.561 764.599C166.952 767.002 166.411 766.924 167.343 770.139L176.237 787.378C176.358 787.563 176.466 787.756 176.562 787.954L179.95 794.083C180.125 794.402 180.101 794.372 180.257 794.66L181.196 796.054C181.455 796.373 181.365 796.228 181.593 796.541C181.726 796.716 181.844 796.901 181.948 797.094L191.276 810.379C192.955 812.428 195.109 814.332 196.559 816.538C198.034 818.779 200.14 820.575 201.873 822.588L209.913 831.121C210.599 831.872 210.689 832.31 211.808 832.653C212.476 832.292 211.916 832.719 212.536 832.076L215.166 828.645C215.936 827.401 215.22 827.503 216.52 827.113C217.453 829.354 214.33 832.683 213.547 834.804C212.488 837.676 208.366 847.494 208.577 849.363C207.09 850.637 207.692 851.304 207.066 853.088C206.32 855.209 203.167 871.319 203.028 872.893L200.519 889.976C199.761 892.367 199.105 899.698 198.906 902.756C198.702 905.778 198.274 904.637 198.082 906.589L196.499 924.573C196.006 931.934 194.742 930.372 198.684 932.589L202.812 934.926C204.509 935.75 202.776 935.335 204.587 935.785C206.131 936.135 207.612 936.719 208.98 937.516C210.635 938.645 211.561 937.774 213.601 938.844C215.25 939.703 222.73 940.785 225.167 941.476C230.734 943.044 233.261 942.155 237.359 942.058C238.12 942.092 238.881 942.08 239.64 942.022L241.006 941.229C242.667 941.476 244.942 940.238 246.217 939.607C250.797 937.324 252.452 936.458 257.639 936.735C260.124 936.867 262.646 937.179 265.149 937.324C268.284 937.336 271.412 937.038 274.488 936.434C277.455 935.822 275.12 936.591 278.936 935.389C281.09 934.71 282.318 933.604 284.081 932.325C287.505 929.831 286.349 930.618 285.007 923.949C284.779 922.813 284.532 922.458 284.412 921.593C284.279 920.625 284.472 920.037 284.207 919.201C283.118 915.77 284.129 916.804 283.407 914.857C282.36 912.039 281.234 902.209 281.282 898.207C281.248 896.552 281.111 894.901 280.873 893.262C280.494 889.056 281.993 875.447 282.829 871.697C283.87 866.998 283.425 864.276 284.863 859.157C285.122 858.244 285.904 851.85 285.609 850.841C286.434 850.534 285.982 850.901 286.44 850.198C286.656 849.85 287.396 844.688 289.527 843.342L290.526 844.454C290.559 844.523 290.597 844.589 290.64 844.652C292.403 842.285 292.656 842.225 294.546 840.368L303.145 833.422C305.546 832.058 316.269 823.772 319.393 821.291L329.851 809.994C330.282 809.461 330.566 808.826 330.676 808.15ZM380.719 736.641C383.12 735.805 382.735 735.931 386.442 736.226C390.901 736.58 394.536 740.107 386.743 740.204C384.51 740.228 383.367 740.504 380.695 740.336C378.908 740.216 375.754 739.873 374.111 739.951C372.559 740.023 370.146 741.958 370.332 738.912L380.719 736.641ZM145.914 707.096C143.676 705.738 144.205 706.561 143.784 705.491C149.038 703.953 159.713 713.249 163.432 717.809L165.49 720.249C166.76 722.111 166.2 722.154 168.788 723.926C171.628 725.879 169.239 726.095 171.225 725.975C172.753 725.885 172.988 722.214 178.572 717.413C179.343 716.648 180.244 716.025 181.232 715.574C182.839 714.745 182.442 714.685 185.36 714.919C185.029 717.821 183.693 718.224 182.52 720.267C182.039 721.108 181.786 721.901 181.226 722.778C177.742 728.282 178.753 732.26 177.676 738.479C175.846 738.395 173.818 738.022 172.356 738.551C172.29 738.575 171.887 738.744 171.73 738.798C171.658 738.822 171.574 738.852 171.508 738.876C171.441 738.9 171.357 738.918 171.285 738.948C169.185 739.705 165.255 742.283 163.985 744.458C163.693 745.056 163.357 745.633 162.981 746.182C161.729 746.146 162.066 746.363 161.151 745.353C158.691 742.463 155.672 740.098 152.275 738.401C150.464 737.548 151.216 738.455 148.345 738.413C145.716 738.377 146.642 738.99 144.903 739.146C144.091 739.218 143.507 739.086 142.629 739.218C139.915 739.639 142.605 739.993 136.785 739.579C133.951 739.374 132.013 739.771 130.912 737.746C134.071 733.396 147.798 738.732 148.081 732.362C148.081 732.362 145.788 728.637 144.783 728.018C139.945 725.044 129.113 727.579 127.837 722.454C131.953 720.369 135.383 722.436 139.536 722.923C141.87 723.199 140.51 723.385 142.153 723.926C143.778 724.455 143.339 723.758 144.663 724.731C146.564 726.125 151.83 726.63 149.862 722.484C149.486 721.794 149.01 721.164 148.448 720.615C146.913 718.909 141.515 716.632 139.469 715.688C138.194 715.105 135.762 714.775 135.058 713.333C135.546 713.069 134.721 713.285 135.762 713.104C136.037 713.056 136.315 713.038 136.593 713.05C139.469 713.08 143.549 714.469 146.239 715.55L155.38 719.69C154.983 722.141 155.531 720.153 154.694 721.348L152.594 723.812C149.278 728.174 151.264 730.163 153.142 726.372C154.291 724.113 156.01 722.193 158.13 720.802C159.304 720.111 158.732 721.018 159.352 719.906C158.768 719.63 158.269 719.642 157.727 719.396C156.512 718.843 157.378 719.468 156.764 718.482C154.682 715.166 151.144 710.821 148.051 708.604C147.367 708.063 146.653 707.559 145.914 707.096ZM333.739 725.344C341.863 727.405 340.882 736.4 348.097 736.214C349.032 736.234 349.959 736.044 350.81 735.656C351.66 735.268 352.411 734.692 353.007 733.972C360.132 728.661 359.874 725.2 365.151 719.005C366.848 717.004 370.314 713.843 372.764 712.816C374.737 711.993 374.37 711.849 377.03 711.993C376.711 714.397 375.76 714.48 373.456 716.62C371.512 718.422 363.117 728.607 365.615 731.1C367.552 733.035 371.801 728.511 376.079 726.78C380.719 724.906 383.379 723.608 388.452 724.052C388.193 726.961 385.714 727.297 382.807 728.402C382.405 728.567 382.011 728.752 381.628 728.955C380.665 729.352 380.051 729.52 379.076 729.923C376.544 731.016 374.15 732.406 371.945 734.063C371.754 734.16 371.601 734.319 371.512 734.513C370.808 735.367 371.235 735.283 370.146 735.907C369.207 734.976 369.719 734.381 367.913 734.291C367.847 736.31 368.521 735.216 368.714 737.698C368.816 739.038 368.84 740.342 368.87 741.538C368.93 743.773 368.551 741.784 370.044 744.734C371.036 746.705 373.131 747.775 374.695 748.808C377.626 750.743 379.413 751.23 382.037 752.564L383.463 753.435C380.827 757.238 372.733 751.518 371.163 750.785C367.685 749.162 369.869 749.8 368.347 748.171L364.188 750.767C360.602 752.912 355.511 754.162 351.28 754.198C349.252 754.216 350.005 754.156 348.627 754.859C348.639 757.352 349.914 756.71 351.756 756.77C351.545 758.608 348.675 761.805 347.971 763.331C347.483 764.395 347.79 765.464 347.134 765.873C346.183 766.69 343.758 766.738 342.037 766.071C341.327 765.801 341.008 765.831 340.256 765.608C338.282 765.031 336.711 763.361 335.123 762.267C335.099 760.982 335.52 760.765 335.815 759.864C336.218 758.65 335.821 758.524 336.477 757.388L338.204 752.834C338.679 751.025 338.968 749.499 339.425 747.733C340.834 742.313 337.44 734.285 335.261 729.436C334.635 728.036 333.522 727.141 333.739 725.344ZM233.67 727.525C233.731 724.845 235.831 716.523 237.552 714.312C238.864 712.624 240.103 710.028 241.854 708.28C241.903 708.238 241.969 708.177 242.011 708.135L244.833 705.528L245.002 705.401C247.192 703.779 249.804 703.689 250.195 703.082C247.987 701.682 244.851 703.515 242.944 704.68C241.172 705.87 239.595 707.325 238.268 708.995C238.226 709.043 238.166 709.109 238.13 709.157L237.419 710.244L237.305 710.455L234.748 714.625C232.454 718.88 231.323 723.663 231.468 728.493L233.171 729.22C232.942 731.99 232.678 734.525 232.551 737.325C232.497 737.987 232.481 738.651 232.503 739.314C232.653 740.414 232.828 739.753 233.045 740.726C233.412 742.337 232.605 742.757 232.13 743.899C229.825 743.604 229.229 743.508 227.917 744.524C226.485 745.623 226.449 746.405 226.269 747.997C225.522 754.414 227.238 755.033 227.677 756.247C228.032 757.232 227.316 759.269 226.822 760.164C225.829 761.967 224.301 773.522 224.716 775.625C224.866 776.932 224.882 778.25 224.764 779.56C224.733 780.814 224.822 782.067 225.029 783.304L226.305 788.381C226.624 789.186 226.395 788.429 226.678 789.174L227.454 791.313C228.074 792.827 227.316 791.926 228.128 792.599C231.011 794.997 228.941 794.077 231.925 797.238C234.05 799.485 236.571 801.961 239.616 802.826C239.933 802.863 240.239 802.961 240.519 803.114L242.534 804.184L242.204 807.483C239.802 807.362 240.91 807.062 238.99 806.497C237.762 806.137 236.739 806.353 235.662 805.746C234.254 804.959 233.953 805.103 231.943 804.917C230.524 804.728 229.138 804.34 227.827 803.763C225.817 803.289 224.108 802.946 222.309 801.823C222.249 801.786 222.177 801.732 222.116 801.696C222.056 801.66 221.978 801.618 221.912 801.582L215.702 796.09C215.647 796.048 215.575 795.994 215.527 795.952C212.849 793.729 210.629 790.22 208.065 787.768C206.813 786.566 206.723 785.599 205.718 784.145C202.192 779.031 198.401 773.906 195.32 768.402L189.898 757.947C189.495 757.118 189.194 755.922 188.79 755.189L187.31 752.552C185.709 749.427 184.097 746.134 183.272 742.799C182.899 741.279 183.248 742.619 182.809 741.568C181.768 739.074 182.839 740.865 180.889 739.609C180.925 734.832 179.987 732.14 182.099 727.381C183.543 724.309 185.248 721.366 187.196 718.584C189.476 715.286 189.573 715.532 188.159 712.251C185.065 711.837 182.875 711.638 180.317 713.255C178.801 714.216 177.321 714.925 175.997 716.067C175.57 716.439 175.521 716.583 175.106 716.986C173.945 718.092 174.203 717.359 173.229 718.662L170.015 722.868C167.933 720.717 166.194 717.954 164.437 715.538C161.079 710.911 158.004 709.235 153.948 706.357C152.425 705.269 149.976 704.404 148.069 703.719C144.675 702.505 144.536 701.67 141.178 703.395L139.824 704.134L139.698 705.768C142.406 708.37 146.408 709.734 149.031 712.251C149.898 713.08 151.059 713.982 151.3 715.172C149.79 715.021 145.968 713.237 144.085 712.552C142.256 711.885 132.14 708.562 130.876 712.426C129.889 715.43 136.412 716.818 138.284 717.557C139.782 718.146 140.896 718.849 142.496 719.546C143.55 719.949 144.519 720.543 145.355 721.3C145.896 721.889 145.764 721.511 146.047 722.418C144.907 722.398 143.786 722.13 142.761 721.631C140.035 720.393 125.972 717.01 125.081 721.655C124.521 724.593 126.959 726.167 129.33 726.948C134.294 728.595 135.835 727.772 141.756 729.695L143.044 730.301C143.098 730.331 143.164 730.379 143.224 730.41L145.282 731.197C145.258 733.125 144.765 733.402 142.972 733.414C141.491 733.42 139.945 733.209 138.446 733.191C135.444 733.149 126.477 734.105 128.204 738.996C128.89 740.925 130.635 740.913 133.012 741.802C135.221 742.625 141.967 742.277 143.73 741.868L151.078 741.357C151.31 741.532 151.555 741.688 151.812 741.826L152.642 742.258C153.116 742.516 153.606 742.741 154.11 742.931C156.668 744.013 158.359 746.212 160.646 747.738C161.157 748.075 161.494 748.075 162.048 748.453C161.867 751.199 161.205 754.474 161.639 756.968C162.114 759.684 162.68 764.905 164.491 766.936C165.436 767.994 165.087 768.39 165.291 770.067C165.333 770.409 165.917 772.782 166.116 773.353L167.223 776.304C167.44 776.79 167.536 777.343 167.831 778.046C168.848 780.48 170.406 782.535 171.52 784.944C173.493 789.198 176.683 794.287 179.192 798.337L182.538 803.589L206.031 831.932C206.85 832.821 209.895 835.591 210.069 836.348C210.28 837.226 208.071 842.255 207.542 843.27C205.905 846.443 205.11 850.366 204.075 853.833C203.179 856.814 203.143 859.085 202.499 861.879C202.162 863.345 201.722 864.096 201.548 865.55C201.079 869.384 200.417 870.784 200.092 873.59C199.803 876.381 199.365 879.155 198.78 881.9L194.706 912.989C194.453 916.504 194.273 924.808 193.28 927.83C192.678 929.663 191.324 930.69 192.227 932.703C193.617 933.46 193.665 932.397 195.139 933.743C197.456 935.852 199.869 936.867 202.589 938.009L201.205 962.897C201.006 965.48 201.5 965.757 201.325 968.022L200.838 978.844C200.272 987.406 200.302 996.1 199.821 1004.69C199.201 1015.81 199.622 1026.46 200.411 1037.55C200.585 1040.06 201.398 1042.56 201.638 1044.9C201.963 1047.99 203.738 1052.76 204.966 1055.9L208.559 1063.74C208.938 1064.38 209.281 1065.07 209.612 1065.66L216.833 1078.82C220.143 1084.43 223.067 1090.11 225.998 1095.87C227.033 1097.92 227.472 1100.04 228.61 1102.03C229.741 1104.01 230.415 1106.15 231.287 1108.19L232.972 1112.07C233.155 1112.37 233.32 1112.67 233.466 1112.99L233.833 1113.8C233.863 1113.86 233.905 1113.94 233.929 1114C234.242 1114.69 234.543 1115.48 234.772 1116.09C236.366 1120.28 236.818 1119.53 236.451 1123.11C236.288 1124.71 236.18 1125.49 235.169 1126.45C233.755 1127.78 235.518 1127.8 234.85 1130.22C232.274 1131.12 233.634 1131.22 232.551 1133.27C231.314 1135.49 229.807 1137.56 228.062 1139.41C225.878 1141.73 217.796 1145.05 214.757 1146.45C210.358 1148.48 210.304 1146.42 206.759 1150.59C204.184 1153.62 204.653 1157.68 206.567 1160.97C209.076 1165.27 214.919 1168.48 220.137 1168.86C225.932 1169.28 224.548 1168.66 229.524 1168.59C230.92 1168.57 233.791 1167.62 235.313 1167.25C238.822 1166.32 242.23 1165.05 245.489 1163.45L257.494 1155.89C257.543 1155.86 257.621 1155.83 257.675 1155.8C257.729 1155.77 257.813 1155.73 257.868 1155.71L265.769 1151.8C266.1 1151.64 266.521 1151.51 266.996 1151.27C267.827 1150.87 267.291 1151.08 268.116 1150.63L270.234 1149.14C270.991 1148.66 271.553 1147.92 271.823 1147.07C272.599 1144.78 272.918 1135.86 272.31 1133.69L270.745 1128.36C270.439 1127.48 270.096 1126.59 269.795 1125.83C268.856 1123.51 267.033 1120.32 267.947 1117.83C268.958 1115.07 270.09 1111.4 269.795 1108.31C269.632 1106.68 269.686 1107.8 269.289 1106.92C269.11 1106.51 268.979 1106.08 268.898 1105.63C267.273 1100.19 262.579 1093.67 260.828 1088.88C260.687 1088.46 260.499 1088.05 260.269 1087.67L258.536 1084.16C258.048 1082.84 257.88 1082.85 257.494 1081.74C257.182 1080.84 257.007 1079.9 256.664 1078.99L254.696 1073.98C254.323 1073.18 253.993 1072.35 253.709 1071.51C252.289 1066.23 247.349 1057.02 245.224 1051.76C243.846 1048.33 240.585 1041.1 242.492 1038.05C244.502 1034.84 241.842 1033.05 238.767 1032.36C239.062 1030.84 239.64 1029.83 239.935 1028.08C240.464 1024.94 241.193 1022.32 241.487 1019.16C241.644 1017.49 242.077 1016.7 242.336 1015.06C242.769 1012.28 242.95 1008.75 243.449 1005.91C243.689 1004.37 243.846 1002.82 243.919 1001.27L245.597 988.752C246.145 981.481 247.3 974.343 248.378 967.133C249.888 967.547 249.684 968.1 250.49 969.146C251.05 969.879 251.387 970.503 251.922 971.285L261.635 987.652C264.511 993.132 267.929 998.57 270.445 1004.19C271.293 1006.09 272.093 1007.36 272.816 1009.18C274.32 1013 276.775 1020.02 279.465 1022.8C281.216 1024.61 282.348 1025.68 284.881 1026.8L291.037 1028.65C294.816 1029.78 299.366 1030.78 303.452 1031.6C304.433 1031.8 306.039 1031.88 307.062 1032.16L309.999 1032.89C312.334 1033.36 314.867 1033.47 317.28 1033.7C321.023 1034.06 321.324 1034.6 323.816 1035.07C326.548 1035.58 328.166 1035.64 330.381 1036.57C334.112 1038.13 340.599 1040.76 343.734 1042.65C344.968 1043.4 345.491 1043.03 346.617 1043.56C348.163 1044.3 346.406 1044.04 349.415 1044.46C350.949 1044.67 350.805 1044.91 351.593 1045.98C352.827 1047.65 353.976 1048.43 355.457 1049.72C358.231 1052.14 359.898 1055.18 361.998 1058.09C362.955 1059.41 363.605 1061.34 364.471 1062.69C365.976 1065.06 367.733 1070.23 368.533 1073.29C368.906 1074.71 369.406 1077.32 370.567 1078.51C374.936 1082.99 380.863 1080.55 386.123 1079.07L387.092 1078.65C387.146 1078.62 387.218 1078.56 387.272 1078.53L389.968 1076.8C392.038 1075.36 393.422 1074.44 394.824 1072.31C397.725 1067.92 397.52 1062.23 395.528 1057.59C395.306 1057.07 394.981 1055.97 394.794 1055.4L384.299 1029.64C383.824 1028.56 384.005 1028.46 383.264 1027.4C383.228 1027.35 383.174 1027.27 383.132 1027.22C381.845 1025.42 380.337 1023.79 378.643 1022.36L377.963 1021.81C376.139 1020.28 374.226 1019.43 372.439 1017.9C370.013 1015.83 366.625 1014.2 364.02 1012.25C361.619 1010.44 362.034 1012.51 360.223 1009.61C358.526 1006.9 350.023 1004.85 347.164 1003.77C345.774 1003.24 343.584 1002.55 342.368 1001.94C336.549 999.015 331.235 1000.38 326.644 998.155C325.091 997.41 324.183 996.419 322.744 995.65C321.126 994.778 318.935 995.133 317.112 994.784C314.867 994.352 311.437 991.978 308.007 991.149C307.697 990.545 307.437 989.916 307.231 989.269L304.715 984.179C304.011 982.983 303.554 981.89 302.982 980.886C302.272 979.631 301.719 978.831 301.099 977.744C295.298 967.607 294.636 964.759 290.863 955.434C289.22 951.372 288.197 946.589 286.74 942.353C286.367 941.277 284.351 935.215 284.514 934.602C286.379 931.447 287.144 933.118 289.37 931.639C289.87 928.461 289.545 928.563 289.033 926.057C288.738 924.615 288.907 924.693 288.468 923.432C287.776 921.437 287.649 918.499 287.15 917.291C286.524 915.789 287.023 915.014 286.41 913.421L285.453 908.32C284.812 903.758 284.46 899.16 284.4 894.554C284.352 892.499 283.894 891.682 283.996 889.356L287.794 852.698C288.016 851.935 288.082 851.887 288.335 850.823C288.392 850.479 288.487 850.143 288.618 849.82C289.394 847.933 290.122 849.657 292.066 847.236C295.256 843.258 303.259 836.805 307.652 834.059C311.533 831.625 314.915 828.783 317.443 827.161C319.104 826.097 325.146 820.533 326.367 819.266C329.611 815.895 331.705 811.899 334.563 808.228C335.339 807.23 334.792 808.366 335.394 806.617L341.068 794.81C341.441 793.861 342.272 792.876 342.747 791.638C343.054 790.839 343.048 790.382 343.349 789.679L345.582 784.529C345.846 783.718 346.057 783.658 346.358 782.841C347.14 780.732 347.267 779.482 348.416 777.379C349.583 775.046 350.526 772.607 351.232 770.097C351.605 768.811 352.165 768.15 352.845 766.894C353.73 765.26 353.411 765.049 354.716 763.896C355.938 762.82 356.119 762.009 355.619 760.213L354.193 760.074L353.784 761.54C353.567 762.598 352.117 763.313 350.925 763.445C351.16 762.165 351.1 762.748 351.443 761.997C351.473 761.931 352.014 760.747 352.033 760.717C352.604 759.858 352.472 760.483 352.905 759.834C354.512 757.412 352.261 757.539 356.498 756.235C356.863 756.102 357.24 756.003 357.623 755.94C359.868 755.592 360.632 754.991 362.654 754.204C364.194 753.597 365.356 752.425 367.173 751.83C369.959 753.302 372.463 755.658 375.67 756.349C376.263 756.458 376.844 756.627 377.403 756.854C379.329 757.569 381.838 757.244 383.908 756.643C385.768 756.096 388.819 754.024 387.152 751.842C386.791 751.362 378.48 747.961 377.475 747.252L374.46 745.605C372.114 744.26 372.312 744.542 372.276 743.274C372.351 743.236 372.43 743.206 372.511 743.184L373.245 742.992C378.167 742.186 383.782 743.665 388.813 742.841C392.393 742.259 393.88 741.55 394.084 737.668C391.4 735.481 391.984 734.573 387.483 734.243L387.182 734.225C385.022 734.063 382.464 733.636 380.532 734.153C380.106 734.33 379.659 734.453 379.202 734.519C378.655 734.535 378.11 734.591 377.572 734.688C376.29 735.018 376.868 735.715 375.514 734.916C376.446 734.477 376.206 734.159 377.584 733.432L385.389 730.085C387.976 729.136 394.487 726.245 391.154 722.827C388.379 719.978 382.843 721.427 379.395 722.833C377.608 723.566 376.17 724.233 374.184 724.966C372.613 725.548 370.615 727.213 369.002 727.05C369.646 726.083 370.128 725.068 370.88 724.04C371.542 723.133 372.216 722.538 372.902 721.565C374.12 719.763 375.53 718.099 377.108 716.602C380.183 713.778 380.514 707.667 375.736 709.187C369.682 711.116 366.276 713.014 362.154 718.182L356.413 726.504C354.115 730.41 355.396 728.156 353.561 730.71C352.327 732.416 352.183 733.42 349.523 733.378C344.998 733.312 345.281 733.077 343.71 730.025C341.754 726.227 337.133 722.1 332.728 723.572C329.322 724.719 331.38 728.144 332.415 730.259L333.558 732.326C335.318 735.444 336.451 738.875 336.892 742.427C337.085 744.049 337 749.637 336.086 750.797L332.818 751.59C331.458 752.083 331.271 751.951 330.465 753.104C327.095 757.941 327.372 762.526 324.441 767.315C321.836 771.569 319.182 775.625 317.094 780.203C315.674 783.304 311.594 790.808 309.337 792.731L307.261 794.564C301.887 799.485 294.455 803.673 287.312 805.265L281.252 806.629C277.544 807.106 273.895 807.968 270.366 809.201C269.416 809.513 269.987 809.501 268.76 809.453L268.362 808.378C267.826 806.369 267.621 804.287 267.755 802.213C268.204 801.996 268.638 801.749 269.055 801.474C269.662 801.149 269.861 801.185 270.457 800.813C270.463 800.807 271.389 800.092 271.648 799.912L277.371 795.147C278.109 794.48 278.801 793.763 279.441 793.002C279.874 792.479 279.959 792.317 280.416 791.842C280.518 791.74 280.867 791.421 281.036 791.253C281.92 790.376 282.263 789.324 283.148 788.189C285.784 784.77 284.707 783.851 289.25 781.886C292.427 780.51 295.719 778.797 298.168 776.28C298.541 775.895 298.698 775.691 299.167 775.156L301.021 772.783C301.619 771.935 302.059 770.986 302.32 769.982C303.151 770.193 303.295 770.355 303.921 770.145C305.678 769.562 309.006 762.934 309.445 761.378C309.692 760.501 310.348 757.388 310.607 756.812C312.135 755.802 312.376 756.721 313.652 754.835C314.915 752.954 316.059 749.655 315.601 747.252C315.319 745.762 315.631 744.452 315.427 742.883L314.608 737.74C314.547 737.457 314.433 737.188 314.271 736.947C313.742 735.24 313.862 733.738 312.647 731.563C312.373 730.997 311.98 730.498 311.493 730.1C311.007 729.701 310.439 729.413 309.83 729.256C309.656 731.347 310.288 730.614 311.082 732.284C312.415 735.392 313.191 738.709 313.375 742.084C313.616 745.87 313.249 754.582 309.891 754.763C309.794 752.251 310.191 753.765 308.874 753.17C308.765 754.991 308.976 758.71 308.236 760.363L303.518 767.609C301.881 767.633 302.85 767.513 302.375 767.327C301.508 766.99 303.247 767.303 301.364 766.888C301.298 768.429 300.786 769.917 299.889 771.172C299.542 771.717 299.16 772.239 298.746 772.734C298.264 773.317 298.162 773.75 297.326 773.846C296.61 771.359 298.246 769.965 296.14 766.846C293.733 763.283 291.109 764.617 290.646 763.986C289.828 762.88 290.736 761.835 291.007 761.456L291.29 761.09C292.451 758.993 291.561 755.568 291.26 753.681C290.82 750.875 291.795 751.295 289.942 750.995C289.81 751.077 289.698 751.188 289.614 751.319C289.531 751.45 289.478 751.598 289.46 751.752C289.105 752.708 289.864 755.478 289.966 756.679C290.068 757.833 290.189 758.59 289.436 759.335C288.726 760.044 289.172 758.65 288.552 760.375C287.968 762.003 288.347 763.758 287.553 765.326C286.897 766.624 286.843 769.237 286.873 770.806C286.879 771.04 286.915 772.104 286.933 772.218C287.282 774.357 288.48 773.521 289.84 772.14C290.935 771.028 291.176 771.665 291.832 770.001C291.457 769.941 291.075 769.956 290.706 770.043L289.906 770.235C289.352 770.367 290.351 770.547 289.087 770.397C288.961 769.159 289.142 769.201 289.647 768.258C289.677 768.198 289.725 768.12 289.755 768.054L290.237 767.098C293.956 766.678 294.251 766.131 294.642 770.355C294.913 773.275 294.245 775.408 291.41 776.508C289.527 777.241 290.189 777.121 287.511 776.958C287.122 777.895 286.651 778.796 286.103 779.65L278.442 789.637C278.4 789.691 278.346 789.763 278.31 789.811L275.656 792.563C273.798 794.518 271.666 796.191 269.325 797.532L261.695 801.089L255.689 802.55C253.788 803.132 250.785 802.489 248.745 802.339C241.295 801.798 234.044 796.547 231.817 791.055C231.517 790.431 231.154 789.839 230.734 789.288C230.032 787.933 229.497 786.499 229.139 785.016C226.642 776.189 228.88 763.109 231.985 754.805C232.942 752.251 233.821 747.594 234.982 744.223L236.084 741.946C237.407 739.657 237.155 736.178 237.931 733.624C238.473 731.828 239.67 731.1 240.446 729.749C239.772 728.901 238.334 728.985 239.923 727.195C241.072 725.897 245.934 723.836 247.872 723.439C250.514 722.893 250.532 722.755 253.078 722.785C253.379 722.807 253.683 722.791 253.98 722.736C255.075 722.538 254.01 722.79 254.69 722.49C255.906 721.955 255.834 721.649 257.47 722.454C261.4 724.383 260.437 722.995 260.882 722.544L256.592 720.117C254.912 719.296 253.116 718.739 251.266 718.464C250.063 718.236 249.449 717.851 248.317 717.971C246.422 718.182 247.77 720.177 248.311 720.952C247.493 721.264 246.566 721.276 245.549 721.649C243.842 722.185 242.191 722.887 240.621 723.746C239.943 724.129 239.246 724.478 238.533 724.791C238.111 726.041 238.202 727.057 237.768 728.024L236.005 733.432C235.53 734.579 235.783 734.832 235.193 735.811C234.687 734.555 234.904 733.414 235.024 731.767C235.44 725.975 237.69 725.554 237.468 723.355C235.109 722.983 234.964 726.125 233.67 727.525ZM276.414 693.264C280.464 691.593 288.624 698.293 290.989 701.069C291.41 701.562 292.674 703.437 292.933 703.665C294.437 704.987 293.456 700.114 294.052 697.5C294.06 697.219 294.161 696.948 294.341 696.731C295.201 696.575 295.436 696.647 295.815 697.452L297.554 709.151C297.551 709.387 297.632 709.617 297.783 709.8C299.005 709.83 298.445 709.914 299.245 709.241C301.532 707.312 304.36 702.998 308.326 704.957C308.856 708.887 303.747 710.911 302.94 712.912C305.654 713.165 309.084 713.153 311.094 714.078C313.182 715.051 313.754 714.943 313.285 717.99C312.177 718.687 310.745 718.993 309.704 719.726C309.758 719.786 309.836 719.852 309.873 719.888C309.924 719.945 309.978 719.999 310.035 720.05L311.864 721.847C313.658 723.415 318.442 731.161 316.913 732.549C316.504 732.801 317.521 733.011 316.065 732.747C315.331 732.621 315.439 732.23 315 731.197L310.673 723.686L304.77 719.552C302.994 718.692 302.97 719.318 303.139 717.251C304.908 716.698 307.598 717.509 309.74 717.317C309.704 716.421 310.107 717.13 309.144 716.325C307.634 715.057 301.929 715.015 298.728 714.619C298.523 712.786 298.8 712.876 300.046 712.071L303.951 709.127C304.686 708.56 305.263 707.815 305.63 706.964C302.338 706.97 299.709 711.951 296.941 711.933C295.773 708.959 297.259 710.022 293.583 709.758C291.597 705.546 291.681 705.077 288.125 701.285C286.71 699.777 282.293 695.806 279.17 695.77C279.784 696.845 281.782 698.173 280.651 699.429C279.826 700.204 279.977 699.693 277.931 699.213C275.849 698.732 270.559 697.758 268.429 697.74C269.091 698.329 269.319 698.119 269.536 699.014C268.399 699.621 268.453 699.032 267.382 698.648C263.723 697.344 258.505 697.35 254.799 697.476C247.758 697.716 244.195 699.525 239.833 704.308C238.864 705.377 238.448 706.705 236.818 706.477C236.607 704.668 236.98 704.23 237.774 703.214C238.36 702.403 239.027 701.654 239.766 700.979C241.269 699.619 242.988 698.516 244.851 697.716C248.055 696.553 251.401 695.825 254.799 695.553C260.762 695.223 264.156 696.791 266.407 697.061L266.918 696.22C268.332 694.406 274.621 696.803 277.028 696.881C276.613 695.445 275.957 695.289 276.414 693.264ZM242.426 788.669C242.522 787.414 243.84 786.705 244.743 786.068C247.246 784.325 250.869 786.602 253.481 786.873C255.027 787.035 257.362 786.963 258.457 787.552L251.387 790.292C249.691 790.312 247.995 790.235 246.308 790.063C243.076 789.805 244.55 789.445 242.426 788.669ZM259.962 789.012C258.018 791.379 253.252 792.215 250.436 793.014C248.492 793.567 243.479 792.851 241.006 791.403C238.424 789.889 239.574 789.42 239.207 786.422C238.292 778.953 235.199 779.338 234.411 777.65C234.231 777.163 234.174 776.639 234.243 776.125C234.313 775.61 234.508 775.121 234.81 774.699C235.113 774.277 235.514 773.935 235.98 773.704C236.445 773.472 236.96 773.358 237.48 773.371L237.233 776.231C239.309 777.89 239.297 779.08 242.161 780.444L254.245 784.86C255.563 785.052 257.115 785.142 258.457 785.256C260.816 785.455 260.371 785.431 261.815 784.644C263.41 785.803 264.836 787.546 263.753 789.463C261.815 789.336 262.465 788.621 261.611 787.456C260.521 787.798 260.672 788.147 259.962 789.012ZM230.463 939.409C229.879 940.43 229.861 940.196 230.18 941.421C230.728 941.674 229.482 941.614 230.993 941.59L231.48 941.518C231.883 941.41 231.865 941.001 234.651 940.382C235.151 940.027 237.985 939.126 238.93 938.67C243.684 936.38 245.471 934.482 249.178 930.324L257.296 919.232C259.799 915.362 262.026 910.994 264.295 907.172L267.43 900.749C267.694 900.142 268.086 899.223 268.435 898.61C269.416 896.909 271.281 891.135 271.684 889.128C272.069 887.211 274.561 880.548 273.935 879.022C273.068 879.376 273.815 878.595 273.165 879.965L268.387 893.653C267.634 896.308 264.523 902.443 263.043 905.063C262.649 905.74 262.289 906.436 261.966 907.148C261.52 908.284 261.845 908.14 261.129 909.053C261.093 909.095 261.033 909.161 260.991 909.209C260.949 909.257 260.889 909.323 260.852 909.371L251.94 923.107C250.204 925.597 248.302 927.968 246.247 930.203C245.727 930.792 245.17 931.348 244.581 931.868C244.24 932.129 243.923 932.42 243.636 932.739C241.379 935.167 238.015 936.627 234.952 937.876C234.248 938.165 230.86 939.385 230.463 939.409ZM288.058 741.958C288.052 738.629 288.311 738.942 286.482 736.989C285.05 735.457 284.935 735.012 282.907 733.943L272.587 730.427L264.926 724.959C264.878 724.917 264.818 724.851 264.77 724.809L264.619 724.659L261.243 721.433C260.649 720.908 260.084 720.35 259.553 719.762C258.608 718.62 258.915 718.566 259.667 717.515C261.316 717.924 260.738 718.254 262.248 719.642L269.03 725.621C270.689 726.955 272.44 728.17 274.272 729.256C276.805 730.824 278.027 730.5 280.879 731.401C283.003 732.09 284.991 733.139 286.759 734.501C287.896 735.445 289.894 737.362 290.387 739.206C290.718 740.456 290.61 741.303 291.314 742.355C292.355 743.905 293.751 746.218 294.16 747.865C294.359 748.67 294.184 748.904 294.419 749.613C294.732 750.545 295.081 749.457 294.901 751.8C294.714 754.162 294.371 754.21 291.952 753.897C292.271 751.999 292.53 752.732 292.836 752.01C293.534 750.37 291.404 745.918 290.532 744.079C289.557 742.042 291.507 745.191 290.11 743.382C290.062 743.316 289.912 743.142 289.858 743.082C288.738 741.982 288.51 742.763 288.305 742.114C288.242 742.038 288.155 741.983 288.058 741.958ZM252.398 1097.03C253.908 1101.72 252.512 1110.42 251.206 1112.83C250.189 1114.7 251.29 1113.56 249.413 1116.96C248.667 1118.3 247.8 1119.09 246.843 1120.43C245.947 1121.68 245.405 1121.92 244.334 1122.76C244.286 1122.8 244.219 1122.86 244.171 1122.89C242.883 1123.9 241.331 1125.14 239.393 1124.8C239.261 1122.16 240.446 1123.14 244.761 1119.01C245.916 1117.9 248.552 1113.52 249.292 1111.91C251.019 1108.14 252.247 1101.86 251.086 1097.55C250.899 1096.87 250.779 1095.93 250.586 1095.44C250.195 1094.44 250.279 1095.52 250.111 1094.43C249.894 1092.98 250.141 1093.59 250.424 1093.26C251.531 1094.01 251.952 1095.67 252.398 1097.03ZM264.529 760.483C270.493 758.025 274.266 762.946 272.84 766.101L271.311 766.215C271.009 765.938 270.765 765.603 270.595 765.23C270.162 764.34 269.951 763.169 268.031 761.907C266.503 760.903 265.775 762.141 264.529 760.483ZM246.157 766.714C246.067 769.316 245.724 769.796 247.126 771.755C250.634 776.646 243.564 775.757 243.521 770.379C243.503 768.126 243.997 766.377 246.157 766.714ZM239.778 757.334C239.911 751.993 246.825 753.885 247.92 754.709L247.77 756.066C246.302 756.271 244.213 755.472 243.022 756.114C241.662 756.854 242.607 758.278 239.778 757.334Z" fill="#254E92"/>
</svg>
