<svg width="35" height="23" viewBox="0 0 35 23" fill="none" xmlns="http://www.w3.org/2000/svg">
<path fill-rule="evenodd" clip-rule="evenodd" d="M0.000209808 11.2516C0.000209808 11.5831 0.131905 11.901 0.366325 12.1355C0.600746 12.3699 0.918689 12.5016 1.25021 12.5016H30.7327L22.8652 20.3666C22.6305 20.6013 22.4986 20.9196 22.4986 21.2516C22.4986 21.5835 22.6305 21.9019 22.8652 22.1366C23.0999 22.3713 23.4183 22.5032 23.7502 22.5032C24.0821 22.5032 24.4005 22.3713 24.6352 22.1366L34.6352 12.1366C34.7516 12.0205 34.844 11.8825 34.907 11.7307C34.97 11.5788 35.0024 11.416 35.0024 11.2516C35.0024 11.0872 34.97 10.9244 34.907 10.7725C34.844 10.6206 34.7516 10.4827 34.6352 10.3666L24.6352 0.366579C24.519 0.250359 24.381 0.158169 24.2292 0.0952709C24.0773 0.0323731 23.9146 0 23.7502 0C23.4183 0 23.0999 0.131862 22.8652 0.366579C22.6305 0.601295 22.4986 0.91964 22.4986 1.25158C22.4986 1.58352 22.6305 1.90186 22.8652 2.13658L30.7327 10.0016H1.25021C0.918689 10.0016 0.600746 10.1333 0.366325 10.3677C0.131905 10.6021 0.000209808 10.9201 0.000209808 11.2516Z" fill="white"/>
</svg>
