<svg width="522" height="244" viewBox="0 0 522 244" fill="none" xmlns="http://www.w3.org/2000/svg">
<path fill-rule="evenodd" clip-rule="evenodd" d="M377.213 175.339L378.333 176.866L383.899 173.142C383.95 173.108 384.07 173.044 384.156 172.988L384.262 170.548C382.026 171.862 378.234 175.049 377.213 175.339ZM387.742 147.573C387.144 146.195 386.738 145.376 385.485 144.694L383.181 146.882L387.742 147.573ZM371.98 144.856L369.286 144.425C369.351 151.698 365.02 153.558 369.338 156.527C369.423 156.471 369.53 156.25 369.56 156.322L371.33 154.863C370.988 151.263 370.518 148.085 371.98 144.856ZM368.085 197.619L352.883 129.295L373.758 201.923C374.498 204.192 374.712 204.487 375.045 206.995C372.762 206.794 371.95 206.811 369.748 206.287L368.085 197.619ZM384.348 133.607C384.356 136.7 384.412 140.974 385.75 143.41L381.702 146.588C375.319 145.163 376.187 145.688 372.514 143.329C372.989 133.927 375.622 130.003 384.344 126.471L384.28 131.385C383.873 132.34 384.01 131.722 382.758 132.852L381.103 134.349C382.617 132.498 383.194 133.151 383.459 130.813C379.141 131.415 384.968 131.943 378.405 131.479C377.406 132.675 376.512 133.955 375.733 135.305C374.87 136.841 375.665 135.898 375.156 137.263C374.69 138.496 374.468 137.685 374.271 139.733C376.764 139.622 378.093 136.678 380.167 135.326C379.585 136.508 380.141 135.518 379.628 136.26L377.392 138.611C376.482 139.592 375.109 140.65 374.84 141.593C375.973 141.989 376.546 141.435 377.32 140.611C378.397 139.472 378.709 139.34 379.889 138.235C381.304 136.909 382.471 134.26 384.348 133.607ZM364.994 114.663C364.178 117.768 363.733 122.218 362.198 124.372L362.741 126.641L367.782 110.09C368.072 109.079 368.32 108.051 368.555 107.091C369.043 105.116 369.346 106.524 368.209 104.988C366.448 106.332 365.571 112.487 364.994 114.663ZM393.693 103.261C393.215 103.602 393.591 103.427 392.757 103.692L371.398 106.643C370.073 105.189 368.739 104.174 367.623 102.954C371.856 102.437 376.14 101.904 380.513 101.525C382.749 101.328 384.861 101.115 387.063 100.919C388.324 100.808 389.119 100.752 390.38 100.599C390.662 100.561 391.795 100.424 392.013 100.432L393.852 100.906C392.723 102.779 393.77 100.27 391.509 101.316C392.317 102.762 392.565 102.685 393.693 103.261ZM367.277 102.177L396.447 98.8456C395.391 98.4233 386.101 98.7518 383.959 98.658C384.322 97.4124 385.883 94.9212 387.058 94.3922C387.687 95.3264 387.332 95.3477 387.926 96.4696L386.396 97.0455C388.238 97.3057 390.119 97.4337 391.992 97.5574C398.093 97.9541 396.485 98.112 396.793 96.7341C398.152 97.8134 397.695 97.8261 398.969 97.8602C398.826 97.2035 398.774 96.5304 398.815 95.8596C399.046 93.5007 398.559 94.8529 399.555 93.7011C400.111 99.5964 397.567 98.9054 404.471 98.2485C405.989 98.1034 412.214 97.054 412.829 98.0863L404.95 99.1485L406.673 101.209C403.659 101.618 406.22 98.4703 399.76 99.8268L400.423 100.68C397.746 100.868 399.191 100.535 398.174 101.379L397.52 101.951C397.46 101.998 397.353 102.075 397.302 102.122C397.033 102.341 396.779 102.577 396.541 102.83C394.895 101.354 394.993 100.872 394.749 103.487L412.226 101.316C414.796 101.439 414.035 101.542 414.313 102.139C408.323 102.309 388.324 105.325 380.261 106.46C378.217 106.746 376.388 106.916 374.365 107.211C369.107 107.979 371.458 107.249 369.556 106.823C368.915 111.685 366.123 120.059 364.605 125.007C362.993 130.254 362.895 128.13 364.332 133.931C365.067 136.905 365.687 140.031 366.563 142.898L369.479 143.051C370.501 135.936 370.154 134.366 373.993 129.469C375.233 127.887 376.751 126.441 379.573 126.176C382.031 125.946 381.817 124.231 385.887 124.316C385.75 127.644 385.511 131.359 385.592 134.678C385.904 147.91 388.046 143.61 390.085 144.156L390.017 147.134L388.794 145.969C388.751 145.872 388.723 145.768 388.713 145.662L388.653 147.744L398.601 148.849C399.328 147.68 401.055 145.436 402.56 144.783C402.193 146.464 401.752 147.53 400.709 148.644C401.295 149.032 402.197 149.378 402.684 149.663L403.77 144.318C397.148 143.794 401.038 146.537 397.473 147.688C397.203 146.037 398.14 144.732 399.196 143.909C400.756 142.697 402.09 142.97 404.236 143.145C404.929 137.165 407.998 128.612 409.456 122.405C410.29 118.865 411.115 115.35 412 111.809C412.598 109.416 414.505 103.815 414.655 102.139C414.172 98.4745 415.065 98.5471 414.052 98.0224C417.13 95.288 415.989 96.3331 416.596 97.0028C417.724 98.1418 416.715 96.9773 416.365 97.9029L409.965 123.416C408.866 128.096 407.673 132.554 406.455 137.169C405.912 139.229 404.086 148.251 402.975 149.868L402.509 150.384C405.13 150.465 404.369 149.258 404.967 146.392C406.241 140.262 412.697 114.42 413.958 112.176C414.479 113.324 410.251 128.97 409.631 131.713L404.877 151.297C402.146 151.958 400.581 151.613 398.879 154.091C398.435 153.43 398.14 155.098 398.648 152.897C398.798 152.257 399.033 152.231 399.371 151.963C400.859 150.777 400.059 152.219 401.312 150.615C391.308 150.346 381.633 147.821 373.049 145.901C370.92 149.907 372.412 152.581 372.916 156.51L368.577 157.478C368.457 157.491 368.303 157.508 368.209 157.521L367.512 157.627C366.764 160.166 368.081 161.484 368.761 163.83C369 162.311 369.244 162.247 368.735 160.865C367.935 158.698 368.436 161.292 367.623 158.843C369.086 157.751 368.902 157.704 370.851 158.191C370.3 161.599 370.518 160.635 372.181 162.751C373.993 165.054 372.784 165.464 372.762 167.742C372.754 168.744 372.959 168.667 373.716 169.849L377.213 175.339C377.858 170.544 383.843 171.649 384.643 166.679C384.378 166.865 384.136 167.083 383.925 167.328C383.856 167.392 383.767 167.477 383.694 167.541C383.621 167.605 383.54 167.686 383.471 167.746C381.287 169.695 379.111 172.071 376.071 172.771C376.61 170.608 377.067 170.745 378.816 169.682C382.33 167.55 384.087 165.25 387.837 162.862C384.314 161.885 374.665 160.468 372.967 157.747C374.395 156.928 376.392 158.459 378.281 159.103C383.865 161.014 389.632 161.902 395.634 162.729C398.375 163.109 418.943 166.364 419.875 166.807L419.088 167.195C417.861 167.503 416.416 167.196 415.168 167.046C407.78 166.176 400.521 164.636 393.189 163.621C388.174 162.921 390.979 163.301 387.691 164.525L385.849 165.161C385.887 168.172 385.498 174.098 384.476 176.226C382.313 175.825 384.147 174.545 381.714 176.691C383.164 176.682 385.143 176.107 386.109 176.695C385.716 177.101 386.122 176.823 385.425 177.165C381.154 179.255 378.611 175.996 378.867 181.631C378.94 183.201 379.064 182.987 379.427 184.31C379.932 186.161 380.428 188.648 379.231 189.936L377.982 184.19C377.585 181.417 377.901 181.042 378.14 178.329L374.485 178.504C375.165 181.153 376.524 184.48 377.401 187.181C380.569 196.911 383.672 205.527 383.365 216.072L399.341 215.641C398.678 214.055 398.807 211.051 399.427 209.524C400.17 210.459 400.294 212.34 400.136 215.705L416.827 215.351C416.553 214.567 416.416 213.888 415.796 213.696L409.807 214.4C409.439 210.992 415.258 213.487 417.558 211.005C418.703 212.613 417.357 211.764 417.972 212.754C420.332 210.83 420.007 210.608 418.797 207.801C413.676 207.558 413.697 208.629 410.572 208.394C405.018 207.984 404.24 209.46 402.701 208.411C404.578 206.176 410.303 207.055 412.581 207.409C410.901 203.488 412.124 203.433 410.97 200.972C415.407 199.777 419.268 199.436 424.188 200.545L412.436 201.496C412.598 202.153 412.863 204.103 413 204.41L414.381 205.792C415.527 206.517 417.472 206.526 419.156 206.658C419.127 204.794 418.793 204.956 420.033 204.12L420.187 207.767C422.286 208.334 423.004 206.854 422.743 211.495C425.783 211.461 425.232 209.17 425.291 206.402C426.454 205.997 426.848 205.574 428.13 205.651C427.711 207.055 427.425 206.508 426.279 207.588L426.407 210.331C426.467 208.535 426.292 208.948 427.45 208.437C428.271 210.113 427.903 213.713 426.215 214.571C425.39 213.308 426.035 213.125 426.134 211.324C425.424 212.084 423.915 213.261 422.568 212.963C420.773 212.566 421.388 209.972 420.858 209.396C420.341 210.757 420.781 212.267 420.473 213.713C420.238 214.814 420.332 214.306 420.084 214.716C419.392 214.686 419.952 215.104 419.208 213.321C418.579 214.046 418.199 214.464 417.369 215.351L448.471 214.682L450.006 206.73C447.698 206.726 447.582 207.285 444.41 207.08C444.551 209.085 445.145 212.591 443.935 214.37C442.255 213.381 443.012 211.977 442.837 209.908C442.337 210.629 442.349 210.608 441.225 210.71C441.016 209.576 440.96 211.807 441.242 210.105C441.255 210.032 441.268 209.891 441.285 209.815C441.588 208.543 442.537 207.579 443.333 206.658C439.164 206.5 435.838 207.084 431.768 207.805C431.159 207.948 430.538 208.037 429.913 208.07L428.438 207.746C428.345 207.656 428.224 207.601 428.096 207.588C429.066 206.223 431.965 206.18 433.624 205.89C443.136 204.226 444.397 207.686 450.164 205.148C451.289 201.927 450.002 201.206 446.778 201.236C445.269 201.253 442.319 202.004 440.216 202.264C437.903 202.55 429.156 202.426 426.527 201.62C424.65 201.044 426.074 201.628 425.428 200.997C427.715 199.982 436.736 201.893 441.054 201.232C441.653 199.837 440.477 201.599 440.139 199.581C442.48 199.256 444.858 199.314 447.18 199.752L448.39 200.208C448.48 200.251 448.578 200.319 448.668 200.362L451.434 201.317C451.562 203.198 451.122 204.785 452.08 205.937L451.246 206.701C450.173 208.202 449.998 212.971 449.934 214.776C450.542 214.773 451.15 214.805 451.755 214.874L453.093 215.411C452.494 215.727 453.123 215.535 452.118 215.71C449.651 216.141 446.855 215.791 444.359 215.91C441.648 216.038 438.852 215.983 435.924 216.128L434.987 221.955C437.262 222.16 442.324 221.272 445.184 221.08C451.947 220.624 448.574 220.556 451.96 219.34C453.234 218.883 452.268 219.545 453.448 219.118C453.901 217.8 453.559 216.9 454.243 215.978C455.38 216.96 454.692 216.507 455.017 217.847L455.868 219.941C455.402 220.901 456.034 220.688 454.799 220.969L458.197 221.161C458.347 219.549 457.975 216.78 458.907 215.787C459.719 218.333 459.621 218.696 459.566 221.677L466.192 223.435C466.44 222.808 465.983 222.283 465.807 221.643C467.744 222.04 467.334 221.741 469.458 221.451C469.54 220.236 469.351 220.287 469.343 220.172L469.33 219.314C478.282 214.524 489.898 223.734 499.509 219.86C501.479 219.063 501.308 218.414 502.877 219.306C503.014 217.655 502.788 217.766 503.698 216.623C504.523 217.804 504.053 218.184 504.959 221.575C506.011 219.626 504.823 217.719 506.174 216.567C507.23 218.649 506.494 223.149 504.934 224.425C503.856 223.49 503.976 222.991 503.664 221.191C502.719 222.701 502.805 223.968 501.638 225.427C501.078 224.651 501.437 225.683 501.308 224.484C501.202 223.499 501.249 224.467 501.326 223.832C501.505 222.262 502.305 221.076 502.518 219.562C496.772 222.458 494.477 222.433 487.213 221.2C483.135 220.513 474.55 218.824 470.771 220.355L473.118 221.626C472.374 223.687 472.408 221.584 472.019 223.572C473.297 222.94 473.101 222.74 474.029 222.629L474.606 222.718C475.978 226.494 470.074 226.634 467.064 226.447C464.939 226.314 463.61 225.913 461.25 226.033C456.611 226.267 436.749 228.904 433.936 225.12C439.241 225.461 443.816 226.063 449.297 225.824C451.485 225.73 462.896 225.222 464.037 224.885C459.352 221.49 445.748 223.49 439.323 224.007C437.446 224.16 435.552 223.985 433.85 224.621L432.35 225.184C429.058 225.704 428.865 224.881 425.454 226.656C422.624 228.123 420.439 226.361 415.907 226.468C406.318 226.69 395.968 227.492 386.793 229.625C384.998 230.043 385.365 229.386 382.95 229.454C373.13 229.727 353.024 230.354 343.866 231.625C340.425 232.099 341.989 231.617 340.63 230.896C338.33 229.68 334.876 231.941 332.682 230.653L334.957 229.829C335.957 226.135 335.444 220.628 336.363 218.043C338.103 219.958 336.663 226.988 336.218 229.578C350.377 228.571 364.75 227.607 378.829 226.707C387.405 226.156 410.867 225.107 418.883 223.836L420.875 223.239C417.613 221.997 416.497 223.87 414.834 223.239C415.557 220.713 419.652 221.895 422.752 221.605C425.15 221.379 424.12 222.121 425.843 220.078C427.194 221.097 425.997 220.163 426.54 221.503C427.185 220.658 429.096 218.461 430.481 217.663C429.994 219.596 428.357 221.353 427.339 222.872L433.081 222.223C432.846 220.18 433.478 217.749 434.722 216.341C429.267 215.253 408.802 216.844 401.303 216.614C401.391 218.339 401.234 220.068 400.837 221.75C400.034 224.945 400.068 224.77 398.576 224.958C397.793 223.478 398.272 222.151 398.764 220.125C399.696 216.311 400.128 219.536 400.645 216.665C396.955 216.81 393.228 216.776 389.534 216.768C387.229 216.759 381.052 217.591 379.756 217.062C380.385 215.339 380.218 216.896 382.155 215.821L382.745 208.978C380.128 207.942 378.461 208.757 375.503 208.445C366.482 207.494 363.276 207.089 353.708 207.537C353.31 209.371 351.792 211.627 351.019 213.142L348.988 213.283C347.53 213.342 347.782 213.547 346.666 212.941C347.179 211.93 347.081 211.772 349.839 212.549C350.206 210.851 351.249 209.435 352.117 208.1C353.379 206.155 353.819 206.223 356.247 206.082C360.418 205.799 364.606 205.942 368.748 206.509C368.367 203.429 366.974 199.095 366.268 195.819C365.499 192.265 364.721 188.772 363.968 185.295C362.54 178.717 360.633 171.312 359.539 164.79C354.759 164.922 352.25 163.442 347.799 162.938C347.654 166.052 347.513 169.132 345.846 170.826L346.765 162.708C344.029 162.234 344.097 161.961 341.968 161.142L343.875 158.66C348.787 158.293 355.174 160.673 358.902 162.162C358.551 160.208 358.013 158.028 357.525 155.934C355.85 148.678 356.145 150.427 349.082 149.16C346.564 148.708 345.397 148.682 343.558 147.368C343.935 146.2 343.255 146.985 344.811 146.357C343.208 145.837 344.349 146.673 343.747 145.389C344.362 143.661 346.35 140.633 347.855 140.07C347.898 141.277 347.551 141.49 347.393 142.377C346.837 145.483 349.167 142.902 346.684 147.437C348.077 147.616 350.223 148.388 351.125 147.786C349.98 146.613 350.459 147.351 348.821 146.682C348.625 143.67 347.637 137.293 349.552 135.19C351.237 137.101 349.984 143.073 349.963 145.803C353.806 147.727 351.476 148.883 356.14 149.936C354.99 143.145 352.972 135.795 351.502 128.992C350.754 125.519 350.035 122.03 349.257 118.481C348.83 116.54 348.291 115.043 347.846 113.264C347.641 112.441 347.637 112.974 347.744 112.163C347.919 110.815 348.261 110.325 347.474 109.011L343.939 138.24C344.986 137.178 346.329 135.275 347.718 135.215C347.462 137.672 344.905 138.026 343.836 139.707C343.681 139.95 343.596 140.232 343.592 140.521C343.589 140.81 343.666 141.094 343.815 141.341C344.764 139.674 346.225 138.357 347.983 137.583C347.556 139.404 344.935 142.518 343.174 143.329C342.152 149.685 335.055 211.052 333.482 214.575C332.789 213.875 332.768 215.795 333.067 212.66L340.382 155.217C342.101 141.618 347.218 106.626 347.829 95.6463L328.946 215.808C327.877 214.37 329.301 209.401 329.579 207.711L333.148 184.246C336.342 163.122 339.382 141.9 343.033 120.78C343.426 118.498 346.957 98.9651 346.389 97.4764C345.961 96.3502 345.521 96.4312 345.046 94.2642C344.7 92.6689 344.529 92.0887 345.05 90.7151C346.196 91.6493 346.38 94.3026 347.034 95.625C347.674 92.6948 348.159 89.7332 348.488 86.7523C348.744 83.954 349.745 82.4993 350.168 78.5492C351.108 79.5432 350.326 78.1995 350.706 79.5475C350.834 79.9203 350.872 80.3176 350.818 80.7077C350.813 81.1087 350.617 82.4098 350.57 82.943L349.214 95.1941C348.877 98.0053 348.483 100.834 348.141 103.602C347.834 106.08 348.197 107.181 348.932 109.352L349.68 110.901L351.241 106.682C350.36 107.62 350.309 108.316 349.091 108.67C349.129 106.332 349.873 105.206 350.942 103.495C351.972 101.845 351.596 100.688 353.511 100.646C353.708 102.305 351.711 104.647 352.079 105.568L352.357 105.931C352.387 105.987 352.481 106.085 352.506 106.144C353.259 107.817 351.16 111.468 349.732 112.189C351.373 120.319 354.161 128.783 356.333 136.589C361.813 156.297 367.888 175.582 372.984 195.285C373.959 199.052 375.511 203.314 375.922 207.234L382.185 207.588C381.039 202.49 379.047 196.629 377.491 191.608C376.161 187.321 374.297 179.997 372.617 176.23C371.403 173.513 368.098 169.192 367.602 165.562C367.149 162.222 365.584 160.464 366.204 157.043C367.012 152.585 365.379 155.392 367.559 149.343C367.906 148.384 366.978 146.473 366.529 144.98L365.362 142.369C362.16 133.227 360.599 123.186 358.38 113.882C357.393 109.762 350.779 83.0283 351.613 81.2111C352.656 81.6973 351.844 80.9595 352.348 82.0472C352.917 83.2758 352.947 84.9009 353.233 86.1337C354.824 92.993 360.681 120.319 361.882 122.657C362.968 120.157 364.678 110.862 365.819 106.852C366.285 105.214 367.568 103.401 367.277 102.177ZM269.965 31.6902C268.995 32.6287 267.717 33.87 267.024 35.0004L269.529 35.5465L269.965 31.6902ZM401.072 72.0142C401.248 70.8411 401.581 71.5022 402.445 70.0135L373.066 58.4492C365.041 55.2541 288.041 24.6731 283.244 23.372C283.022 16.9308 285.07 5.48155 282.466 0.0214101C279.7 -0.234534 266.695 1.84288 265.553 4.18477C265.511 4.27435 265.451 4.39378 265.404 4.49189L264.891 5.62227C264.566 6.27493 264.177 6.9276 263.869 7.45656C254.639 23.4531 247.439 38.5197 248.153 58.0653C248.188 59.008 248.32 60.0701 248.333 60.9744C248.376 63.6789 245.781 69.3524 246.926 72.1379C248.491 70.726 247.461 68.6784 248.803 66.8015C249.556 81.0405 252.429 77.6876 250.244 89.3971C248.936 96.4185 248.23 104.971 247.927 112.287C247.32 112.429 246.689 112.442 246.077 112.326C245.464 112.21 244.883 111.967 244.37 111.613C244.755 108.653 245.139 112.125 245.721 107.936C245.935 106.417 246.046 105.108 246.341 103.598C246.948 100.454 249.197 78.6346 248.166 77.1416C246.884 79.3129 247.371 96.6274 245.251 101.06C245.336 98.3807 246.854 91.3849 245.691 89.4439C244.584 90.0028 244.9 89.6231 244.72 91.7219L244.032 100.07C243.656 104.046 243.186 107.522 243.173 111.613C240.385 113.806 241.745 112.342 242.908 118.204L241.228 118.673C240.06 119.099 241.018 117.995 240.078 119.441C241.672 120.644 245.015 120.081 246.627 119.999C245.947 122.073 243.13 121.318 242.036 120.831L240.834 122.026C240.477 122.292 240.08 122.502 239.659 122.648L239.411 119.078C239.171 117.726 239.329 118.524 239.099 118.071C238.799 118.515 239.047 117.807 238.641 119.01L238.355 121.121C238.253 122.225 238.388 123.338 238.752 124.385L242.75 126.3L242.972 122.934L246.242 122.384L245.593 125.506C244.891 123.813 245.785 124.589 244.455 123.856C243.84 125.579 243.506 128.471 243.942 130.126C245.276 129.474 245.071 128.689 245.323 126.884C248.341 127.2 246.533 127.051 247.666 126.82L248.354 126.56C248.863 124.568 248.495 122.205 248.919 120.034C249.551 116.813 248.619 118.302 246.559 118.421L247.076 114.586L249.265 113.968C249.393 112.3 248.829 112.658 249.504 107.138C249.731 105.274 251.663 88.0149 252.287 86.9101C253.938 90.5445 253.202 93.0144 255.72 97.1052C256.956 96.9772 265.523 94.4946 266.515 93.8548L266.892 92.0504C266.293 91.2057 262.309 78.1142 261.492 75.6358C259.662 70.0733 258.132 64.2804 257.58 58.0951C261.167 57.7922 259.833 57.9756 261.082 59.5923C262.001 60.7825 262.625 60.5906 264.104 59.7545C263.134 64.0458 261.394 66.3578 260.308 69.8301C262.125 69.0452 262.685 66.8654 263.386 65.0482C265.523 59.5369 269.179 41.2113 270.29 34.8938C270.846 31.7243 271.368 25.5731 271.043 22.1648C271.034 22.0923 270.996 21.9388 270.987 21.8833L270.833 21.3458C269.67 23.6621 270.188 28.0557 269.97 30.8797L265.707 34.9449C265.673 34.8724 265.562 35.1028 265.476 35.171C264.104 35.5763 262.36 34.608 260.966 34.6677L259.756 35.0004C262.304 36.5148 266.203 36.455 269.328 36.1522C268.49 41.1345 268.773 41.9066 265.464 45.2979C264.536 46.2491 264.014 46.1638 264.087 47.5374C266.242 47.2558 265.925 44.8202 267.614 44.2912L266.297 49.1285C263.022 48.0749 262.167 47.1108 257.781 46.6672C258.709 48.3393 259.739 48.3095 261.928 48.8427C263.412 49.2053 264.822 49.6361 266.297 49.9987L264.241 58.9781L262.193 59.17L261.355 56.4826C261.12 56.5679 258.136 57.323 257.738 56.5424C257.682 56.4958 257.618 56.4607 257.548 56.4395C257.478 56.4182 257.405 56.4112 257.332 56.4187L257.341 53.7227C258.431 54.1962 259.337 54.9299 260.641 55.476C261.275 55.7665 261.947 55.9647 262.638 56.0646L264.664 55.5954C263.446 54.7593 259.017 53.2962 257.033 52.298L257.183 43.8817L258.64 43.4509C259.115 44.0225 259.748 45.3576 260.192 46.023C261.838 45.9036 261.154 46.1724 261.804 44.833L263.001 46.7056C264.433 45.6903 264.874 45.6434 265.647 43.4679C264.553 43.4252 264.207 44.3765 263.394 45.2254L263.001 42.7342C261.761 43.3399 261.804 43.5319 261.017 44.5088L259.808 42.3588C258.033 42.282 258.653 42.2692 257.324 42.9603C257.824 35.0004 260.248 25.1551 263.463 18.9826C265.464 15.1434 266.981 12.6011 269.345 9.63212C269.861 8.91212 270.425 8.22799 271.034 7.58455C272.146 6.49679 276.258 2.9818 276.541 2.01347C274.925 2.56802 271.547 5.81847 270.521 7.09393C264.515 14.5675 262.398 19.0082 258.987 27.979C259.064 25.0869 261.744 21.1197 261.017 19.439C257.242 26.5756 258.675 28.8748 257.401 35.1199C257.148 36.3569 256.994 38.3021 256.605 39.3856C254.883 44.1846 254.417 44.3807 254.156 50.7367C253.764 59.4012 254.543 68.0789 256.473 76.5358C257.012 78.8649 257.512 81.7741 258.88 83.6639C259.419 82.3116 257.486 76.5742 257.024 74.3049C255.306 65.8246 252.771 49.0645 256.392 41.9024C256.165 52.1785 255.968 59.8397 258.786 69.7149C260.321 75.0898 265.549 88.7913 265.639 93.1978L256.11 95.4245C254.703 91.9522 254.395 89.6018 253.472 85.6944C252.322 80.8314 252.835 79.4578 253.271 74.5011C255.148 79.3555 254.844 89.5378 259.816 92.5836C259.718 91.3124 257.708 88.1643 256.999 86.3087C254.25 79.1295 253.514 70.6278 254.002 62.9879C254.062 62.0281 254.143 61.5973 253.839 60.6972C253.801 60.5948 253.745 60.501 253.703 60.3986C252.89 58.4364 253.1 57.178 252.869 55.0408C252.497 51.6283 251.219 52.3705 251.873 47.3625C252.219 44.7263 255.331 34.9705 254.759 33.8998C254.019 35.1113 252.022 41.9152 251.552 43.7708C249.739 50.9415 251.022 51.1504 252.001 54.2474L252.903 69.3054C252.993 71.6004 252.822 69.6765 252.33 71.7241C251.988 73.1531 251.924 75.8789 251.74 77.4956C249.898 74.1342 250.03 68.9002 250.577 65.044C251.244 60.3645 250.731 61.3925 250.197 60.8977L249.603 63.7771C247.636 48.7702 251.321 35.1839 256.747 22.9796C259.089 17.7157 262.792 12.8996 265.092 7.43948C266.9 3.16521 267.298 3.94165 272.244 2.61074C276.814 1.37794 276.532 2.44431 279.627 1.79592C280.645 1.58263 280.649 1.44187 281.735 1.37361C281.803 4.87152 282.346 8.72346 282.483 12.3451C282.633 16.2653 282.201 20.0959 282.248 23.9692C286.6 24.8053 292.791 27.9534 297.177 29.664L356.298 52.9037C360.976 54.7294 365.926 56.9434 370.954 58.9142C376.905 61.2475 396.318 68.1623 400.367 70.3079C400.35 70.7473 400.29 70.7558 399.739 71.6601C400.252 72.2403 398.781 72.236 401.072 72.0142ZM87.6283 231.455C85.3445 230.96 85.7361 230.755 84.1278 229.744L83.7486 232.572C85.6006 232.393 85.6378 232.935 86.6198 232.389L87.6283 231.455ZM78.2614 225.299L77.0101 225.538L76.7754 233.003L80.1784 232.965C80.6487 229.543 80.6359 229.799 79.8945 226.788C81.1814 227.3 80.7068 226.698 81.425 228.404C82.3446 230.589 80.8488 229.467 82.6649 230.303C82.9214 228.682 83.2382 226.715 82.7871 224.975C81.4067 225.227 79.9715 226.067 79.0964 225.734C79.084 225.013 79.3841 225.035 79.9911 224.578L76.7963 223.844C77.6488 225.103 78.1721 223.84 78.2636 225.299H78.2614ZM167.25 213.679L167.741 218.099L171.021 218.239L170.858 214.127C172.025 215.104 170.952 213.846 171.516 214.959C172.076 216.059 171.67 216.64 172.277 218.12L176.51 217.936C176.42 216.704 176.253 214.703 175.621 213.44L167.25 213.679ZM166.207 209.294C166.287 209.208 166.345 209.104 166.378 208.991C166.403 208.873 166.466 208.767 166.557 208.688C168.78 211.615 163.137 212.272 172.427 212.152L172.855 208.172L175.291 209.687L173.872 212.161L176.583 212.805C177.057 214.618 177.839 215.646 177.882 218.034C181.285 217.958 195.098 215.923 196.877 217.062C194.778 218.38 180.853 218.009 178.057 219.122C177.044 222.168 178.789 224.936 178.087 227.88L181.046 227.074C180.434 224.51 179.665 226.643 178.9 224.292L182.799 224.233C182.452 225.858 182.337 225.252 182.14 227.001C185.898 226.822 190.237 226.583 193.97 227.163C196.385 227.543 209.989 228.635 211.139 229.416C208.903 232.06 201.887 229.454 198.664 229.642C195.064 229.851 197.813 229.556 195.958 230.913L194.765 228.942C192.298 228.946 193.628 229.172 191.922 228.784C186.257 227.496 181.337 229.765 176.766 229.091C174.748 228.793 172.491 229.177 170.379 228.972C170.587 228.668 170.776 228.352 170.944 228.025C171.61 226.826 171.893 226.481 173.192 226.156C172.82 227.419 172.282 226.941 171.435 228.362L176.976 228.089C175.556 225.593 176.831 221.831 176.638 218.708L172.513 218.977C172.021 221.068 173.184 223.124 171.914 225.205C170.593 224.305 171.221 220.88 171.174 219.071L154.612 219.344C148.918 219.557 143.377 219.847 137.674 220.027C139.692 221.486 139.093 222.078 142.633 221.635C144.16 221.443 146.284 220.611 147.456 221.178C146.964 222.309 145.703 222.211 144.408 222.624C146.716 223.072 148.914 223.426 151.325 223.264C152.847 223.158 155.767 221.571 156.583 222.083C156.628 221.979 156.667 221.872 156.699 221.763L157.34 220.329C157.358 220.233 157.411 220.146 157.49 220.086C158.353 222.087 157.977 223.158 157.079 224.557C155.839 224.032 156.677 223.785 155.309 222.842C154.121 223.879 153.227 223.819 151.94 224.446C153.308 224.476 153.924 224.186 154.788 224.885C153.432 225.802 135.408 225.811 132.275 225.93L110.172 227.355C112.84 224.753 140.578 224.74 146.239 224.582L143.263 223.815C140.069 223.435 138.419 222.586 135.927 224.42L134.785 222.893L132.643 223.563L133.255 221.481L137.889 221.69C137.56 221.166 137.684 220.935 136.855 220.389C134.255 218.666 102.88 223.699 98.5998 224.143C93.8269 224.638 88.9772 224.25 84.3826 224.723C83.2591 231.092 90.4401 230.456 94.5725 233.003C96.2304 234.022 96.4339 233.792 98.9623 233.694C117.172 232.99 106.932 233.08 120.509 235.477C132.458 237.589 133.386 237.606 144.946 234.978C144.189 236.104 142.808 236.74 141.355 237.201C139.892 237.665 138.584 237.729 137.319 238.297L149.524 239.713C148.721 241.351 143.214 240.276 141.423 240.101C138.768 239.837 136.096 239.419 133.471 239.035C119.437 236.983 105.327 236.096 91.1468 234.85C88.9725 234.658 88.642 234.918 86.9144 235.008C85.2736 235.093 85.8751 234.295 83.3023 234.487L82.0659 237.209C80.6936 236.864 78.8728 237.316 77.7907 236.42C79.4379 235.516 78.8997 236.083 80.4294 235.899C82.1612 235.686 81.1399 237.098 82.0792 234.773L81.4806 234.462C79.8864 233.903 78.2798 234.138 76.5176 233.924L75.8827 235.575L75.0584 233.89C72.6887 234.317 60.8482 235.178 59.0693 234.359C59.4429 233.323 58.9354 233.229 62.2564 232.952C66.5885 232.594 71.0282 233.553 75.2923 232.564C75.4753 230.798 75.6181 229.121 75.8746 227.368C76.034 226.28 75.7382 223.67 76.2953 223.209C78.8121 222.343 79.2879 223.311 81.6461 223.273C84.3925 223.226 81.9543 222.744 84.1578 223.2C85.4155 223.465 84.8482 223.533 86.569 223.503C90.5449 223.439 94.2942 223.708 98.1697 223.29C105.293 222.514 112.235 221.127 119.559 220.334C129.549 219.255 156.021 218.064 166.171 218.133C166.301 217.127 166.209 216.105 165.901 215.138L164.495 213.24C162.875 213.44 161.652 213.44 160.395 212.651C160.904 211.278 160.357 212.515 161.259 211.807L162.635 210.685C165.252 208.031 161.16 211.568 163.259 210.019L164.91 211.845C166.004 210.757 165.162 211.743 165.816 210.211C165.995 209.785 165.987 209.759 166.205 209.294H166.207ZM320.049 110.798C320.195 111.481 320.066 115.614 319.878 116.531C319.626 117.768 317.847 119.138 319.053 121.219C319.912 119.743 319.357 119.185 320.703 118.238L320.844 118.916C320.84 118.976 320.831 119.104 320.827 119.172L319.887 121.915C319.421 123.271 318.955 124.589 318.519 125.92L310.751 149.028C309.028 153.682 301.003 178.235 300.058 179.651C299.922 178.419 300.242 176.247 299.272 175.616C298.323 176.67 298.648 178.329 298.588 179.988C296.732 181.929 297.707 180.069 297.1 183.695C296.121 183.951 297.459 182.637 295.792 183.695C295.535 185.043 295.664 186.216 295.437 187.325C294.945 189.757 295.326 187.577 294.342 188.793L293.026 193.421C293.026 193.366 293.06 193.592 293.111 193.66C294.428 193.963 293.932 192.184 295.236 190.422C296.519 188.686 296.142 189.484 296.309 185.641L297.912 186.571L290.328 208.821L287.891 209.324C287.806 209.349 287.626 209.576 287.566 209.478C287.506 209.379 287.34 209.571 287.25 209.644C290.02 211.781 294.642 208.795 295.039 214.4L286.592 213.257C286.818 209.089 285.775 210.036 287.011 206.035L320.049 110.798ZM333.901 80.5628C330.1 80.7163 330.72 80.2812 329.681 83.0667L320.879 108.537C320.306 111.033 320.767 109.305 320.985 111.25C321.242 113.545 320.772 115.307 321.272 117.726L329.54 93.3087C327.112 93.7737 329.134 93.4879 327.385 94.2003C326.676 91.3849 327.159 94.5415 328.557 89.4439L330.181 84.773C330.917 86.1423 330.605 87.7249 330.652 89.4909L333.901 80.5628ZM335.542 76.088L339.219 75.896C340.506 75.9088 338.933 75.9984 340.138 75.9472C340.215 75.9472 340.339 75.9429 340.408 75.9344C340.476 75.9259 340.596 75.9045 340.66 75.8917C344.619 75.1879 345.948 75.8064 346.196 73.1147L341.998 73.665C340.356 73.8655 343.558 73.5627 341.562 73.7248L340.001 74.0532C336.945 75.6785 341.998 73.665 339.198 74.5267C338.035 73.2427 338.603 73.1489 336.415 73.2982C335.842 73.3027 335.281 73.4602 334.79 73.7546C334.7 73.8015 334.593 73.8826 334.516 73.9295L333.973 74.3604C333.926 74.2751 333.798 74.5224 333.815 74.5523L333.067 73.1318C332.618 73.9721 332.969 73.6693 332.605 74.3987L331.956 75.4865C330.617 78.1782 333.439 77.5469 327.385 79.1422C322.841 80.3409 324.624 79.1763 323.589 80.8016C322.563 80.4219 323.465 80.7291 322.64 80.0935C322.076 79.6541 322.811 79.9143 321.909 79.5304C321.336 81.0916 320.69 81.2879 320.926 82.542C323.127 83.0112 327.009 81.3561 329.596 81.0234C325.68 92.5238 321.203 104.016 317.322 115.644C309.699 138.487 301.341 161.326 293.513 184.169C291.606 189.744 285.442 204.862 285.454 210.062C285.454 211.683 285.698 213.005 285.044 214.328C283.189 218.09 284.651 218.273 283.227 219.105C283.129 219.161 282.791 219.365 282.68 219.425L279.097 220.342C275.801 220.475 265.865 219.016 264.083 219.783C263.206 220.163 263.946 219.63 263.463 220.355C265.028 221.336 271.483 221.417 273.702 221.473C276.297 221.537 282.821 222.275 283.334 220.223C283.637 225.295 282.611 224.454 287.075 226.468C289.772 227.688 287.836 226.434 291.538 226.856C294.826 227.231 305.505 229.108 307.613 228.183C306.121 226.255 293.821 226.148 290.615 225.512L289.794 223.205C287.395 224.262 287.639 225.069 284.903 224.369C285.514 221.097 285.985 218.009 285.497 214.387L298.259 215.578C310.605 218.013 315.381 216.546 325.248 217.399C326.74 217.527 331.661 218.18 333.302 217.774C334.756 217.416 334.23 216.077 333.482 215.061C332.93 216.008 333.623 214.882 333.123 215.808C332.691 216.605 333.11 216 332.657 216.541C330.793 216.597 329.463 216.921 328.095 216.635C321.947 215.343 325.004 216.456 321.524 216.58C317.048 216.738 299.635 215.381 296.185 214.178L296.134 212.677C300.268 212.57 311.486 214.933 314.594 213.351C313.316 212.638 311.631 212.724 310.002 212.608C304.774 212.237 301.64 212.412 296.177 211.103C296.476 209.955 296.792 210.22 297.211 208.765C294.89 208.842 294.449 209.524 291.252 209.431L312.999 145.108C314.727 139.831 334.414 83.6085 334.533 79.8973L333.097 79.3214C333.05 79.3086 332.015 79.219 331.866 79.1848C333.08 78.6713 334.332 78.252 335.611 77.9307C336.141 77.8241 337.184 77.7388 337.624 77.6364C339.553 77.2056 338.249 77.8966 339.142 76.9752C337.244 76.2671 334.371 77.0691 332.481 77.5084C333.242 74.7144 333.589 77.0307 335.128 74.7699C335.624 75.286 335.166 74.757 335.371 75.4523C335.504 75.896 335.329 75.7254 335.542 76.088ZM427.01 236.97C425.839 236.586 426.172 236.987 425.779 236.006C429.118 234.816 439.908 236.637 443.957 237.094C446.107 237.341 459.694 238.403 461.241 239.713C460.463 241.108 461.019 240.31 459.215 240.733L491.745 242.597C490.864 243.416 489.573 243.224 488.043 243.198L476.089 242.836C471.151 242.682 466.295 242.302 461.391 241.974C432.35 240.024 415.275 238.783 385.823 238.988C381.616 239.018 374.058 238.51 370.325 239.009C371.655 239.884 371.886 239.197 372.497 240.536L370.539 241.854C382.321 242.545 395.062 243.19 406.844 242.516C411.76 242.238 439.002 239.538 440.477 243.01C439.532 243.458 437.061 242.58 435.714 242.464C431.563 242.115 421.841 242.895 417.553 243.185C409.687 243.719 401.577 244.043 393.655 243.996C388.777 243.966 347.74 243.377 346.376 242.187C347.432 241.372 349.676 241.637 351.237 241.598C354.456 241.522 352.853 241.287 354.913 240.511C354.913 240.511 357.761 243.224 367.046 240.314C367.294 239.103 367.046 239.372 367.038 239.022C367.038 238.898 366.999 238.544 367.008 238.425C367.016 238.348 367.021 238.224 367.033 238.147C367.046 238.071 367.076 237.955 367.102 237.883L367.666 236.855C367.683 236.825 368.089 236.126 368.102 236.108C368.156 236.189 368.202 236.275 368.239 236.364L368.705 237.064C369.71 237.998 376.883 237.38 378.405 237.375C382.39 237.358 386.37 237.473 390.359 237.52L436.527 238.975C443.837 239.321 451.225 240.391 458.33 240.404L427.01 236.97ZM395.305 87.503C396.964 87.1831 396.635 88.1558 396.301 86.7353C392.466 85.5963 387.64 85.5706 384.173 84.4104C375.032 81.3476 373.433 79.7223 361.065 76.2159C356.645 74.9618 352.562 74.7699 351.391 69.8643C354.798 70.1501 369.316 76.1903 374.28 77.8412L395.579 85.4342C398.17 85.7285 396.135 85.7883 397.135 85.0461C393.604 84.291 388.29 81.7784 384.408 80.4774L358.744 71.1696C354.9 69.6126 353.314 70.0648 349.719 68.1622C349.001 67.7783 349.732 68.0172 349.043 67.8509L345.846 67.1172C344.409 67.1513 346.585 68.6997 338.069 68.657L337.282 67.1427C336.436 68.7551 337.577 65.799 337.073 67.8167C336.872 68.6187 337.137 68.2006 336.778 68.7594C332.943 67.8807 326.714 65.3425 322.208 63.9562C317.121 62.3907 312.226 60.7142 307.224 59.1828C300.559 57.1438 282.654 50.5661 277.4 49.939L277.84 47.482C284.89 49.0432 333.905 67.5181 336.098 66.3066C331.793 63.8581 285.155 49.7642 278.216 46.535C278.499 40.5715 283.287 31.7968 282.282 26.4263C281.581 27.45 280.859 32.4282 280.35 34.2326C279.614 36.8389 278.64 39.4453 277.986 42.1455C276.6 47.8915 275.668 53.3388 274.356 59.1402L267.811 88.0321C266.515 91.2015 266.216 90.3141 266.87 92.1058C268.294 91.3209 267.853 91.8925 268.666 90.0498C269.004 89.2527 269.291 88.4349 269.525 87.6012C271.056 82.3458 275.391 58.5942 277.259 50.7922L334.162 68.5248L332.913 71.3957C334.888 71.6303 333.717 70.2482 335.624 69.6681C336.731 69.3268 338.638 69.7704 340.074 69.6681L340.493 70.4444C340.612 70.7571 340.747 71.0633 340.899 71.3615L341.216 70.7771C341.258 70.7003 341.322 70.5766 341.37 70.4913C342.237 68.9514 341.579 69.3139 344.341 69.0708L345.021 71.9289C345.923 70.9307 345.277 71.852 345.576 70.4401L345.726 69.3822C345.734 69.203 345.739 69.1434 345.752 68.832L347.932 68.6784C347.179 70.278 347.004 70.1117 347.492 71.063C348.526 70.0307 348.53 69.2798 348.949 68.2219L349.95 69.6809C352.147 73.6779 351.057 73.7887 353.404 74.821C354.175 75.161 354.971 75.4421 355.785 75.6614L354.499 81.258C353.691 80.0466 353.789 77.7985 353.16 77.1586C351.993 76.2159 354.541 77.4018 352.622 77.197C351.168 77.0392 351.758 76.5529 350.104 76.3225C350.382 78.5919 351.664 77.4445 352.647 80.4006L353.272 82.1325L355.738 82.4439C356.666 80.7078 356.529 78.2507 356.546 76.1605C358.175 76.489 359.492 77.2696 361.578 77.79C371.193 80.1874 385.058 86.0442 389.906 86.9101C391.462 87.1874 394.01 86.8845 395.305 87.503ZM237.102 209.674C237.004 208.095 237.102 208.548 237.765 207.494L239.099 205.792L240.031 208.24C240.098 208.353 240.155 208.472 240.202 208.594C240.569 206.312 244.263 198.822 246.106 198.054C246.593 199.282 244.199 204.243 243.451 205.741C242.036 208.59 241.232 208.795 239.86 210.817C239.808 210.894 239.74 210.996 239.689 211.077L239.06 212.527C239.954 213.244 241.057 213.406 242.395 213.577C243.083 212.749 243.207 211.815 244.045 211.094C244.883 211.832 244.695 212.51 245.229 213.773C245.734 214.963 245.165 213.347 245.64 214.605C244.344 215.373 243.891 215.624 241.92 215.228C239.885 214.818 240.484 214.511 238.611 213.538L238.808 220.142L243.707 221.178C243.502 223.755 242.613 222.71 243.301 225.657C244.652 226.28 245.986 225.171 245.122 229.023C247.397 229.16 248.431 229.437 247.713 232.163C245.332 231.642 246.777 231.258 243.532 231.702C241.796 231.937 240.099 231.894 238.368 232.052C234.853 232.376 231.638 234.53 230.394 231.237C232.459 231.199 232.814 231.467 234.618 230.994C238.132 230.072 243.16 230.87 245.165 230.153C242.399 228.439 239.389 230.068 236.623 229.113L236.324 229.637C236.247 229.753 236.341 230.23 234.964 230.742C234.002 230.969 233.027 231.138 232.044 231.246C230.151 231.339 231.254 231.118 229.813 231.331C228.428 231.536 228.393 231.6 227.03 231.284L227.072 230.533C227.62 227.901 228.603 226.869 230.441 224.885C231.702 225.551 230.45 224.971 231.104 225.44C232.117 226.156 231.425 225.32 232.857 226.122C232.301 226.997 231.797 227.487 231.305 228.724C235.234 228.387 233.592 227.568 237.773 228.183C238.158 228.242 243.553 228.042 244.242 227.769C244.041 227.108 242.741 226.378 241.984 225.551C235.336 225.261 233.301 226.481 232.399 224.13L240.787 224.079L241.929 222.13L237.324 221.4L237.192 219.532C237.114 219.506 237.034 219.489 236.952 219.481L235.452 219.118L235.49 213.722C232.788 213.974 230.488 214.319 227.799 213.999C224.238 213.573 224.088 212.813 221.968 212.122L221.617 216.648C222.566 217.096 222.793 216.269 223.268 217.275C223.729 218.256 223.216 218.346 222.703 218.73C220.724 220.21 221.074 217.953 220.399 222.262C221.499 222.053 222.622 221.996 223.738 222.091L225.777 223.141C223.362 223.934 228.013 222.74 225.08 223.328C224.671 223.373 224.26 223.386 223.849 223.367C221.827 224.045 224.242 223.61 222.293 224.561C221.476 224.958 221.557 224.723 221.019 224.962L217.945 226.92C214.952 228.882 219.984 226.233 217.081 227.564L216.47 225.99C216.437 225.884 216.378 225.787 216.299 225.709L218.039 224.898C218.112 224.864 218.253 224.791 218.313 224.766L218.83 224.476C216.154 221.276 213.477 224.595 212.349 222.002C213.935 221.131 216.53 221.724 218.488 221.596C219.168 220.312 219.223 220.513 219.792 219.532L218.885 219.139C217.535 218.674 216.709 218.93 216.154 217.531C217.188 216.904 218.035 216.908 219.497 216.789C219.822 214.938 220.403 212.229 220.42 210.83C224.003 210.535 234.511 210.702 237.448 211.986L238.645 210.058C238.587 210.042 238.526 210.034 238.466 210.036L237.102 209.674ZM342.49 86.0826L342.16 87.7291C342.144 87.6254 342.113 87.5248 342.066 87.4305C341.836 88.096 341.883 86.9656 341.823 86.8845C341.156 86.0271 342.237 86.4622 340.882 86.1636C338.975 87.4092 339.565 88.1131 339.997 90.327C341.596 90.1052 341.54 89.2946 341.673 89.1155C341.733 89.043 341.784 88.8937 341.857 88.7913C340.391 99.8736 338.052 111.536 336.188 122.538L334.063 135.305C333.465 137.19 332.845 136.469 331.545 137.677C329.626 139.451 329.655 141.759 328.758 144.766C328.33 146.191 327.762 146.485 327.133 148.123C326.607 149.497 326.184 150.892 326.885 152.176C329.506 150.145 329.155 141.456 333.495 138.193C333.153 141.435 333.016 140.407 332.614 141.431C332.593 141.482 332.554 141.597 332.533 141.652L332.139 142.847C331.378 144.331 331.036 143.653 330.369 145.931C330.261 146.471 330.099 147 329.886 147.509C327.219 153.993 329.074 149.561 328.963 151.83C328.963 151.856 328.381 153.861 328.313 154.258L328.223 156.224C328.181 156.919 328.219 156.749 328.121 156.928C327.069 154.748 328.189 153.835 326.885 152.573C325.239 154.194 326.821 157.811 327.608 159.479C329.493 163.472 330.053 161.215 328.895 166.709C328.433 168.902 321.054 212.762 321.268 214.558C321.392 215.569 321.289 215.053 321.528 215.586C322.268 214.861 324.235 201.731 324.645 199.615C327.595 184.403 330.237 166.163 332.875 150.487C335.23 136.474 338.253 115.085 340.985 101.776L342.973 89.3715C343.135 88.0491 343.588 86.347 342.96 85.1825L342.626 85.7755C342.596 85.848 342.52 85.9888 342.49 86.0826ZM431.11 197.145C441.139 199.598 443.521 193.839 439.553 188.149C438.371 188.074 437.186 188.259 436.082 188.692C434.979 189.124 433.985 189.794 433.171 190.653C430.986 192.995 432.324 194.893 431.11 197.145ZM420.935 168.778C418.455 168.044 422.367 168.701 420.135 168.492C418.682 173.091 421.191 168.492 420.888 172.933C420.717 175.462 419.806 175.066 420.345 177.706C417.622 178.432 414.15 176.29 406.493 177.595C404.694 177.903 403.706 178.235 403.467 179.976C407.511 178.854 412.91 178.026 417.438 178.973C420.798 179.677 418.708 179.02 421.97 179.003L419.682 199.615C419.917 199.572 420.076 199.299 420.135 199.389C420.195 199.479 420.383 199.214 420.465 199.15C422.273 197.649 421.32 197.9 422.94 197.738C424.419 197.589 425.907 197.909 427.361 198.203C434.355 199.619 435.308 197.883 436.642 199.747C437.3 200.673 436.031 199.713 437.343 200.652C439.622 199.415 437.356 200.336 438.583 198.933C439.263 198.152 442.225 197.819 442.46 193.174C442.572 190.96 442.046 189.586 440.956 188.341C438.459 185.496 440.588 187.125 437.206 185.756C437.108 184.642 428.1 165.28 423.551 170.105L426.035 171.056C427.425 171.615 430.037 175.403 431.024 176.815L436.582 185.76C433.008 185.513 424.954 183.58 423.137 186.993C424.5 187.901 427.459 187.04 429.088 186.933C431.255 186.792 433.337 187.052 435.496 187.232C434.641 188.285 428.335 190.363 430.494 196.787C426.595 196.139 425.591 195.657 421.149 196.164C421.234 194.991 422.585 180.278 423.167 179.11L423.697 178.342L421.619 177.105C422.132 172.801 420.828 172.412 422.795 168.987C421.995 168.612 421.807 169.038 420.935 168.778ZM178.947 130.101C179.015 133.176 179.272 134.725 176.228 135.693C173.509 136.559 170.657 135.992 167.985 135.335C143.181 129.248 137.704 132.814 119.909 130.182C107.331 128.326 100.486 126.897 87.4052 128.51C81.4734 129.239 76.7912 129.661 70.6601 129.213C67.5469 128.987 56.2412 128.736 54.47 127.678C55.1929 127.034 54.234 127.546 55.3631 127.209C56.6362 126.825 61.7472 127.217 63.0811 127.315C65.6813 127.503 68.5302 127.682 71.0757 127.874C89.6364 129.269 85.8849 123.8 119.646 128.851C130.904 130.536 141.706 129.009 153.016 130.873C158.201 131.726 162.797 132.75 167.821 133.808C179.902 136.346 177.482 133.411 178.585 129.047C180.077 129.457 182.348 131.295 184.34 132.14C189.034 134.136 188.743 130.941 190.8 130.685C189.641 137.596 179.885 130.395 178.945 130.101H178.947ZM399.935 80.7845C398.913 78.4085 399.734 74.1385 399.461 71.2464C390.184 67.8039 380.436 64.1013 370.689 60.3944L349.073 52.4387C332.682 46.3728 315.304 39.3728 298.361 33.4307C295.976 32.5946 293.517 31.6902 291.11 30.8029C289.452 30.1886 284.86 28.0302 283.749 28.8237C286.998 31.0546 350.775 53.2406 352.741 54.772L353.062 62.4845C353.071 62.5954 353.148 63.4657 353.156 63.4913C353.725 65.9355 352.387 61.5759 353.366 64.0927L353.678 64.6601C354.37 63.069 353.532 57.3572 353.447 55.0665C356.833 55.7788 354.841 54.8446 356.157 64.3487C356.226 64.8563 356.311 65.6924 356.418 66.1488L356.974 67.484C357.372 65.8928 356.162 59.1402 356.465 55.9707L395.72 70.8411L398.469 71.7625C398.657 77.7559 398.097 77.0477 398.828 84.3379C399.174 87.7803 398.751 84.5427 397.246 87.068C397.661 87.0723 399.136 87.149 399.465 87.1063C400.653 86.9485 400.059 86.6457 401.474 86.5134C401.192 89.4909 401.025 87.7761 399.234 89.1411C399.084 89.7895 398.905 91.3209 398.768 91.7347C398.409 92.8438 398.807 91.8541 398.362 92.5451L397.588 93.4836C400.333 93.8078 399.379 94.1918 400.153 91.1119C400.465 89.8706 399.871 90.7109 400.658 89.9047C402.086 89.572 403.035 88.9278 402.851 86.9059C402.659 84.8199 401.355 85.3872 400.017 84.8412C399.726 83.0795 399.503 82.4439 399.935 80.7845ZM58.9863 227.167C60.0252 227.283 61.2522 227.355 61.4659 226.037C61.79 224.024 61.8716 225.802 59.4664 223.614C58.204 222.467 59.2202 222.983 57.5345 222.279C57.5302 222.582 57.475 223.38 57.5003 223.665C57.5655 224.971 58.0925 226.212 58.9876 227.167H58.9863ZM69.4785 154.863C67.0698 153.413 61.3471 156.855 60.0038 157.935C45.198 169.836 46.8512 193.694 51.7335 210.697C53.0241 215.194 53.8527 216.623 56.0574 219.997C57.7102 222.526 55.8949 222.757 56.284 225.704C56.6555 228.52 56.4618 225.542 57.319 228.221C58.0133 230.388 56.7842 232.606 65.1156 231.037L64.509 226.809C63.6296 227.961 64.3128 229.049 63.5197 230.03L62.5706 225.653C64.9121 226.523 71.2492 228.11 73.141 225.299C71.6849 224.373 70.3438 225.61 67.2622 225.559C65.2535 225.58 63.2838 225.005 61.6023 223.908C53.0438 218.457 50.2607 202.52 49.3107 192.7C48.147 180.671 51.126 167.469 59.5759 159.577C63.0118 156.365 67.2712 156.501 69.4785 154.863ZM375.93 210.702C374.357 211.879 376.007 210.68 375.156 211.734C374.776 212.208 374.447 212.775 373.596 213.022C373.521 213.041 373.445 213.055 373.369 213.065C372.557 213.18 373.215 213.039 372.219 212.89C372.061 212.869 370.073 212.591 369.299 212.532C367.76 212.408 367.055 212.34 366.341 213.351L371.514 214.392C372.766 214.673 371.424 214.127 372.758 214.588C372.053 215.049 371.505 214.985 370.402 214.831L361.634 213.935C362.869 213.654 363.058 213.509 363.63 212.378L356.816 212.583C355.687 213.223 356.752 212.937 356.149 213.969C351.818 213.47 351.202 213.24 350.377 215.053C347.034 215.057 337.471 213.675 335.175 215.002C335.936 215.612 334.743 215.194 336.239 215.518C336.758 215.596 337.284 215.628 337.808 215.612C336.034 217.297 336.449 216.362 336.778 217.152L351.908 216.96C354.473 216.273 352.878 217.152 353.302 215.876C350.168 216.414 347.727 216.081 344.435 215.919C345.482 216.29 349.36 216.102 350.741 215.833L351.382 215.646C351.51 215.607 351.839 215.454 351.963 215.415C353.678 214.886 354.4 215.313 356.542 215.364C361.061 215.471 365.623 215.889 369.667 216.008C365.623 216.307 362.51 215.97 358.641 215.778C357.004 215.697 355.931 215.573 354.721 216.234C355.785 217.378 356.521 217.105 358.209 217.105C361.151 217.1 368.44 217.267 370.941 216.925C371.787 216.81 371.792 216.699 371.852 216.687C373.468 216.264 373.604 216.537 375.785 216.9C379.44 217.514 377.7 216.461 380.449 215.565C379.675 213.858 380.753 215.313 379.171 214.588C379.158 213.585 379.239 212.66 379.243 211.687L378.816 209.068C377.448 210.39 378.102 213.79 377.773 215.411C377.646 215.415 377.524 215.462 377.426 215.543C377.148 216.128 374.459 215.403 374.011 215.304C374.562 215.074 377.529 214.596 375.93 210.702ZM213.794 229.032C214.29 230.277 214.469 229.454 215.239 230.759L203.786 231.096C205.171 232.483 206.329 231.787 209.031 231.736C211.049 231.702 213.084 231.689 215.106 231.578L215.833 234.138C210.63 233.745 207.082 233.127 201.588 233.502C198.792 233.694 188.857 233.575 187.309 234.773C189.695 237.009 199.224 234.534 202.828 234.765C203.307 236.126 202.725 235.622 203.653 236.859C204.068 236.386 203.833 236.808 204.166 235.976C204.299 235.643 204.371 235.166 204.478 234.799C208.121 234.458 213.73 235.451 217.646 235.635C222.438 235.857 227.273 235.597 232.104 235.75C236.187 235.882 256.875 237.938 258.764 236.829C256.259 234.799 222.695 234.381 216.919 234.193L216.91 231.604C217.218 231.591 218.274 231.54 218.454 231.493C219.398 231.241 218.907 231.348 219.582 230.926C220.779 230.175 219.176 230.909 220.613 230.269C221.104 230.084 221.61 229.942 222.126 229.842L221.78 228.11C221.074 228.144 218.505 230.32 218.501 230.32C216.889 231.356 217.205 230.469 216.945 230.243L219.364 229.283C218.732 228.584 218.868 228.584 216.201 228.503C214.961 228.464 215.632 228.814 213.794 229.032ZM131.697 162.981C131.03 163.45 131.71 163.186 130.71 163.378L116.334 161.77C111.072 161.266 106.059 160.712 100.864 159.952C97.3655 159.445 74.1666 156.907 71.7682 155.571L71.2223 155.153C76.276 155 80.6192 156.608 85.3527 156.634C87.9554 156.646 90.5769 156.57 93.1955 156.591C94.8021 156.604 98.5946 155.985 99.6378 157.44L93.5148 157.9L106.144 159.649L105.474 157.295C104.558 159.01 105.59 158.434 103.911 158.476C103.398 157.312 103.9 154.484 104.208 153.046C104.53 151.54 105.016 149.233 105.972 148.605C106.582 149.787 106.165 149.825 106.646 150.798C106.92 151.023 107.164 151.281 107.373 151.566L107.621 159.85C115.729 160.626 123.847 161.509 131.698 162.981H131.697ZM143.287 164.389C142.774 162.405 142.197 163.446 142.92 161.364C144.741 162.277 143.352 161.249 144.142 163.339C144.685 164.777 144.001 164.286 145.562 164.674C146.28 164.854 149.469 165.255 150.264 165.331C152.338 165.528 156.468 165.233 158.652 165.685L160.482 166.598L157.225 166.62C160.828 166.253 165.057 169.375 167.442 166.483C167.53 166.41 167.592 166.312 167.622 166.202C167.651 166.09 167.71 165.988 167.793 165.907C168.682 166.551 168.434 166.257 169.033 167.174C169.08 167.085 169.12 166.993 169.152 166.897L170.401 165.216L171.811 166.777C173.684 165.758 170.973 167.251 172.705 166.057C173.303 165.647 172.316 165.877 173.462 165.681L173.419 167.925C170.867 168.134 171.846 167.678 170.392 166.876L170.311 168.718L176.031 169.567C176.134 168.543 176.082 167.509 175.877 166.5C175.334 164.576 175.505 166.718 174.979 164.926C176.724 164.41 180.781 163.267 182.14 163.924C181.529 165.865 181.871 164.175 177.489 165.984L177.57 169.844L193.136 172.059C192.324 172.681 193.26 172.25 192.072 172.528C191.684 172.626 191.281 172.656 190.883 172.617L177.523 171.222C174.945 171.022 167.036 169.243 163.21 168.544C158.233 167.639 153.099 166.807 148.076 165.98C143.907 165.293 135.827 165.673 132.685 163.924C133.506 163.412 133.673 163.553 134.981 163.681C135.797 163.766 136.759 163.924 137.524 164.005C139.401 164.209 141.402 164.363 143.287 164.389ZM31.8038 178.751C25.984 181.174 24.536 182.275 22.3984 188.742C19.3259 198.045 18.4871 212.532 25.6548 219.485C30.7816 224.454 39.0302 220.705 40.7531 223.239C38.9519 224.412 33.4425 223.887 31.16 223.435C25.716 222.356 22.3608 219.314 20.3314 214.072C16.9386 205.301 19.4011 187.296 24.996 181.029C26.1995 179.686 30.0407 177.152 31.8038 178.751ZM38.3979 173.01C39.2615 171.184 39.2657 170.928 40.568 170.062C40.3008 172.323 33.5601 183.392 34.5207 201.428C34.7605 205.933 40.824 215.684 45.3498 218.734C48.7776 221.042 51.164 218.969 52.6073 220.769C50.825 223.081 46.6383 221.268 45.0471 220.274C39.7458 216.972 37.825 212.203 35.3988 206.82C34.1278 204 34.5716 206.142 33.3062 204.29C33.2266 199.598 33.3399 194.031 33.9324 189.518C34.4921 185.257 35.9751 180.859 36.4057 177.207C34.0706 177.369 34.2232 177.617 32.4665 178.427C32.8564 176.384 33.5314 176.354 36.8469 176.469C37.3954 175.13 37.8549 174.157 38.3979 173.01ZM198.035 216.742C197.805 218.124 197.899 219.297 197.056 220.347C197.021 220.245 196.975 220.148 196.92 220.057L196.655 219.468C196.531 219.22 196.74 218.551 195.419 218.261C195.033 218.232 194.646 218.234 194.26 218.269C193.953 220.547 193.782 219.788 194.701 221.443C195.569 223.013 194.773 221.426 194.675 223.559C196.197 223.051 195.068 222.769 196.749 222.535C198.33 222.313 198.014 223.188 199.074 222.906C199.442 222.262 200.045 223.798 199.134 221.972C198.805 221.306 199.066 221.823 198.347 221.217C199.232 219.865 198.976 218.802 199.07 216.938C202.807 215.701 206.116 212.267 207.851 208.897C210.11 204.693 211.324 200.009 211.391 195.238C211.566 187.872 207.821 175.232 201.229 173.261C198.536 172.455 199.818 173.249 199.356 173.637C206.949 176.094 211.117 185.483 210.532 195.661C210.237 200.827 209.061 204.815 206.812 208.684C204.29 213.027 201.404 214.481 198.035 216.742ZM360.475 232.508L341.357 233.05C337.654 232.986 328.42 232.632 324.79 233.08C322.956 233.302 323.397 232.905 322.58 233.95C324.966 234.978 355.465 235.379 359.218 233.728C360.663 233.088 360.082 233.186 360.475 232.508ZM393.655 198.395C395.271 197.12 396.177 192.722 396.507 190.397C395.237 191.532 393.446 193.43 392.056 194.761L393.655 198.395ZM398.935 187.471C396.712 188.571 394.942 190.435 393.347 192.026C389.5 195.861 390.273 196.638 387.507 196.335C387.943 197.96 388.144 197.418 387.067 198.536C386.054 199.589 385.301 199.014 385.866 200.148C386.635 200.451 387.524 199.346 388.204 198.51C390.573 198.937 387.721 198.365 389.508 198.992C390.573 199.368 388.597 199.146 390.863 199.419L391.385 196.975L392.659 200.17C391.411 201.62 389.012 203.386 388.465 204.61C389.953 204.73 390.727 203.714 391.787 202.853C393.924 201.108 399.097 196.864 399.422 194.07C397.883 194.897 398.187 195.639 396.477 196.591C396.819 195.034 397.618 192.581 397.567 191.028C397.486 188.435 396.648 190.845 398.422 188.546C398.956 187.854 398.614 188.311 398.935 187.471ZM42.045 238.954C36.8058 242.238 28.143 239.623 21.9179 238.497C16.6847 237.55 12.2393 237.068 6.89961 235.759C3.96213 235.042 3.56753 235.251 2.76123 233.95C6.53708 232.282 30.3426 240.285 37.551 239.325C38.3565 239.177 39.1498 238.968 39.9241 238.702C40.3267 238.545 40.7631 238.493 41.1913 238.553C42.4358 238.711 41.2584 238.199 42.0463 238.954H42.045ZM323.951 239.713C321.753 241.901 307.337 237.887 301.758 237.584C299.663 237.473 295.2 238.318 293.883 237.657C296.051 233.523 314.306 237.721 317.004 237.785C319.252 237.836 322.989 237.798 323.951 239.713ZM42.3871 177.139C41.8202 179.472 39.2969 179.754 38.5766 187.304C36.9909 203.902 42.1703 205.536 48.4852 214.4C49.1966 215.398 49.3402 215.322 49.371 216.482C47.513 216.345 44.0386 211.389 42.7966 209.75C38.8635 204.572 37.2769 200.11 37.2718 192.756C37.2718 189.693 37.4954 186.063 38.232 183.12C38.7399 181.093 40.1477 177.438 42.3871 177.139ZM234.471 154.722C232.539 152.231 235.527 138.415 236.904 136.192C237.848 134.674 237.639 136.559 237.673 134.447L236.81 127.533C236.241 125.63 235.459 121.893 235.54 119.82C235.608 118.041 235.89 118.187 236.211 117.854C237.241 119.244 237.207 122.653 237.66 124.611C238.152 126.752 238.785 129.043 239.392 130.971C239.204 131.909 239.097 131.517 238.969 131.747C238.101 133.309 238.78 132.908 239.075 136.491L237.635 137.152C237.267 140.006 236.284 142.915 235.69 145.769C235.215 148.055 235.065 153.174 234.471 154.722ZM345.164 164.397L342.022 169.627C341.744 170.075 341.389 170.745 341.09 171.201L341.906 171.538C341.949 171.555 342.077 171.594 342.12 171.606C342.163 171.619 342.3 171.67 342.334 171.679C342.407 171.696 342.479 171.72 342.548 171.751C341.53 173.632 340.504 173.982 341.966 176.047C342.005 176.102 342.116 176.2 342.18 176.282L339.85 181.204C342.539 181.801 342.296 181.409 344.527 181.157C345.045 179.66 345.457 178.127 345.758 176.572C345.904 175.838 346.058 174.767 346.139 174.025C346.327 172.221 346.545 172.519 345.78 171.427C344.638 171.948 344.681 172.728 344.352 175.667C344.204 177.334 343.922 178.985 343.51 180.607L341.885 179.924C345.361 174.225 341.671 176.222 343.86 172.242C345.404 169.439 344.095 169.755 344.514 168.309C344.72 167.588 345.181 167.528 345.604 166.483C345.715 166.166 345.799 165.841 345.857 165.511C345.861 164.973 346.566 165.6 345.429 164.171C345.371 164.187 345.317 164.215 345.271 164.254C345.225 164.293 345.189 164.342 345.164 164.397ZM169.865 238.834L186.11 237.657C182.882 235.063 161.455 239.257 157.924 236.898C156.765 236.121 157.915 236.292 156.667 236.019C154.504 237.708 155.714 236.898 154.692 238.903C159.194 238.856 152.238 237.874 161.562 238.702C164.324 238.919 167.097 238.963 169.865 238.834ZM379.494 139.886C380.823 138.466 382.059 136.696 383.35 136.32C384.487 137.877 383.205 136.926 383.359 138.056C383.491 139.008 383.735 138.389 384.137 139.212C381.516 141.435 384.992 139.131 381.824 143.346C382.952 142.621 382.739 142.412 384.013 142.288C384.261 143.866 381.576 146.477 378.16 144.928C377.336 144.588 376.536 144.192 375.766 143.742C376.129 142.518 376.39 142.633 377.583 141.691C378.269 141.143 378.908 140.539 379.494 139.886ZM401.836 180.031C401.622 178.986 401.703 179.464 401.485 179.067C401.404 179.153 401.352 179.262 401.336 179.378L400.408 185.824C400.036 189.911 398.63 206.099 399.425 208.104C400.045 207.861 400.455 208.343 400.545 205.284L401.802 186.984C401.879 185.606 401.9 184.25 401.917 182.868C401.926 182.335 401.969 181.272 401.93 180.79C401.94 180.534 401.909 180.277 401.836 180.031ZM239.439 185.764C239.426 189.847 238.353 192.641 238.353 196.949L234.155 197.184C234.279 197.606 233.518 198.489 236.604 198.506L243.21 197.708C245.514 197.504 245.155 197.687 245.946 196.058L239.443 196.394L240.841 175.458C240.615 173.172 240.931 174.865 240.332 174.17C238.806 177.16 239.447 182.3 239.439 185.764ZM61.3616 183.84C63.6548 183.201 63.7655 183.41 66.261 183.857C66.7312 185.517 66.5919 185.896 68.0796 186.711C68.3481 185.321 68.2934 184.02 68.9774 182.966C72.5951 183.316 76.8763 195.43 69.9928 197C70.4348 194.816 69.741 196.842 70.8183 195.085C73.4621 190.777 71.7862 185.201 69.2254 183.712C69.5358 186.259 69.4139 187.134 67.5119 188.503L65.8835 186.413L64.7565 188.11C64.1114 187.287 64.5287 187.385 64.6347 185.879C63.1918 185.223 61.7605 185.478 61.3633 183.84H61.3616ZM461.604 229.416C460.878 229.006 461.69 229.074 460.63 229.275C460.454 229.309 459.591 229.701 459.219 229.829C458.144 230.169 457.021 230.335 455.893 230.32C450.352 230.345 451.447 228.784 441.836 230.166L436.834 230.9C435.675 231.322 436.09 230.819 435.808 231.89C437.155 232.44 446.235 231.275 448.881 231.327C453.272 231.42 459.458 232.687 461.604 229.416ZM318.24 230.623C319.668 232.03 317.065 229.224 318.638 231.13L319.523 231.173C320.81 230.371 322.396 230.866 325.235 230.913C327.436 230.951 330.429 231.164 332.169 230.584C330.416 229.39 322.798 229.782 319.942 229.407L320.053 227.483C325.679 227.5 322.832 227.705 323.755 226.946C322.528 226.493 322.819 226.724 321.511 226.592C321.121 226.585 320.734 226.534 320.357 226.438C316.838 225.555 319.412 226.451 314.859 226.472L315.945 230.051C317.082 229.923 317.334 229.731 318.24 230.623ZM44.2408 221.648L46.1749 223.209L45.9419 225.018C45.0351 225.077 44.7658 224.681 44.2536 224.245C42.2058 228.089 44.3041 226.899 43.5978 230.533C41.8522 230.217 39.5586 230.055 37.5514 229.851C33.5327 229.441 33.1971 229.518 32.3977 227.888C36.0743 228.153 38.8314 229.198 42.6795 229.083L41.6432 225.773C39.2893 225.777 36.0709 227.876 33.5785 226.122C35.1928 224.416 39.3406 226.165 41.0891 223.938C42.5683 224.642 41.8492 224.42 42.8466 225.32L43.4913 223.298L45.2288 223.529L44.2408 221.648ZM409.845 192.44C409.275 193.674 408.934 195.001 408.84 196.356L406.254 196.561C405.715 198.109 404.386 201.85 405.194 203.727C406.361 203.424 405.886 204.337 406.369 202.179C407.836 195.661 406.442 198.643 409.956 198.34L410.324 194.961C411.739 196.753 410.653 197.034 413.043 198.033C414.236 196.552 415.809 191.873 414.676 189.531L413.945 190.815C413.629 191.954 413.629 194.129 412.615 195.814C411.277 194.518 411.769 193.361 409.845 192.44ZM412.607 151.604C407.596 152.078 409.554 152.009 409.285 152.803C411.709 153.558 414.107 152.765 418.643 153.818L421.79 154.45C422.076 155.815 421.568 154.995 422.341 157.581L419.768 157.542C420.396 159.812 424.206 159.692 423.474 156.356C422.624 152.474 422.483 154.078 418.896 152.701C417.117 152.014 415.775 151.95 413.851 151.766C413.223 150.875 411.624 147.949 409.477 147.565C409.657 148.994 411.602 150.512 412.607 151.604ZM350.792 152.671C349.42 153.524 349.988 153.639 349.142 154.846C348.368 153.763 348.868 153.528 347.509 152.875C347.342 153.357 347.291 153.776 347.09 154.441C346.743 155.618 346.932 155.324 346.256 156.028C345.234 154.565 345.944 154.023 344.58 153.264C343.597 155.405 344.85 156.497 345.824 158.08C347.291 157.564 347.342 157.367 347.932 156.224L349.522 157.124L350.895 155.874L353.396 156.796C354.862 157.107 355.854 157.218 356.948 156.51C356.67 156.194 356.97 155.93 355.324 155.665C354.687 155.567 353.665 155.554 352.989 155.512L353.43 152.79C351.249 153.835 352.883 154.368 350.741 155.205C351.22 153.328 351.429 153.575 350.792 152.671ZM128.777 222.002C126.318 220.3 117.3 223.708 114.222 223.768C112.272 223.81 111.276 222.45 109.406 223.653C112.484 226.916 122.262 223.96 126.299 222.991L128.779 222.002H128.777ZM140.44 162.277C138.922 161.074 126.433 159.462 123.211 159.15L116.509 159.393C118.317 160.49 126.043 160.75 128.603 161.134C130.903 161.484 139.112 163.322 140.441 162.277H140.44ZM382.642 195.537C386.336 194.752 394.399 184.489 394.681 184.25C395.587 183.478 395.087 184.433 395.818 183.367C396.477 182.407 396.306 180.999 396.224 179.852C391.795 180.223 395.852 182.893 389.863 188.132C388.379 189.429 383.057 193.984 382.642 195.537ZM12.123 227.504L8.73579 226.592C7.28992 230.055 6.86668 230.93 2.99978 231.527C1.78648 231.715 0.999843 231.651 0.000732422 232.299C0.304271 232.547 0.0392112 233.148 2.94206 232.896C7.06377 232.542 7.76961 230.973 9.52586 228.225C17.6799 230.247 12.3847 219.822 10.5579 219.306C10.6861 221.366 13.6954 224.22 12.1209 227.504H12.123ZM399.854 177.126C395.681 178.201 391.287 177.049 386.648 177.566L384.173 181.639C383.185 183.073 381.804 183.465 382.116 186.11C383.643 185.269 383.027 184.711 384.143 183.768L385.571 183.073C385.639 183.034 385.75 182.962 385.814 182.923C386.332 182.612 386.118 182.748 386.554 182.463L386.994 178.534C389.384 178.696 391.659 178.602 394.065 178.675C395.288 178.713 396.519 178.888 397.725 178.696C398.154 178.642 398.57 178.51 398.952 178.308C400.179 177.54 399.585 177.45 399.854 177.126ZM111.129 171.559C110.867 169.631 110.667 169.414 111.448 167.729C112.23 169.179 111.582 168.083 112.03 170.199C112.376 171.832 112.714 171.474 112.589 173.338C109.797 173.125 107.06 171.512 103.802 171.124C101.553 170.855 94.4622 171.077 93.2964 170.514C93.4387 170.352 92.9655 169.955 95.2241 169.682C96.0567 169.611 96.8934 169.596 97.728 169.64C106.503 169.798 103.829 169.972 111.129 171.559ZM343.366 64.6259C344.922 64.6387 344.268 64.7709 345.649 63.9605C346.752 63.3121 346.983 63.679 347.654 64.5321C347.812 63.2652 346.97 64.0458 346.829 62.7277C348.543 62.6255 350.233 63.1638 351.57 64.2378C352.455 64.9032 352.361 64.1354 352.998 66.2299C353.477 67.7996 353.148 68.0641 352.853 68.6485C350.779 66.4516 351.288 64.4937 348.176 63.8112C348.616 64.5705 348.757 64.8649 348.573 66.1616C346.88 66.1147 347.59 65.5261 346.277 65.8503C346.171 65.8758 345.858 66.0421 345.73 66.0677C345.006 66.2362 344.25 66.2216 343.533 66.0251L342.404 65.5388C342.372 65.4947 342.332 65.4573 342.286 65.4288C342.24 65.4002 342.188 65.3811 342.135 65.3724C341.079 65.9782 339.835 67.1043 338.556 65.8928C340.177 64.6515 340.267 66.1233 342.46 64.144C344.46 62.331 343.785 62.0452 345.26 61.9002L343.366 64.6259ZM530.119 228.183C527.216 229.313 518.824 228.473 515.357 227.628L512.185 226.732C511.389 226.314 512.022 226.724 511.522 226.122C512.185 225.773 511.043 225.845 512.565 225.892L525.972 227.167C526.596 227.193 527.939 227.193 528.499 227.274C530.687 227.594 529.636 227.227 530.119 228.183ZM441.007 116.966C440.691 115.213 439.387 113.857 438.369 112.24L432.944 103.244C432.303 101.409 432.709 99.3149 430.477 98.9864C431.118 101.371 431.46 103.009 432.016 106.021L433.56 106.157C434.44 108.422 437.014 113.025 438.574 114.915C439.622 116.182 439.37 116.604 441.007 116.966ZM70.4789 221.161C68.0771 220.342 69.4729 222.113 66.5029 221.938C64.6018 221.827 63.3756 220.658 61.6412 221.682C63.966 224.096 68.6025 222.582 69.626 222.624C70.5592 222.663 71.1274 222.872 71.7495 222.62C73.0803 222.083 73.7879 220.018 74.2466 218.708C74.5865 217.74 75.3342 215.629 75.2081 214.601C74.9584 212.557 75.0696 213.918 74.6463 213.513C73.6455 215.693 73.0688 218.261 71.9918 220.628L71.9158 218.704C70.9752 219.246 71.0235 219.229 70.4772 221.161H70.4789ZM359.924 141.341C360.544 143.649 360.522 148.815 361.92 150.201C363.63 147.646 360.612 139.008 360.873 137.37C361.258 134.964 361.865 135.232 361.245 133.257C361.203 133.155 361.153 133.057 361.095 132.963C360.403 133.445 360.89 132.831 360.415 133.59L359.407 136.695C358.355 140.313 359.338 139.17 359.924 141.341ZM411.004 172.161C410.747 171.982 411.068 171.794 409.165 171.431C405.591 170.749 394.348 169.124 392.368 170.514C393.976 171.632 404.959 172.186 408.498 172.613C410.747 172.886 410.371 172.737 411.004 172.161ZM381.321 162.525C380.616 163.809 380.107 164.751 379.615 165.69C380.936 164.79 382.792 162.691 384.416 163.604C383.715 164.5 383.07 164.67 382.326 165.378C380.983 166.667 377.315 170.578 375.686 170.723C375.28 169.256 375.93 169.055 376.901 168.189C377.384 167.759 377.589 167.66 378.025 167.272L378.7 166.547C378.744 166.434 378.816 166.334 378.91 166.257C377.444 166.991 376.973 167.912 375.413 167.221C375.78 165.788 375.019 166.696 376.849 165.656C380.201 163.749 379.654 163.181 381.321 162.525ZM464.178 231.783C466.53 231.578 464.538 231.284 466.607 230C467.353 230.771 467.848 231.75 468.026 232.807C469.681 232.534 468.988 233.024 470.108 231.638C470.796 230.793 470.788 230.67 471.288 229.445L473.614 230.051C474.413 229.236 475.17 228.908 475.294 227.253C472.814 227.44 474.978 226.92 473.199 228.515C471.694 227.022 473.49 227.406 471.386 226.498C470.685 228.166 470.373 229.13 469.078 230.618L467.838 229.433C466.936 228.221 467.932 228.87 466.607 227.918C465.354 228.477 464.307 230.328 464.178 231.783ZM416.758 233.95C415.903 233.519 411.5 234.594 407.656 234.795C405.673 234.897 402.274 235.08 400.371 235.759C398.721 236.347 399.221 235.951 399.119 237.149C404.142 235.938 415.005 236.689 416.758 233.95ZM432.598 187.573C431.113 187.71 429.726 188.371 428.686 189.437L427.865 187.906C426.595 188.392 427.446 187.82 426.514 189.245C425.783 188.307 426.309 188.819 425.39 188.268L424.907 188.605C422.483 189.8 424.282 188.319 422.572 189.463C422.842 191.553 423.816 191.152 425.09 191.186C426.886 191.237 426.296 191.796 428.019 192.321C430.913 188.349 432.303 190.546 432.598 187.573ZM424.565 166.283C425.719 164.956 424.774 164.935 425.749 160.959C426.813 161.966 426.878 162.307 426.582 164.303C426.352 165.856 425.766 166.611 426.625 167.976C427.053 167.818 427.57 168.275 428.006 165.741C428.476 163.024 427.72 158.472 423.487 159.551C423.62 162.03 423.547 165.34 424.565 166.283ZM398.849 201.569L391.594 208.053C386.092 207.541 386.4 206.973 384.224 206.645C384.78 208.257 384.716 208.091 386.58 208.466C388.568 208.863 395.823 210.015 397.734 209.597C398.7 209.384 397.964 209.61 398.524 209.162L392.595 208.112C392.843 208.1 398.02 204.397 398.849 201.569ZM74.9109 201.957C73.6741 202.136 73.4227 202.75 72.9739 204.269C72.6634 205.563 72.4539 206.88 72.3471 208.206C70.7602 208.539 70.463 207.682 68.4657 207.537C68.0336 208.169 67.7801 208.906 67.7321 209.669C67.3768 211.96 67.6038 211.883 68.054 212.549C69.2314 211.768 69.1655 210.604 69.3229 209.175C71.1364 209.584 71.6314 210.147 72.9995 210.446C74.2846 208.735 74.2196 203.962 74.9109 201.957ZM381.223 97.4593C380.757 98.1717 381.531 97.0242 379.761 96.171L379.393 98.0437C376.392 96.6062 374.382 97.9797 373.288 98.193L371.001 98.8456C371.279 99.3106 370.637 99.5495 372.373 99.8524C374.391 100.206 372.523 98.85 378.363 99.6434C379.987 99.8609 382.082 99.5538 382.783 97.3868C383.39 95.4928 382.792 95.9449 382.467 95.6164L381.304 97.7238C381.338 97.6811 381.266 97.3868 381.223 97.4593ZM63.9323 164.158C65.2576 164.551 65.2456 164.79 66.1045 165.434C67.0369 163.762 65.6872 164.495 67.1883 163.629C67.8458 166.406 67.3593 167.345 65.0665 166.3L64.981 168.842L62.2825 168.155C61.3017 169.81 61.4399 171.781 59.7824 171.461C59.4908 170.868 58.4964 172.6 60.1034 169.196C60.7233 167.882 60.5271 167.857 60.5673 166.18L63.7527 166.918C63.6672 165.54 63.4817 165.165 63.9314 164.158H63.9323ZM295.749 45.187C294.278 44.5514 292.688 43.3399 291.679 42.5764L286.215 38.5665C284.924 37.6323 282.094 35.9602 281.662 34.5909C283.035 34.2198 288.096 38.0717 289.152 38.9334C290.123 39.7269 290.29 39.6885 291.055 40.3369C292.688 41.7275 294.74 43.4337 295.749 45.187ZM438.579 214.067C439.152 212.758 437.206 208.902 435.693 208.496C434.996 209.213 434.727 210.698 434.368 211.828C432.162 210.749 431.473 211.563 431.465 214.225C432.948 213.726 432.281 213.931 433.26 212.971C434.573 214.144 433.987 213.692 436.214 213.786L436.279 211.397C436.621 211.836 436.8 212.489 437.172 213.137C438.053 214.643 437.283 213.918 438.579 214.067ZM84.1278 176.776C85.3052 179.779 85.6861 191.348 83.7157 193.438C82.7392 191.745 83.4682 187.317 83.5644 185.154L83.9423 176.994C83.9569 176.947 83.9809 176.904 84.0128 176.866C84.0447 176.829 84.0838 176.798 84.1278 176.776ZM388.298 156.173C386.627 156.574 388.328 155.951 386.648 157.086C382.39 154.518 385.84 158.327 378.405 155.669C375.434 154.612 375.763 155.503 375.52 155.687C375.887 156.13 375.55 155.908 376.135 156.322C376.264 156.412 376.785 156.698 376.922 156.762C377.526 156.997 378.146 157.188 378.777 157.333C383.925 158.72 383.775 157.794 384.895 157.99C385.37 158.071 388.931 160.831 388.298 156.173ZM432.397 183.094C433.38 180.769 427.797 173.377 425.804 171.807L424.124 172.98C423.167 173.957 423.41 174.055 423.568 175.194C425.073 174.631 424.351 174.349 425.804 173.829C427.886 175.642 429.874 179.524 431.341 181.844C431.413 181.955 431.606 182.279 431.683 182.377C432.243 183.107 431.721 182.561 432.397 183.094ZM61.3633 183.84C59.7631 188.648 58.9927 190.307 60.1688 196.053C60.2435 196.09 60.3207 196.121 60.3997 196.147L61.6002 196.467C61.0059 197.973 61.324 197.862 59.8106 198.25C56.9821 194.496 58.4746 186.084 61.047 182.928C61.6027 183.273 61.7053 182.006 61.3633 183.84ZM237.102 209.674C236.097 208.057 235.135 205.724 234.233 203.813C233.785 202.861 233.361 202.102 232.797 201.121C231.963 199.671 232.156 198.971 231.677 197.909C230.116 199.85 233.81 207.328 235.123 209.896C235.986 211.585 234.952 210.697 236.623 210.889L237.102 209.674ZM353.16 223.384L352.596 220.334C352.224 219.557 352.481 220.044 352.028 219.557C351.361 220.624 351.574 220.76 351.758 223.226C351.882 224.89 351.938 225.299 352.643 226.754L354.358 226.08C354.909 223.384 354.635 219.063 352.853 217.489C352.194 218.308 352.789 222.373 353.16 223.384ZM155.835 228.183C156.882 229.765 166.429 228.23 169.058 227.795C171.038 227.47 169.815 228.247 170.602 226.903C168.832 226.225 157.708 227.189 155.835 228.183ZM426.826 106.051C427.801 105.628 427.891 106.063 428.476 104.378C429.199 102.305 428.84 98.7177 428.421 96.636C427.732 93.1893 426.766 90.8688 423.975 90.1436C424.714 91.5897 425.244 91.4403 426.172 93.1082C428.468 97.2332 427.224 101.627 426.826 106.051ZM397.567 235.396C397.893 235.293 398.186 235.104 398.416 234.85C398.645 234.596 398.802 234.285 398.871 233.95C397.815 233.532 397.366 234.347 395.75 234.27C394.45 234.21 393.42 233.476 392.27 233.323C390.577 233.101 390.256 233.707 388.871 234.099C386.776 234.688 386.9 233.831 385.207 233.745C385.306 237.721 390.081 235.187 391.312 234.859C393.471 234.287 393.711 235.174 395.429 235.511C396.37 235.695 396.69 235.733 397.567 235.396ZM338.112 130.66L338.937 134.256C338.874 134.258 338.812 134.275 338.756 134.305C338.7 134.335 338.652 134.378 338.616 134.43C338.488 135.015 338.039 133.965 337.868 136.312C337.795 137.267 338.065 137.101 337.633 138.099C337.146 139.234 336.406 140.172 337.385 143.107C337.825 144.425 337.753 143.896 338.013 144.271C338.856 143.192 338.368 142.45 338.454 141.742C338.625 140.338 339.091 141.362 339.163 139.221C339.211 137.967 338.92 138.555 339.317 137.297C339.736 135.958 340.472 134.776 339.317 131.734C338.531 129.67 339.258 130.847 338.112 130.66ZM115.874 207.601C114.599 209.051 115.485 210.326 112.716 214.737C111.342 216.93 107.77 219.779 108.437 220.419C109.828 221.746 116.623 214.4 115.874 207.601ZM377.558 197.005C377.177 195.597 376.694 195.145 376.309 193.592L373.898 184.485C373.526 182.97 373.612 183.384 373.047 182.932C372.004 184.817 373.663 188.243 374.176 190.405C374.933 193.63 374.334 196.689 377.558 197.005ZM353.92 116.966C353.95 119.074 353.211 122.397 354.087 124.018C355.626 123.156 355.404 120.891 355.434 118.204L355.284 115.738C355.238 115.411 355.121 115.098 354.942 114.821L354.6 112.88C354.279 111.741 354.63 112.522 354.087 111.882L352.484 116.544C354.01 117.756 352.497 116.787 353.92 116.966ZM299.306 43.5702C297.899 43.1223 286.574 35.299 285.732 33.2984C287.618 33.4477 293.141 37.9694 294.911 39.3472C296.044 40.2387 298.951 42.4185 299.306 43.5702ZM54.0203 162.529C53.3837 164.201 52.3931 164.15 50.6305 165.046C44.6939 168.061 47.386 165.412 45.0428 166.85C44.4502 167.213 44.2361 167.618 43.7739 168.074C42.4567 169.384 42.5115 169.58 41.7941 171.346C41.2665 170.715 41.3238 171.363 41.3345 170.22C41.3773 166.556 46.0372 165.412 48.2505 164.798C50.1375 164.278 49.8605 163.275 54.022 162.529H54.0203ZM413.863 163.514L412.311 162.934C409.938 162.542 401.336 160.891 399.848 161.095C398.134 161.33 399.712 161.027 398.857 161.454C400.105 162.635 404.248 162.9 405.979 163.173C408.245 163.531 411.93 164.38 413.863 163.514ZM491.124 231.22C490.337 229.322 483.976 230.486 481.034 230.721C480.833 230.738 479.085 230.836 479.063 230.844C477.34 231.331 478.508 230.606 478.243 231.89C480.457 232.542 488.435 231.548 491.124 231.22ZM199.073 135.074C199.5 133.159 199.642 131.299 200.766 130.101C201.168 130.689 201.117 129.346 201.155 131.325C201.181 132.699 201.198 131.163 200.98 132.344C198.393 146.357 193.733 139.084 193.515 137.736C195.867 137.877 193.592 139.276 197.055 139.558C198.427 138.099 198.577 137.284 199.073 135.074ZM388.169 102.553C387.361 102.13 377.455 102.117 375.347 105.022C375.469 105.032 375.583 105.089 375.664 105.18C375.702 105.225 375.751 105.26 375.807 105.28C375.862 105.301 375.922 105.308 375.98 105.3C377.814 105.496 379.836 104.029 381.773 103.875C383.252 103.756 383.611 104.344 386.813 103.521C388.635 103.052 387.716 103.474 388.169 102.553ZM201.343 238.267C201.283 238.337 201.24 238.42 201.219 238.51C201.198 238.604 201.152 238.691 201.087 238.762C199.77 240.587 200.219 239.163 199.68 240.536C201.843 241.718 202.822 239.201 202.827 239.197L211.42 237.499C213.096 236.906 210.928 237.631 212.164 236.829C210.295 235.993 203.729 237.742 201.343 238.267ZM98.5591 217.471L93.2861 217.54C91.3195 218.329 92.6312 217.732 92.069 218.939C96.5498 218.559 103.414 219.992 104.53 215.688C102.205 216.375 101.873 217.565 98.5591 217.471ZM329.676 49.0048C327.846 49.7086 324.114 48.0195 322.399 47.29C321.044 46.7142 316.41 45.0974 315.478 44.4746C315.709 44.2955 315.418 43.9286 317.265 44.1974L329.124 48.4076C329.783 48.783 329.368 48.5782 329.676 49.0048ZM371.799 217.531C369.546 219.276 372.782 219.391 369.956 220.769L370.217 225.939C371.803 226.063 371.158 226.212 372.321 225.854C372.577 223.328 372.624 219.528 371.799 217.531ZM268.446 18.6199L269.549 16.5298C270.469 17.8863 268.964 20.0106 267.946 21.0088L265.886 19.3665C265.078 20.7187 265.616 21.495 263.876 22.1349L265.526 16.9692C266.651 17.4768 266.134 17.4683 267.215 18.603L268.267 15.1434C269.1 16.0861 269.053 13.1683 268.446 18.6199ZM389.802 181.243L387.916 183.734C386.993 184.817 386.702 185.461 385.655 186.417L381.807 189.557C380.422 190.798 381.234 189.539 380.777 191.254C384.013 190.687 385.155 188.302 387.724 185.589C388.108 185.139 388.458 184.662 388.771 184.16C390.661 181.665 391.217 182.143 389.802 181.243ZM265.843 98.5172C266.198 95.9833 267.335 96.3716 269.592 94.3155C270.316 93.6626 271.006 92.9719 271.657 92.2466C271.964 91.8682 272.243 91.4675 272.491 91.0479C273.094 90.2459 272.722 90.4379 273.718 90.1009C273.872 90.4507 274.787 90.1862 272.858 92.6347C271.281 94.6439 268.391 98.1034 265.843 98.5172ZM342.548 52.571C342.894 53.0786 342.005 56.6788 341.903 57.9884C341.83 58.9695 341.702 59.8397 341.608 60.8464C341.569 61.2304 341.573 61.8958 341.501 62.2328C341.137 63.841 341.184 63.0732 340.898 63.4529L340.573 62.9026C340.472 62.7057 340.393 62.4983 340.338 62.284C340.317 62.2201 340.03 61.0854 340.013 60.919C339.957 60.4541 340.064 53.8635 340.688 53.0061L340.825 56.6149C342.21 54.7934 341.492 53.9915 342.548 52.571ZM202.878 203.505C202.707 203.776 202.566 204.065 202.459 204.367C201.54 206.858 201.142 209.277 198.757 212.178C197.726 213.432 197.017 213.223 196.337 214.588C199.573 215.804 203.511 207.234 203.344 203.036C203.236 203.078 203.148 203.161 203.1 203.267C203.054 203.368 202.976 203.452 202.878 203.505ZM426.624 230.674C426.632 230.674 430.318 233.852 430.279 229.032C429.411 229.326 429.95 229.177 429.339 229.642C428.702 230.124 429.074 230.047 428.129 230.414L427.141 228.678C423.229 230.806 425.196 230.179 420.664 229.202C421.793 231.617 424.418 232.052 426.624 230.674ZM392.884 219.156C390.041 223.333 393.102 219.318 390.529 221.788C390.323 221.985 390.02 222.526 389.849 222.731C389.797 222.795 389.721 222.893 389.665 222.953L389.007 223.486C388.352 224.13 388.677 223.38 388.378 224.429C389.143 225.077 387.998 225.355 389.52 224.962C390.811 224.629 389.9 225.022 390.405 223.938L391.089 224.51C391.285 224.616 391.512 224.649 391.73 224.604C392.192 223.695 394.492 218.491 394.581 217.928C394.227 218 393.892 218.147 393.6 218.359C393.307 218.571 393.063 218.843 392.884 219.156ZM265.757 33.5927C265.488 33.5842 264.894 33.5032 264.881 33.5032C263.111 33.469 264.235 33.934 262.359 32.987C262.264 32.9401 262.115 32.8504 261.987 32.795C261.273 33.9894 261.114 33.8785 259.738 34.2497C260.02 32.6031 261.478 31.7797 262.589 30.9863C263.821 31.4427 262.897 30.9565 263.825 31.9632C264.427 31.5197 264.98 31.0135 265.475 30.4531C266.074 31.0503 265.988 30.6536 266.116 31.8992C267.647 30.2911 266.253 30.8029 268.049 30.0308C267.544 32.1978 266.668 32.2021 265.757 33.5927ZM418.664 184.881C419.047 183.348 419.019 181.742 418.582 180.223C418.57 180.219 418.736 179.118 417.851 180.283C417.308 181.008 417.689 180.377 417.573 181.294C416.8 179.562 417.881 180.509 416.376 180.027L416.137 186.148L417.535 185.747C418.056 185.619 418.069 186.703 418.664 184.881ZM279.9 15.1904C279.177 14.0386 279.096 11.3383 279.006 9.66191C277.68 10.2621 276.304 10.7446 274.893 11.1038C275.321 8.98371 276.834 9.20121 278.908 9.34198C278.677 7.73379 278.001 5.40903 278.664 3.96721C279.733 5.28959 280.772 13.7998 279.9 15.1904ZM60.5117 232.299C59.3305 231.506 59.5712 232.111 58.1227 232.18C56.7218 232.244 56.2079 231.681 55.0142 232.018C54.1515 232.261 54.1857 232.751 52.3465 233.037C52.149 233.067 50.9242 233.216 50.8502 233.242C48.9969 233.907 50.1923 233.391 49.8408 234.359C52.2294 235.247 54.1887 233.984 55.6914 233.105C57.7264 233.383 59.4536 233.784 60.5138 232.299H60.5117ZM235.704 201.407C235.845 203.386 235.905 202.128 236.183 203.066C236.696 204.815 234.618 204.299 236.717 205.024C237.854 205.416 238.269 205.075 238.855 204.832C239.004 203.629 238.372 203.416 237.406 202.729C238.385 201.944 238.248 202.371 239.171 201.057C240.95 198.527 239.603 198.937 239.509 198.822C236.696 201.744 239.385 199.568 235.704 201.407ZM289.4 43.8732C287.955 43.6087 286.822 42.9688 285.672 42.3929L284.847 43.8604C283.411 43.9116 281.799 43.7451 280.67 42.828C281.333 42.3246 279.726 42.3545 281.936 42.3161C282.542 42.4237 283.141 42.5647 283.731 42.7384L284.022 40.8999C285.737 40.87 288.533 42.0133 289.4 43.8732ZM316.343 223.081C318.749 222.232 314.547 223.26 316.958 222.902C316.924 224.476 316.809 224.365 315.757 225.261C314.65 224.727 315.248 224.783 314.102 224.241L312.461 225.337C311.264 224.774 311.704 224.557 310.387 224.356C308.733 224.105 309.37 224.907 308.01 224.062C309.267 222.386 310.823 223.072 312.461 223.81C313.431 223.264 313.824 222.936 314.97 223.205L316.343 223.081ZM301.619 42.9134C299.785 42.4527 299.246 40.6653 297.036 38.8907L293.496 36.2631C292.286 35.2222 293.154 36.4977 292.573 34.8938C296.185 35.6829 300.405 40.3412 301.619 42.9134ZM33.7473 175.706C34.2176 174.144 34.3536 172.169 33.4331 170.907C32.9915 171.384 33.0637 171.039 32.7799 171.948C32.6807 172.268 32.5785 173.172 32.4562 173.692C31.8402 173.867 28.3777 173.197 29.8484 177.749L31.1638 175.266C33.841 175.083 31.8855 175.467 33.7469 175.706H33.7473ZM276.545 28.8237L275.249 29.5403C275.711 32.3685 276.767 33.3709 273.843 33.9809C274.822 31.1484 274.343 32.2746 273.988 29.2332L275.305 27.6164L274.587 25.7353C276.1 26.1533 276.357 27.1515 276.545 28.8237ZM232.113 220.901L235.401 220.965C234.259 219.502 232.528 219.579 230.471 219.609C230.163 221.686 230.578 223.618 232.609 224.109C232.69 222.01 232.361 222.599 232.113 220.901ZM362.22 224.77C360.548 224.096 357.675 224.164 357.047 225.709C359.094 226.519 359.351 225.026 361.262 225.551C362.818 225.977 360.582 225.747 362.767 226.097L364.267 223.089C364.417 221.345 364.297 222.313 363.981 221.823C362.75 222.701 363.271 222.475 362.22 224.77ZM195.184 210.642C194.119 212.318 193.393 212.25 192.785 214.259C195.637 213.709 197.437 210.625 197.715 207.063C196.325 207.805 196.116 209.179 195.184 210.642ZM183.739 179.404C181.649 179.302 180.071 177.169 177.485 176.068L175.428 175.045C178.199 173.466 183.461 178.346 183.739 179.404ZM205.731 221.114C204.884 221.2 204.098 221.285 203.247 221.357C203.067 221.37 202.34 221.404 202.208 221.434C200.361 221.857 201.695 221.558 201.041 222.002C202.285 222.654 204.204 222.548 205.726 222.479C206.5 222.461 207.269 222.372 208.026 222.215C210.002 221.682 209.1 221.358 209.407 220.769C208.51 220.295 207.402 220.94 205.731 221.114ZM117.512 174.311C116.281 173.526 114.365 168.138 113.999 166.517C115.4 167.08 114.876 166.364 115.784 168.155L117.56 172.11C117.995 173.398 117.888 173.513 117.512 174.311ZM368.085 197.619C368.139 197.632 368.19 197.655 368.235 197.688C368.28 197.721 368.317 197.763 368.346 197.811L370.171 199.316C370.902 200.409 370.385 200.959 370.988 202.277C375.22 201.722 369.855 197.128 368.521 196.181L368.085 197.619ZM328.728 60.3645C326.898 60.4327 324.931 60.4583 324.983 58.206C327.39 59.234 325.821 60.0573 329.044 58.8629L330.472 60.8167C330.891 59.7801 330.66 59.4772 331.413 58.5302C331.733 60.6375 331.75 60.9745 330.617 62.0622C329.579 61.7508 330.301 62.54 328.728 60.3645ZM410.854 184.915L410.991 179.988C409.097 180.453 408.952 182.126 408.272 185.09L410.854 184.915ZM109.166 213.044C107.192 213.172 107.108 215.56 104.951 217.685C103.856 218.764 103.943 217.851 103.636 219.395C106.641 219.536 108.04 215.42 109.166 213.044ZM285.339 235.669C286.05 235.833 286.722 236.133 287.318 236.552L288.554 234.846C290.367 235.2 289.571 234.76 290.337 236.006L289.443 236.467C288.404 237.239 288.866 237.354 288.31 238.459C286.519 238.088 285.074 237.717 285.339 235.669ZM169.546 175.906C167.181 176.939 170.123 176.683 167.327 177.177L168.207 174.652C169.794 174.847 171.266 175.577 172.38 176.721L173.791 175.232C174.24 177.084 173.979 176.683 172.688 178.022L169.546 175.906ZM190.314 222.228L190.088 219.229C189.147 219.873 189.622 219.246 189.267 220.321C187.258 220.381 184.71 220.701 183.594 222.002C184.791 222.693 187.211 221.673 188.814 221.417C189.199 221.844 189.331 222.33 190.314 222.228ZM147.31 234.522C147.545 233.029 147.353 233.519 146.618 233.378L146.041 236.727C148.666 236.061 148.2 235.848 148.572 234.91C149.974 231.344 148.943 231.476 148.717 231.275C147.994 231.954 147.849 233.302 147.31 234.522ZM141.671 212.412L137.819 216.964C141.026 217.262 143.048 212.425 143.309 211.107C141.727 211.845 143.035 210.719 141.671 212.412ZM145.797 210.757C143.433 214.294 142.552 214.481 142.796 216.072C144.365 215.053 144.288 215.296 145.395 213.628C146.195 212.425 147.058 211.111 147.374 209.409C145.882 210.096 146.968 209 145.797 210.757ZM160.418 206.445C158.964 206.423 157.494 206.7 156.741 207.52L154.621 206.615C155.078 208.074 155.566 208.253 157.079 209.068C158.439 207.929 157.391 208.211 159.311 207.788C162.534 207.084 161.252 207.093 161.778 206.764C161.209 206.517 161.837 206.462 160.418 206.445ZM74.8874 153.891C73.5835 153.464 73.5044 154.313 71.6836 154.578C72.6994 152.048 73.0696 153.195 72.8751 149.68C73.9307 150.137 73.5856 150.005 74.262 150.73C75.2316 151.775 74.9755 151.481 74.8874 153.891ZM68.054 190.823C68.8834 191.685 69.3733 193.613 68.8778 194.803C68.6593 195.068 66.2943 195.823 64.9066 194.407C65.3905 194.057 64.6809 193.865 67.455 193.728L68.054 190.823ZM43.9689 196.97C44.3365 193.865 44.036 194.535 43.8915 191.352C45.487 192.129 44.6315 191.421 45.4447 193.549C45.9 194.739 46.0299 194.59 46.1714 196.181L43.9684 196.97H43.9689ZM50.4163 226.933C50.7921 225.747 50.4394 225.632 50.2256 224.288C51.4693 224.582 51.1529 224.412 51.8882 225.239L52.3918 223.311C52.7116 223.631 53.0759 222.842 53.0618 225.692C53.0841 226.523 53.0014 227.354 52.8155 228.166C51.7818 227.637 52.3025 228.609 51.8472 226.788L50.4163 226.933ZM389.944 214.716C389.995 214.611 390.079 214.525 390.184 214.473L390.85 213.389C391.124 212.587 391.013 212.69 391.004 211.883C388.91 210.962 389.529 212.301 387.135 211.414C386.879 213.914 387.443 211.909 389.145 213.807C389.931 214.682 388.243 213.701 389.944 214.716ZM52.3918 159.475C54.8308 160.178 53.2469 159.641 54.9818 159.632C54.9364 159.833 55.4674 160.379 54.4687 161.023C53.3469 161.744 53.8771 161.096 53.1669 161.283C51.4996 161.723 53.1533 162.375 50.3329 162.725C50.5638 161.258 51.2611 160.746 52.3936 159.475H52.3918ZM308.609 230.324C308.109 231.399 309.088 230.891 307.587 231.553C307.343 231.659 306.347 231.907 305.962 232.03C304.5 232.491 304.167 232.888 302.812 232.299C303.714 230.798 306.766 229.893 308.609 230.324ZM392.65 72.6754C392.255 72.3764 391.844 72.0987 391.419 71.8435L389.79 71.3701C389.136 71.0715 389.136 70.8241 388.388 70.3293C387.73 69.8899 387.969 70.2567 387.272 69.5997C388.713 68.5376 390.41 70.6449 390.761 69.7832C390.8 69.7455 390.849 69.7181 390.902 69.704C390.955 69.6898 391.011 69.6892 391.064 69.7021C391.77 70.9605 392.578 71.4809 392.774 70.6875C392.796 70.6065 392.911 70.6193 393.091 70.6236L392.65 72.6754ZM343.785 224.565C341.027 224.301 340.322 223.465 340.348 226.592C344.234 224.851 345.204 226.685 345.298 223.789C344.401 223.921 344.371 224.071 343.785 224.565ZM389.628 159.368C391.966 159.398 391.953 156.582 392.129 154.313C390.585 154.731 390.821 154.428 390.26 156.412C389.963 157.377 389.752 158.366 389.628 159.368ZM47.9251 229.335C47.7733 227.547 47.6135 225.342 48.3954 223.806C49.7207 225.926 47.9628 226.063 49.6544 228.447C50.4449 229.565 49.9764 228.439 50.5428 229.987L47.9234 229.335H47.9251ZM204.495 179.963C202.986 178.948 203.721 178.325 202.845 177.075C202.075 175.979 201.639 176.439 200.4 175.458C201.092 175.01 199.301 175.006 201.507 175.108C203.123 175.181 205.573 177.164 204.495 179.963ZM351.613 114.535C352.942 113.925 352.519 113.835 353.088 112.249C354.375 108.64 353.601 109.979 353.263 109.497C351.861 110.35 350.826 112.765 351.613 114.535ZM341.16 166.961C342.904 167.055 344.627 163.843 344.794 162.448C342.451 163.019 341.16 166.01 341.16 166.961ZM354.358 85.2337C354.152 86.2447 353.357 89.1283 355.636 88.4842C356.542 88.2325 356.538 87.3922 356.209 86.4964C355.704 85.1271 355.854 85.4385 354.358 85.2337ZM32.2651 225.7L31.7846 224.348L29.8774 224.262L29.9022 227.048L32.2617 227.086C32.2975 226.625 32.2986 226.162 32.2651 225.7ZM159.397 192.38C159.431 192.291 159.563 192.368 159.645 192.346C159.944 190.269 159.858 190.909 160.376 190.384C160.876 191.259 160.983 192.973 160.179 193.822C159.273 194.778 160.431 193.89 157.588 194.309C157.746 193.831 157.87 192.811 158.379 192.636C158.426 192.624 158.576 192.551 158.636 192.534L159.397 192.38ZM415.087 172.447C415.861 171.252 415.647 170.536 415.322 169.094C414.087 168.949 413.685 169.704 412.449 170.514L413.958 171.342C415.053 172.182 413.501 171.845 415.087 172.447ZM349.561 134.691C349.108 132.558 347.377 131.709 345.307 132.408C346.09 134.332 344.897 132.971 347.218 133.786C348.954 134.4 347.68 134.452 349.561 134.691ZM392.92 91.2015L394.481 90.4806C395.759 90.7707 395.254 90.7962 396.43 90.9925L396.994 88.5525C396.443 87.9169 397.05 88.3434 395.896 88.1429L395.716 89.3715C394.348 89.9431 393.587 88.9321 392.92 91.2015ZM350.322 73.7588L346.868 73.7205C347.171 72.4749 347.586 72.0867 348.732 71.3359C349.775 72.2317 349.86 72.4834 350.322 73.7588ZM212.892 211.397C212.836 211.448 212.751 211.546 212.695 211.598C212.691 211.602 212.097 212.063 212.033 212.118C213.944 213.5 215.483 213.47 215.128 210.497C213.02 210.715 213.987 210.361 212.892 211.397ZM391.847 171.982C392.046 171.51 392.166 171.008 392.202 170.497C392.24 167.989 391.967 169.162 391.595 168.65C390.839 169.386 390.351 170.353 390.21 171.397C390.83 171.734 391.018 171.982 391.847 171.982ZM346.641 83.6042C346.338 82.4567 343.803 81.9704 343.054 84.0179C343.622 84.3263 344.271 84.4521 344.913 84.3781C345.556 84.304 346.159 84.0337 346.641 83.6042ZM374.934 161.27C373.972 162.047 373.985 162.392 374.348 163.425C375.426 162.851 376.363 162.047 377.093 161.07C376.311 160.532 376.187 160.259 374.934 161.27ZM270.064 54.8062C270.751 54.5274 271.468 54.3285 272.201 54.2133C272.24 55.8215 269.833 56.2736 268.337 56.5424C268.773 55.5143 268.815 55.3352 270.064 54.8062ZM395.72 70.8411C396.113 71.9886 396.075 74.659 393.835 74.4884C394.283 73.0679 394.698 71.9161 395.72 70.8411ZM425.39 182.463C425.997 182.3 425.894 183.542 426.591 181.507C426.92 180.547 426.561 180.142 426.236 179.536C425.142 180.163 424.757 180.654 425.39 182.463ZM319.805 222.68C319.835 222.586 319.977 222.727 320.066 222.748C319.746 223.943 318.874 225.866 316.967 224.885L319.557 222.659C319.596 222.642 319.776 222.77 319.805 222.68ZM327.21 226.195C326.962 227.138 327.056 227.573 326.201 227.952C324.927 228.52 325.017 227.675 324.82 226.946C325.566 226.556 326.375 226.302 327.21 226.195ZM306.193 41.0791C304.594 40.9511 304.624 40.9852 304.021 39.9444C305.129 39.3216 304.492 39.9316 305.201 39.5519C306.283 38.9718 304.851 39.4027 306.215 38.9334L306.193 41.0791Z" fill="#254E92"/>
</svg>
